<svg width="323" height="261" viewBox="0 0 323 261" fill="none" xmlns="http://www.w3.org/2000/svg">
    <rect width="320.369" height="258.842" rx="10" transform="matrix(0.999985 -0.0054928 -0.00539025 0.999985 1.82626 1.89853)" fill="white"/>
    <path d="M93.9146 136.978C93.7976 158.685 76.4342 176.377 55.1324 176.494C33.8306 176.611 16.657 159.109 16.774 137.402C16.891 115.695 34.2544 98.0027 55.5561 97.8857C76.8579 97.7687 94.0316 115.271 93.9146 136.978ZM20.631 137.381C20.5257 156.917 35.982 172.669 55.1536 172.564C74.3252 172.458 89.9523 156.536 90.0576 136.999C90.1629 117.463 74.7066 101.711 55.535 101.816C36.3633 101.921 20.7363 117.844 20.631 137.381Z" fill="#CDD2FD"/>
    <path d="M55.5456 99.8509C55.5514 98.7655 56.4368 97.8755 57.5204 97.9259C66.2039 98.3293 74.4892 101.716 81.0102 107.567C88.0213 113.858 92.511 122.565 93.637 132.054C94.763 141.543 92.4479 151.162 87.126 159.107C82.1785 166.493 74.9487 171.96 66.6366 174.645C65.5952 174.982 64.5184 174.345 64.2575 173.289V173.289C64 172.245 64.6357 171.186 65.6624 170.849C73.0781 168.415 79.5259 163.517 83.9478 156.915C88.7375 149.765 90.8211 141.107 89.8077 132.567C88.7944 124.027 84.7536 116.191 78.4436 110.53C72.6239 105.308 65.2427 102.267 57.499 101.862C56.4158 101.805 55.5397 100.936 55.5456 99.8509V99.8509Z" fill="#0066FF"/>
    <path d="M48.4554 138.962L47.0154 138.97L47.0031 141.25L45.0232 141.261L45.0355 138.981L40.3555 139.007L40.3639 137.462L45.0794 130.821L47.0594 130.81L47.0246 137.275L48.4645 137.267L48.4554 138.962ZM45.0446 137.286L45.0644 133.611L42.6746 137.299L45.0446 137.286ZM54.0459 134.507C54.7659 134.503 55.4001 134.644 55.9486 134.931C56.497 135.208 56.9199 135.606 57.2171 136.124C57.5143 136.632 57.6612 137.217 57.6576 137.877C57.6539 138.567 57.4856 139.177 57.1527 139.709C56.8299 140.241 56.3777 140.653 55.7961 140.947C55.2146 141.24 54.5588 141.388 53.8288 141.392C52.5288 141.4 51.5313 140.955 50.8361 140.059C50.141 139.163 49.7978 137.905 49.8065 136.285C49.8128 135.115 49.9983 134.104 50.3629 133.252C50.7274 132.4 51.2459 131.747 51.9183 131.293C52.5908 130.83 53.387 130.595 54.307 130.59C55.357 130.584 56.3305 130.859 57.2275 131.414L57.2177 133.229L57.1577 133.229C56.7394 132.912 56.2857 132.674 55.7966 132.517C55.3075 132.35 54.853 132.267 54.433 132.269C53.743 132.273 53.1867 132.521 52.764 133.014C52.3515 133.496 52.0877 134.197 51.9727 135.118C52.2839 134.906 52.6047 134.754 52.9351 134.663C53.2757 134.561 53.6459 134.509 54.0459 134.507ZM53.8079 139.713C54.3179 139.71 54.7387 139.542 55.0705 139.211C55.4123 138.879 55.5846 138.448 55.5875 137.918C55.5902 137.418 55.4374 137.009 55.1291 136.69C54.8309 136.362 54.4068 136.199 53.8568 136.202C53.2468 136.206 52.5957 136.409 51.9036 136.813C51.9485 137.763 52.1296 138.487 52.4469 138.985C52.7642 139.473 53.2179 139.716 53.8079 139.713ZM61.565 136.805C60.595 136.81 59.8765 136.529 59.4096 135.962C58.9527 135.385 58.7268 134.626 58.7319 133.686C58.737 132.746 58.971 131.99 59.4341 131.417C59.9072 130.834 60.6288 130.541 61.5988 130.535C62.5687 130.53 63.2822 130.816 63.739 131.393C64.206 131.961 64.4369 132.715 64.4318 133.654C64.4267 134.594 64.1877 135.356 63.7145 135.938C63.2515 136.511 62.5349 136.8 61.565 136.805ZM70.0426 130.684L61.7214 141.169L60.2364 141.177L68.5576 130.692L70.0426 130.684ZM61.5719 135.515C61.9819 135.513 62.2878 135.341 62.4896 135C62.6915 134.649 62.7939 134.203 62.7968 133.663C62.7997 133.133 62.6971 132.694 62.489 132.345C62.2908 131.996 61.9918 131.823 61.5918 131.825C61.1918 131.827 60.8859 132.004 60.674 132.355C60.4721 132.706 60.3697 133.147 60.3669 133.677C60.364 134.217 60.4616 134.661 60.6597 135.01C60.8578 135.349 61.1619 135.517 61.5719 135.515ZM68.6803 141.326C67.7103 141.331 66.9918 141.05 66.5249 140.483C66.068 139.905 65.8421 139.147 65.8472 138.207C65.8523 137.267 66.0863 136.51 66.5494 135.938C67.0225 135.355 67.7441 135.061 68.7141 135.056C69.6841 135.051 70.3975 135.337 70.8543 135.914C71.3213 136.482 71.5522 137.235 71.5471 138.175C71.5421 139.115 71.303 139.876 70.8298 140.459C70.3668 141.032 69.6503 141.32 68.6803 141.326ZM68.6872 140.036C69.0972 140.034 69.4031 139.862 69.605 139.521C69.8068 139.17 69.9092 138.724 69.9122 138.184C69.915 137.654 69.8124 137.215 69.6043 136.866C69.4062 136.517 69.1071 136.344 68.7071 136.346C68.3071 136.348 68.0012 136.525 67.7893 136.876C67.5874 137.227 67.485 137.668 67.4822 138.198C67.4793 138.738 67.5769 139.182 67.775 139.531C67.9732 139.87 68.2772 140.038 68.6872 140.036Z" fill="#151522"/>
    <path d="M35.6721 219.814L42.992 219.773L42.9885 220.429L35.6686 220.47L35.6721 219.814ZM43.9133 218.048L50.8012 218.011L50.7982 218.562L43.9103 218.6L43.9133 218.048ZM43.8642 221.224L50.824 221.186L50.821 221.754L43.8611 221.792L43.8642 221.224ZM49.2967 216.635L49.9355 216.839C49.6052 217.281 49.2107 217.747 48.897 218.061L48.394 217.872C48.6998 217.542 49.0867 217.004 49.2967 216.635ZM47.0175 216.487L47.6175 216.484L47.5977 220.164L46.9977 220.167L47.0175 216.487ZM44.7911 216.956L45.3044 216.713C45.6546 217.039 46.0361 217.501 46.1944 217.82L45.6569 218.095C45.4987 217.776 45.1333 217.298 44.7911 216.956ZM48.1077 220.529L48.4613 220.223C48.9243 220.405 49.5388 220.681 49.8657 220.888L49.4879 221.234C49.193 221.019 48.5866 220.727 48.1077 220.529ZM47.0288 220.343L47.6608 220.34C47.4345 222.253 46.8765 223.36 43.9779 223.864C43.9228 223.704 43.7802 223.441 43.6689 223.313C46.3991 222.89 46.8439 221.984 47.0288 220.343ZM46.784 218.257L47.2789 218.462C46.6018 219.418 45.3656 220.2 44.1317 220.567C44.0446 220.408 43.8698 220.184 43.7345 220.057C44.952 219.763 46.1797 219.068 46.784 218.257ZM47.8161 218.235C48.4117 219.048 49.6242 219.681 50.9028 219.938C50.7742 220.051 50.6049 220.283 50.5241 220.444C49.2219 220.123 47.9858 219.394 47.3271 218.43L47.8161 218.235ZM47.6871 221.387C48.1369 222.529 49.2298 223.099 51.005 223.241C50.8682 223.378 50.6988 223.643 50.6259 223.819C48.7712 223.589 47.6709 222.907 47.1345 221.51L47.6871 221.387ZM57.7133 216.437L58.1587 216.922C56.7084 217.354 54.3393 217.583 52.3949 217.674C52.3797 217.522 52.309 217.282 52.2538 217.147C54.1582 217.048 56.4953 216.819 57.7133 216.437ZM52.2533 218.722L58.4932 218.688L58.4901 219.264L52.2502 219.298L52.2533 218.722ZM51.7071 220.605L58.931 220.566L58.9279 221.15L51.704 221.189L51.7071 220.605ZM55.0288 217.299L55.6528 217.296L55.6223 222.96C55.62 223.384 55.491 223.568 55.1865 223.666C54.882 223.764 54.3619 223.783 53.514 223.779C53.4749 223.612 53.3643 223.34 53.2692 223.181C53.933 223.201 54.5731 223.19 54.7491 223.181C54.9331 223.18 54.9974 223.123 54.9983 222.955L55.0288 217.299ZM63.7884 218.795C64.5014 220.079 65.8536 221.512 66.9937 222.225C66.8411 222.346 66.6238 222.579 66.5109 222.748C65.3793 221.938 64.0596 220.41 63.2833 218.998L63.7884 218.795ZM62.9483 218.808L63.4832 219.005C62.7147 220.593 61.3788 222.072 60.0387 222.848C59.9275 222.688 59.7288 222.457 59.5854 222.338C60.9091 221.651 62.2527 220.228 62.9483 218.808ZM59.8544 218.441L66.7423 218.403L66.7391 218.995L59.8513 219.033L59.8544 218.441ZM63.0173 216.407L63.6733 216.404L63.6336 223.756L62.9776 223.759L63.0173 216.407ZM64.1826 216.897L64.6245 216.527C65.1107 216.86 65.7481 217.344 66.0664 217.663L65.6161 218.089C65.3059 217.763 64.6766 217.254 64.1826 216.897Z" fill="#666666"/>
    <path d="M39.2207 198.908C39.6275 199.122 39.9419 199.412 40.1639 199.779C40.394 200.137 40.5078 200.537 40.5055 200.977C40.5028 201.465 40.3645 201.893 40.0905 202.263C39.8166 202.632 39.431 202.918 38.934 203.121C38.4369 203.324 37.8724 203.427 37.2404 203.43C36.7764 203.433 36.3327 203.379 35.9093 203.27C35.4939 203.16 35.0788 202.99 34.6641 202.761L34.6724 201.213L34.7204 201.212C35.5493 201.784 36.3718 202.067 37.1877 202.063C37.6997 202.06 38.1083 201.958 38.4133 201.756C38.7185 201.546 38.872 201.262 38.8739 200.902C38.876 200.51 38.7057 200.195 38.363 199.956C38.0204 199.71 37.5571 199.589 36.9731 199.592L36.4691 199.595L36.4762 198.275L36.9802 198.272C37.5242 198.269 37.9527 198.167 38.2658 197.965C38.5789 197.763 38.7363 197.487 38.7382 197.135C38.7399 196.823 38.6092 196.583 38.3461 196.417C38.091 196.25 37.7315 196.168 37.2675 196.171C36.9075 196.173 36.5432 196.231 36.1746 196.345C35.814 196.459 35.4171 196.637 34.9838 196.879L34.9358 196.879L34.9438 195.391C35.7059 194.995 36.507 194.795 37.3469 194.79C38.2589 194.785 38.9858 194.981 39.5277 195.378C40.0776 195.767 40.3507 196.302 40.347 196.982C40.3448 197.382 40.2429 197.75 40.041 198.087C39.8473 198.416 39.5738 198.69 39.2207 198.908ZM47.87 201.824L47.8624 203.228L42.1745 203.259L42.1809 202.059L44.872 199.237C45.3145 198.778 45.6205 198.397 45.7902 198.092C45.9598 197.787 46.0454 197.494 46.0469 197.214C46.0509 196.478 45.5969 196.113 44.6849 196.118C44.3089 196.12 43.9286 196.178 43.544 196.292C43.1674 196.406 42.8065 196.576 42.4613 196.802L42.4691 195.35C43.1752 194.954 43.9402 194.754 44.7642 194.75C45.6522 194.745 46.3551 194.949 46.8728 195.362C47.3986 195.775 47.6595 196.346 47.6556 197.074C47.6511 197.906 47.2706 198.74 46.5141 199.576L44.45 201.843L47.87 201.824ZM54.1033 198.826C54.5101 199.04 54.8245 199.33 55.0465 199.697C55.2766 200.056 55.3904 200.455 55.388 200.895C55.3854 201.383 55.2471 201.812 54.9731 202.181C54.6991 202.551 54.3136 202.837 53.8166 203.039C53.3195 203.242 52.7549 203.345 52.123 203.349C51.659 203.351 51.2153 203.298 50.7919 203.188C50.3765 203.078 49.9614 202.909 49.5467 202.679L49.555 201.131L49.603 201.131C50.4319 201.702 51.2543 201.986 52.0703 201.981C52.5823 201.978 52.9909 201.876 53.2959 201.674C53.601 201.465 53.7546 201.18 53.7565 200.82C53.7586 200.428 53.5883 200.113 53.2456 199.875C52.903 199.629 52.4397 199.507 51.8557 199.51L51.3517 199.513L51.3588 198.193L51.8628 198.19C52.4068 198.187 52.8353 198.085 53.1484 197.883C53.4614 197.682 53.6189 197.405 53.6208 197.053C53.6225 196.741 53.4918 196.502 53.2287 196.335C52.9736 196.168 52.6141 196.086 52.1501 196.089C51.7901 196.091 51.4258 196.149 51.0572 196.263C50.6966 196.377 50.2997 196.555 49.8664 196.797L49.8184 196.798L49.8264 195.31C50.5885 194.914 51.3895 194.713 52.2295 194.709C53.1415 194.704 53.8684 194.9 54.4103 195.297C54.9601 195.685 55.2332 196.22 55.2296 196.9C55.2274 197.3 55.1254 197.668 54.9236 198.006C54.7299 198.335 54.4564 198.608 54.1033 198.826ZM56.7005 195.86L60.5405 195.839L60.5332 197.195L56.6932 197.216L56.7005 195.86ZM58.0231 193.153L59.367 193.145L59.3237 201.185L57.9797 201.193L58.0231 193.153ZM56.5028 201.381C57.4884 201.075 59.0153 200.527 60.446 200.003L60.715 201.31C59.4521 201.845 58.0571 202.416 56.9629 202.842L56.5028 201.381ZM60.721 193.51L65.7849 193.482L65.7776 194.838L60.7137 194.866L60.721 193.51ZM66.2716 196.695L67.7116 196.687C67.7116 196.687 67.6972 197.131 67.6722 197.312C67.4219 201.453 67.1735 203.014 66.7387 203.544C66.4487 203.918 66.16 204.04 65.7637 204.102C65.4154 204.164 64.9114 204.166 64.3475 204.158C64.3256 203.762 64.1727 203.187 63.9588 202.804C64.4145 202.849 64.8344 202.859 65.0624 202.858C65.2544 202.857 65.3626 202.82 65.4955 202.651C65.7973 202.314 66.0574 200.824 66.2701 196.971L66.2716 196.695ZM61.2594 198.259C61.153 197.959 60.8567 197.277 60.6666 196.93C61.0269 196.868 61.4843 196.602 61.9419 196.299C62.4115 196.009 64.0253 194.908 65.0878 193.702L65.0882 193.618L65.7615 193.374L66.7772 194.173C65.2456 195.585 63.5833 196.782 62.1751 197.558L62.1749 197.594C62.1749 197.594 61.2608 198.007 61.2594 198.259ZM61.2594 198.259L61.2656 197.107L61.9397 196.719L66.7636 196.693L66.7443 198.049L62.3403 198.073C61.8604 198.075 61.368 198.138 61.2594 198.259ZM64.611 197.556L65.8578 197.778C65.1227 200.589 63.7909 202.781 61.9596 204.147C61.7328 203.932 61.1829 203.539 60.8718 203.373C62.7743 202.162 63.9973 200.104 64.611 197.556ZM62.6191 197.567L63.8657 197.8C63.377 199.423 62.4458 200.772 61.3252 201.63C61.0984 201.416 60.5725 201.022 60.2854 200.856C61.3933 200.13 62.2276 198.949 62.6191 197.567Z" fill="#151522"/>
    <path d="M200.452 136.393C200.335 158.1 182.972 175.792 161.67 175.909C140.369 176.026 123.195 158.524 123.312 136.817C123.429 115.109 140.792 97.4175 162.094 97.3005C183.396 97.1835 200.569 114.686 200.452 136.393ZM127.169 136.795C127.064 156.332 142.52 172.084 161.692 171.978C180.863 171.873 196.49 155.95 196.595 136.414C196.701 116.878 181.244 101.126 162.073 101.231C142.901 101.336 127.274 117.259 127.169 136.795Z" fill="#CDD2FD"/>
    <path d="M162.083 99.2657C162.089 98.1803 162.975 97.2903 164.058 97.3407C170.995 97.6631 177.711 99.8913 183.487 103.807C189.806 108.091 194.717 114.202 197.598 121.368C200.478 128.534 201.199 136.432 199.67 144.065C198.141 151.697 194.429 158.721 189.006 164.247C183.582 169.774 176.689 173.555 169.199 175.112C161.709 176.67 153.958 175.934 146.926 172.998C139.894 170.062 133.898 165.057 129.694 158.617C125.839 152.71 123.652 145.839 123.348 138.744C123.302 137.681 124.175 136.812 125.24 136.806V136.806C126.306 136.8 127.159 137.659 127.21 138.723C127.514 145.04 129.479 151.153 132.913 156.416C136.696 162.212 142.093 166.716 148.422 169.359C154.75 172.001 161.726 172.663 168.467 171.262C175.208 169.86 181.412 166.457 186.293 161.483C191.175 156.509 194.515 150.188 195.891 143.319C197.268 136.45 196.619 129.341 194.026 122.892C191.434 116.442 187.014 110.942 181.326 107.087C176.183 103.6 170.21 101.599 164.037 101.277C162.954 101.22 162.078 100.351 162.083 99.2657V99.2657Z" fill="#0066FF"/>
    <path d="M161.4 130.182L161.395 131.187L157.309 140.644L155.494 140.654L155.134 140.596L159.081 131.92L154.446 131.945L154.455 130.22L161.4 130.182ZM171.048 138.289L169.608 138.297L169.595 140.576L167.616 140.587L167.628 138.307L162.948 138.333L162.956 136.788L167.672 130.148L169.652 130.137L169.617 136.602L171.057 136.594L171.048 138.289ZM167.637 136.612L167.657 132.937L165.267 136.625L167.637 136.612ZM158.693 156.271C157.723 156.276 157.005 155.995 156.538 155.428C156.081 154.85 155.855 154.091 155.86 153.151C155.865 152.211 156.1 151.455 156.563 150.883C157.036 150.3 157.757 150.006 158.727 150.001C159.697 149.995 160.411 150.282 160.868 150.859C161.334 151.426 161.565 152.18 161.56 153.12C161.555 154.06 161.316 154.821 160.843 155.404C160.38 155.976 159.663 156.265 158.693 156.271ZM167.171 150.149L158.85 160.635L157.365 160.643L165.686 150.158L167.171 150.149ZM158.7 154.981C159.11 154.978 159.416 154.807 159.618 154.466C159.82 154.115 159.922 153.669 159.925 153.129C159.928 152.599 159.826 152.16 159.617 151.811C159.419 151.462 159.12 151.289 158.72 151.291C158.32 151.293 158.014 151.47 157.802 151.821C157.601 152.172 157.498 152.612 157.495 153.142C157.492 153.682 157.59 154.127 157.788 154.476C157.986 154.815 158.29 154.983 158.7 154.981ZM165.809 160.791C164.839 160.797 164.12 160.516 163.653 159.948C163.197 159.371 162.971 158.612 162.976 157.672C162.981 156.732 163.215 155.976 163.678 155.403C164.151 154.821 164.873 154.527 165.843 154.521C166.813 154.516 167.526 154.802 167.983 155.38C168.45 155.947 168.681 156.701 168.676 157.641C168.671 158.581 168.431 159.342 167.958 159.925C167.495 160.497 166.779 160.786 165.809 160.791ZM165.816 159.501C166.226 159.499 166.532 159.328 166.733 158.986C166.935 158.635 167.038 158.19 167.041 157.65C167.044 157.12 166.941 156.68 166.733 156.332C166.535 155.983 166.236 155.809 165.836 155.811C165.436 155.814 165.13 155.99 164.918 156.341C164.716 156.693 164.614 157.133 164.611 157.663C164.608 158.203 164.705 158.648 164.903 158.996C165.102 159.335 165.406 159.504 165.816 159.501Z" fill="#151522"/>
    <path d="M142.835 217.105L148.579 217.073L148.576 217.713L142.832 217.745L142.835 217.105ZM142.13 221.853L149.234 221.814L149.23 222.486L142.126 222.525L142.13 221.853ZM150.289 217.464L157.177 217.426L157.174 217.978L150.286 218.016L150.289 217.464ZM150.24 220.64L157.2 220.602L157.197 221.17L150.237 221.208L150.24 220.64ZM155.673 216.051L156.311 216.255C155.981 216.697 155.587 217.163 155.273 217.477L154.77 217.287C155.076 216.958 155.463 216.42 155.673 216.051ZM153.393 215.903L153.993 215.9L153.974 219.58L153.374 219.583L153.393 215.903ZM151.167 216.371L151.68 216.128C152.03 216.455 152.412 216.916 152.57 217.236L152.033 217.51C151.875 217.191 151.509 216.713 151.167 216.371ZM154.484 219.945L154.837 219.639C155.3 219.82 155.915 220.097 156.242 220.303L155.864 220.649C155.569 220.435 154.962 220.142 154.484 219.945ZM153.405 219.759L154.037 219.755C153.81 221.668 153.252 222.776 150.354 223.279C150.299 223.12 150.156 222.857 150.045 222.729C152.775 222.306 153.22 221.4 153.405 219.759ZM153.16 217.672L153.655 217.878C152.978 218.833 151.741 219.616 150.508 219.983C150.42 219.823 150.246 219.6 150.11 219.473C151.328 219.178 152.556 218.484 153.16 217.672ZM154.192 217.651C154.788 218.463 156 219.097 157.279 219.354C157.15 219.466 156.981 219.699 156.9 219.86C155.598 219.539 154.362 218.81 153.703 217.845L154.192 217.651ZM154.063 220.803C154.513 221.945 155.606 222.515 157.381 222.657C157.244 222.794 157.075 223.059 157.002 223.235C155.147 223.005 154.047 222.323 153.51 220.926L154.063 220.803ZM164.089 215.852L164.535 216.338C163.084 216.77 160.715 216.999 158.771 217.089C158.756 216.938 158.685 216.698 158.63 216.562C160.534 216.464 162.871 216.235 164.089 215.852ZM158.629 218.138L164.869 218.104L164.866 218.68L158.626 218.714L158.629 218.138ZM158.083 220.021L165.307 219.981L165.304 220.565L158.08 220.605L158.083 220.021ZM161.405 216.715L162.029 216.712L161.998 222.375C161.996 222.799 161.867 222.984 161.562 223.082C161.258 223.18 160.738 223.198 159.89 223.195C159.851 223.027 159.74 222.756 159.645 222.596C160.309 222.617 160.949 222.605 161.125 222.596C161.309 222.595 161.373 222.539 161.374 222.371L161.405 216.715ZM170.164 218.211C170.877 219.495 172.229 220.927 173.37 221.641C173.217 221.762 173 221.995 172.887 222.164C171.755 221.354 170.435 219.825 169.659 218.414L170.164 218.211ZM169.324 218.223L169.859 218.42C169.091 220.009 167.755 221.488 166.415 222.263C166.303 222.104 166.105 221.873 165.961 221.754C167.285 221.067 168.629 219.643 169.324 218.223ZM166.23 217.856L173.118 217.819L173.115 218.411L166.227 218.448L166.23 217.856ZM169.393 215.823L170.049 215.82L170.009 223.171L169.353 223.175L169.393 215.823ZM170.558 216.313L171 215.942C171.487 216.276 172.124 216.76 172.442 217.078L171.992 217.505C171.682 217.179 171.052 216.67 170.558 216.313Z" fill="#666666"/>
    <path d="M153.344 194.297L153.339 195.101L150.071 202.667L148.619 202.675L148.331 202.628L151.488 195.687L147.78 195.708L147.788 194.328L153.344 194.297ZM158.093 197.259C158.669 197.256 159.176 197.369 159.615 197.599C160.054 197.82 160.392 198.138 160.63 198.553C160.868 198.96 160.985 199.427 160.982 199.955C160.979 200.507 160.845 200.996 160.578 201.421C160.32 201.846 159.958 202.176 159.493 202.411C159.028 202.646 158.503 202.764 157.919 202.768C156.879 202.773 156.081 202.418 155.525 201.701C154.969 200.984 154.694 199.977 154.701 198.681C154.706 197.745 154.855 196.937 155.146 196.255C155.438 195.574 155.853 195.051 156.391 194.688C156.929 194.317 157.566 194.13 158.302 194.126C159.142 194.121 159.92 194.341 160.638 194.785L160.63 196.237L160.582 196.237C160.248 195.983 159.885 195.793 159.493 195.667C159.102 195.533 158.738 195.467 158.402 195.469C157.85 195.472 157.405 195.671 157.067 196.065C156.737 196.45 156.526 197.012 156.434 197.748C156.683 197.579 156.94 197.457 157.204 197.384C157.477 197.302 157.773 197.261 158.093 197.259ZM157.902 201.424C158.31 201.422 158.647 201.288 158.912 201.022C159.186 200.757 159.324 200.412 159.326 199.988C159.328 199.588 159.206 199.261 158.959 199.006C158.721 198.743 158.381 198.613 157.941 198.616C157.454 198.618 156.933 198.781 156.379 199.104C156.415 199.864 156.56 200.443 156.814 200.842C157.067 201.232 157.43 201.426 157.902 201.424ZM166.909 198.206C167.316 198.42 167.63 198.71 167.852 199.077C168.082 199.436 168.196 199.835 168.193 200.275C168.191 200.763 168.053 201.192 167.779 201.561C167.505 201.931 167.119 202.217 166.622 202.42C166.125 202.623 165.56 202.726 164.928 202.729C164.464 202.732 164.021 202.678 163.597 202.568C163.182 202.459 162.767 202.289 162.352 202.059L162.36 200.511L162.408 200.511C163.237 201.082 164.06 201.366 164.876 201.361C165.388 201.359 165.796 201.256 166.101 201.055C166.407 200.845 166.56 200.56 166.562 200.2C166.564 199.808 166.394 199.493 166.051 199.255C165.708 199.009 165.245 198.888 164.661 198.891L164.157 198.894L164.164 197.574L164.668 197.571C165.212 197.568 165.641 197.465 165.954 197.264C166.267 197.062 166.424 196.785 166.426 196.433C166.428 196.121 166.297 195.882 166.034 195.715C165.779 195.549 165.42 195.467 164.956 195.469C164.596 195.471 164.231 195.529 163.863 195.643C163.502 195.757 163.105 195.935 162.672 196.178L162.624 196.178L162.632 194.69C163.394 194.294 164.195 194.094 165.035 194.089C165.947 194.084 166.674 194.28 167.216 194.677C167.766 195.066 168.039 195.6 168.035 196.28C168.033 196.68 167.931 197.049 167.729 197.386C167.535 197.715 167.262 197.988 166.909 198.206ZM169.506 195.24L173.346 195.219L173.339 196.575L169.499 196.596L169.506 195.24ZM170.829 192.533L172.172 192.526L172.129 200.566L170.785 200.573L170.829 192.533ZM169.308 200.761C170.294 200.456 171.821 199.907 173.251 199.384L173.52 200.69C172.258 201.225 170.863 201.797 169.768 202.223L169.308 200.761ZM173.526 192.89L178.59 192.862L178.583 194.218L173.519 194.246L173.526 192.89ZM179.077 196.076L180.517 196.068C180.517 196.068 180.503 196.512 180.478 196.692C180.227 200.833 179.979 202.394 179.544 202.925C179.254 203.298 178.965 203.42 178.569 203.482C178.221 203.544 177.717 203.547 177.153 203.538C177.131 203.142 176.978 202.567 176.764 202.184C177.22 202.23 177.64 202.239 177.868 202.238C178.06 202.237 178.168 202.2 178.301 202.032C178.603 201.694 178.863 200.205 179.076 196.352L179.077 196.076ZM174.065 197.639C173.958 197.34 173.662 196.657 173.472 196.31C173.832 196.248 174.29 195.982 174.747 195.679C175.217 195.389 176.831 194.288 177.893 193.082L177.894 192.998L178.567 192.755L179.583 193.553C178.051 194.965 176.389 196.162 174.981 196.938L174.98 196.974C174.98 196.974 174.066 197.387 174.065 197.639ZM174.065 197.639L174.071 196.487L174.745 196.099L179.569 196.073L179.55 197.429L175.146 197.453C174.666 197.456 174.173 197.519 174.065 197.639ZM177.416 196.937L178.663 197.158C177.928 199.97 176.596 202.161 174.765 203.527C174.538 203.312 173.988 202.919 173.677 202.753C175.58 201.543 176.803 199.484 177.416 196.937ZM175.425 196.948L176.671 197.181C176.182 198.803 175.251 200.153 174.131 201.011C173.904 200.796 173.378 200.403 173.091 200.236C174.199 199.51 175.033 198.33 175.425 196.948Z" fill="#151522"/>
    <path d="M306.99 135.808C306.873 157.515 289.51 175.207 268.208 175.324C246.906 175.441 229.733 157.938 229.85 136.231C229.967 114.524 247.33 96.8323 268.632 96.7153C289.934 96.5983 307.107 114.101 306.99 135.808ZM233.707 136.21C233.602 155.747 249.058 171.499 268.229 171.393C287.401 171.288 303.028 155.365 303.133 135.829C303.239 116.292 287.782 100.54 268.611 100.646C249.439 100.751 233.812 116.674 233.707 136.21Z" fill="#CDD2FD"/>
    <path d="M268.621 98.6805C268.627 97.5951 269.512 96.7051 270.596 96.7555C275.597 96.988 280.502 98.2119 285.034 100.366C289.59 102.531 293.669 105.588 297.044 109.358C297.747 110.143 297.623 111.353 296.809 112.04V112.04C295.974 112.746 294.734 112.631 294.007 111.831C291.003 108.526 287.394 105.842 283.373 103.931C279.353 102.021 275.008 100.923 270.575 100.692C269.491 100.635 268.616 99.7658 268.621 98.6805V98.6805Z" fill="#0066FF"/>
    <path d="M267.401 138.299L267.392 140.039L260.102 140.079L260.111 138.339L263.036 138.323L263.071 131.933L261.146 132.784L261.086 132.784L260.673 131.512L260.673 131.452L263.668 129.62L265.063 129.613L265.016 138.312L267.401 138.299ZM277.096 137.706L275.656 137.714L275.643 139.994L273.663 140.005L273.676 137.725L268.996 137.751L269.004 136.206L273.72 129.565L275.7 129.554L275.665 136.019L277.105 136.011L277.096 137.706ZM273.685 136.03L273.705 132.355L271.315 136.043L273.685 136.03ZM264.741 155.688C263.771 155.694 263.053 155.412 262.586 154.845C262.129 154.268 261.903 153.509 261.908 152.569C261.913 151.629 262.147 150.873 262.611 150.3C263.084 149.718 263.805 149.424 264.775 149.418C265.745 149.413 266.459 149.699 266.915 150.276C267.382 150.844 267.613 151.598 267.608 152.538C267.603 153.478 267.364 154.239 266.891 154.821C266.428 155.394 265.711 155.683 264.741 155.688ZM273.219 149.567L264.898 160.052L263.413 160.06L271.734 149.575L273.219 149.567ZM264.748 154.398C265.158 154.396 265.464 154.224 265.666 153.883C265.868 153.532 265.97 153.087 265.973 152.547C265.976 152.017 265.874 151.577 265.665 151.228C265.467 150.879 265.168 150.706 264.768 150.708C264.368 150.71 264.062 150.887 263.85 151.238C263.649 151.589 263.546 152.03 263.543 152.56C263.54 153.1 263.638 153.544 263.836 153.893C264.034 154.232 264.338 154.4 264.748 154.398ZM271.857 160.209C270.887 160.214 270.168 159.933 269.701 159.366C269.245 158.788 269.019 158.03 269.024 157.09C269.029 156.15 269.263 155.393 269.726 154.821C270.199 154.238 270.921 153.944 271.891 153.939C272.861 153.934 273.574 154.22 274.031 154.797C274.498 155.365 274.729 156.118 274.724 157.058C274.719 157.998 274.479 158.76 274.006 159.342C273.543 159.915 272.827 160.204 271.857 160.209ZM271.864 158.919C272.274 158.917 272.58 158.745 272.781 158.404C272.983 158.053 273.086 157.607 273.089 157.067C273.091 156.537 272.989 156.098 272.781 155.749C272.583 155.4 272.284 155.227 271.884 155.229C271.484 155.231 271.178 155.408 270.966 155.759C270.764 156.11 270.661 156.551 270.659 157.081C270.656 157.621 270.753 158.065 270.951 158.414C271.15 158.753 271.454 158.921 271.864 158.919Z" fill="#151522"/>
    <path d="M249.363 216.152L255.41 216.119L255.407 216.719L249.359 216.752L249.363 216.152ZM249.86 218.765L254.764 218.738L254.761 219.338L249.857 219.365L249.86 218.765ZM248.87 221.546L255.813 221.508L255.81 222.116L248.866 222.154L248.87 221.546ZM256.958 216.878L263.846 216.84L263.843 217.392L256.955 217.43L256.958 216.878ZM256.909 220.054L263.869 220.016L263.866 220.584L256.906 220.622L256.909 220.054ZM262.342 215.465L262.981 215.669C262.65 216.111 262.256 216.577 261.942 216.891L261.439 216.702C261.745 216.372 262.132 215.834 262.342 215.465ZM260.063 215.317L260.663 215.314L260.643 218.994L260.043 218.997L260.063 215.317ZM257.836 215.785L258.349 215.543C258.7 215.869 259.081 216.33 259.239 216.65L258.702 216.925C258.544 216.605 258.178 216.127 257.836 215.785ZM261.153 219.359L261.506 219.053C261.969 219.234 262.584 219.511 262.911 219.717L262.533 220.063C262.238 219.849 261.632 219.556 261.153 219.359ZM260.074 219.173L260.706 219.169C260.48 221.083 259.922 222.19 257.023 222.694C256.968 222.534 256.825 222.271 256.714 222.143C259.444 221.72 259.889 220.814 260.074 219.173ZM259.829 217.086L260.324 217.292C259.647 218.247 258.411 219.03 257.177 219.397C257.09 219.237 256.915 219.014 256.78 218.887C257.997 218.592 259.225 217.898 259.829 217.086ZM260.861 217.065C261.457 217.877 262.669 218.511 263.948 218.768C263.819 218.88 263.65 219.113 263.569 219.274C262.267 218.953 261.031 218.224 260.372 217.259L260.861 217.065ZM260.732 220.217C261.182 221.359 262.275 221.929 264.05 222.071C263.913 222.208 263.744 222.473 263.671 222.649C261.816 222.419 260.716 221.737 260.18 220.34L260.732 220.217ZM270.758 215.266L271.204 215.752C269.754 216.184 267.384 216.413 265.44 216.504C265.425 216.352 265.354 216.112 265.299 215.976C267.203 215.878 269.54 215.649 270.758 215.266ZM265.298 217.552L271.538 217.518L271.535 218.094L265.295 218.128L265.298 217.552ZM264.752 219.435L271.976 219.396L271.973 219.98L264.749 220.019L264.752 219.435ZM268.074 216.129L268.698 216.126L268.667 221.79C268.665 222.214 268.536 222.398 268.232 222.496C267.927 222.594 267.407 222.612 266.559 222.609C266.52 222.441 266.409 222.17 266.314 222.01C266.978 222.031 267.618 222.019 267.794 222.01C267.978 222.009 268.042 221.953 268.043 221.785L268.074 216.129ZM276.833 217.625C277.546 218.909 278.899 220.341 280.039 221.055C279.886 221.176 279.669 221.409 279.556 221.578C278.424 220.768 277.105 219.239 276.328 217.828L276.833 217.625ZM275.993 217.638L276.528 217.835C275.76 219.423 274.424 220.902 273.084 221.677C272.973 221.518 272.774 221.287 272.631 221.168C273.954 220.481 275.298 219.057 275.993 217.638ZM272.9 217.271L279.787 217.233L279.784 217.825L272.896 217.863L272.9 217.271ZM276.062 215.237L276.718 215.234L276.679 222.586L276.023 222.589L276.062 215.237ZM277.228 215.727L277.67 215.356C278.156 215.69 278.793 216.174 279.111 216.492L278.661 216.919C278.351 216.593 277.722 216.084 277.228 215.727Z" fill="#666666"/>
    <path d="M259.307 200.675L259.299 202.067L253.467 202.099L253.475 200.707L255.815 200.694L255.842 195.582L254.303 196.262L254.255 196.263L253.924 195.245L253.924 195.197L256.32 193.731L257.436 193.725L257.399 200.685L259.307 200.675ZM266.676 200.622L266.668 202.026L260.98 202.058L260.987 200.858L263.678 198.035C264.12 197.576 264.426 197.195 264.596 196.89C264.766 196.585 264.851 196.293 264.853 196.013C264.857 195.277 264.403 194.911 263.491 194.916C263.115 194.918 262.734 194.976 262.35 195.09C261.973 195.204 261.612 195.374 261.267 195.6L261.275 194.148C261.981 193.752 262.746 193.552 263.57 193.548C264.458 193.543 265.161 193.747 265.679 194.16C266.204 194.573 266.465 195.144 266.461 195.872C266.457 196.704 266.077 197.538 265.32 198.374L263.256 200.641L266.676 200.622ZM271.251 193.505C272.307 193.5 273.098 193.843 273.622 194.536C274.154 195.229 274.416 196.256 274.409 197.616C274.401 199.096 274.087 200.222 273.467 200.993C272.847 201.756 271.941 202.141 270.749 202.148C270.333 202.15 269.949 202.104 269.598 202.01C269.246 201.908 268.887 201.742 268.52 201.512L268.528 200.036L268.576 200.036C268.911 200.274 269.274 200.456 269.665 200.582C270.057 200.708 270.436 200.77 270.804 200.768C271.38 200.764 271.821 200.578 272.127 200.208C272.433 199.839 272.624 199.262 272.701 198.477C272.227 198.792 271.662 198.951 271.006 198.955C270.126 198.959 269.431 198.723 268.922 198.246C268.421 197.761 268.172 197.114 268.176 196.306C268.18 195.738 268.306 195.246 268.556 194.828C268.815 194.403 269.176 194.077 269.642 193.85C270.107 193.624 270.643 193.509 271.251 193.505ZM269.833 196.249C269.83 196.665 269.953 196.996 270.199 197.243C270.446 197.482 270.785 197.6 271.217 197.597C271.713 197.595 272.218 197.428 272.732 197.097C272.696 196.321 272.555 195.758 272.309 195.408C272.071 195.049 271.712 194.871 271.232 194.874C270.808 194.876 270.467 195.002 270.21 195.251C269.961 195.492 269.835 195.825 269.833 196.249ZM275.506 194.658L279.346 194.637L279.339 195.993L275.499 196.014L275.506 194.658ZM276.829 191.951L278.173 191.944L278.13 199.983L276.786 199.991L276.829 191.951ZM275.309 200.179C276.294 199.873 277.821 199.325 279.252 198.801L279.521 200.108C278.258 200.643 276.863 201.214 275.769 201.64L275.309 200.179ZM279.527 192.308L284.591 192.28L284.584 193.636L279.52 193.664L279.527 192.308ZM285.078 195.493L286.517 195.486C286.517 195.486 286.503 195.93 286.478 196.11C286.228 200.251 285.979 201.812 285.545 202.343C285.255 202.716 284.966 202.838 284.57 202.9C284.221 202.962 283.717 202.965 283.153 202.956C283.131 202.56 282.979 201.985 282.765 201.602C283.22 201.647 283.64 201.657 283.868 201.656C284.06 201.655 284.169 201.618 284.301 201.449C284.603 201.112 284.863 199.622 285.076 195.769L285.078 195.493ZM280.065 197.057C279.959 196.757 279.663 196.075 279.472 195.728C279.833 195.666 280.29 195.4 280.748 195.097C281.217 194.807 282.831 193.706 283.894 192.5L283.894 192.416L284.567 192.172L285.583 192.971C284.052 194.383 282.389 195.58 280.981 196.356L280.981 196.392C280.981 196.392 280.067 196.805 280.065 197.057ZM280.065 197.057L280.072 195.905L280.746 195.517L285.569 195.491L285.55 196.847L281.146 196.871C280.666 196.874 280.174 196.936 280.065 197.057ZM283.417 196.355L284.664 196.576C283.929 199.388 282.597 201.579 280.766 202.945C280.539 202.73 279.989 202.337 279.678 202.171C281.58 200.96 282.803 198.902 283.417 196.355ZM281.425 196.365L282.672 196.599C282.183 198.221 281.252 199.57 280.131 200.428C279.904 200.214 279.378 199.821 279.091 199.654C280.199 198.928 281.034 197.748 281.425 196.365Z" fill="#151522"/>
    <path d="M18.0856 56.1424L21.1325 56.1256L21.0939 63.2865L18.047 63.3033L18.051 62.5553L20.328 62.5428L20.3585 56.8779L18.0815 56.8904L18.0856 56.1424ZM18.1126 59.2991L20.6315 59.2853L20.6275 60.0222L18.1086 60.0361L18.1126 59.2991ZM17.6896 56.1445L18.4706 56.1403L18.4272 64.1811L17.6462 64.1854L17.6896 56.1445ZM21.6206 57.4099L27.3625 57.3784L27.3581 58.1923L21.6162 58.2239L21.6206 57.4099ZM25.2071 55.2453L26.0431 55.2407L25.9956 64.0516C25.9923 64.6566 25.826 64.9105 25.4293 65.0446C25.0325 65.1788 24.3394 65.2046 23.2285 65.1997C23.1858 64.969 23.0558 64.5957 22.936 64.3654C23.7939 64.3827 24.5969 64.3782 24.8389 64.3659C25.07 64.3536 25.1583 64.2872 25.1596 64.0562L25.2071 55.2453ZM21.9835 59.4648L22.6674 59.1091C23.2569 59.9418 24.0098 61.0596 24.3802 61.7176L23.6519 62.1505C23.3036 61.4815 22.5729 60.3085 21.9835 59.4648ZM28.791 57.6455L29.627 57.6409L29.5858 65.2858L28.7498 65.2904L28.791 57.6455ZM28.9555 55.6977L29.5955 55.3092C30.1101 55.7573 30.7005 56.4141 30.9731 56.8636L30.2777 57.3184C30.0381 56.8687 29.4588 56.1899 28.9555 55.6977ZM31.661 55.7708L37.4579 55.739L37.4537 56.509L31.6568 56.5408L31.661 55.7708ZM36.9849 55.7416L37.8319 55.7369L37.7861 64.2288C37.7836 64.6908 37.6944 64.9113 37.4077 65.0448C37.11 65.1785 36.637 65.1921 35.955 65.1958C35.9231 64.987 35.8149 64.6466 35.7061 64.4272C36.168 64.4467 36.619 64.4332 36.751 64.4325C36.905 64.4316 36.9383 64.3765 36.9391 64.2335L36.9849 55.7416ZM31.929 61.1371L31.921 62.6221L34.572 62.6075L34.58 61.1225L31.929 61.1371ZM31.9406 58.9811L31.9327 60.4551L34.5837 60.4406L34.5916 58.9666L31.9406 58.9811ZM31.1963 58.3033L35.3763 58.2803L35.3492 63.2962L31.1693 63.3192L31.1963 58.3033ZM40.204 60.5087C39.9914 60.5099 39.8121 60.4412 39.6662 60.3026C39.5276 60.1641 39.4589 59.9811 39.4601 59.7538C39.4614 59.5265 39.532 59.3428 39.6721 59.2027C39.8195 59.0625 39.9996 58.9919 40.2122 58.9907C40.4249 58.9895 40.6005 59.0582 40.7391 59.1968C40.885 59.3353 40.9573 59.5183 40.9561 59.7456C40.9549 59.9729 40.8806 60.1566 40.7332 60.2968C40.5931 60.4369 40.4167 60.5075 40.204 60.5087ZM40.1827 64.4686C39.97 64.4698 39.7907 64.4011 39.6448 64.2626C39.5063 64.124 39.4376 63.9411 39.4388 63.7137C39.44 63.4864 39.5107 63.3027 39.6508 63.1626C39.7982 63.0225 39.9782 62.9518 40.1909 62.9506C40.4035 62.9495 40.5792 63.0182 40.7177 63.1567C40.8637 63.2953 40.936 63.4782 40.9348 63.7055C40.9336 63.9329 40.8592 64.1166 40.7118 64.2567C40.5717 64.3968 40.3954 64.4675 40.1827 64.4686Z" fill="#151522"/>
    <path d="M50.6497 63.3552L50.6447 64.2792L45.5628 64.3071L45.5667 63.5701L48.3325 60.618C48.7603 60.161 49.0519 59.8001 49.2073 59.5353C49.3628 59.2631 49.4412 58.9913 49.4427 58.72C49.445 58.2947 49.3038 57.9691 49.019 57.7434C48.7343 57.5103 48.3316 57.3952 47.8109 57.398C47.1069 57.4019 46.4495 57.6108 45.8386 58.0248L45.8438 57.0569C46.4544 56.6942 47.1264 56.5108 47.8597 56.5068C48.3804 56.5039 48.8345 56.5894 49.2223 56.7633C49.6173 56.9298 49.9204 57.1701 50.1313 57.4843C50.3423 57.7984 50.4467 58.1645 50.4444 58.5825C50.4423 58.9712 50.3449 59.364 50.1521 59.7611C49.9666 60.1581 49.6895 60.5446 49.3208 60.9206L46.9427 63.3755L50.6497 63.3552ZM54.9242 64.3877C53.9709 64.3929 53.2688 64.0374 52.818 63.3213C52.3746 62.5977 52.1561 61.6383 52.1626 60.443C52.169 59.2477 52.3978 58.2895 52.849 57.5684C53.3076 56.8399 54.0136 56.473 54.9669 56.4678C55.9202 56.4625 56.6186 56.8217 57.062 57.5452C57.5128 58.2614 57.7349 59.2171 57.7285 60.4124C57.7221 61.6077 57.4895 62.5696 57.031 63.2981C56.5798 64.0192 55.8775 64.3824 54.9242 64.3877ZM54.9289 63.5077C55.5889 63.504 56.045 63.2302 56.2973 62.6862C56.5496 62.1348 56.6783 61.3788 56.6835 60.4182C56.6887 59.4575 56.5681 58.7065 56.3217 58.1652C56.0753 57.6166 55.6221 57.3441 54.9621 57.3478C54.3022 57.3514 53.846 57.6289 53.5937 58.1802C53.3415 58.7243 53.2127 59.4766 53.2076 60.4373C53.2024 61.3979 53.323 62.1525 53.5693 62.7012C53.8158 63.2425 54.2689 63.5113 54.9289 63.5077ZM64.292 63.2912L64.2871 64.2042L59.2051 64.2321L59.2101 63.3192L61.476 63.3067L61.5057 57.8068L59.9614 58.6072L59.9174 58.6075L59.7228 57.9816L59.723 57.9376L61.7544 56.5625L62.4803 56.5585L62.444 63.3014L64.292 63.2912ZM68.5776 64.3127C68.0422 64.3156 67.5624 64.2229 67.1381 64.0346C66.7138 63.8462 66.3816 63.5841 66.1414 63.2481C65.9086 62.9047 65.7934 62.5204 65.7956 62.095C65.798 61.6624 65.9174 61.2804 66.1538 60.9491C66.3902 60.6178 66.6958 60.3852 67.0705 60.2511C66.7338 60.1356 66.4637 59.9171 66.2601 59.5956C66.0565 59.2667 65.9559 58.9006 65.958 58.4973C65.9603 58.0793 66.0759 57.712 66.305 57.3954C66.534 57.0789 66.847 56.8352 67.2439 56.6643C67.6481 56.4861 68.1033 56.3956 68.6093 56.3928C69.1152 56.3901 69.5658 56.4756 69.9608 56.6494C70.3632 56.8158 70.6773 57.0561 70.9029 57.3702C71.1285 57.6843 71.2402 58.0503 71.238 58.4683C71.2358 58.8643 71.1312 59.2279 70.9241 59.559C70.7243 59.8827 70.4481 60.1079 70.0955 60.2345C70.4981 60.3716 70.8084 60.6082 71.0266 60.9444C71.2522 61.2731 71.3638 61.6465 71.3616 62.0645C71.3592 62.4971 71.2362 62.8828 70.9923 63.2214C70.7559 63.5601 70.4244 63.8259 69.9981 64.0189C69.5791 64.2118 69.1056 64.3098 68.5776 64.3127ZM68.602 59.7807C69.1227 59.7779 69.5266 59.6656 69.8138 59.4441C70.101 59.2152 70.2457 58.8991 70.2478 58.4957C70.25 58.0924 70.1087 57.7815 69.8239 57.5631C69.5391 57.3447 69.1327 57.2369 68.6047 57.2398C68.0767 57.2427 67.6691 57.355 67.3819 57.5765C67.0947 57.7981 66.9501 58.1105 66.9479 58.5139C66.9457 58.9172 67.087 59.2317 67.3718 59.4575C67.6639 59.6759 68.074 59.7836 68.602 59.7807ZM68.5602 63.4548C69.1322 63.4516 69.5728 63.3319 69.8821 63.0955C70.1914 62.8519 70.3472 62.51 70.3496 62.07C70.352 61.6227 70.1998 61.2789 69.8932 61.0386C69.5865 60.7983 69.1508 60.6797 68.5861 60.6828C68.0215 60.6859 67.5845 60.8093 67.2752 61.053C66.9659 61.2966 66.81 61.6421 66.8076 62.0895C66.8053 62.5295 66.9537 62.8696 67.2531 63.11C67.5598 63.343 67.9955 63.4579 68.5602 63.4548ZM78.7097 60.7372L78.7052 61.5731L75.8452 61.5889L75.8497 60.7529L78.7097 60.7372ZM88.5046 63.1472L88.4996 64.0712L83.4177 64.0991L83.4216 63.3622L86.1874 60.4101C86.6152 59.9531 86.9068 59.5922 87.0622 59.3273C87.2177 59.0552 87.2961 58.7834 87.2976 58.5121C87.2999 58.0868 87.1587 57.7612 86.8739 57.5355C86.5892 57.3024 86.1865 57.1872 85.6658 57.1901C84.9618 57.194 84.3044 57.4029 83.6935 57.8169L83.6987 56.8489C84.3093 56.4863 84.9813 56.3029 85.7146 56.2989C86.2353 56.296 86.6894 56.3815 87.0772 56.5554C87.4722 56.7219 87.7753 56.9622 87.9862 57.2764C88.1972 57.5905 88.3015 57.9566 88.2993 58.3746C88.2972 58.7632 88.1998 59.1561 88.007 59.5531C87.8215 59.9501 87.5444 60.3366 87.1757 60.7127L84.7976 63.1676L88.5046 63.1472ZM92.7791 64.1797C91.8258 64.185 91.1237 63.8295 90.6729 63.1133C90.2295 62.3898 90.011 61.4304 90.0175 60.2351C90.0239 59.0397 90.2527 58.0815 90.7039 57.3604C91.1625 56.6319 91.8685 56.2651 92.8218 56.2598C93.7751 56.2546 94.4735 56.6137 94.9169 57.3373C95.3677 58.0534 95.5898 59.0092 95.5834 60.2045C95.5769 61.3998 95.3444 62.3617 94.8859 63.0902C94.4347 63.8113 93.7324 64.1745 92.7791 64.1797ZM92.7838 63.2997C93.4438 63.2961 93.8999 63.0223 94.1522 62.4783C94.4045 61.9269 94.5332 61.1709 94.5384 60.2102C94.5436 59.2496 94.423 58.4986 94.1766 57.9573C93.9302 57.4087 93.477 57.1362 92.817 57.1398C92.157 57.1434 91.7009 57.4209 91.4486 57.9723C91.1964 58.5163 91.0676 59.2687 91.0625 60.2293C91.0573 61.19 91.1779 61.9446 91.4242 62.4932C91.6706 63.0345 92.1238 63.3034 92.7838 63.2997ZM102.147 63.0723L102.142 63.9963L97.06 64.0242L97.064 63.2872L99.8298 60.3352C100.258 59.8782 100.549 59.5172 100.705 59.2524C100.86 58.9802 100.939 58.7085 100.94 58.4371C100.942 58.0118 100.801 57.6863 100.516 57.4605C100.232 57.2274 99.8288 57.1123 99.3082 57.1152C98.6042 57.119 97.9467 57.328 97.3359 57.742L97.3411 56.774C97.9517 56.4113 98.6236 56.228 99.357 56.2239C99.8776 56.2211 100.332 56.3066 100.72 56.4804C101.115 56.6469 101.418 56.8873 101.629 57.2014C101.84 57.5156 101.944 57.8817 101.942 58.2996C101.94 58.6883 101.842 59.0812 101.649 59.4782C101.464 59.8752 101.187 60.2617 100.818 60.6377L98.44 63.0927L102.147 63.0723ZM107.555 59.9737C108.001 60.1473 108.348 60.402 108.596 60.738C108.85 61.0666 108.977 61.4509 108.974 61.8909C108.972 62.3162 108.849 62.6982 108.605 63.0368C108.361 63.3682 108.019 63.6304 107.578 63.8234C107.144 64.0092 106.649 64.1035 106.091 64.1066C105.695 64.1088 105.318 64.0595 104.959 63.9588C104.608 63.8581 104.249 63.7024 103.884 63.4917L103.889 62.4798L103.933 62.4795C104.306 62.7341 104.664 62.9228 105.008 63.0456C105.36 63.161 105.719 63.2177 106.085 63.2157C106.643 63.2126 107.094 63.0818 107.44 62.8232C107.786 62.5647 107.96 62.2301 107.963 61.8194C107.965 61.3868 107.773 61.0468 107.385 60.7996C107.005 60.5451 106.489 60.4196 105.836 60.4232L105.352 60.4258L105.357 59.5568L105.841 59.5542C106.472 59.5507 106.96 59.4417 107.306 59.2271C107.652 59.0053 107.826 58.7 107.828 58.3113C107.83 57.93 107.677 57.6302 107.37 57.4119C107.071 57.1935 106.661 57.0858 106.14 57.0886C105.825 57.0904 105.513 57.1397 105.205 57.2368C104.903 57.3264 104.565 57.4786 104.19 57.6933L104.146 57.6936L104.151 56.7366C104.806 56.3737 105.492 56.1902 106.211 56.1863C106.732 56.1834 107.19 56.2652 107.585 56.4317C107.98 56.5909 108.283 56.8202 108.494 57.1197C108.712 57.4192 108.821 57.7669 108.818 58.1629C108.816 58.5662 108.701 58.9262 108.472 59.2427C108.25 59.5593 107.944 59.8029 107.555 59.9737Z" fill="#0066FF"/>
    <path d="M36.2157 12.2637L38.2908 14.6282C33.34 15.9274 26.4249 16.5653 20.544 16.7896C20.4759 16.07 20.1222 14.896 19.8616 14.2735C25.6468 14.0017 32.274 13.3414 36.2157 12.2637ZM20.0512 19.1682L39.0349 19.064L39.02 21.8239L20.0363 21.9282L20.0512 19.1682ZM18.3651 24.7692L40.4207 24.6481L40.4056 27.4561L18.3499 27.5772L18.3651 24.7692ZM27.9655 15.6929L30.9655 15.6764L30.8805 31.4442C30.8713 33.1482 30.4352 33.9185 29.2809 34.3569C28.1264 34.8192 26.3741 34.9008 23.9262 34.8903C23.7386 34.0753 23.1936 32.7824 22.7657 32.0408C24.5412 32.103 26.5573 32.0679 27.1093 32.0649C27.6613 32.0619 27.8782 31.8927 27.8808 31.4127L27.9655 15.6929ZM55.7331 20.0042C57.682 23.5213 61.429 27.3886 64.8254 29.5058C64.0782 30.1099 63.0399 31.2916 62.4835 32.1106C59.0894 29.5613 55.5611 25.1889 53.3521 20.9532L55.7331 20.0042ZM51.5327 20.0993L54.1197 21.021C51.8383 25.7373 48.1676 29.9813 44.0507 32.4038C43.5269 31.6387 42.5492 30.4682 41.8565 29.872C45.851 27.8821 49.6158 23.9976 51.5327 20.0993ZM42.8795 18.1789L63.8792 18.0635L63.8639 20.8955L42.8642 21.0108L42.8795 18.1789ZM51.911 12.2495L55.103 12.232L54.9815 34.7677L51.7896 34.7852L51.911 12.2495ZM55.9565 14.1712L58.1019 12.4075C59.3926 13.3844 61.2568 14.8141 62.1636 15.7691L59.9209 17.7733C59.0862 16.7939 57.2947 15.2438 55.9565 14.1712ZM76.8731 16.1202L87.8889 16.0597L87.8744 18.7477L76.8586 18.8082L76.8731 16.1202ZM70.2909 30.6758L84.1867 30.5994L84.1721 33.3114L70.2763 33.3877L70.2909 30.6758ZM75.6467 12.1192L78.6466 12.1027L78.5812 24.2465L75.5812 24.263L75.6467 12.1192ZM68.5802 23.0295L86.1239 22.9331L86.0621 34.405L83.0861 34.4213L83.1335 25.6374L71.3977 25.7019L71.3497 34.6058L68.5177 34.6213L68.5802 23.0295ZM94.9521 19.1168L101 19.0836L100.985 21.9155L94.9368 21.9488L94.9521 19.1168ZM93.2611 12.2624L96.2371 12.246L96.132 31.7338L93.1523 32.4461L93.2611 12.2624ZM90.1119 31.0709C92.9704 30.5752 97.271 29.6876 101.212 28.802L101.484 31.6324C97.8319 32.4924 93.8914 33.354 90.9118 34.0423L90.1119 31.0709ZM110.346 17.1603L112.348 19.6452C109.894 20.9546 106.863 22.1952 104.218 23.1697C104.053 22.4987 103.603 21.4932 103.246 20.8712C105.771 19.8973 108.515 18.3943 110.346 17.1603ZM102.429 12.212L105.405 12.1957L105.31 29.7394C105.303 31.1314 105.422 31.3227 106.334 31.3177C106.742 31.3155 108.494 31.3059 108.95 31.3034C109.862 31.2984 110.01 30.4576 110.172 27.1688C110.865 27.693 112.062 28.2144 112.877 28.4019C112.543 32.5076 111.791 34.0716 109.199 34.0859C108.623 34.089 106.439 34.101 105.887 34.1041C103.079 34.1195 102.316 33.1397 102.335 29.7318L102.429 12.212Z" fill="#171725"/>
</svg>
