<svg width="292" height="251" viewBox="0 0 292 251" fill="none" xmlns="http://www.w3.org/2000/svg">
    <path d="M78.1191 122.001C78.0021 143.708 60.6387 161.4 39.3369 161.517C18.0351 161.634 0.861467 144.132 0.978476 122.424C1.09548 100.717 18.4589 83.0254 39.7606 82.9084C61.0624 82.7914 78.2361 100.294 78.1191 122.001ZM4.83551 122.403C4.7302 141.94 20.1865 157.692 39.3581 157.586C58.5297 157.481 74.1568 141.558 74.2621 122.022C74.3674 102.486 58.9111 86.7335 39.7395 86.8388C20.5678 86.9441 4.94081 102.867 4.83551 122.403Z" fill="#CDD2FD"/>
    <path d="M39.7501 84.8736C39.7559 83.7882 40.6413 82.8982 41.7249 82.9486C50.4084 83.352 58.6937 86.739 65.2147 92.59C72.2258 98.8806 76.7155 107.587 77.8415 117.076C78.9675 126.565 76.6524 136.185 71.3305 144.13C66.383 151.516 59.1532 156.983 50.8411 159.668C49.7997 160.004 48.7229 159.368 48.462 158.311V158.311C48.2045 157.268 48.8402 156.209 49.8669 155.872C57.2826 153.437 63.7304 148.539 68.1523 141.938C72.942 134.787 75.0256 126.13 74.0122 117.59C72.9989 109.05 68.9581 101.214 62.6481 95.5522C56.8284 90.3305 49.4472 87.2893 41.7035 86.8847C40.6203 86.8281 39.7442 85.9589 39.7501 84.8736V84.8736Z" fill="#0066FF"/>
    <path d="M32.6599 123.985L31.2199 123.993L31.2076 126.273L29.2277 126.283L29.24 124.004L24.56 124.029L24.5683 122.484L29.2839 115.844L31.2639 115.833L31.2291 122.298L32.669 122.29L32.6599 123.985ZM29.2491 122.309L29.2689 118.634L26.8791 122.322L29.2491 122.309ZM38.2504 119.529C38.9704 119.525 39.6046 119.667 40.1531 119.954C40.7015 120.231 41.1244 120.628 41.4216 121.147C41.7188 121.655 41.8657 122.239 41.8621 122.899C41.8584 123.589 41.6901 124.2 41.3572 124.732C41.0344 125.264 40.5822 125.676 40.0006 125.969C39.4191 126.263 38.7633 126.411 38.0333 126.415C36.7333 126.422 35.7358 125.978 35.0406 125.082C34.3455 124.185 34.0023 122.927 34.011 121.307C34.0173 120.137 34.2028 119.126 34.5674 118.275C34.9319 117.423 35.4504 116.77 36.1228 116.316C36.7953 115.852 37.5915 115.618 38.5115 115.613C39.5615 115.607 40.535 115.882 41.432 116.437L41.4222 118.252L41.3622 118.252C40.9439 117.934 40.4902 117.697 40.0011 117.54C39.512 117.372 39.0575 117.29 38.6375 117.292C37.9475 117.296 37.3912 117.544 36.9685 118.036C36.5559 118.519 36.2922 119.22 36.1772 120.141C36.4883 119.929 36.8092 119.777 37.1396 119.685C37.4802 119.583 37.8504 119.531 38.2504 119.529ZM38.0124 124.735C38.5224 124.732 38.9432 124.565 39.275 124.233C39.6168 123.902 39.7891 123.471 39.792 122.941C39.7947 122.441 39.6419 122.031 39.3336 121.713C39.0354 121.385 38.6113 121.222 38.0613 121.225C37.4513 121.229 36.8002 121.432 36.1081 121.836C36.153 122.786 36.3341 123.51 36.6514 124.008C36.9687 124.496 37.4224 124.739 38.0124 124.735ZM45.7695 121.828C44.7995 121.833 44.081 121.552 43.6141 120.985C43.1572 120.407 42.9313 119.648 42.9364 118.709C42.9415 117.769 43.1755 117.012 43.6386 116.44C44.1117 115.857 44.8333 115.563 45.8033 115.558C46.7732 115.553 47.4867 115.839 47.9435 116.416C48.4105 116.984 48.6414 117.737 48.6363 118.677C48.6312 119.617 48.3922 120.378 47.919 120.961C47.456 121.534 46.7394 121.822 45.7695 121.828ZM54.2471 115.707L45.9259 126.192L44.4409 126.2L52.7621 115.715L54.2471 115.707ZM45.7764 120.538C46.1864 120.536 46.4923 120.364 46.6941 120.023C46.896 119.672 46.9984 119.226 47.0013 118.686C47.0042 118.156 46.9016 117.717 46.6935 117.368C46.4953 117.019 46.1963 116.846 45.7963 116.848C45.3963 116.85 45.0904 117.027 44.8785 117.378C44.6766 117.729 44.5742 118.17 44.5714 118.7C44.5685 119.24 44.6661 119.684 44.8642 120.033C45.0623 120.372 45.3664 120.54 45.7764 120.538ZM52.8848 126.349C51.9148 126.354 51.1963 126.073 50.7294 125.505C50.2725 124.928 50.0466 124.169 50.0517 123.229C50.0568 122.289 50.2908 121.533 50.7539 120.96C51.227 120.378 51.9486 120.084 52.9186 120.079C53.8886 120.073 54.602 120.359 55.0588 120.937C55.5258 121.504 55.7567 122.258 55.7516 123.198C55.7466 124.138 55.5075 124.899 55.0343 125.482C54.5713 126.054 53.8548 126.343 52.8848 126.349ZM52.8917 125.059C53.3017 125.056 53.6076 124.885 53.8095 124.544C54.0113 124.192 54.1137 123.747 54.1166 123.207C54.1195 122.677 54.0169 122.237 53.8088 121.889C53.6107 121.54 53.3116 121.366 52.9116 121.369C52.5116 121.371 52.2057 121.547 51.9938 121.899C51.7919 122.25 51.6895 122.69 51.6867 123.22C51.6838 123.76 51.7814 124.205 51.9795 124.554C52.1776 124.892 52.4817 125.061 52.8917 125.059Z" fill="#151522"/>
    <path d="M27.7353 201.969L29.7353 201.958L29.705 207.574L27.705 207.585L27.708 207.041L29.1479 207.033L29.1724 202.497L27.7324 202.505L27.7353 201.969ZM27.7263 203.649L29.4862 203.639L29.4834 204.167L27.7234 204.177L27.7263 203.649ZM27.7171 205.345L29.4771 205.335L29.4743 205.855L27.7143 205.865L27.7171 205.345ZM27.4153 201.971L27.9753 201.968L27.9415 208.248L27.3815 208.251L27.4153 201.971ZM30.4797 201.866L31.0717 201.863L31.0374 208.231L30.445 208.314L30.4797 201.866ZM30.7757 201.864L34.0717 201.846L34.0528 205.358L30.7568 205.376L30.7597 204.848L33.4716 204.834L33.4848 202.378L30.7729 202.392L30.7757 201.864ZM30.7837 203.36L33.7356 203.344L33.7329 203.848L30.781 203.864L30.7837 203.36ZM29.7095 208.222C30.4302 208.082 31.5355 207.844 32.6167 207.606L32.6699 208.126C31.6766 208.371 30.6434 208.609 29.8744 208.789L29.7095 208.222ZM32.3505 205.056C32.6703 206.566 33.3756 207.81 34.5807 208.331C34.4441 208.452 34.2588 208.685 34.162 208.846C32.9095 208.204 32.2047 206.864 31.854 205.154L32.3505 205.056ZM34.0675 205.582L34.4653 206.004C34.0072 206.383 33.4131 206.786 32.9557 207.052L32.6297 206.67C33.0632 206.404 33.7057 205.936 34.0675 205.582ZM36.526 202.137L37.11 202.134L37.074 208.814L36.49 208.817L36.526 202.137ZM35.1655 203.736L38.2854 203.719L38.2823 204.287L35.1624 204.304L35.1655 203.736ZM36.5483 203.945L36.9234 204.103C36.5973 205.232 35.9498 206.636 35.3298 207.383C35.2747 207.216 35.132 206.968 35.0288 206.833C35.6082 206.19 36.2549 204.938 36.5483 203.945ZM37.809 201.578L38.1743 202.064C37.4368 202.356 36.3316 202.578 35.419 202.711C35.3877 202.575 35.3088 202.376 35.2455 202.24C36.1503 202.091 37.1995 201.853 37.809 201.578ZM37.0658 204.398C37.2726 204.613 38.0354 205.576 38.2101 205.815L37.8316 206.29C37.6416 205.907 37.0228 204.958 36.7845 204.647L37.0658 204.398ZM40.9295 201.449L41.5215 201.445L41.4819 208.797L40.8899 208.801L40.9295 201.449ZM38.1735 206.672L42.4331 205.96L42.5261 206.52L38.2584 207.239L38.1735 206.672ZM38.8446 202.372L39.2305 202.018C39.7089 202.319 40.2744 202.772 40.5446 203.107L40.1265 203.501C39.8723 203.166 39.3149 202.69 38.8446 202.372ZM38.5134 204.454L38.8913 204.1C39.4096 204.409 40.039 204.885 40.3332 205.228L39.931 205.63C39.6369 205.28 39.0317 204.779 38.5134 204.454ZM49.2093 201.419L49.6547 201.905C48.2044 202.337 45.8353 202.566 43.8909 202.656C43.8757 202.505 43.805 202.265 43.7497 202.129C45.6542 202.031 47.9913 201.802 49.2093 201.419ZM43.7492 203.705L49.9891 203.671L49.986 204.247L43.7461 204.281L43.7492 203.705ZM43.2031 205.588L50.427 205.548L50.4239 206.132L43.2 206.172L43.2031 205.588ZM46.5248 202.282L47.1488 202.279L47.1182 207.942C47.116 208.366 46.987 208.551 46.6825 208.649C46.3779 208.746 45.8579 208.765 45.0099 208.762C44.9708 208.594 44.8603 208.323 44.7652 208.163C45.429 208.184 46.0691 208.172 46.2451 208.163C46.4291 208.162 46.4934 208.106 46.4943 207.938L46.5248 202.282ZM55.2843 203.778C55.9974 205.062 57.3496 206.494 58.4897 207.208C58.337 207.329 58.1198 207.562 58.0069 207.731C56.8753 206.921 55.5556 205.392 54.7793 203.981L55.2843 203.778ZM54.4443 203.79L54.9792 203.987C54.2107 205.576 52.8748 207.055 51.5346 207.83C51.4235 207.671 51.2248 207.44 51.0814 207.321C52.4051 206.633 53.7487 205.21 54.4443 203.79ZM51.3504 203.423L58.2383 203.386L58.2351 203.978L51.3472 204.015L51.3504 203.423ZM54.5132 201.39L55.1692 201.387L55.1296 208.738L54.4736 208.742L54.5132 201.39ZM55.6785 201.88L56.1205 201.509C56.6067 201.843 57.2441 202.327 57.5623 202.645L57.1121 203.072C56.8018 202.745 56.1726 202.237 55.6785 201.88ZM28.2765 214.358L28.2698 215.598L29.7498 215.59L29.7565 214.35L28.2765 214.358ZM27.7271 213.873L30.3351 213.858L30.3232 216.074L27.7152 216.089L27.7271 213.873ZM31.7645 214.339L31.7578 215.578L33.2457 215.57L33.2524 214.33L31.7645 214.339ZM31.2151 213.854L33.831 213.839L33.8191 216.055L31.2031 216.07L31.2151 213.854ZM27.1679 216.7L34.3438 216.66L34.3409 217.196L27.165 217.236L27.1679 216.7ZM28.0936 220.086L30.0376 220.076L30.0348 220.588L28.0909 220.598L28.0936 220.086ZM31.3816 220.068L33.3416 220.058L33.3388 220.57L31.3788 220.58L31.3816 220.068ZM31.7591 216.818C32.2991 217.551 33.4317 218.169 34.5663 218.427C34.4296 218.548 34.2685 218.765 34.1797 218.917C33.0055 218.588 31.8493 217.898 31.2139 217.037L31.7591 216.818ZM27.8233 218.288L30.3593 218.274L30.3454 220.858L29.7934 220.861L29.8045 218.789L28.3566 218.797L28.3452 220.901L27.8092 220.904L27.8233 218.288ZM31.1113 218.27L33.6632 218.256L33.6493 220.84L33.0893 220.843L33.1005 218.771L31.6445 218.779L31.6332 220.883L31.0972 220.886L31.1113 218.27ZM30.3644 215.85L30.9473 216.039C30.2999 217.418 28.9989 218.362 27.3237 218.963C27.2524 218.835 27.0696 218.612 26.9502 218.509C28.5611 217.956 29.8217 217.085 30.3644 215.85ZM36.59 215.504L37.1899 215.501L37.1613 220.821L36.5613 220.824L36.59 215.504ZM36.9019 215.502L40.9339 215.48L40.9228 217.528L36.8909 217.55L36.8938 217.022L40.3257 217.003L40.331 216.011L36.8991 216.03L36.9019 215.502ZM36.8708 218.318L41.3827 218.294L41.3694 220.765L40.7774 220.769L40.7878 218.833L36.8679 218.854L36.8708 218.318ZM36.8781 219.934L41.118 219.911L41.1151 220.447L36.8752 220.47L36.8781 219.934ZM38.4328 213.478L39.0648 213.474L39.0584 214.658L38.4264 214.662L38.4328 213.478ZM35.3891 214.183L42.125 214.146L42.1157 215.882L41.5077 215.885L41.514 214.717L35.9701 214.747L35.9638 215.915L35.3798 215.919L35.3891 214.183ZM47.9047 213.418L48.5041 213.519C48.0359 214.297 47.3118 215.069 46.2286 215.667C46.1493 215.539 45.9744 215.348 45.8468 215.261C46.8495 214.752 47.5494 214.036 47.9047 213.418ZM47.7089 214.115L49.6529 214.104L49.6502 214.6L47.3543 214.613L47.7089 214.115ZM49.4449 214.105L49.5569 214.105L49.6611 214.072L50.0441 214.254C49.403 215.938 47.9019 216.898 46.2915 217.371C46.2362 217.227 46.0854 217.004 45.9821 216.884C47.464 216.516 48.9089 215.604 49.4444 214.201L49.4449 214.105ZM46.8712 215.183L47.2569 214.877C47.6955 215.131 48.2133 215.528 48.4677 215.823L48.0659 216.161C47.8275 215.874 47.3017 215.453 46.8712 215.183ZM48.3125 216.424L48.9199 216.524C48.4032 217.399 47.5666 218.26 46.3152 218.906C46.2359 218.771 46.0609 218.58 45.9334 218.492C47.1124 217.934 47.9167 217.13 48.3125 216.424ZM48.0844 217.185L49.9963 217.174L49.9936 217.686L47.7216 217.699L48.0844 217.185ZM49.8204 217.175L49.9403 217.175L50.0525 217.15L50.4356 217.316C49.7447 219.344 48.0354 220.337 46.097 220.787C46.0339 220.636 45.8991 220.405 45.7958 220.277C47.6056 219.923 49.2426 218.986 49.8198 217.271L49.8204 217.175ZM47.0299 218.39L47.4397 218.052C47.9502 218.329 48.5478 218.774 48.834 219.101L48.408 219.479C48.1298 219.144 47.5403 218.692 47.0299 218.39ZM44.4612 214.093L45.0452 214.09L45.0092 220.769L44.4252 220.773L44.4612 214.093ZM43.1406 215.692L46.0446 215.676L46.0415 216.244L43.1376 216.26L43.1406 215.692ZM44.4835 215.901L44.8586 216.059C44.5325 217.188 43.885 218.592 43.265 219.339C43.2099 219.171 43.0672 218.924 42.964 218.789C43.5434 218.146 44.1901 216.894 44.4835 215.901ZM45.6481 213.542L46.0696 214.004C45.332 214.304 44.2108 214.534 43.2822 214.667C43.2509 214.531 43.1719 214.34 43.1007 214.204C44.0055 214.047 45.0627 213.817 45.6481 213.542ZM45.0071 216.714C45.2061 216.889 45.954 217.644 46.1129 217.844L45.7584 218.317C45.5681 217.991 44.9723 217.234 44.7258 216.955L45.0071 216.714ZM53.9721 214.225L58.452 214.2L58.4492 214.728L53.9692 214.753L53.9721 214.225ZM54.2302 219.759L58.4542 219.736L58.4513 220.272L54.2273 220.295L54.2302 219.759ZM56.1206 213.373L56.7364 213.401C56.6682 214.17 56.5591 215.122 56.4518 215.739L55.9162 215.67C56.0074 215.077 56.0926 214.109 56.1206 213.373ZM53.9787 215.96L54.5227 215.957L54.4969 220.741L53.9529 220.744L53.9787 215.96ZM55.6613 216.959L55.6578 217.591L57.4738 217.581L57.4772 216.949L55.6613 216.959ZM55.6555 218.023L55.6521 218.663L57.468 218.653L57.4715 218.013L55.6555 218.023ZM55.6669 215.903L55.6636 216.527L57.4796 216.517L57.4829 215.893L55.6669 215.903ZM55.1414 215.45L58.0294 215.434L58.0096 219.098L55.1217 219.114L55.1414 215.45ZM51.1673 215.128L53.7673 215.114L53.7642 215.682L51.1643 215.696L51.1673 215.128ZM52.3047 213.386L52.8567 213.383L52.817 220.735L52.265 220.738L52.3047 213.386ZM52.2775 215.458L52.6448 215.584C52.39 216.849 51.8535 218.428 51.2892 219.231C51.226 219.079 51.0833 218.848 50.988 218.721C51.5198 217.998 52.0473 216.603 52.2775 215.458ZM52.8018 216.135C52.9766 216.358 53.6511 217.378 53.8018 217.617L53.4634 218.067C53.2896 217.66 52.7268 216.703 52.5285 216.392L52.8018 216.135ZM26.674 228.198L27.0756 227.9C27.8624 228.855 28.7675 230.13 29.1631 230.928L28.7293 231.266C28.3497 230.469 27.4608 229.153 26.674 228.198ZM28.5417 227.484L29.0531 227.593C28.6125 229.187 27.9089 230.615 27.0079 231.556C26.9204 231.46 26.7215 231.253 26.61 231.158C27.5026 230.297 28.1578 228.958 28.5417 227.484ZM25.7537 226.763L30.2417 226.738L30.2386 227.306L25.7507 227.331L25.7537 226.763ZM25.9473 227.962L26.5153 227.959L26.4941 231.887L29.806 231.868L29.803 232.436L25.923 232.458L25.9473 227.962ZM29.4594 227.903L30.0114 227.9L29.9847 232.859L29.4327 232.863L29.4594 227.903ZM27.2794 225.699L27.8084 225.52C28.0304 225.879 28.2837 226.373 28.4021 226.676L27.849 226.879C27.7387 226.568 27.4934 226.073 27.2794 225.699ZM23.5989 225.831L25.2948 225.822L25.2922 226.31L23.5962 226.319L23.5989 225.831ZM24.9748 225.823L25.4868 225.82L25.4525 232.188C25.451 232.468 25.3941 232.637 25.2256 232.726C25.0491 232.823 24.8011 232.832 24.4011 232.834C24.3859 232.69 24.3071 232.451 24.236 232.299C24.4999 232.314 24.7399 232.312 24.8279 232.312C24.9079 232.303 24.94 232.279 24.9406 232.183L24.9748 225.823ZM23.4069 225.832L23.9429 225.829L23.9269 228.781C23.9204 229.997 23.8389 231.765 23.3365 232.944C23.2411 232.841 23.01 232.674 22.8904 232.61C23.3443 231.504 23.3847 229.936 23.3909 228.792L23.4069 225.832ZM23.5407 227.719L25.2447 227.71L25.2419 228.214L23.538 228.223L23.5407 227.719ZM23.5307 229.575L25.2347 229.566L25.2319 230.086L23.5279 230.095L23.5307 229.575ZM32.6016 226.725L34.6416 226.714L34.6385 227.282L32.5986 227.293L32.6016 226.725ZM36.1042 225.482L36.7202 225.479L36.6806 232.815L36.0646 232.818L36.1042 225.482ZM31.7188 228.738L32.0332 228.296C32.7032 228.661 33.5241 229.224 33.9139 229.63L33.5753 230.128C33.1935 229.714 32.3888 229.118 31.7188 228.738ZM32.8403 225.492L33.4396 225.609C33.0072 227.179 32.2957 228.575 31.3948 229.484C31.2914 229.38 31.0364 229.19 30.8929 229.095C31.7853 228.274 32.4565 226.942 32.8403 225.492ZM35.27 227.383C35.9432 228.635 37.2645 229.868 38.5573 230.444C38.4127 230.565 38.2275 230.79 38.1226 230.951C36.8223 230.286 35.5094 228.965 34.765 227.577L35.27 227.383ZM34.4736 226.715L34.5856 226.714L34.6977 226.69L35.081 226.816C34.5843 229.93 33.254 231.85 31.5368 232.819C31.4336 232.684 31.2027 232.469 31.0593 232.374C32.7681 231.468 34.0415 229.701 34.4729 226.851L34.4736 226.715ZM40.3966 226.115L40.9806 226.111L40.9446 232.791L40.3606 232.794L40.3966 226.115ZM39.036 227.714L42.156 227.697L42.1529 228.265L39.033 228.282L39.036 227.714ZM40.4188 227.922L40.794 228.08C40.4679 229.21 39.8204 230.614 39.2004 231.361C39.1453 231.193 39.0026 230.946 38.8993 230.811C39.4788 230.167 40.1255 228.916 40.4188 227.922ZM41.6795 225.556L42.0449 226.042C41.3074 226.334 40.2022 226.556 39.2895 226.689C39.2583 226.553 39.1794 226.353 39.1161 226.218C40.0208 226.069 41.0701 225.831 41.6795 225.556ZM40.9364 228.376C41.1432 228.59 41.906 229.554 42.0807 229.793L41.7021 230.267C41.5122 229.884 40.8934 228.936 40.655 228.625L40.9364 228.376ZM44.8001 225.426L45.3921 225.423L45.3525 232.775L44.7605 232.778L44.8001 225.426ZM42.0441 230.649L46.3037 229.938L46.3967 230.497L42.129 231.217L42.0441 230.649ZM42.7152 226.35L43.1011 225.996C43.5795 226.297 44.145 226.75 44.4152 227.084L43.9971 227.479C43.7429 227.144 43.1855 226.667 42.7152 226.35ZM42.384 228.432L42.7619 228.077C43.2802 228.387 43.9096 228.863 44.2038 229.206L43.8016 229.608C43.5075 229.257 42.9022 228.757 42.384 228.432ZM53.0799 225.397L53.5252 225.882C52.075 226.314 49.7059 226.543 47.7615 226.634C47.7463 226.482 47.6756 226.243 47.6203 226.107C49.5247 226.008 51.8619 225.78 53.0799 225.397ZM47.6198 227.683L53.8597 227.649L53.8566 228.225L47.6167 228.259L47.6198 227.683ZM47.0737 229.566L54.2976 229.526L54.2944 230.11L47.0705 230.15L47.0737 229.566ZM50.3954 226.26L51.0193 226.256L50.9888 231.92C50.9865 232.344 50.8575 232.529 50.553 232.626C50.2485 232.724 49.7284 232.743 48.8805 232.74C48.8414 232.572 48.7309 232.301 48.6357 232.141C49.2996 232.161 49.9396 232.15 50.1157 232.141C50.2997 232.14 50.364 232.084 50.3649 231.916L50.3954 226.26ZM59.1549 227.755C59.8679 229.039 61.2202 230.472 62.3603 231.186C62.2076 231.307 61.9904 231.54 61.8775 231.708C60.7459 230.899 59.4262 229.37 58.6498 227.958L59.1549 227.755ZM58.3149 227.768L58.8498 227.965C58.0813 229.553 56.7453 231.033 55.4052 231.808C55.2941 231.648 55.0953 231.418 54.952 231.298C56.2756 230.611 57.6192 229.188 58.3149 227.768ZM55.221 227.401L62.1089 227.363L62.1057 227.955L55.2178 227.993L55.221 227.401ZM58.3838 225.368L59.0398 225.364L59.0002 232.716L58.3442 232.72L58.3838 225.368ZM59.5491 225.857L59.9911 225.487C60.4773 225.82 61.1146 226.305 61.4329 226.623L60.9826 227.049C60.6724 226.723 60.0432 226.215 59.5491 225.857Z" fill="#666666"/>
    <path d="M28.9833 178.59L39.5671 178.532L39.5595 179.936L28.9757 179.994L28.9833 178.59ZM31.2086 184.266L37.4605 184.232L37.4534 185.54L31.2015 185.574L31.2086 184.266ZM31.2289 187.182L37.3008 187.148L37.2936 188.48L31.2217 188.514L31.2289 187.182ZM33.4204 179.082L35.1705 179.432C34.8892 180.418 34.6075 181.463 34.3638 182.161L32.9977 181.82C33.1698 181.063 33.3559 179.922 33.4204 179.082ZM30.1683 181.356L38.4842 181.31L38.4416 189.206L36.9056 189.214L36.941 182.651L31.6251 182.68L31.5897 189.244L30.1258 189.252L30.1683 181.356ZM46.2833 179.191L47.7109 179.244C47.4836 183.565 46.949 187.023 45.2213 189.205C44.9825 188.99 44.313 188.526 43.966 188.348C45.6801 186.454 46.1419 183.152 46.2833 179.191ZM45.0863 178.646L49.8382 178.62L49.831 179.952L45.0791 179.978L45.0863 178.646ZM49.1976 181.707L50.6135 181.7L50.6069 182.936L48.8189 182.945L49.1976 181.707ZM50.2296 181.702L50.4935 181.7L50.7459 181.639L51.632 181.982C50.9288 185.55 49.2239 187.947 47.0694 189.171C46.8672 188.848 46.3661 188.311 46.0673 188.084C48.1609 187.029 49.684 184.968 50.2281 181.978L50.2296 181.702ZM47.3824 182.317C48.1492 184.761 49.7454 186.936 51.9719 187.932C51.6585 188.197 51.2236 188.728 51.0177 189.089C48.6603 187.89 47.089 185.535 46.1565 182.672L47.3824 182.317ZM49.1782 178.624L50.6302 178.616C50.2743 180.069 49.7848 181.836 49.4429 182.942L48.0269 182.95C48.4171 181.796 48.8827 180.017 49.1782 178.624ZM40.9657 186.204C40.8951 185.941 40.6945 185.306 40.5404 184.959C40.8528 184.885 41.1303 184.607 41.5167 184.149C41.9391 183.703 43.2083 181.992 44.0213 180.32L45.1693 181.045C44.2486 182.67 43.0398 184.309 41.8574 185.503L41.8573 185.527C41.8573 185.527 40.9671 185.952 40.9657 186.204ZM40.9657 186.204L40.84 185.029L41.4185 184.57L44.8312 183.663C44.8053 184.023 44.8383 184.575 44.8847 184.875C41.7839 185.78 41.2909 185.975 40.9657 186.204ZM40.9101 183.157C40.8396 182.881 40.6272 182.222 40.4731 181.863C40.7255 181.79 40.9309 181.537 41.209 181.139C41.4751 180.754 42.3231 179.249 42.7748 177.831L44.0914 178.447C43.4837 179.867 42.5636 181.384 41.6699 182.445L41.6698 182.469C41.6698 182.469 40.9114 182.917 40.9101 183.157ZM40.9101 183.157L40.8796 182.149L41.4696 181.762L43.4864 181.595C43.4126 181.943 43.3498 182.459 43.3362 182.747C41.5352 182.949 41.1507 183.047 40.9101 183.157ZM40.6842 187.226C41.7059 186.896 43.2932 186.276 44.7844 185.679L45.0657 186.914C43.6825 187.521 42.2031 188.153 41.0245 188.652L40.6842 187.226Z" fill="#151522"/>
    <path d="M184.657 121.416C184.54 143.123 167.177 160.815 145.875 160.932C124.573 161.049 107.399 143.546 107.516 121.839C107.633 100.132 124.997 82.4402 146.299 82.3232C167.6 82.2062 184.774 99.7084 184.657 121.416ZM111.373 121.818C111.268 141.354 126.724 157.107 145.896 157.001C165.068 156.896 180.695 140.973 180.8 121.437C180.905 101.9 165.449 86.1483 146.277 86.2536C127.106 86.3589 111.479 102.282 111.373 121.818Z" fill="#CDD2FD"/>
    <path d="M146.288 84.2884C146.294 83.203 147.179 82.313 148.263 82.3634C155.2 82.6858 161.915 84.914 167.691 88.8294C174.011 93.1134 178.922 99.2247 181.802 106.391C184.683 113.556 185.404 121.455 183.875 129.087C182.345 136.72 178.634 143.743 173.21 149.27C167.786 154.796 160.894 158.577 153.404 160.135C145.914 161.693 138.163 160.957 131.131 158.021C124.099 155.085 118.102 150.08 113.899 143.64C110.044 137.733 107.856 130.862 107.552 123.767C107.507 122.703 108.38 121.835 109.445 121.829V121.829C110.51 121.823 111.363 122.682 111.415 123.745C111.719 130.063 113.683 136.176 117.118 141.439C120.901 147.235 126.298 151.739 132.626 154.381C138.955 157.024 145.931 157.686 152.672 156.284C159.413 154.882 165.616 151.479 170.498 146.506C175.379 141.532 178.719 135.211 180.096 128.341C181.472 121.472 180.823 114.364 178.231 107.914C175.638 101.465 171.219 95.9648 165.531 92.1092C160.387 88.6223 154.415 86.6221 148.241 86.2995C147.158 86.2428 146.282 85.3737 146.288 84.2884V84.2884Z" fill="#0066FF"/>
    <path d="M145.605 115.205L145.599 116.21L141.513 125.667L139.698 125.677L139.339 125.619L143.285 116.942L138.65 116.968L138.66 115.243L145.605 115.205ZM155.252 123.311L153.812 123.319L153.8 125.599L151.82 125.61L151.832 123.33L147.152 123.356L147.161 121.811L151.876 115.17L153.856 115.159L153.821 121.624L155.261 121.616L155.252 123.311ZM151.841 121.635L151.861 117.96L149.472 121.648L151.841 121.635ZM142.898 141.293C141.928 141.299 141.21 141.018 140.743 140.45C140.286 139.873 140.06 139.114 140.065 138.174C140.07 137.234 140.304 136.478 140.767 135.905C141.24 135.323 141.962 135.029 142.932 135.024C143.902 135.018 144.615 135.304 145.072 135.882C145.539 136.449 145.77 137.203 145.765 138.143C145.76 139.083 145.521 139.844 145.048 140.427C144.584 140.999 143.868 141.288 142.898 141.293ZM151.376 135.172L143.054 145.657L141.569 145.666L149.891 135.18L151.376 135.172ZM142.905 140.003C143.315 140.001 143.621 139.83 143.823 139.488C144.025 139.137 144.127 138.692 144.13 138.152C144.133 137.622 144.03 137.182 143.822 136.834C143.624 136.485 143.325 136.311 142.925 136.313C142.525 136.316 142.219 136.492 142.007 136.844C141.805 137.195 141.703 137.635 141.7 138.165C141.697 138.705 141.795 139.15 141.993 139.498C142.191 139.837 142.495 140.006 142.905 140.003ZM150.013 145.814C149.043 145.819 148.325 145.538 147.858 144.971C147.401 144.394 147.175 143.635 147.18 142.695C147.185 141.755 147.419 140.999 147.882 140.426C148.356 139.844 149.077 139.55 150.047 139.544C151.017 139.539 151.73 139.825 152.187 140.402C152.654 140.97 152.885 141.724 152.88 142.664C152.875 143.604 152.636 144.365 152.163 144.947C151.7 145.52 150.983 145.809 150.013 145.814ZM150.02 144.524C150.43 144.522 150.736 144.35 150.938 144.009C151.14 143.658 151.242 143.213 151.245 142.673C151.248 142.143 151.145 141.703 150.937 141.354C150.739 141.005 150.44 140.832 150.04 140.834C149.64 140.836 149.334 141.013 149.122 141.364C148.92 141.715 148.818 142.156 148.815 142.686C148.812 143.226 148.91 143.67 149.108 144.019C149.306 144.358 149.61 144.526 150.02 144.524Z" fill="#151522"/>
    <path d="M130.972 201.25L132.532 201.242L132.529 201.794L130.969 201.802L130.972 201.25ZM133.497 206.268L135.969 206.255L135.967 206.742L133.495 206.756L133.497 206.268ZM130.93 203.13L132.426 203.122L132.423 203.674L130.927 203.682L130.93 203.13ZM130.912 205.05L132.424 205.042L132.421 205.602L130.909 205.61L130.912 205.05ZM130.708 201.252L131.228 201.249L131.213 204.121C131.206 205.361 131.133 207.129 130.598 208.316C130.495 208.22 130.264 208.094 130.128 208.047C130.638 206.916 130.687 205.308 130.693 204.124L130.708 201.252ZM132.172 201.244L132.708 201.241L132.674 207.617C132.672 207.921 132.607 208.097 132.415 208.194C132.214 208.291 131.926 208.309 131.422 208.303C131.399 208.168 131.329 207.912 131.257 207.752C131.601 207.766 131.905 207.765 131.993 207.756C132.097 207.748 132.138 207.715 132.138 207.603L132.172 201.244ZM133.736 201.987L137.184 201.968L137.181 202.52L133.733 202.539L133.736 201.987ZM136.944 201.969L137.488 201.966C137.488 201.966 137.487 202.198 137.487 202.278C137.385 206.223 137.298 207.543 136.992 207.921C136.831 208.162 136.655 208.227 136.374 208.252C136.094 208.286 135.606 208.272 135.143 208.251C135.135 208.091 135.073 207.859 134.97 207.7C135.497 207.745 135.969 207.742 136.169 207.741C136.313 207.741 136.409 207.716 136.498 207.612C136.747 207.322 136.843 205.938 136.944 202.105L136.944 201.969ZM133.91 200.938L134.493 201.063C134.184 202.136 133.666 203.131 133.071 203.791C132.967 203.679 132.72 203.488 132.585 203.401C133.188 202.814 133.641 201.899 133.91 200.938ZM133.207 203.67L133.679 203.667L133.659 207.403L133.187 207.406L133.207 203.67ZM135.831 203.655L136.303 203.653L136.284 207.181L135.812 207.183L135.831 203.655ZM135.05 203.108L135.49 203.177C135.203 204.379 134.734 205.469 134.122 206.201C134.05 206.129 133.867 206.002 133.763 205.939C134.375 205.255 134.804 204.213 135.05 203.108ZM133.845 204.074L134.095 203.737C134.716 204.221 135.393 204.89 135.71 205.336L135.436 205.721C135.119 205.267 134.434 204.559 133.845 204.074ZM139.815 202.138L141.855 202.126L141.852 202.694L139.812 202.706L139.815 202.138ZM143.318 200.894L143.934 200.891L143.894 208.227L143.278 208.23L143.318 200.894ZM138.932 204.15L139.247 203.709C139.917 204.073 140.738 204.636 141.128 205.042L140.789 205.54C140.407 205.126 139.602 204.531 138.932 204.15ZM140.054 200.904L140.653 201.021C140.221 202.591 139.509 203.987 138.608 204.896C138.505 204.793 138.25 204.602 138.107 204.507C138.999 203.686 139.67 202.354 140.054 200.904ZM142.484 202.795C143.157 204.047 144.478 205.28 145.771 205.857C145.626 205.977 145.441 206.202 145.336 206.363C144.036 205.698 142.723 204.377 141.979 202.99L142.484 202.795ZM141.687 202.127L141.799 202.127L141.911 202.102L142.295 202.228C141.798 205.343 140.468 207.262 138.75 208.231C138.647 208.096 138.416 207.881 138.273 207.786C139.982 206.88 141.255 205.114 141.687 202.263L141.687 202.127ZM147.61 201.527L148.194 201.524L148.158 208.203L147.574 208.207L147.61 201.527ZM146.25 203.126L149.37 203.109L149.367 203.677L146.247 203.694L146.25 203.126ZM147.632 203.335L148.008 203.492C147.682 204.622 147.034 206.026 146.414 206.773C146.359 206.605 146.216 206.358 146.113 206.223C146.692 205.58 147.339 204.328 147.632 203.335ZM148.893 200.968L149.259 201.454C148.521 201.746 147.416 201.968 146.503 202.101C146.472 201.965 146.393 201.765 146.33 201.63C147.234 201.481 148.284 201.243 148.893 200.968ZM148.15 203.788C148.357 204.003 149.12 204.966 149.294 205.205L148.916 205.679C148.726 205.296 148.107 204.348 147.869 204.037L148.15 203.788ZM152.014 200.839L152.606 200.835L152.566 208.187L151.974 208.191L152.014 200.839ZM149.258 206.062L153.517 205.35L153.61 205.91L149.343 206.629L149.258 206.062ZM149.929 201.762L150.315 201.408C150.793 201.709 151.359 202.162 151.629 202.497L151.211 202.891C150.957 202.556 150.399 202.079 149.929 201.762ZM149.598 203.844L149.976 203.49C150.494 203.799 151.123 204.275 151.417 204.618L151.015 205.02C150.721 204.67 150.116 204.169 149.598 203.844ZM126.742 217.417L132.949 217.383L132.947 217.879L126.739 217.913L126.742 217.417ZM126.299 213.499L129.995 213.479L129.992 213.919L126.296 213.939L126.299 213.499ZM129.839 218.512L132.415 218.497L132.413 218.969L129.837 218.984L129.839 218.512ZM126.193 219.66L133.457 219.62L133.455 220.124L126.191 220.164L126.193 219.66ZM129.516 217.585L130.116 217.582L130.104 219.886L129.504 219.889L129.516 217.585ZM127.885 212.971L128.421 212.968L128.399 217.192L127.863 217.195L127.885 212.971ZM127.513 218.268L128.089 218.265L128.08 219.921L127.504 219.924L127.513 218.268ZM127.02 214.751L127.016 215.407L129.28 215.395L129.284 214.739L127.02 214.751ZM126.534 214.346L129.798 214.328L129.79 215.8L126.526 215.818L126.534 214.346ZM128.398 215.784C128.678 215.902 129.595 216.361 129.842 216.496L129.544 216.897C129.241 216.683 128.444 216.231 128.101 216.049L128.398 215.784ZM130.989 212.962L131.533 213.079C131.248 214 130.755 214.859 130.168 215.414C130.089 215.31 129.882 215.104 129.762 215.008C130.325 214.517 130.753 213.771 130.989 212.962ZM130.833 213.85L133.457 213.836L133.454 214.332L130.59 214.348L130.833 213.85ZM132.431 214.066L132.999 214.126C132.582 215.745 131.561 216.654 130.07 217.214C130.007 217.095 129.832 216.864 129.713 216.768C131.147 216.321 132.096 215.491 132.431 214.066ZM130.895 214.146C131.234 215.152 132.075 216.283 133.577 216.747C133.464 216.852 133.311 217.077 133.23 217.221C131.721 216.669 130.864 215.458 130.502 214.412L130.895 214.146ZM127.823 215.603L128.206 215.769C127.811 216.307 127.072 216.903 126.503 217.21C126.423 217.082 126.264 216.915 126.145 216.828C126.722 216.577 127.445 216.069 127.823 215.603ZM134.307 213.431L138.427 213.409L138.424 213.977L134.304 213.999L134.307 213.431ZM134.164 216.072L138.524 216.048L138.521 216.608L134.161 216.632L134.164 216.072ZM137.082 213.568L137.674 213.565L137.638 220.277L137.046 220.28L137.082 213.568ZM135.226 213.57L135.794 213.567L135.78 216.143C135.772 217.647 135.636 219.16 134.557 220.342C134.462 220.222 134.247 220.031 134.104 219.944C135.085 218.867 135.205 217.49 135.212 216.146L135.226 213.57ZM140.612 213.037L141.179 213.266C140.583 214.005 139.675 214.722 138.865 215.174C138.762 215.047 138.587 214.864 138.427 214.753C139.197 214.364 140.121 213.687 140.612 213.037ZM140.841 215.235L141.383 215.464C140.763 216.252 139.783 217.025 138.924 217.51C138.829 217.382 138.654 217.199 138.503 217.088C139.321 216.668 140.301 215.934 140.841 215.235ZM141.005 217.402L141.572 217.623C140.886 218.731 139.737 219.689 138.494 220.272C138.398 220.129 138.224 219.914 138.072 219.794C139.259 219.292 140.4 218.406 141.005 217.402ZM143.751 214.115L145.791 214.104L145.787 214.672L143.747 214.683L143.751 214.115ZM147.253 212.872L147.869 212.869L147.83 220.205L147.214 220.208L147.253 212.872ZM142.868 216.128L143.182 215.686C143.852 216.051 144.673 216.614 145.063 217.02L144.724 217.518C144.342 217.104 143.538 216.508 142.868 216.128ZM143.989 212.882L144.589 212.999C144.156 214.569 143.445 215.965 142.544 216.874C142.44 216.77 142.185 216.58 142.042 216.485C142.934 215.664 143.605 214.332 143.989 212.882ZM146.419 214.773C147.092 216.025 148.413 217.258 149.706 217.835C149.562 217.955 149.376 218.18 149.272 218.341C147.971 217.676 146.658 216.355 145.914 214.967L146.419 214.773ZM145.623 214.105L145.735 214.105L145.847 214.08L146.23 214.206C145.733 217.32 144.403 219.24 142.686 220.209C142.582 220.074 142.352 219.859 142.208 219.764C143.917 218.858 145.19 217.091 145.622 214.241L145.623 214.105ZM151.545 213.505L152.129 213.501L152.093 220.181L151.509 220.185L151.545 213.505ZM150.185 215.104L153.305 215.087L153.302 215.655L150.182 215.672L150.185 215.104ZM151.568 215.312L151.943 215.47C151.617 216.6 150.969 218.004 150.349 218.751C150.294 218.583 150.151 218.336 150.048 218.201C150.628 217.557 151.274 216.306 151.568 215.312ZM152.828 212.946L153.194 213.432C152.456 213.724 151.351 213.946 150.438 214.079C150.407 213.943 150.328 213.743 150.265 213.608C151.17 213.459 152.219 213.221 152.828 212.946ZM152.085 215.766C152.292 215.98 153.055 216.944 153.23 217.183L152.851 217.657C152.661 217.274 152.042 216.326 151.804 216.015L152.085 215.766ZM155.949 212.816L156.541 212.813L156.501 220.165L155.909 220.168L155.949 212.816ZM153.193 218.039L157.453 217.328L157.546 217.887L153.278 218.607L153.193 218.039ZM153.864 213.74L154.25 213.386C154.728 213.687 155.294 214.14 155.564 214.475L155.146 214.869C154.892 214.534 154.334 214.057 153.864 213.74ZM153.533 215.822L153.911 215.468C154.429 215.777 155.059 216.253 155.353 216.596L154.95 216.998C154.656 216.647 154.051 216.147 153.533 215.822Z" fill="#666666"/>
    <path d="M131.064 182.211L141.996 182.151L141.988 183.555L131.056 183.615L131.064 182.211ZM135.722 179.486L137.27 179.477L137.22 188.741L135.672 188.75L135.722 179.486ZM139.825 177.555L140.91 178.773C138.446 179.483 135.06 179.921 132.119 180.142C132.085 179.782 131.896 179.195 131.742 178.872C134.623 178.628 137.853 178.166 139.825 177.555ZM148.554 178.719L149.982 178.772C149.754 183.093 149.22 186.551 147.492 188.733C147.253 188.518 146.584 188.054 146.237 187.876C147.951 185.982 148.413 182.68 148.554 178.719ZM147.357 178.174L152.109 178.148L152.102 179.48L147.35 179.506L147.357 178.174ZM151.468 181.235L152.884 181.227L152.878 182.463L151.09 182.473L151.468 181.235ZM152.5 181.23L152.764 181.228L153.017 181.167L153.903 181.51C153.199 185.078 151.495 187.475 149.34 188.699C149.138 188.376 148.637 187.839 148.338 187.612C150.432 186.557 151.955 184.496 152.499 181.506L152.5 181.23ZM149.653 181.845C150.42 184.289 152.016 186.464 154.243 187.46C153.929 187.725 153.494 188.256 153.288 188.617C150.931 187.418 149.36 185.063 148.427 182.2L149.653 181.845ZM151.449 178.151L152.901 178.144C152.545 179.597 152.056 181.364 151.714 182.47L150.298 182.478C150.688 181.324 151.153 179.545 151.449 178.151ZM143.236 185.732C143.166 185.469 142.965 184.834 142.811 184.487C143.124 184.413 143.401 184.135 143.787 183.677C144.21 183.231 145.479 181.52 146.292 179.848L147.44 180.573C146.519 182.198 145.311 183.837 144.128 185.031L144.128 185.055C144.128 185.055 143.238 185.48 143.236 185.732ZM143.236 185.732L143.111 184.557L143.689 184.098L147.102 183.191C147.076 183.551 147.109 184.103 147.155 184.403C144.055 185.308 143.562 185.502 143.236 185.732ZM143.181 182.685C143.11 182.409 142.898 181.75 142.744 181.391C142.996 181.318 143.202 181.065 143.48 180.667C143.746 180.282 144.594 178.777 145.045 177.359L146.362 177.975C145.754 179.395 144.834 180.912 143.941 181.973L143.941 181.997C143.941 181.997 143.182 182.445 143.181 182.685ZM143.181 182.685L143.15 181.677L143.74 181.29L145.757 181.123C145.683 181.471 145.62 181.987 145.607 182.275C143.806 182.477 143.421 182.575 143.181 182.685ZM142.955 186.754C143.977 186.424 145.564 185.803 147.055 185.207L147.336 186.442C145.953 187.049 144.474 187.681 143.295 188.18L142.955 186.754Z" fill="#151522"/>
    <path d="M291.195 120.83C291.078 142.537 273.715 160.229 252.413 160.346C231.111 160.463 213.937 142.961 214.054 121.254C214.171 99.5469 231.535 81.855 252.836 81.738C274.138 81.621 291.312 99.1232 291.195 120.83ZM217.911 121.233C217.806 140.769 233.262 156.521 252.434 156.416C271.606 156.311 287.233 140.388 287.338 120.852C287.443 101.315 271.987 85.5631 252.815 85.6684C233.644 85.7737 218.017 101.696 217.911 121.233Z" fill="#CDD2FD"/>
    <path d="M252.826 83.7032C252.832 82.6178 253.717 81.7278 254.801 81.7782C259.802 82.0107 264.707 83.2346 269.239 85.3885C273.794 87.5535 277.873 90.6107 281.248 94.3812C281.951 95.1661 281.827 96.3759 281.014 97.063V97.063C280.178 97.7683 278.938 97.6535 278.211 96.8533C275.208 93.5489 271.599 90.8651 267.577 88.9538C263.558 87.0435 259.212 85.946 254.779 85.7143C253.696 85.6576 252.82 84.7885 252.826 83.7032V83.7032Z" fill="#0066FF"/>
    <path d="M251.606 123.322L251.596 125.062L244.306 125.102L244.316 123.362L247.241 123.346L247.275 116.956L245.351 117.807L245.291 117.807L244.878 116.534L244.878 116.474L247.873 114.643L249.268 114.635L249.221 123.335L251.606 123.322ZM261.3 122.729L259.86 122.737L259.848 125.017L257.868 125.028L257.88 122.748L253.2 122.773L253.209 121.228L257.924 114.588L259.904 114.577L259.869 121.042L261.309 121.034L261.3 122.729ZM257.889 121.053L257.909 117.378L255.519 121.066L257.889 121.053ZM248.946 140.711C247.976 140.716 247.257 140.435 246.791 139.868C246.334 139.29 246.108 138.532 246.113 137.592C246.118 136.652 246.352 135.895 246.815 135.323C247.288 134.74 248.01 134.446 248.98 134.441C249.95 134.436 250.663 134.722 251.12 135.299C251.587 135.867 251.818 136.62 251.813 137.56C251.808 138.5 251.569 139.262 251.095 139.844C250.632 140.417 249.916 140.706 248.946 140.711ZM257.424 134.59L249.102 145.075L247.617 145.083L255.939 134.598L257.424 134.59ZM248.953 139.421C249.363 139.419 249.669 139.247 249.871 138.906C250.072 138.555 250.175 138.109 250.178 137.569C250.181 137.039 250.078 136.6 249.87 136.251C249.672 135.902 249.373 135.729 248.973 135.731C248.573 135.733 248.267 135.91 248.055 136.261C247.853 136.612 247.751 137.053 247.748 137.583C247.745 138.123 247.843 138.567 248.041 138.916C248.239 139.255 248.543 139.423 248.953 139.421ZM256.061 145.232C255.091 145.237 254.373 144.956 253.906 144.388C253.449 143.811 253.223 143.052 253.228 142.112C253.233 141.172 253.467 140.416 253.93 139.844C254.403 139.261 255.125 138.967 256.095 138.962C257.065 138.956 257.778 139.242 258.235 139.82C258.702 140.387 258.933 141.141 258.928 142.081C258.923 143.021 258.684 143.782 258.211 144.365C257.748 144.937 257.031 145.226 256.061 145.232ZM256.068 143.942C256.478 143.939 256.784 143.768 256.986 143.427C257.188 143.076 257.29 142.63 257.293 142.09C257.296 141.56 257.193 141.121 256.985 140.772C256.787 140.423 256.488 140.249 256.088 140.252C255.688 140.254 255.382 140.431 255.17 140.782C254.968 141.133 254.866 141.573 254.863 142.103C254.86 142.643 254.958 143.088 255.156 143.437C255.354 143.776 255.658 143.944 256.068 143.942Z" fill="#151522"/>
    <path d="M237.446 201.345L243.782 201.31L243.779 201.814L237.443 201.849L237.446 201.345ZM236.979 203.428L244.171 203.388L244.168 203.892L236.976 203.932L236.979 203.428ZM239.469 201.542L240.029 201.539L240.017 203.691L239.457 203.694L239.469 201.542ZM241.053 201.533L241.629 201.53L241.617 203.682L241.041 203.685L241.053 201.533ZM237.834 202.143L238.331 201.948C238.625 202.315 238.894 202.825 238.988 203.177L238.467 203.388C238.373 203.044 238.112 202.526 237.834 202.143ZM238.434 200.564L238.963 200.353C239.218 200.608 239.456 200.974 239.567 201.23L239.013 201.481C238.919 201.217 238.673 200.827 238.434 200.564ZM242.795 201.884L243.338 202.073C243.087 202.522 242.781 203.02 242.531 203.341L242.068 203.184C242.302 202.831 242.625 202.277 242.795 201.884ZM242.107 200.336L242.698 200.524C242.488 200.854 242.239 201.175 242.045 201.4L241.518 201.219C241.72 200.978 241.97 200.592 242.107 200.336ZM238.157 204.413L243.005 204.387L242.988 207.667L242.356 207.67L242.371 204.87L238.755 204.89L238.74 207.714L238.14 207.717L238.157 204.413ZM238.479 205.675L242.655 205.652L242.652 206.124L238.476 206.147L238.479 205.675ZM238.48 206.955L242.656 206.932L242.653 207.42L238.477 207.443L238.48 206.955ZM246.484 201.552L248.524 201.54L248.521 202.108L246.481 202.12L246.484 201.552ZM249.987 200.308L250.603 200.305L250.563 207.641L249.947 207.644L249.987 200.308ZM245.602 203.564L245.916 203.123C246.586 203.487 247.407 204.05 247.797 204.456L247.458 204.954C247.076 204.54 246.272 203.945 245.602 203.564ZM246.723 200.318L247.322 200.435C246.89 202.005 246.179 203.401 245.278 204.31C245.174 204.207 244.919 204.016 244.776 203.921C245.668 203.1 246.339 201.768 246.723 200.318ZM249.153 202.209C249.826 203.461 251.147 204.694 252.44 205.271C252.296 205.392 252.11 205.617 252.005 205.777C250.705 205.112 249.392 203.792 248.648 202.404L249.153 202.209ZM248.356 201.541L248.468 201.541L248.581 201.516L248.964 201.642C248.467 204.757 247.137 206.676 245.42 207.645C245.316 207.51 245.086 207.295 244.942 207.2C246.651 206.294 247.924 204.528 248.356 201.677L248.356 201.541ZM254.279 200.941L254.863 200.938L254.827 207.618L254.243 207.621L254.279 200.941ZM252.919 202.54L256.039 202.523L256.036 203.091L252.916 203.108L252.919 202.54ZM254.302 202.749L254.677 202.907C254.351 204.036 253.703 205.44 253.083 206.187C253.028 206.019 252.885 205.772 252.782 205.637C253.362 204.994 254.008 203.742 254.302 202.749ZM255.562 200.382L255.928 200.868C255.19 201.16 254.085 201.382 253.172 201.515C253.141 201.379 253.062 201.179 252.999 201.044C253.904 200.895 254.953 200.657 255.562 200.382ZM254.819 203.202C255.026 203.417 255.789 204.38 255.964 204.619L255.585 205.093C255.395 204.711 254.776 203.762 254.538 203.451L254.819 203.202ZM258.683 200.253L259.275 200.249L259.235 207.601L258.643 207.605L258.683 200.253ZM255.927 205.476L260.187 204.764L260.28 205.324L256.012 206.043L255.927 205.476ZM256.598 201.176L256.984 200.822C257.462 201.123 258.028 201.576 258.298 201.911L257.88 202.305C257.626 201.97 257.068 201.493 256.598 201.176ZM256.267 203.258L256.645 202.904C257.163 203.213 257.792 203.689 258.087 204.032L257.684 204.434C257.39 204.084 256.785 203.583 256.267 203.258ZM236.914 214.02L239.41 214.006L239.407 214.566L236.911 214.58L236.914 214.02ZM239.234 214.007L239.338 214.006L239.442 213.982L239.793 214.052C239.545 217.125 238.632 218.802 237.115 219.658C237.036 219.507 236.885 219.284 236.758 219.172C238.138 218.485 239.002 216.824 239.233 214.127L239.234 214.007ZM237.083 216.747L237.405 216.313C238.298 216.86 239.358 217.678 239.843 218.283L239.488 218.789C239.019 218.176 237.968 217.31 237.083 216.747ZM237.083 216.747C237.441 215.649 237.859 213.766 238.019 212.366L238.626 212.41C238.426 213.875 237.984 215.79 237.618 216.968L237.083 216.747ZM240.001 218.546L243.457 218.527L243.454 219.087L239.998 219.106L240.001 218.546ZM240.289 215.657L243.465 215.64L243.461 216.232L240.286 216.249L240.289 215.657ZM240.11 213.114L243.726 213.094L243.691 219.646L243.115 219.649L243.147 213.641L240.107 213.658L240.11 213.114ZM245.842 215.339L251.93 215.305L251.927 215.897L245.839 215.931L245.842 215.339ZM245.397 213.293L251.733 213.258L251.73 213.826L245.394 213.861L245.397 213.293ZM245.498 215.34L246.122 215.337L246.116 216.441C246.111 217.401 245.96 218.802 245.258 219.75C245.155 219.63 244.892 219.408 244.765 219.336C245.401 218.461 245.488 217.276 245.492 216.428L245.498 215.34ZM246.609 214.15L247.138 213.931C247.4 214.266 247.701 214.744 247.836 215.056L247.29 215.307C247.164 214.995 246.879 214.501 246.609 214.15ZM250.017 213.956L250.672 214.168C250.39 214.642 250.067 215.195 249.801 215.549L249.338 215.351C249.572 214.974 249.863 214.372 250.017 213.956ZM247.922 212.471L248.514 212.3C248.761 212.587 249.007 212.993 249.117 213.265L248.484 213.468C248.39 213.189 248.152 212.774 247.922 212.471ZM254.215 212.941L254.799 212.937L254.763 219.617L254.179 219.621L254.215 212.941ZM252.854 214.54L255.974 214.523L255.971 215.091L252.851 215.108L252.854 214.54ZM254.237 214.748L254.612 214.906C254.286 216.036 253.639 217.44 253.019 218.187C252.963 218.019 252.821 217.772 252.717 217.637C253.297 216.994 253.944 215.742 254.237 214.748ZM255.498 212.382L255.863 212.868C255.126 213.16 254.02 213.382 253.108 213.515C253.076 213.379 252.997 213.179 252.934 213.044C253.839 212.895 254.888 212.657 255.498 212.382ZM254.755 215.202C254.961 215.416 255.724 216.38 255.899 216.619L255.52 217.093C255.33 216.71 254.711 215.762 254.473 215.451L254.755 215.202ZM258.618 212.252L259.21 212.249L259.171 219.601L258.579 219.604L258.618 212.252ZM255.862 217.475L260.122 216.764L260.215 217.323L255.947 218.043L255.862 217.475ZM256.533 213.176L256.919 212.822C257.398 213.123 257.963 213.576 258.233 213.911L257.815 214.305C257.561 213.97 257.004 213.493 256.533 213.176ZM256.202 215.258L256.58 214.904C257.098 215.213 257.728 215.689 258.022 216.032L257.62 216.434C257.326 216.083 256.72 215.583 256.202 215.258Z" fill="#666666"/>
    <path d="M238.511 177.757L249.119 177.699L249.112 179.103L238.504 179.161L238.511 177.757ZM242.333 181.096L247.133 181.07L247.126 182.462L242.326 182.488L242.333 181.096ZM246.617 181.073L248.129 181.064C248.129 181.064 248.115 181.52 248.09 181.7C247.89 185.409 247.678 186.874 247.195 187.417C246.845 187.827 246.46 187.961 245.92 188.012C245.427 188.075 244.599 188.067 243.808 188.036C243.786 187.628 243.585 187.017 243.299 186.623C244.139 186.702 244.967 186.697 245.315 186.695C245.579 186.694 245.735 186.669 245.892 186.524C246.253 186.198 246.454 184.685 246.616 181.313L246.617 181.073ZM241.325 178.93L242.837 178.921C242.71 182.33 242.462 186.099 239.031 188.182C238.805 187.787 238.376 187.298 237.993 187.012C241.171 185.23 241.213 181.894 241.325 178.93ZM255.825 178.13L257.252 178.182C257.025 182.503 256.49 185.962 254.763 188.144C254.524 187.929 253.854 187.465 253.507 187.286C255.221 185.393 255.683 182.091 255.825 178.13ZM254.627 177.585L259.379 177.559L259.372 178.891L254.62 178.917L254.627 177.585ZM258.739 180.646L260.155 180.638L260.148 181.874L258.36 181.884L258.739 180.646ZM259.771 180.64L260.035 180.639L260.287 180.578L261.173 180.921C260.47 184.488 258.765 186.886 256.611 188.109C256.408 187.786 255.907 187.249 255.609 187.023C257.702 185.967 259.225 183.907 259.769 180.916L259.771 180.64ZM256.924 181.256C257.69 183.7 259.287 185.875 261.513 186.87C261.2 187.136 260.765 187.667 260.559 188.028C258.202 186.829 256.63 184.473 255.698 181.611L256.924 181.256ZM258.719 177.562L260.171 177.554C259.816 179.008 259.326 180.775 258.984 181.881L257.568 181.888C257.958 180.734 258.424 178.956 258.719 177.562ZM250.507 185.143C250.436 184.879 250.236 184.245 250.082 183.897C250.394 183.824 250.672 183.546 251.058 183.088C251.48 182.642 252.75 180.931 253.563 179.259L254.711 179.984C253.79 181.609 252.581 183.248 251.399 184.442L251.399 184.466C251.399 184.466 250.508 184.891 250.507 185.143ZM250.507 185.143L250.381 183.968L250.96 183.509L254.372 182.602C254.347 182.962 254.38 183.514 254.426 183.814C251.325 184.719 250.832 184.913 250.507 185.143ZM250.451 182.095C250.381 181.82 250.168 181.161 250.014 180.802C250.267 180.729 250.472 180.475 250.75 180.078C251.016 179.692 251.864 178.188 252.316 176.769L253.633 177.386C253.025 178.805 252.105 180.322 251.211 181.383L251.211 181.407C251.211 181.407 250.453 181.855 250.451 182.095ZM250.451 182.095L250.421 181.088L251.011 180.7L253.028 180.533C252.954 180.882 252.891 181.398 252.877 181.686C251.076 181.888 250.692 181.986 250.451 182.095ZM250.225 186.165C251.247 185.835 252.834 185.214 254.326 184.618L254.607 185.852C253.224 186.46 251.744 187.092 250.566 187.591L250.225 186.165Z" fill="#151522"/>
    <path d="M2.2901 45.8488L5.33705 45.8321L5.29845 52.993L2.2515 53.0097L2.25553 52.2617L4.5325 52.2492L4.56303 46.5843L2.28607 46.5968L2.2901 45.8488ZM2.31708 49.0055L4.83604 48.9917L4.83207 49.7287L2.31311 49.7425L2.31708 49.0055ZM1.89411 45.851L2.67509 45.8467L2.63175 53.8876L1.85076 53.8919L1.89411 45.851ZM5.82511 47.1163L11.567 47.0848L11.5626 47.8988L5.82072 47.9303L5.82511 47.1163ZM9.41162 44.9517L10.2476 44.9471L10.2001 53.758C10.1968 54.363 10.0305 54.6169 9.63378 54.7511C9.23708 54.8852 8.54397 54.911 7.43305 54.9061C7.39029 54.6754 7.26031 54.3021 7.14056 54.0718C7.99842 54.0891 8.80141 54.0847 9.04347 54.0723C9.27452 54.0601 9.36288 53.9936 9.36412 53.7626L9.41162 44.9517ZM6.18801 49.1712L6.8719 48.8155C7.46139 49.6482 8.21433 50.766 8.58476 51.424L7.85646 51.857C7.50809 51.1879 6.77744 50.015 6.18801 49.1712ZM12.9955 47.3519L13.8315 47.3473L13.7903 54.9922L12.9543 54.9968L12.9955 47.3519ZM13.16 45.4041L13.8001 45.0156C14.3146 45.4638 14.9051 46.1205 15.1776 46.57L14.4822 47.0248C14.2426 46.5751 13.6633 45.8963 13.16 45.4041ZM15.8655 45.4772L21.6624 45.4454L21.6583 46.2154L15.8613 46.2472L15.8655 45.4772ZM21.1894 45.448L22.0364 45.4433L21.9906 53.9352C21.9881 54.3972 21.899 54.6177 21.6122 54.7513C21.3145 54.8849 20.8415 54.8985 20.1595 54.9022C20.1276 54.6934 20.0195 54.353 19.9107 54.1336C20.3725 54.1531 20.8236 54.1396 20.9556 54.1389C21.1096 54.1381 21.1429 54.0829 21.1436 53.9399L21.1894 45.448ZM16.1336 50.8435L16.1256 52.3285L18.7765 52.3139L18.7845 50.829L16.1336 50.8435ZM16.1452 48.6876L16.1372 50.1615L18.7882 50.147L18.7961 48.673L16.1452 48.6876ZM15.4009 48.0097L19.5808 47.9867L19.5538 53.0026L15.3738 53.0256L15.4009 48.0097ZM24.4086 50.2151C24.1959 50.2163 24.0166 50.1476 23.8707 50.0091C23.7321 49.8705 23.6634 49.6876 23.6647 49.4602C23.6659 49.2329 23.7366 49.0492 23.8766 48.9091C24.0241 48.7689 24.2041 48.6983 24.4168 48.6971C24.6294 48.696 24.805 48.7647 24.9436 48.9032C25.0895 49.0417 25.1619 49.2247 25.1607 49.452C25.1594 49.6793 25.0851 49.8631 24.9377 50.0032C24.7976 50.1433 24.6212 50.2139 24.4086 50.2151ZM24.3872 54.175C24.1746 54.1762 23.9953 54.1075 23.8494 53.969C23.7108 53.8304 23.6421 53.6475 23.6433 53.4202C23.6446 53.1928 23.7152 53.0091 23.8553 52.869C24.0027 52.7289 24.1827 52.6582 24.3954 52.6571C24.6081 52.6559 24.7837 52.7246 24.9223 52.8632C25.0682 53.0017 25.1405 53.1846 25.1393 53.4119C25.1381 53.6393 25.0638 53.823 24.9163 53.9631C24.7763 54.1032 24.5999 54.1739 24.3872 54.175Z" fill="#151522"/>
    <path d="M34.8542 53.0616L34.8492 53.9856L29.7673 54.0135L29.7713 53.2765L32.537 50.3244C32.9648 49.8675 33.2564 49.5065 33.4118 49.2417C33.5673 48.9695 33.6458 48.6978 33.6472 48.4264C33.6495 48.0011 33.5083 47.6756 33.2235 47.4498C32.9388 47.2167 32.5361 47.1016 32.0154 47.1045C31.3114 47.1083 30.654 47.3173 30.0431 47.7313L30.0484 46.7633C30.659 46.4006 31.3309 46.2173 32.0642 46.2132C32.5849 46.2104 33.0391 46.2959 33.4268 46.4697C33.8219 46.6362 34.1249 46.8765 34.3359 47.1907C34.5468 47.5049 34.6512 47.8709 34.6489 48.2889C34.6468 48.6776 34.5494 49.0704 34.3566 49.4675C34.1711 49.8645 33.8941 50.251 33.5254 50.627L31.1472 53.082L34.8542 53.0616ZM39.1287 54.0941C38.1754 54.0993 37.4734 53.7438 37.0226 53.0277C36.5792 52.3042 36.3607 51.3447 36.3671 50.1494C36.3736 48.9541 36.6024 47.9959 37.0536 47.2748C37.5121 46.5463 38.2181 46.1794 39.1714 46.1742C40.1247 46.169 40.8231 46.5281 41.2665 47.2516C41.7173 47.9678 41.9395 48.9235 41.933 50.1188C41.9266 51.3142 41.6941 52.2761 41.2355 53.0045C40.7843 53.7257 40.082 54.0888 39.1287 54.0941ZM39.1335 53.2141C39.7935 53.2105 40.2496 52.9366 40.5018 52.3926C40.7541 51.8412 40.8829 51.0852 40.888 50.1246C40.8932 49.1639 40.7726 48.413 40.5262 47.8717C40.2798 47.323 39.8267 47.0505 39.1667 47.0542C38.5067 47.0578 38.0505 47.3353 37.7982 47.8867C37.546 48.4307 37.4173 49.183 37.4121 50.1437C37.4069 51.1043 37.5275 51.859 37.7739 52.4076C38.0203 52.9489 38.4735 53.2177 39.1335 53.2141ZM48.4965 52.9977L48.4916 53.9106L43.4097 53.9386L43.4146 53.0256L45.6805 53.0131L45.7102 47.5132L44.1659 48.3137L44.1219 48.3139L43.9273 47.688L43.9276 47.644L45.9589 46.2689L46.6849 46.2649L46.6485 53.0078L48.4965 52.9977ZM52.7821 54.0191C52.2468 54.022 51.767 53.9293 51.3427 53.741C50.9184 53.5527 50.5861 53.2905 50.3459 52.9545C50.1131 52.6111 49.9979 52.2268 50.0002 51.8015C50.0025 51.3688 50.1219 50.9868 50.3583 50.6555C50.5948 50.3243 50.9003 50.0916 51.2751 49.9575C50.9384 49.8421 50.6682 49.6235 50.4646 49.302C50.2611 48.9731 50.1604 48.607 50.1626 48.2037C50.1648 47.7857 50.2805 47.4184 50.5095 47.1019C50.7385 46.7853 51.0515 46.5416 51.4484 46.3707C51.8527 46.1925 52.3078 46.102 52.8138 46.0993C53.3198 46.0965 53.7703 46.182 54.1653 46.3558C54.5678 46.5223 54.8818 46.7625 55.1074 47.0766C55.333 47.3907 55.4447 47.7567 55.4425 48.1747C55.4403 48.5707 55.3357 48.9343 55.1286 49.2654C54.9289 49.5891 54.6527 49.8143 54.3 49.9409C54.7026 50.078 55.013 50.3147 55.2311 50.6508C55.4567 50.9795 55.5683 51.3529 55.5661 51.7709C55.5638 52.2035 55.4407 52.5892 55.1969 52.9279C54.9604 53.2665 54.629 53.5323 54.2026 53.7253C53.7836 53.9182 53.3101 54.0162 52.7821 54.0191ZM52.8065 49.4871C53.3272 49.4843 53.7311 49.3721 54.0183 49.1505C54.3055 48.9216 54.4502 48.6055 54.4524 48.2022C54.4545 47.7988 54.3132 47.488 54.0284 47.2695C53.7436 47.0511 53.3372 46.9433 52.8092 46.9462C52.2812 46.9491 51.8736 47.0614 51.5865 47.2829C51.2993 47.5045 51.1546 47.817 51.1524 48.2203C51.1503 48.6236 51.2915 48.9382 51.5763 49.1639C51.8685 49.3823 52.2785 49.49 52.8065 49.4871ZM52.7647 53.1612C53.3367 53.1581 53.7773 53.0383 54.0866 52.802C54.3959 52.5583 54.5517 52.2164 54.5541 51.7764C54.5565 51.3291 54.4044 50.9853 54.0977 50.745C53.791 50.5047 53.3553 50.3861 52.7907 50.3892C52.226 50.3923 51.789 50.5157 51.4797 50.7594C51.1704 51.0031 51.0146 51.3486 51.0122 51.7959C51.0098 52.2359 51.1583 52.5761 51.4576 52.8164C51.7644 53.0494 52.2001 53.1643 52.7647 53.1612ZM62.9142 50.4436L62.9097 51.2796L60.0497 51.2953L60.0543 50.4593L62.9142 50.4436ZM72.7091 52.8537L72.7041 53.7777L67.6222 53.8056L67.6262 53.0686L70.3919 50.1165C70.8197 49.6595 71.1113 49.2986 71.2667 49.0338C71.4222 48.7616 71.5007 48.4898 71.5021 48.2185C71.5044 47.7932 71.3632 47.4676 71.0784 47.2419C70.7937 47.0088 70.391 46.8937 69.8703 46.8965C69.1663 46.9004 68.5089 47.1093 67.898 47.5233L67.9033 46.5553C68.5138 46.1927 69.1858 46.0093 69.9191 46.0053C70.4398 46.0024 70.894 46.0879 71.2817 46.2618C71.6768 46.4283 71.9798 46.6686 72.1908 46.9828C72.4017 47.2969 72.5061 47.663 72.5038 48.081C72.5017 48.4697 72.4043 48.8625 72.2115 49.2596C72.026 49.6566 71.7489 50.0431 71.3803 50.4191L69.0021 52.874L72.7091 52.8537ZM76.9836 53.8861C76.0303 53.8914 75.3282 53.5359 74.8775 52.8198C74.434 52.0962 74.2156 51.1368 74.222 49.9415C74.2284 48.7462 74.4573 47.788 74.9085 47.0668C75.367 46.3384 76.073 45.9715 77.0263 45.9663C77.9796 45.961 78.678 46.3202 79.1214 47.0437C79.5722 47.7599 79.7944 48.7156 79.7879 49.9109C79.7815 51.1062 79.549 52.0681 79.0904 52.7966C78.6392 53.5177 77.9369 53.8809 76.9836 53.8861ZM76.9884 53.0062C77.6484 53.0025 78.1045 52.7287 78.3567 52.1847C78.609 51.6333 78.7378 50.8773 78.7429 49.9167C78.7481 48.956 78.6275 48.205 78.3811 47.6637C78.1347 47.1151 77.6816 46.8426 77.0216 46.8462C76.3616 46.8499 75.9054 47.1274 75.6531 47.6787C75.4009 48.2228 75.2722 48.9751 75.267 49.9357C75.2618 50.8964 75.3824 51.651 75.6288 52.1997C75.8752 52.7409 76.3284 53.0098 76.9884 53.0062ZM86.3515 52.7787L86.3465 53.7027L81.2646 53.7306L81.2685 52.9936L84.0343 50.0416C84.4621 49.5846 84.7537 49.2237 84.9091 48.9588C85.0646 48.6866 85.143 48.4149 85.1445 48.1436C85.1468 47.7182 85.0056 47.3927 84.7208 47.1669C84.4361 46.9338 84.0334 46.8187 83.5127 46.8216C82.8087 46.8255 82.1513 47.0344 81.5404 47.4484L81.5456 46.4804C82.1562 46.1177 82.8282 45.9344 83.5615 45.9304C84.0822 45.9275 84.5363 46.013 84.9241 46.1869C85.3191 46.3534 85.6222 46.5937 85.8331 46.9078C86.0441 47.222 86.1484 47.5881 86.1462 48.0061C86.1441 48.3947 86.0467 48.7876 85.8539 49.1846C85.6684 49.5816 85.3913 49.9681 85.0226 50.3441L82.6445 52.7991L86.3515 52.7787ZM91.7592 49.6802C92.2056 49.8537 92.5525 50.1085 92.8 50.4444C93.0549 50.773 93.1812 51.1573 93.1788 51.5973C93.1765 52.0226 93.0535 52.4046 92.8096 52.7433C92.5659 53.0746 92.2235 53.3368 91.7825 53.5299C91.3488 53.7156 90.8533 53.81 90.296 53.813C89.9 53.8152 89.5226 53.7659 89.1638 53.6652C88.8124 53.5645 88.4539 53.4088 88.0884 53.1982L88.0939 52.1862L88.1379 52.1859C88.5105 52.4406 88.8688 52.6292 89.2128 52.752C89.5641 52.8674 89.9231 52.9241 90.2898 52.9221C90.8471 52.919 91.2988 52.7882 91.6449 52.5297C91.9909 52.2711 92.165 51.9365 92.1672 51.5258C92.1696 51.0932 91.9771 50.7533 91.5898 50.5061C91.2098 50.2515 90.6935 50.126 90.0409 50.1296L89.5569 50.1322L89.5616 49.2633L90.0455 49.2606C90.6762 49.2571 91.1644 49.1481 91.5102 48.9336C91.8561 48.7117 92.0301 48.4064 92.0322 48.0177C92.0342 47.6364 91.8818 47.3366 91.575 47.1183C91.2755 46.8999 90.8655 46.7922 90.3448 46.7951C90.0295 46.7968 89.7176 46.8462 89.4091 46.9432C89.1079 47.0328 88.7698 47.185 88.3947 47.3997L88.3507 47.4L88.3558 46.443C89.0104 46.0801 89.697 45.8967 90.4157 45.8927C90.9363 45.8898 91.3942 45.9717 91.7893 46.1382C92.1844 46.2973 92.4875 46.5266 92.6986 46.8261C92.9169 47.1256 93.025 47.4733 93.0229 47.8693C93.0207 48.2726 92.9051 48.6326 92.6761 48.9492C92.4544 49.2657 92.1488 49.5094 91.7592 49.6802Z" fill="#0066FF"/>
    <path d="M7.71394 20.9136L19.7618 20.8474L19.7482 23.3674L7.70036 23.4335L7.71394 20.9136ZM10.3386 1.48402L13.0693 2.42897C11.0591 5.82387 7.85062 8.91336 4.74445 10.8263C4.29143 10.2768 3.2414 9.17866 2.62 8.7021C5.72449 7.10111 8.6668 4.42107 10.3386 1.48402ZM19.0606 4.00399L19.6606 4.0007L20.1413 3.85406L22.1982 5.16271C18.5668 11.0144 10.9163 14.5123 3.51575 16.1608C3.25589 15.3943 2.63824 14.2218 2.11374 13.5767C8.93624 12.3152 16.2496 9.03521 19.0583 4.43599L19.0606 4.00399ZM9.09336 5.42668C12.1445 9.27375 18.2487 12.1441 25.1547 13.2101C24.4792 13.8618 23.6805 15.1141 23.2682 15.9084C16.2677 14.5789 10.3334 11.3476 6.66332 6.56798L9.09336 5.42668ZM6.28023 15.3057L21.016 15.2248L20.9678 24.1766L17.8958 24.1935L17.9301 17.8336L9.17022 17.8817L9.13542 24.3376L6.23146 24.3536L6.28023 15.3057ZM10.2527 4.05237L19.7086 4.00043L19.6953 6.4724L8.51142 6.53383L10.2527 4.05237ZM27.2093 6.02314L48.209 5.90779L48.1948 8.54775L27.1951 8.6631L27.2093 6.02314ZM26.9421 15.5282L48.3738 15.4105L48.3594 18.0744L26.9278 18.1922L26.9421 15.5282ZM42.9748 1.90472L46.0901 2.75157C45.0508 4.12522 43.9157 5.4514 43.0469 6.34413L40.6513 5.54133C41.4728 4.52886 42.4409 3.01161 42.9748 1.90472ZM36.1367 1.6063L39.0167 1.59048L38.9554 12.9663L36.0754 12.9821L36.1367 1.6063ZM29.5047 3.15466L32.0064 2.08497C32.985 3.06355 34.0575 4.44959 34.5082 5.43107L31.8619 6.62156C31.4591 5.66381 30.459 4.20537 29.5047 3.15466ZM39.7892 14.1137L41.4044 12.7609C42.6258 13.2341 44.3257 13.9688 45.2106 14.5399L43.4988 16.0132C42.7099 15.4416 41.0582 14.6587 39.7892 14.1137ZM36.0728 13.4621L39.0968 13.4455C38.5619 19.1842 37.2235 22.5994 27.7594 24.1873C27.5237 23.3966 26.8344 22.1525 26.2859 21.5075C34.8839 20.3324 35.6407 17.9523 36.0728 13.4621ZM35.3149 7.15457L37.7097 8.10137C35.6064 10.9448 32.0905 13.196 28.3646 14.3204C27.9606 13.5787 27.1027 12.4554 26.4579 11.859C30.0381 11.0474 33.5516 9.25216 35.3149 7.15457ZM39.6593 7.03471C41.3995 9.20905 44.9187 10.8217 48.8027 11.5203C48.1758 12.0757 47.3537 13.2082 46.9657 13.9543C42.8909 13.0167 39.3986 10.876 37.3027 7.91161L39.6593 7.03471ZM38.9129 16.3984C40.3844 19.4382 43.5684 20.9086 48.8945 21.2154C48.2429 21.8909 47.4199 23.1914 47.0552 24.0573C41.2272 23.3694 38.1186 21.2745 36.1981 16.9413L38.9129 16.3984ZM68.3925 1.38112L70.4677 3.74562C65.5169 5.04476 58.6018 5.68271 52.7208 5.90701C52.6527 5.18742 52.299 4.01341 52.0384 3.39087C57.8236 3.1191 64.4509 2.45873 68.3925 1.38112ZM52.228 8.28561L71.2117 8.18134L71.1969 10.9413L52.2131 11.0456L52.228 8.28561ZM50.5419 13.8866L72.5976 13.7655L72.5824 16.5734L50.5268 16.6946L50.5419 13.8866ZM60.1424 4.81029L63.1424 4.79381L63.0574 20.5616C63.0482 22.2656 62.612 23.0359 61.4577 23.4742C60.3033 23.9366 58.5509 24.0182 56.1031 24.0076C55.9155 23.1927 55.3705 21.8997 54.9425 21.1581C56.7181 21.2204 58.7342 21.1853 59.2862 21.1823C59.8382 21.1792 60.0551 21.0101 60.0577 20.5301L60.1424 4.81029ZM87.9099 9.12157C89.8589 12.6387 93.6059 16.506 97.0023 18.6232C96.2551 19.2273 95.2167 20.4089 94.6604 21.228C91.2662 18.6787 87.738 14.3063 85.5289 10.0706L87.9099 9.12157ZM83.7096 9.21664L86.2965 10.1384C84.0152 14.8547 80.3445 19.0987 76.2276 21.5212C75.7037 20.7561 74.7261 19.5855 74.0333 18.9894C78.0279 16.9995 81.7927 13.115 83.7096 9.21664ZM75.0563 7.29626L96.056 7.18091L96.0407 10.0129L75.0411 10.1282L75.0563 7.29626ZM84.0879 1.36691L87.2798 1.34937L87.1584 23.885L83.9664 23.9026L84.0879 1.36691ZM88.1334 3.2886L90.2788 1.52489C91.5694 2.50176 93.4336 3.93146 94.3405 4.88643L92.0978 6.89066C91.2631 5.91129 89.4715 4.3612 88.1334 3.2886ZM109.05 5.23762L120.066 5.17711L120.051 7.86507L109.035 7.92558L109.05 5.23762ZM102.468 19.7931L116.364 19.7168L116.349 22.4288L102.453 22.5051L102.468 19.7931ZM107.824 1.23653L110.823 1.22005L110.758 13.3639L107.758 13.3804L107.824 1.23653ZM100.757 12.1469L118.301 12.0505L118.239 23.5223L115.263 23.5387L115.31 14.7548L103.575 14.8193L103.527 23.7231L100.695 23.7387L100.757 12.1469ZM127.129 8.23417L133.177 8.20095L133.162 11.0329L127.114 11.0661L127.129 8.23417ZM125.438 1.37976L128.414 1.36342L128.309 20.8511L125.329 21.5635L125.438 1.37976ZM122.289 20.1882C125.147 19.6926 129.448 18.805 133.388 17.9194L133.661 20.7497C130.009 21.6098 126.068 22.4714 123.089 23.1597L122.289 20.1882ZM142.523 6.2777L144.525 8.76259C142.07 10.072 139.04 11.3126 136.395 12.2871C136.23 11.616 135.78 10.6105 135.423 9.98854C137.948 9.01471 140.692 7.5117 142.523 6.2777ZM134.606 1.32941L137.582 1.31306L137.487 18.8568C137.48 20.2488 137.599 20.4401 138.511 20.4351C138.919 20.4329 140.671 20.4233 141.127 20.4207C142.039 20.4157 142.187 19.575 142.349 16.2862C143.042 16.8104 144.239 17.3318 145.054 17.5193C144.72 21.625 143.968 23.189 141.376 23.2033C140.8 23.2064 138.616 23.2184 138.064 23.2214C135.256 23.2369 134.493 22.2571 134.511 18.8492L134.606 1.32941Z" fill="#171725"/>
</svg>
