<svg width="259" height="552" viewBox="0 0 259 552" fill="none" xmlns="http://www.w3.org/2000/svg">
    <rect width="252.265" height="549.622" rx="10" transform="matrix(0.999985 -0.00549278 -0.00539025 0.999985 3.35846 2.31061)" fill="white"/>
    <path d="M25.7009 61.1279L26.3689 61.8562C24.1935 62.5041 20.6398 62.8476 17.7232 62.9836C17.7005 62.7557 17.5944 62.3963 17.5115 62.1928C20.3682 62.0451 23.8739 61.7019 25.7009 61.1279ZM17.5108 64.5567L26.8706 64.5053L26.866 65.3693L17.5061 65.4207L17.5108 64.5567ZM16.6916 67.3811L27.5274 67.3216L27.5227 68.1976L16.6869 68.2571L16.6916 67.3811ZM21.6741 62.4219L22.6101 62.4168L22.5643 70.9127C22.5608 71.5487 22.3674 71.8257 21.9106 71.9722C21.4538 72.1187 20.6737 72.147 19.4018 72.142C19.3431 71.8903 19.1774 71.4833 19.0346 71.244C20.0304 71.2746 20.9905 71.2573 21.2545 71.2439C21.5305 71.2423 21.627 71.1578 21.6284 70.9058L21.6741 62.4219ZM34.8134 64.6657C35.883 66.5917 37.9113 68.7405 39.6214 69.811C39.3925 69.9923 39.0666 70.342 38.8973 70.595C37.1999 69.3803 35.2203 67.0873 34.0558 64.9698L34.8134 64.6657ZM33.5534 64.6846L34.3557 64.9802C33.2029 67.3624 31.1991 69.5813 29.1889 70.7443C29.0222 70.5052 28.7241 70.1589 28.509 69.9801C30.4945 68.9492 32.5099 66.8142 33.5534 64.6846ZM28.9125 64.1341L39.2444 64.0773L39.2396 64.9653L28.9077 65.0221L28.9125 64.1341ZM33.6568 61.0842L34.6407 61.0788L34.5813 72.1066L33.5973 72.112L33.6568 61.0842ZM35.4047 61.8185L36.0677 61.2629C36.797 61.7629 37.753 62.4896 38.2304 62.967L37.555 63.6066C37.0896 63.1172 36.1458 62.3544 35.4047 61.8185ZM42.1525 65.5133L45.1405 65.4969L45.1359 66.3369L42.148 66.3533L42.1525 65.5133ZM44.7805 65.4989L45.6565 65.4941C45.6565 65.4941 45.655 65.7581 45.6544 65.8781C45.5798 68.5903 45.5023 69.5987 45.2485 69.9361C45.0554 70.1532 44.8629 70.2382 44.5267 70.2761C44.2145 70.3138 43.6746 70.3047 43.0867 70.284C43.0642 70.0201 42.97 69.6726 42.8393 69.4454C43.379 69.4904 43.907 69.4875 44.111 69.4864C44.279 69.4855 44.3991 69.4728 44.4836 69.3643C44.6648 69.1473 44.7297 68.247 44.7796 65.6549L44.7805 65.4989ZM48.1854 61.5923L48.7284 61.0254C49.4703 61.4053 50.4152 61.9761 50.8809 62.3935L50.3136 63.0086C49.8599 62.5911 48.9392 61.9842 48.1854 61.5923ZM49.8838 64.8349L50.7826 65.0459C49.7458 68.1835 47.9453 70.5093 45.4775 71.9748C45.3465 71.7955 45.0125 71.4253 44.8215 71.2464C47.2644 69.937 48.9682 67.7318 49.8838 64.8349ZM42.2378 63.053L51.5256 63.0019L51.5208 63.8899L42.233 63.9409L42.2378 63.053ZM41.6618 63.0561L42.5978 63.051L42.5795 66.4349C42.5703 68.1389 42.3653 70.5639 41.2648 72.1419C41.1098 71.9628 40.7275 71.6529 40.5121 71.5461C41.516 70.0646 41.6351 68 41.6436 66.4281L41.6618 63.0561ZM46.6526 61.0128L47.5885 61.0076C47.5348 66.5277 48.6865 71.0212 50.2465 71.0126C50.5825 71.0108 50.7419 70.3859 50.8225 68.7895C51.0254 68.9924 51.3602 69.1946 51.5998 69.2772C51.4207 71.3301 51.0816 71.92 50.1696 71.925C47.7216 71.9384 46.6696 66.7604 46.6526 61.0128ZM52.8909 63.4864L63.3668 63.4289L63.3619 64.3409L52.886 64.3984L52.8909 63.4864ZM55.2621 68.8252L60.854 68.7944L60.8491 69.7064L55.2571 69.7371L55.2621 68.8252ZM57.6445 60.9404L58.5924 60.9352L58.533 71.963L57.585 71.9683L57.6445 60.9404ZM57.3533 63.7619L58.1558 64.0335C57.0741 66.5833 55.1777 68.8856 53.0952 70.109C52.9525 69.8818 52.6543 69.5474 52.4513 69.3686C54.4609 68.3136 56.3809 66.0711 57.3533 63.7619ZM58.877 63.7895C59.8127 66.0643 61.6849 68.2379 63.7555 69.2225C63.5265 69.4157 63.2126 69.7774 63.0672 70.0302C60.9496 68.8659 59.114 66.5841 58.0716 64.0699L58.877 63.7895ZM64.8614 62.1847L69.2054 62.1609L69.2012 62.9408L64.8572 62.9647L64.8614 62.1847ZM69.6338 65.0384L75.0744 64.1445L75.2021 64.9478L69.7615 65.8416L69.6338 65.0384ZM69.3672 67.7517L75.5161 66.794L75.6318 67.5973L69.4828 68.567L69.3672 67.7517ZM74.144 60.8978L74.8967 61.4936C73.5963 62.3167 71.5887 63.0117 69.786 63.5136C69.7391 63.3219 69.6088 63.0106 69.4897 62.8313C71.2083 62.3418 73.1321 61.6233 74.144 60.8978ZM71.6269 62.6035L72.5029 62.5987L72.4612 70.3266C72.4584 70.8426 72.5299 70.9382 72.9739 70.9358C73.1659 70.9347 74.1499 70.9293 74.4019 70.9279C74.7859 70.9258 74.8596 70.6014 74.9153 69.1732C75.1185 69.3281 75.4537 69.4702 75.6934 69.5289C75.5885 71.1734 75.3577 71.6906 74.4577 71.6956C74.2417 71.6968 73.0538 71.7033 72.8618 71.7043C71.8538 71.7099 71.5793 71.4234 71.5853 70.3194L71.6269 62.6035ZM64.66 66.1696L69.4239 66.1435L69.4196 66.9355L64.6557 66.9616L64.66 66.1696ZM65.0908 64.1514L68.9788 64.13L68.9746 64.91L65.0866 64.9314L65.0908 64.1514ZM66.7404 60.8785L67.5924 60.8738L67.5329 71.9016L66.6809 71.9063L66.7404 60.8785ZM66.6624 66.4346L67.249 66.6954C66.7498 68.0301 65.8051 69.6552 64.9247 70.488C64.83 70.2485 64.6279 69.8897 64.4969 69.6984C65.2929 68.962 66.2244 67.565 66.6624 66.4346ZM67.4769 66.7181C67.823 67.0642 69.063 68.5334 69.3371 68.8918L68.7572 69.615C68.4004 69.017 67.3758 67.6547 66.9585 67.165L67.4769 66.7181ZM78.2239 63.1073L85.7597 63.0659L85.7644 62.2019L77.4125 62.2478L77.4161 61.5878L86.6079 61.5373L86.5962 63.7093L78.2204 63.7553L78.2239 63.1073ZM78.0236 64.6443L86.7235 64.5965L86.72 65.2445L77.8401 65.2933L78.0236 64.6443ZM86.4595 64.598L87.2994 64.5934C87.2994 64.5934 87.2864 64.7854 87.2858 64.9054C87.1976 65.6859 87.1115 66.0703 86.9185 66.2634C86.7616 66.4202 86.5813 66.4812 86.3293 66.4826C86.1252 66.5077 85.7172 66.498 85.2854 66.4763C85.2744 66.2964 85.2037 66.0448 85.1207 65.8653C85.4924 65.9112 85.8164 65.9094 85.9484 65.9087C86.0804 65.908 86.1645 65.8955 86.2249 65.8232C86.3214 65.7267 86.383 65.4264 86.4589 64.706L86.4595 64.598ZM80.3961 60.8154L81.2241 60.8109L81.2109 63.2589C81.2015 65.0108 80.7136 66.4774 77.2411 67.3365C77.1701 67.1449 76.956 66.7981 76.8009 66.6429C79.9849 65.8695 80.3754 64.6554 80.383 63.2514L80.3961 60.8154ZM83.1441 60.8003L83.9961 60.7957L83.9652 66.5196L83.1132 66.5243L83.1441 60.8003ZM78.3357 66.8505L85.9556 66.8086L85.938 70.0726L85.026 70.0776L85.0395 67.5696L79.2076 67.6017L79.1937 70.1816L78.3177 70.1864L78.3357 66.8505ZM81.7728 68.0916L82.6728 68.0866C82.2169 70.309 80.9872 71.3597 76.9767 71.8617C76.9178 71.6581 76.7398 71.2991 76.5968 71.1079C80.3668 70.7152 81.3792 69.8816 81.7728 68.0916ZM82.3375 70.1884L82.8088 69.5738C84.3067 69.9496 86.3311 70.6104 87.4084 71.0965L86.9126 71.8072C85.8832 71.3208 83.8592 70.612 82.3375 70.1884ZM77.8879 63.1091L78.7039 63.1046C78.6038 63.8492 78.4671 64.7259 78.3441 65.2905L77.5041 65.2951C77.6513 64.7063 77.8 63.8296 77.8879 63.1091ZM94.412 60.7265L95.228 60.722L95.2006 65.7979C95.1877 68.1979 94.9003 70.3113 92.7204 71.7873C92.5774 71.6081 92.2789 71.3337 92.0757 71.1908C94.1108 69.8477 94.373 67.9623 94.3846 65.8024L94.412 60.7265ZM96.4759 60.7151L97.3399 60.7104L97.2805 71.7382L96.4165 71.743L96.4759 60.7151ZM92.4329 62.7892L94.7609 62.7764L94.7564 63.6044L92.4285 63.6172L92.4329 62.7892ZM96.9209 62.7646L99.4288 62.7508L99.4244 63.5788L96.9164 63.5926L96.9209 62.7646ZM96.9553 65.2843L99.2953 65.2714L99.2909 66.0754L96.951 66.0883L96.9553 65.2843ZM96.8812 67.9006L99.6051 67.8856L99.6007 68.7136L96.8767 68.7286L96.8812 67.9006ZM92.5034 65.3087L94.7833 65.2962L94.779 66.1002L92.499 66.1127L92.5034 65.3087ZM91.8025 68.4444C92.4995 68.2486 93.4612 67.9314 94.4468 67.614L94.5751 68.3092C93.7454 68.6378 92.8917 68.9544 92.1463 69.2225L91.8025 68.4444ZM88.4265 66.9871C89.3639 66.7179 90.7702 66.2782 92.1406 65.8267L92.2561 66.654C91.0058 67.0929 89.6835 67.5321 88.6618 67.8617L88.4265 66.9871ZM88.615 63.1822L92.2629 63.1622L92.2584 64.0021L88.6105 64.0222L88.615 63.1822ZM90.14 60.7619L90.98 60.7573L90.9261 70.7412C90.9234 71.2452 90.8021 71.4858 90.5014 71.6315C90.2246 71.777 89.7565 71.8035 89.0005 71.8077C88.9656 71.5919 88.8596 71.2205 88.741 70.9692C89.2689 70.9783 89.7249 70.9757 89.869 70.963C90.013 70.9622 90.0852 70.9258 90.0862 70.7458L90.14 60.7619ZM104.451 70.4029L110.247 70.371L110.243 71.199L104.447 71.2309L104.451 70.4029ZM104.089 61.8852L108.493 61.8611L108.489 62.665L104.085 62.6892L104.089 61.8852ZM104.636 60.6343L105.643 60.8328C104.734 62.3977 103.286 64.0376 101.191 65.285C101.06 65.0577 100.762 64.7474 100.559 64.5925C102.545 63.5017 103.933 61.9461 104.636 60.6343ZM108.193 61.8627L108.361 61.8618L108.529 61.8129L109.128 62.1336C107.668 65.7654 104.271 68.196 101.002 69.2699C100.895 69.0305 100.669 68.6597 100.478 68.4688C103.591 67.5517 106.927 65.1815 108.192 62.0187L108.193 61.8627ZM102.578 64.0295L103.253 63.4498C104.197 64.0926 105.344 65.0462 105.892 65.7272L105.157 66.3792C104.657 65.698 103.522 64.6962 102.578 64.0295ZM109.824 66.5815L110.748 66.5765L110.72 71.7004L109.796 71.7055L109.824 66.5815ZM104.88 66.6087L110.28 66.579L110.275 67.407L104.875 67.4367L104.852 71.7086L103.952 71.7136L103.976 67.3216L104.7 66.6097L104.88 66.6087Z" fill="#999999"/>
    <path d="M34.4166 25.9904L36.4918 28.3549C31.541 29.654 24.6259 30.292 18.7449 30.5163C18.6768 29.7967 18.3232 28.6227 18.0625 28.0001C23.8477 27.7284 30.475 27.068 34.4166 25.9904ZM18.2521 32.8949L37.2358 32.7906L37.221 35.5506L18.2373 35.6548L18.2521 32.8949ZM16.566 38.4959L38.6217 38.3747L38.6065 41.1827L16.5509 41.3039L16.566 38.4959ZM26.1665 29.4196L29.1665 29.4031L29.0815 45.1708C29.0723 46.8748 28.6362 47.6452 27.4818 48.0835C26.3274 48.5458 24.575 48.6274 22.1272 48.6169C21.9396 47.802 21.3946 46.509 20.9666 45.7674C22.7422 45.8296 24.7583 45.7946 25.3103 45.7915C25.8623 45.7885 26.0792 45.6193 26.0818 45.1393L26.1665 29.4196ZM53.934 33.7308C55.883 37.248 59.63 41.1152 63.0264 43.2325C62.2792 43.8365 61.2409 45.0182 60.6845 45.8372C57.2904 43.288 53.7621 38.9156 51.553 34.6799L53.934 33.7308ZM49.7337 33.8259L52.3206 34.7477C50.0393 39.464 46.3686 43.708 42.2517 46.1305C41.7279 45.3654 40.7502 44.1948 40.0575 43.5986C44.052 41.6088 47.8168 37.7243 49.7337 33.8259ZM41.0804 31.9055L62.0801 31.7902L62.0649 34.6221L41.0652 34.7375L41.0804 31.9055ZM50.112 25.9762L53.304 25.9586L53.1825 48.4943L49.9905 48.5118L50.112 25.9762ZM54.1575 27.8979L56.3029 26.1342C57.5935 27.111 59.4578 28.5407 60.3646 29.4957L58.1219 31.4999C57.2872 30.5206 55.4956 28.9705 54.1575 27.8979ZM67.9432 34.8778L73.4871 34.8474L73.4729 37.4873L67.929 37.5178L67.9432 34.8778ZM72.3832 34.8534L75.1911 34.838C75.1911 34.838 75.1632 35.5581 75.1614 35.8941C75.038 40.9826 74.9065 43.1192 74.3505 43.8662C73.8673 44.4689 73.3861 44.6875 72.6895 44.8113C72.041 44.9109 71.009 44.9165 69.8811 44.8987C69.8376 44.059 69.5317 42.9327 69.1036 42.2151C69.9671 42.3064 70.7831 42.3019 71.1671 42.2998C71.5031 42.2979 71.7193 42.2488 71.9126 42.0077C72.2027 41.6221 72.3077 39.9416 72.3808 35.2854L72.3832 34.8534ZM79.6475 27.3019L81.385 25.5404C82.7012 26.2291 84.4712 27.3234 85.3309 28.1106L83.4725 30.0647C82.685 29.2291 80.9874 28.0625 79.6475 27.3019ZM82.4462 33.4542L85.3464 34.1343C83.2967 40.4092 79.7425 45.3006 74.9748 48.2546C74.546 47.657 73.4965 46.4628 72.8996 45.8901C77.5209 43.3928 80.7603 39.0312 82.4462 33.4542ZM68.1405 29.453L86.6442 29.3513L86.6289 32.1833L68.1252 32.2849L68.1405 29.453ZM66.2205 29.4635L69.2444 29.4469L69.2064 36.5028C69.187 40.1028 68.7503 45.4329 66.5489 48.6849C66.072 48.1115 64.7817 47.0627 64.1115 46.7304C65.975 43.8402 66.1656 39.6394 66.1826 36.4954L66.2205 29.4635ZM75.9836 25.8341L79.0076 25.8175C78.7868 35.6102 80.9429 45.222 83.3668 45.2087C83.9188 45.2056 84.2134 43.9801 84.3737 40.9553C85.0181 41.6237 86.0465 42.2901 86.8129 42.5738C86.3328 47.0403 85.367 48.1255 83.1111 48.1379C77.8791 48.1667 75.9966 36.7775 75.9836 25.8341ZM89.0144 30.3943L110.254 30.2776L110.238 33.2056L88.9987 33.3222L89.0144 30.3943ZM93.8996 41.263L105.035 41.2018L105.02 44.1298L93.8839 44.1909L93.8996 41.263ZM98.0874 25.6887L101.159 25.6718L101.038 48.2074L97.9659 48.2243L98.0874 25.6887ZM97.1926 31.4053L99.8281 32.2308C97.7359 37.4741 94.3032 42.0767 90.0891 44.7397C89.613 44.0224 88.6589 42.9237 88.014 42.3512C91.9616 40.1697 95.4649 35.8306 97.1926 31.4053ZM101.992 31.4509C103.721 35.7133 107.203 39.87 111.223 41.9358C110.5 42.5397 109.462 43.7454 108.977 44.564C104.767 41.9952 101.432 37.4298 99.3716 32.3293L101.992 31.4509ZM112.858 27.9834L121.882 27.9338L121.869 30.3578L112.845 30.4074L112.858 27.9834ZM122.739 33.6649L133.572 31.9495L133.966 34.4912L123.133 36.2546L122.739 33.6649ZM122.254 39.0193L134.504 37.1281L134.85 39.6701L122.624 41.6332L122.254 39.0193ZM131.303 25.5302L133.668 27.4371C130.804 29.1088 126.789 30.3788 123.184 31.2385C123.044 30.6393 122.617 29.6577 122.26 29.1077C125.624 28.2493 129.255 26.9094 131.303 25.5302ZM126.386 29.445L129.17 29.4297L129.091 44.0215C129.085 45.1255 129.18 45.293 129.852 45.2893C130.14 45.2877 131.364 45.281 131.7 45.2791C132.324 45.2757 132.448 44.6271 132.558 41.9146C133.18 42.3911 134.257 42.8652 135 43.0291C134.718 46.5105 134.039 47.7142 131.927 47.7258C131.423 47.7286 129.815 47.7374 129.359 47.7399C126.935 47.7532 126.292 46.8928 126.307 44.0368L126.386 29.445ZM112.503 35.953L122.367 35.8988L122.354 38.3948L112.49 38.449L112.503 35.953ZM113.269 31.941L121.381 31.8964L121.368 34.3204L113.256 34.3649L113.269 31.941ZM116.327 25.5645L118.991 25.5498L118.87 48.0855L116.206 48.1001L116.327 25.5645ZM116.386 36.8676L118.182 37.6977C117.111 40.4395 115.245 43.7376 113.292 45.4763C113.032 44.6857 112.463 43.5369 112.058 42.8431C113.746 41.4179 115.535 38.8882 116.386 36.8676ZM118.686 37.719C119.426 38.3869 121.907 41.1571 122.455 41.8501L120.643 44.0439C119.859 42.6803 118.024 40.1945 117.095 39.0477L118.686 37.719ZM139.872 29.7069L154.152 29.6285L154.157 28.5485L138.15 28.6365L138.16 26.7165L156.784 26.6142L156.757 31.5101L139.862 31.6029L139.872 29.7069ZM139.376 32.6375L156.488 32.5435L156.478 34.4395L138.838 34.5364L139.376 32.6375ZM155.576 32.5486L158.264 32.5338C158.264 32.5338 158.237 33.0139 158.236 33.3259C158.107 34.9825 157.934 35.8955 157.523 36.3777C157.161 36.7877 156.656 36.9584 156.128 36.9853C155.672 37.0358 154.808 37.0406 153.848 36.9979C153.827 36.47 153.615 35.7032 153.378 35.1765C153.977 35.2692 154.457 35.2666 154.721 35.2651C154.937 35.2639 155.081 35.2392 155.226 35.0944C155.371 34.8776 155.471 34.2531 155.574 32.8606L155.576 32.5486ZM143.759 25.4378L146.351 25.4235L146.322 30.7755C146.302 34.3994 145.183 37.3334 138.071 38.7164C137.835 38.1178 137.145 37.0176 136.667 36.5162C142.865 35.4263 143.716 33.3337 143.73 30.7417L143.759 25.4378ZM149.015 25.4089L151.703 25.3941L151.64 36.986L148.952 37.0007L149.015 25.4089ZM139.686 37.5316L155.573 37.4444L155.539 43.8043L152.611 43.8203L152.633 39.7884L142.457 39.8443L142.434 44.1162L139.65 44.1315L139.686 37.5316ZM146.485 40.6141L149.341 40.5985C148.335 44.5638 145.947 46.8328 137.446 47.9595C137.281 47.2884 136.712 46.1156 136.235 45.5182C143.895 44.7562 145.63 43.3067 146.485 40.6141ZM147.949 44.9499L149.448 43.0458C152.324 43.6539 156.518 44.8308 158.721 45.7307L157.101 47.9235C155.066 47.0227 150.921 45.7015 147.949 44.9499ZM138.768 29.737L141.336 29.7229C141.111 31.3561 140.837 33.2775 140.566 34.5269L137.974 34.5412C138.269 33.2436 138.591 31.3219 138.768 29.737Z" fill="#171725"/>
    <rect width="7.7184" height="7.54923" rx="3.77462" transform="matrix(0.999985 -0.00549278 -0.00539025 0.999985 13.35 100.021)" fill="#0066FF"/>
    <path d="M31.8458 104.072L32.4482 103.625C33.6284 105.059 34.986 106.971 35.5795 108.168L34.9288 108.675C34.3593 107.478 33.026 105.506 31.8458 104.072ZM34.6474 103.001L35.4145 103.165C34.7536 105.556 33.6981 107.698 32.3466 109.109C32.2154 108.966 31.9171 108.656 31.7498 108.513C33.0887 107.221 34.0715 105.212 34.6474 103.001ZM30.4654 101.92L37.1973 101.883L37.1927 102.735L30.4608 102.772L30.4654 101.92ZM30.7557 103.718L31.6077 103.714L31.576 109.606L36.5439 109.578L36.5393 110.43L30.7194 110.462L30.7557 103.718ZM36.024 103.629L36.852 103.625L36.8119 111.065L35.9839 111.069L36.024 103.629ZM32.7539 100.324L33.5474 100.055C33.8804 100.593 34.2604 101.335 34.438 101.79L33.6084 102.095C33.4429 101.628 33.0749 100.886 32.7539 100.324ZM27.2331 100.522L29.7771 100.508L29.7731 101.24L27.2292 101.254L27.2331 100.522ZM29.2971 100.511L30.0651 100.506L30.0136 110.058C30.0113 110.478 29.926 110.731 29.6733 110.864C29.4085 111.01 29.0364 111.024 28.4364 111.027C28.4136 110.811 28.2955 110.452 28.1888 110.224C28.5846 110.246 28.9446 110.244 29.0766 110.243C29.1967 110.231 29.2449 110.194 29.2457 110.05L29.2971 100.511ZM26.9451 100.524L27.7491 100.519L27.7252 104.947C27.7154 106.771 27.5931 109.424 26.8396 111.192C26.6965 111.036 26.3498 110.786 26.1703 110.691C26.8513 109.032 26.9119 106.679 26.9212 104.963L26.9451 100.524ZM27.1459 103.354L29.7018 103.34L29.6977 104.096L27.1418 104.11L27.1459 103.354ZM27.1308 106.138L29.6868 106.124L29.6826 106.904L27.1266 106.918L27.1308 106.138ZM42.9656 102.535L48.9295 102.503L48.901 107.783L48.013 107.787L48.0368 103.384L43.8008 103.407L43.7767 107.883L42.9367 107.887L42.9656 102.535ZM45.487 100.026L46.375 100.021L46.3157 111.013L45.4277 111.018L45.487 100.026ZM43.2334 106.278L48.6093 106.248L48.6046 107.112L43.2287 107.142L43.2334 106.278ZM39.4849 100.467L41.9208 100.453L41.9164 101.281L39.4804 101.295L39.4849 100.467ZM39.4217 103.287L41.7616 103.274L41.7572 104.102L39.4172 104.115L39.4217 103.287ZM39.3941 106.167L41.7581 106.154L41.7536 106.994L39.3896 107.007L39.3941 106.167ZM39.0289 100.469L39.8329 100.465L39.8096 104.773C39.7996 106.633 39.6653 109.285 38.8998 111.065C38.7445 110.934 38.3856 110.732 38.17 110.661C38.9231 108.965 38.9961 106.553 39.0056 104.789L39.0289 100.469ZM41.3928 100.456L42.2088 100.452L42.1577 109.932C42.1553 110.388 42.0578 110.664 41.769 110.81C41.4682 110.967 41.0241 110.982 40.2441 110.986C40.2094 110.758 40.1034 110.375 39.9967 110.135C40.5246 110.156 40.9806 110.142 41.1366 110.141C41.2807 110.128 41.341 110.08 41.3418 109.924L41.3928 100.456ZM54.4178 108.328L59.9977 108.298L59.9944 108.922L54.4145 108.952L54.4178 108.328ZM57.1483 102.65L60.3763 102.632L60.3724 103.352L57.1444 103.369L57.1483 102.65ZM54.4092 109.924L59.9891 109.894L59.9854 110.59L54.4055 110.62L54.4092 109.924ZM56.7766 107.055L57.5446 107.051L57.5276 110.195L56.7596 110.199L56.7766 107.055ZM55.5208 104.05L56.1342 103.783C56.5993 104.332 57.0751 105.098 57.2764 105.601L56.6147 105.916C56.4255 105.401 55.9737 104.624 55.5208 104.05ZM54.0306 106.71L60.4385 106.675L60.4155 110.935L59.5755 110.94L59.5947 107.388L54.8547 107.414L54.8354 111.002L54.0074 111.006L54.0306 106.71ZM53.8241 102.716L54.8666 102.986C54.8422 103.058 54.77 103.107 54.6258 103.131L54.7437 105.759L53.9637 105.763L53.8241 102.716ZM60.1243 102.633L60.8923 102.629C60.8923 102.629 60.891 102.857 60.8784 102.965C60.7958 104.945 60.6958 105.69 60.4663 105.967C60.3212 106.16 60.1409 106.221 59.8768 106.246C59.6607 106.272 59.2527 106.274 58.8568 106.252C58.8339 106.048 58.7636 105.736 58.6566 105.545C59.0404 105.579 59.3884 105.589 59.5324 105.588C59.6644 105.588 59.7485 105.563 59.821 105.467C59.9659 105.298 60.0535 104.637 60.1236 102.765L60.1243 102.633ZM53.3283 105.646C54.1455 105.426 55.3353 105.083 56.5251 104.729L56.6058 105.34C55.536 105.694 54.4421 106.048 53.5526 106.329L53.3283 105.646ZM56.311 102.162L56.9443 102.651C56.2103 103.039 55.1766 103.356 54.2875 103.565C54.2403 103.421 54.1336 103.182 54.0384 103.027C54.8676 102.806 55.7933 102.477 56.311 102.162ZM58.251 102.883L58.995 102.879C58.8417 104.596 58.4146 105.918 56.9706 106.67C56.8756 106.503 56.649 106.24 56.4817 106.109C57.781 105.478 58.1352 104.336 58.251 102.883ZM52.5609 101.091L61.4288 101.042L61.4246 101.822L52.5567 101.871L52.5609 101.091ZM52.1169 101.093L52.9569 101.089L52.9361 104.953C52.9261 106.801 52.6843 109.37 51.1874 111.034C51.0564 110.855 50.734 110.544 50.5546 110.437C51.9429 108.882 52.0868 106.673 52.0961 104.957L52.1169 101.093ZM56.0109 99.9439L56.9589 99.9387L56.9507 101.463L56.0027 101.468L56.0109 99.9439ZM50.4419 102.41L51.1153 102.143C51.4953 102.885 51.8261 103.843 51.9069 104.442L51.1851 104.77C51.1045 104.147 50.7978 103.164 50.4419 102.41ZM50.2382 106.815C50.7795 106.572 51.5376 106.16 52.3319 105.736L52.5322 106.419C51.8699 106.842 51.1838 107.254 50.5458 107.618L50.2382 106.815ZM66.6852 100.929L72.6251 100.897L72.6204 101.761L66.6805 101.793L66.6852 100.929ZM72.2411 100.899L73.1651 100.894C73.1651 100.894 73.151 101.278 73.1503 101.41C72.9731 107.566 72.8181 109.607 72.3588 110.222C72.0808 110.595 71.8162 110.705 71.4079 110.767C71.0117 110.817 70.3517 110.809 69.716 110.764C69.6934 110.5 69.5876 110.105 69.433 109.842C70.1287 109.898 70.7646 109.894 71.0286 109.893C71.2566 109.904 71.3768 109.855 71.5097 109.686C71.8962 109.228 72.0758 107.067 72.2398 101.139L72.2411 100.899ZM62.2061 103.762L67.2878 102.666L67.4394 103.469L62.3696 104.589L62.2061 103.762ZM63.689 100.238L64.577 100.233L64.539 107.289C64.5366 107.721 64.5843 107.78 64.9083 107.779C65.0523 107.778 65.7843 107.774 65.9883 107.773C66.2883 107.771 66.3379 107.471 66.3935 106.055C66.5846 106.222 66.9438 106.376 67.1954 106.446C67.0904 108.115 66.8716 108.632 66.0556 108.636C65.8516 108.637 64.9517 108.642 64.7717 108.643C63.8717 108.648 63.6453 108.35 63.6511 107.282L63.689 100.238ZM68.8191 101.301L69.707 101.297C69.6138 105.245 69.4495 109.014 66.1751 110.964C66.0443 110.736 65.758 110.426 65.5309 110.259C68.6482 108.514 68.7273 104.962 68.8191 101.301ZM79.3437 103.32L83.9876 103.294L83.9836 104.05L79.3396 104.076L79.3437 103.32ZM78.5276 105.58L84.9235 105.545L84.9193 106.325L78.5234 106.36L78.5276 105.58ZM81.626 100.643C80.924 101.775 79.6327 103.138 78.2602 103.985C78.1653 103.782 77.951 103.459 77.796 103.28C79.1803 102.468 80.5318 101.057 81.1864 99.8296L82.0024 99.8251C82.8593 101.14 84.2562 102.453 85.5364 103.142C85.3554 103.335 85.1496 103.66 85.0283 103.9C83.7725 103.127 82.3997 101.815 81.626 100.643ZM81.1897 103.681L82.0537 103.677L82.0206 109.809C82.018 110.289 81.9207 110.541 81.596 110.675C81.2952 110.82 80.8031 110.847 80.0351 110.851C80.0004 110.612 79.8704 110.24 79.7397 110.001C80.3035 110.022 80.8076 110.007 80.9636 110.006C81.1196 110.005 81.1558 109.957 81.1566 109.813L81.1897 103.681ZM79.2998 107.004L80.0907 107.203C79.6889 108.297 79.011 109.393 78.3232 110.105C78.18 109.962 77.8694 109.699 77.6781 109.568C78.3535 108.929 78.9466 107.978 79.2998 107.004ZM82.9221 107.296L83.6078 106.968C84.2514 107.78 84.9773 108.904 85.2735 109.611L84.5275 109.999C84.2433 109.292 83.5415 108.144 82.9221 107.296ZM74.8479 100.356L77.6798 100.341L77.6754 101.157L75.6595 101.168L75.6071 110.876L74.7912 110.88L74.8479 100.356ZM77.4038 100.342L77.5598 100.341L77.704 100.305L78.2781 100.65C77.9248 101.635 77.4742 102.874 77.061 103.836C77.9436 104.827 78.1311 105.666 78.1271 106.41C78.1236 107.058 77.9889 107.563 77.6516 107.805C77.483 107.914 77.2666 107.987 77.0265 108.024C76.7863 108.049 76.4863 108.051 76.2104 108.041C76.1996 107.825 76.1294 107.477 75.9987 107.25C76.2745 107.272 76.5025 107.283 76.6946 107.258C76.8386 107.257 76.9708 107.22 77.0672 107.148C77.2599 107.015 77.3216 106.691 77.3236 106.331C77.3271 105.683 77.1155 104.868 76.2565 103.936C76.6944 102.842 77.1461 101.412 77.4025 100.582L77.4038 100.342ZM95.4543 99.7392L96.1223 100.468C93.9469 101.115 90.3932 101.459 87.4766 101.595C87.4539 101.367 87.3478 101.008 87.2649 100.804C90.1216 100.656 93.6273 100.313 95.4543 99.7392ZM87.2642 103.168L96.624 103.117L96.6194 103.981L87.2595 104.032L87.2642 103.168ZM86.445 105.992L97.2808 105.933L97.2761 106.809L86.4403 106.868L86.445 105.992ZM91.4275 101.033L92.3635 101.028L92.3177 109.524C92.3143 110.16 92.1208 110.437 91.664 110.584C91.2072 110.73 90.4271 110.758 89.1552 110.753C89.0966 110.502 88.9308 110.095 88.7881 109.855C89.7838 109.886 90.7439 109.869 91.008 109.855C91.2839 109.854 91.3804 109.769 91.3818 109.517L91.4275 101.033ZM104.567 103.277C105.636 105.203 107.665 107.352 109.375 108.422C109.146 108.604 108.82 108.953 108.651 109.206C106.953 107.992 104.974 105.699 103.809 103.581L104.567 103.277ZM103.307 103.296L104.109 103.591C102.956 105.974 100.952 108.193 98.9423 109.356C98.7756 109.117 98.4775 108.77 98.2624 108.591C100.248 107.561 102.263 105.426 103.307 103.296ZM98.6659 102.745L108.998 102.689L108.993 103.577L98.6611 103.633L98.6659 102.745ZM103.41 99.6955L104.394 99.6901L104.335 110.718L103.351 110.723L103.41 99.6955ZM105.158 100.43L105.821 99.8743C106.55 100.374 107.506 101.101 107.984 101.578L107.308 102.218C106.843 101.729 105.899 100.966 105.158 100.43Z" fill="#151522"/>
    <path d="M224.103 106.818C224.165 106.418 224.279 106.065 224.445 105.76C224.611 105.455 224.818 105.2 225.067 104.995C225.316 104.786 225.601 104.628 225.922 104.522C226.246 104.416 226.594 104.363 226.966 104.361C227.338 104.358 227.68 104.411 227.991 104.517C228.303 104.619 228.568 104.768 228.787 104.962C229.01 105.153 229.183 105.384 229.305 105.656C229.428 105.927 229.488 106.227 229.486 106.555C229.485 106.831 229.45 107.075 229.38 107.287C229.311 107.499 229.212 107.686 229.083 107.847C228.959 108.007 228.806 108.144 228.625 108.257C228.445 108.366 228.242 108.457 228.018 108.531C228.565 108.68 228.976 108.925 229.25 109.268C229.524 109.606 229.66 110.037 229.657 110.561C229.655 110.965 229.577 111.33 229.423 111.655C229.269 111.976 229.06 112.249 228.795 112.474C228.529 112.696 228.22 112.867 227.868 112.989C227.519 113.107 227.147 113.167 226.751 113.169C226.299 113.172 225.911 113.12 225.588 113.014C225.264 112.903 224.989 112.751 224.762 112.556C224.535 112.358 224.347 112.121 224.196 111.845C224.05 111.566 223.925 111.261 223.823 110.929L224.334 110.711C224.467 110.654 224.595 110.637 224.719 110.661C224.842 110.684 224.932 110.753 224.987 110.869C225.047 110.989 225.114 111.124 225.189 111.276C225.268 111.424 225.374 111.565 225.505 111.7C225.636 111.831 225.8 111.943 225.995 112.034C226.195 112.124 226.444 112.169 226.744 112.167C227.032 112.166 227.285 112.118 227.501 112.025C227.718 111.928 227.898 111.805 228.043 111.656C228.188 111.503 228.297 111.335 228.37 111.151C228.443 110.966 228.48 110.784 228.481 110.604C228.482 110.38 228.455 110.174 228.4 109.986C228.345 109.799 228.238 109.639 228.079 109.508C227.923 109.373 227.706 109.268 227.426 109.194C227.147 109.119 226.783 109.083 226.335 109.086L226.34 108.234C226.708 108.228 227.018 108.188 227.27 108.115C227.527 108.041 227.733 107.94 227.89 107.811C228.046 107.682 228.159 107.53 228.228 107.353C228.301 107.177 228.338 106.981 228.339 106.765C228.341 106.529 228.306 106.323 228.235 106.147C228.164 105.972 228.062 105.826 227.931 105.711C227.804 105.592 227.65 105.505 227.47 105.45C227.295 105.391 227.103 105.362 226.895 105.363C226.687 105.364 226.495 105.395 226.319 105.456C226.142 105.517 225.986 105.602 225.849 105.711C225.713 105.819 225.598 105.948 225.505 106.096C225.412 106.245 225.345 106.405 225.305 106.578C225.248 106.73 225.175 106.832 225.087 106.885C225.003 106.937 224.881 106.95 224.721 106.923L224.103 106.818ZM236.208 111.911C236.336 111.911 236.436 111.948 236.508 112.024C236.579 112.095 236.615 112.191 236.614 112.311L236.61 113.019L230.826 113.051L230.828 112.649C230.829 112.569 230.845 112.485 230.878 112.397C230.91 112.305 230.965 112.222 231.041 112.15L233.78 109.405C234.009 109.176 234.216 108.954 234.401 108.741C234.587 108.528 234.744 108.318 234.873 108.109C235.002 107.896 235.101 107.68 235.17 107.459C235.243 107.239 235.281 107.007 235.282 106.763C235.283 106.523 235.246 106.313 235.171 106.133C235.096 105.95 234.993 105.798 234.862 105.679C234.731 105.56 234.575 105.471 234.395 105.412C234.216 105.353 234.022 105.324 233.814 105.325C233.606 105.326 233.414 105.357 233.237 105.418C233.065 105.479 232.911 105.564 232.774 105.673C232.637 105.781 232.523 105.91 232.43 106.058C232.337 106.207 232.27 106.367 232.229 106.54C232.173 106.692 232.1 106.794 232.012 106.847C231.927 106.899 231.803 106.912 231.64 106.885L231.028 106.78C231.086 106.38 231.198 106.027 231.364 105.722C231.529 105.417 231.737 105.162 231.986 104.957C232.235 104.748 232.52 104.59 232.84 104.484C233.165 104.378 233.513 104.325 233.885 104.323C234.261 104.32 234.607 104.375 234.922 104.485C235.242 104.591 235.517 104.748 235.748 104.954C235.979 105.161 236.159 105.414 236.29 105.713C236.42 106.009 236.484 106.344 236.482 106.72C236.48 107.04 236.431 107.338 236.333 107.615C236.24 107.887 236.11 108.148 235.945 108.397C235.784 108.646 235.595 108.889 235.377 109.126C235.164 109.359 234.937 109.597 234.695 109.838L232.499 112.082C232.668 112.037 232.836 112 233.004 111.971C233.176 111.942 233.338 111.927 233.49 111.926L236.208 111.911ZM237.881 112.31C237.881 112.202 237.902 112.1 237.943 112.004C237.983 111.908 238.038 111.823 238.106 111.751C238.178 111.679 238.263 111.622 238.359 111.582C238.455 111.537 238.559 111.515 238.671 111.514C238.779 111.513 238.881 111.535 238.977 111.578C239.073 111.618 239.156 111.673 239.228 111.745C239.3 111.816 239.355 111.9 239.395 111.996C239.438 112.092 239.459 112.194 239.459 112.302C239.458 112.414 239.436 112.518 239.391 112.614C239.351 112.71 239.294 112.794 239.222 112.867C239.149 112.939 239.065 112.996 238.969 113.036C238.873 113.077 238.771 113.097 238.663 113.098C238.551 113.098 238.447 113.079 238.351 113.04C238.255 113 238.171 112.945 238.1 112.873C238.032 112.801 237.979 112.718 237.939 112.622C237.9 112.526 237.88 112.422 237.881 112.31ZM240.861 106.726C240.923 106.326 241.037 105.973 241.203 105.668C241.368 105.363 241.576 105.108 241.825 104.903C242.074 104.694 242.359 104.536 242.679 104.43C243.004 104.324 243.352 104.271 243.724 104.268C244.096 104.266 244.438 104.319 244.749 104.425C245.06 104.527 245.326 104.676 245.545 104.87C245.768 105.061 245.94 105.292 246.063 105.564C246.185 105.835 246.246 106.135 246.244 106.463C246.243 106.739 246.207 106.983 246.138 107.195C246.069 107.407 245.97 107.594 245.841 107.755C245.716 107.915 245.563 108.052 245.383 108.165C245.202 108.274 245 108.365 244.775 108.439C245.323 108.587 245.733 108.833 246.007 109.176C246.282 109.514 246.417 109.945 246.414 110.469C246.412 110.873 246.334 111.238 246.181 111.563C246.027 111.883 245.817 112.157 245.552 112.382C245.287 112.604 244.978 112.775 244.625 112.897C244.277 113.015 243.904 113.075 243.508 113.077C243.056 113.08 242.669 113.028 242.345 112.922C242.022 112.811 241.747 112.659 241.52 112.464C241.293 112.265 241.104 112.029 240.954 111.753C240.807 111.474 240.683 111.169 240.581 110.837L241.092 110.619C241.224 110.562 241.352 110.545 241.476 110.569C241.6 110.592 241.69 110.661 241.745 110.777C241.804 110.897 241.872 111.032 241.947 111.184C242.026 111.331 242.131 111.473 242.262 111.608C242.394 111.739 242.557 111.851 242.753 111.941C242.952 112.032 243.202 112.077 243.502 112.075C243.79 112.074 244.042 112.026 244.259 111.933C244.475 111.836 244.656 111.713 244.801 111.564C244.945 111.411 245.054 111.243 245.127 111.058C245.2 110.874 245.237 110.692 245.238 110.512C245.239 110.288 245.213 110.082 245.158 109.894C245.103 109.707 244.995 109.547 244.836 109.416C244.681 109.281 244.463 109.176 244.184 109.102C243.904 109.027 243.54 108.991 243.092 108.994L243.097 108.142C243.465 108.136 243.775 108.096 244.028 108.023C244.284 107.949 244.491 107.848 244.647 107.719C244.804 107.59 244.917 107.438 244.986 107.261C245.059 107.085 245.096 106.889 245.097 106.673C245.098 106.437 245.063 106.231 244.992 106.055C244.921 105.88 244.82 105.734 244.689 105.619C244.561 105.5 244.408 105.413 244.228 105.358C244.052 105.299 243.861 105.27 243.653 105.271C243.445 105.272 243.252 105.303 243.076 105.364C242.9 105.425 242.743 105.51 242.607 105.619C242.47 105.727 242.355 105.856 242.263 106.004C242.17 106.153 242.103 106.313 242.062 106.486C242.005 106.638 241.933 106.74 241.844 106.793C241.76 106.845 241.638 106.858 241.478 106.831L240.861 106.726ZM247.837 103.79L258.349 103.732L258.344 104.608L247.833 104.666L247.837 103.79ZM251.563 107.105L256.615 107.078L256.61 107.954L251.559 107.981L251.563 107.105ZM256.303 107.079L257.239 107.074C257.239 107.074 257.225 107.386 257.213 107.518C256.988 111.395 256.776 112.848 256.305 113.355C256.028 113.668 255.727 113.754 255.259 113.793C254.815 113.831 253.963 113.812 253.147 113.768C253.125 113.504 253.007 113.133 252.828 112.882C253.728 112.973 254.603 112.968 254.927 112.967C255.203 112.965 255.36 112.94 255.492 112.807C255.89 112.457 256.102 110.956 256.302 107.235L256.303 107.079ZM251.085 104.48L252.009 104.475C251.895 107.883 251.657 111.953 248.095 113.94C247.952 113.713 247.677 113.426 247.438 113.248C250.856 111.429 250.985 107.6 251.085 104.48Z" fill="#151522"/>
    <rect opacity="0.7" width="224.774" height="8.86489" rx="4.43245" transform="matrix(0.999985 -0.00549278 -0.00539025 0.999985 13.0478 156.094)" fill="#EFEFFF"/>
    <rect width="191.998" height="7.96085" rx="3.98042" transform="matrix(0.999985 -0.00549278 -0.00539025 0.999985 13.0478 156.094)" fill="#0066FF"/>
    <rect width="7.25004" height="7.54375" rx="3.62502" transform="matrix(0.999985 -0.00549278 -0.00539025 0.999985 14.3428 299.018)" fill="#F9A271"/>
    <path d="M26.8421 305.981C26.7951 305.789 26.6416 305.334 26.5349 305.095C26.8111 305.045 27.1008 304.744 27.4871 304.31C27.9213 303.887 29.2502 302.224 30.1229 300.611L30.9362 301.111C29.9075 302.725 28.6749 304.327 27.4688 305.474L27.4687 305.498C27.4687 305.498 26.8431 305.789 26.8421 305.981ZM26.8421 305.981L26.7982 305.225L27.2799 304.911L30.859 304.303C30.8577 304.543 30.8798 304.891 30.9148 305.083C27.5515 305.713 27.1189 305.824 26.8421 305.981ZM26.7738 303.066C26.7149 302.862 26.5734 302.407 26.4547 302.168C26.683 302.106 26.9004 301.841 27.1545 301.444C27.4206 301.058 28.2926 299.566 28.7921 298.171L29.7021 298.538C29.0703 299.993 28.2102 301.498 27.3887 302.534L27.3885 302.558C27.3885 302.558 26.7749 302.862 26.7738 303.066ZM26.7738 303.066L26.7535 302.382L27.211 302.103L29.7442 301.861C29.695 302.09 29.6691 302.438 29.6681 302.618C27.3628 302.882 26.9904 302.957 26.7738 303.066ZM26.4976 307.555C27.6027 307.357 29.2724 307.012 30.8822 306.667L30.9497 307.507C29.4358 307.863 27.8381 308.196 26.6486 308.478L26.4976 307.555ZM31.0159 299.683L37.4238 299.647L37.419 300.523L31.0111 300.559L31.0159 299.683ZM31.3011 302.417L37.205 302.384L37.2004 303.248L31.2965 303.281L31.3011 302.417ZM32.0643 307.764L36.4202 307.741L36.4157 308.569L32.0598 308.592L32.0643 307.764ZM33.7845 298.059L34.7205 298.054L34.6947 302.842L33.7587 302.847L33.7845 298.059ZM31.6019 304.503L36.9058 304.474L36.8812 309.034L35.9692 309.039L35.9893 305.307L32.4734 305.326L32.453 309.106L31.577 309.111L31.6019 304.503ZM39.8768 307.602L49.4766 307.549L49.472 308.401L39.8722 308.454L39.8768 307.602ZM38.8664 299.147L49.4142 299.09L49.4098 299.918L38.8619 299.975L38.8664 299.147ZM39.4787 301.304L40.3667 301.299L40.3248 309.087L39.4368 309.092L39.4787 301.304ZM42.5522 303.243L42.5468 304.239L47.1427 304.214L47.1481 303.218L42.5522 303.243ZM42.5433 304.887L42.5379 305.883L47.1339 305.858L47.1392 304.862L42.5433 304.887ZM42.5609 301.623L42.5557 302.595L47.1516 302.57L47.1568 301.598L42.5609 301.623ZM41.7006 300.944L48.0605 300.909L48.0302 306.537L41.6703 306.572L41.7006 300.944ZM43.8405 297.968L44.8721 298.035C44.7461 299.163 44.5469 300.496 44.3744 301.337L43.4868 301.27C43.6355 300.381 43.7992 298.952 43.8405 297.968ZM51.6498 298.405L54.1218 298.392L54.1173 299.22L51.6454 299.233L51.6498 298.405ZM51.5986 301.225L53.9626 301.212L53.9581 302.04L51.5942 302.053L51.5986 301.225ZM51.5591 304.106L53.9591 304.092L53.9545 304.932L51.5546 304.946L51.5591 304.106ZM51.3018 298.407L52.0818 298.403L52.0586 302.711C52.0486 304.571 51.9263 307.223 51.1247 309.004C50.9695 308.861 50.6225 308.67 50.4189 308.6C51.196 306.903 51.269 304.491 51.2786 302.715L51.3018 298.407ZM53.6058 298.395L54.4098 298.39L54.3588 307.858C54.3564 308.302 54.2589 308.566 53.9942 308.712C53.6933 308.87 53.2612 308.896 52.5292 308.9C52.5064 308.672 52.4005 308.289 52.2937 308.061C52.7857 308.071 53.2177 308.068 53.3617 308.067C53.4937 308.055 53.554 308.006 53.5548 307.85L53.6058 298.395ZM55.0931 298.506L60.0371 298.479L60.0325 299.331L55.0885 299.358L55.0931 298.506ZM60.5351 301.812L61.3871 301.808C61.3871 301.808 61.3734 302.108 61.3607 302.24C61.086 306.453 60.8141 307.931 60.3914 308.425C60.1499 308.702 59.9214 308.799 59.5852 308.837C59.2851 308.875 58.8051 308.866 58.3133 308.844C58.3026 308.604 58.2084 308.257 58.0897 308.029C58.5694 308.075 59.0254 308.072 59.2414 308.071C59.4333 308.082 59.5415 308.045 59.6503 307.901C60.0002 307.539 60.2724 306.026 60.5341 301.992L60.5351 301.812ZM55.418 302.8C55.3591 302.597 55.1694 302.166 55.0505 301.962C55.3628 301.901 55.8322 301.646 56.3018 301.344C56.8074 301.041 58.4576 299.868 59.6522 298.649L59.6525 298.577L60.0735 298.395L60.7547 298.907C59.139 300.356 57.5846 301.553 56.0923 302.365L56.0922 302.389C56.0922 302.389 55.419 302.608 55.418 302.8ZM55.418 302.8L55.4219 302.068L55.9271 301.838L60.8111 301.811L60.8067 302.627L56.4267 302.651C55.8987 302.654 55.5264 302.716 55.418 302.8ZM58.9728 302.253L59.7878 302.416C58.9681 305.349 57.5522 307.564 55.5167 308.98C55.3734 308.836 55.0148 308.586 54.8115 308.455C56.8943 307.172 58.262 305.005 58.9728 302.253ZM57.0768 302.263L57.8439 302.415C57.355 304.074 56.4475 305.471 55.3626 306.389C55.2193 306.257 54.9086 306.019 54.7173 305.9C55.8137 305.078 56.6487 303.766 57.0768 302.263ZM66.191 307.721L72.5989 307.686L72.5947 308.454L66.1868 308.489L66.191 307.721ZM68.9615 305.75L69.8255 305.745L69.8119 308.253L68.9479 308.258L68.9615 305.75ZM65.7796 306.127L66.6196 306.123L66.6046 308.907L65.7646 308.911L65.7796 306.127ZM72.2355 306.092L73.0875 306.087L73.0725 308.871L72.2205 308.876L72.2355 306.092ZM67.967 301.016L67.9614 302.06L71.0094 302.043L71.015 300.999L67.967 301.016ZM67.2024 300.396L71.8223 300.37L71.81 302.662L67.19 302.688L67.2024 300.396ZM66.3681 303.796L66.3624 304.852L68.3544 304.841L68.3601 303.785L66.3681 303.796ZM65.6755 303.176L69.0834 303.157L69.0709 305.473L65.663 305.492L65.6755 303.176ZM70.52 303.773L70.5144 304.829L72.5783 304.818L72.584 303.762L70.52 303.773ZM69.8154 303.153L73.3194 303.134L73.3069 305.45L69.8029 305.469L69.8154 303.153ZM64.7381 298.993L73.4619 298.945L73.4577 299.725L64.7339 299.773L64.7381 298.993ZM64.2941 298.996L65.1341 298.991L65.1132 302.855C65.1033 304.703 64.8614 307.272 63.3645 308.936C63.2334 308.769 62.9111 308.459 62.7318 308.34C64.1201 306.784 64.264 304.576 64.2733 302.86L64.2941 298.996ZM68.2479 297.882L69.1959 297.877L69.1879 299.365L68.2399 299.37L68.2479 297.882ZM62.619 300.325L63.3045 300.045C63.6724 300.799 64.0032 301.757 64.084 302.357L63.3622 302.685C63.2816 302.061 62.9629 301.079 62.619 300.325ZM62.4153 304.73C62.9566 304.475 63.7147 304.075 64.509 303.638L64.7093 304.333C64.047 304.757 63.3488 305.169 62.723 305.52L62.4153 304.73ZM78.9221 298.867L84.862 298.835L84.8574 299.699L78.9175 299.731L78.9221 298.867ZM84.478 298.837L85.402 298.832C85.402 298.832 85.388 299.216 85.3872 299.348C85.2101 305.505 85.0551 307.545 84.5958 308.16C84.3178 308.533 84.0532 308.643 83.6449 308.705C83.2486 308.755 82.5887 308.747 81.953 308.702C81.9304 308.438 81.8245 308.043 81.67 307.78C82.3656 307.836 83.0016 307.833 83.2656 307.831C83.4935 307.842 83.6138 307.793 83.7467 307.625C84.1331 307.166 84.3128 305.006 84.4767 299.077L84.478 298.837ZM74.443 301.7L79.5247 300.604L79.6764 301.407L74.6066 302.527L74.443 301.7ZM75.926 298.176L76.814 298.171L76.7759 305.227C76.7736 305.659 76.8213 305.719 77.1453 305.717C77.2893 305.716 78.0213 305.712 78.2253 305.711C78.5253 305.709 78.5749 305.409 78.6305 303.993C78.8216 304.16 79.1807 304.314 79.4324 304.384C79.3274 306.053 79.1086 306.57 78.2926 306.575C78.0886 306.576 77.1886 306.581 77.0086 306.582C76.1086 306.587 75.8823 306.288 75.888 305.22L75.926 298.176ZM81.056 299.24L81.944 299.235C81.8507 303.183 81.6864 306.952 78.412 308.902C78.2813 308.675 77.995 308.364 77.7679 308.197C80.8851 306.452 80.9643 302.9 81.056 299.24ZM91.5807 301.258L96.2246 301.232L96.2205 301.988L91.5766 302.014L91.5807 301.258ZM90.7645 303.518L97.1604 303.483L97.1562 304.263L90.7603 304.298L90.7645 303.518ZM93.863 298.581C93.1609 299.713 91.8696 301.076 90.4971 301.924C90.4022 301.72 90.188 301.397 90.0329 301.218C91.4173 300.407 92.7688 298.995 93.4234 297.768L94.2394 297.763C95.0963 299.079 96.4931 300.391 97.7733 301.08C97.5923 301.273 97.3866 301.598 97.2653 301.839C96.0095 301.065 94.6366 299.753 93.863 298.581ZM93.4266 301.62L94.2906 301.615L94.2576 307.747C94.255 308.227 94.1576 308.479 93.8329 308.613C93.5321 308.759 93.04 308.785 92.272 308.79C92.2373 308.55 92.1073 308.179 91.9766 307.939C92.5405 307.96 93.0445 307.945 93.2005 307.945C93.3565 307.944 93.3928 307.896 93.3936 307.752L93.4266 301.62ZM91.5368 304.942L92.3277 305.142C91.9258 306.236 91.2479 307.331 90.5601 308.043C90.4169 307.9 90.1063 307.638 89.9151 307.507C90.5905 306.867 91.1836 305.916 91.5368 304.942ZM95.1591 305.234L95.8448 304.906C96.4884 305.719 97.2143 306.843 97.5105 307.549L96.7644 307.937C96.4802 307.231 95.7785 306.083 95.1591 305.234ZM87.0848 298.295L89.9168 298.279L89.9124 299.095L87.8964 299.106L87.8441 308.814L87.0281 308.818L87.0848 298.295ZM89.6408 298.281L89.7968 298.28L89.941 298.243L90.5151 298.588C90.1618 299.574 89.7112 300.812 89.298 301.774C90.1806 302.765 90.3681 303.604 90.3641 304.348C90.3606 304.996 90.2259 305.501 89.8886 305.743C89.72 305.852 89.5036 305.925 89.2634 305.962C89.0233 305.988 88.7233 305.989 88.4474 305.979C88.4365 305.763 88.3664 305.415 88.2356 305.188C88.5115 305.21 88.7394 305.221 88.9316 305.196C89.0756 305.195 89.2077 305.159 89.3041 305.086C89.4968 304.953 89.5586 304.629 89.5605 304.269C89.564 303.621 89.3524 302.806 88.4935 301.875C88.9314 300.78 89.383 299.35 89.6395 298.521L89.6408 298.281ZM107.691 297.677L108.359 298.406C106.184 299.054 102.63 299.397 99.7136 299.533C99.6908 299.305 99.5848 298.946 99.5019 298.742C102.359 298.595 105.864 298.251 107.691 297.677ZM99.5011 301.106L108.861 301.055L108.856 301.919L99.4965 301.97L99.5011 301.106ZM98.6819 303.931L109.518 303.871L109.513 304.747L98.6772 304.807L98.6819 303.931ZM103.664 298.972L104.6 298.966L104.555 307.462C104.551 308.098 104.358 308.375 103.901 308.522C103.444 308.668 102.664 308.697 101.392 308.692C101.334 308.44 101.168 308.033 101.025 307.794C102.021 307.824 102.981 307.807 103.245 307.793C103.521 307.792 103.617 307.707 103.619 307.455L103.664 298.972ZM116.804 301.215C117.873 303.141 119.902 305.29 121.612 306.361C121.383 306.542 121.057 306.892 120.888 307.145C119.19 305.93 117.211 303.637 116.046 301.519L116.804 301.215ZM115.544 301.234L116.346 301.53C115.193 303.912 113.189 306.131 111.179 307.294C111.013 307.055 110.714 306.708 110.499 306.53C112.485 305.499 114.5 303.364 115.544 301.234ZM110.903 300.684L121.235 300.627L121.23 301.515L110.898 301.572L110.903 300.684ZM115.647 297.634L116.631 297.628L116.572 308.656L115.588 308.662L115.647 297.634ZM117.395 298.368L118.058 297.813C118.787 298.312 119.743 299.039 120.221 299.517L119.545 300.156C119.08 299.667 118.136 298.904 117.395 298.368Z" fill="#151522"/>
    <path d="M229.253 311.955C229.381 311.954 229.481 311.992 229.552 312.067C229.624 312.139 229.659 312.235 229.659 312.355L229.655 313.063L223.871 313.095L223.873 312.693C223.873 312.613 223.89 312.528 223.922 312.44C223.955 312.348 224.009 312.266 224.086 312.193L226.824 309.448C227.054 309.219 227.261 308.998 227.446 308.785C227.631 308.572 227.788 308.361 227.917 308.153C228.046 307.94 228.146 307.723 228.215 307.503C228.288 307.283 228.325 307.05 228.327 306.806C228.328 306.566 228.291 306.357 228.216 306.177C228.141 305.993 228.038 305.842 227.906 305.723C227.775 305.603 227.62 305.514 227.44 305.455C227.26 305.396 227.066 305.367 226.858 305.368C226.65 305.37 226.458 305.401 226.282 305.462C226.11 305.523 225.955 305.607 225.819 305.716C225.682 305.825 225.567 305.954 225.474 306.102C225.382 306.251 225.315 306.411 225.274 306.583C225.217 306.735 225.144 306.838 225.056 306.89C224.972 306.943 224.848 306.955 224.684 306.928L224.073 306.824C224.131 306.423 224.243 306.071 224.408 305.766C224.574 305.461 224.781 305.206 225.03 305.001C225.28 304.791 225.564 304.634 225.885 304.528C226.209 304.422 226.558 304.368 226.93 304.366C227.306 304.364 227.651 304.418 227.967 304.528C228.286 304.635 228.561 304.791 228.792 304.998C229.023 305.205 229.204 305.458 229.334 305.757C229.465 306.052 229.529 306.388 229.527 306.764C229.525 307.084 229.475 307.382 229.378 307.659C229.284 307.931 229.155 308.192 228.99 308.441C228.828 308.69 228.639 308.933 228.422 309.17C228.209 309.403 227.981 309.64 227.74 309.881L225.544 312.125C225.712 312.08 225.88 312.044 226.049 312.015C226.221 311.986 226.383 311.971 226.535 311.97L229.253 311.955ZM232.559 307.647C232.999 307.553 233.397 307.504 233.753 307.503C234.201 307.5 234.597 307.566 234.94 307.7C235.284 307.83 235.571 308.013 235.801 308.247C236.036 308.478 236.211 308.753 236.325 309.072C236.443 309.388 236.501 309.731 236.499 310.103C236.497 310.559 236.415 310.974 236.253 311.347C236.091 311.719 235.869 312.039 235.587 312.304C235.306 312.57 234.973 312.776 234.588 312.922C234.207 313.064 233.797 313.136 233.357 313.138C233.097 313.14 232.849 313.115 232.614 313.065C232.382 313.014 232.164 312.947 231.961 312.864C231.757 312.777 231.568 312.678 231.392 312.567C231.221 312.456 231.068 312.339 230.932 312.216L231.295 311.71C231.371 311.597 231.474 311.541 231.602 311.54C231.686 311.54 231.778 311.571 231.877 311.635C231.981 311.694 232.103 311.761 232.242 311.837C232.382 311.912 232.547 311.981 232.739 312.044C232.931 312.103 233.159 312.132 233.423 312.13C233.715 312.129 233.977 312.081 234.209 311.988C234.446 311.891 234.645 311.755 234.805 311.583C234.97 311.41 235.095 311.203 235.181 310.963C235.27 310.722 235.315 310.456 235.317 310.164C235.318 309.904 235.282 309.67 235.207 309.462C235.132 309.255 235.019 309.077 234.868 308.93C234.717 308.783 234.527 308.672 234.3 308.597C234.072 308.519 233.806 308.48 233.502 308.482C233.078 308.484 232.626 308.563 232.145 308.717L231.408 308.505L232.132 304.434L236.26 304.411L236.257 304.921C236.256 305.089 236.202 305.227 236.093 305.336C235.988 305.44 235.812 305.493 235.564 305.495L232.942 305.509L232.559 307.647ZM237.886 312.316C237.887 312.208 237.907 312.105 237.948 312.009C237.988 311.913 238.043 311.829 238.111 311.756C238.184 311.684 238.268 311.628 238.364 311.587C238.46 311.542 238.565 311.52 238.677 311.519C238.785 311.519 238.886 311.54 238.982 311.584C239.078 311.623 239.162 311.679 239.233 311.75C239.305 311.822 239.36 311.906 239.4 312.001C239.443 312.097 239.465 312.199 239.464 312.307C239.464 312.419 239.441 312.523 239.397 312.619C239.356 312.715 239.3 312.8 239.227 312.872C239.155 312.945 239.071 313.001 238.974 313.042C238.878 313.082 238.776 313.103 238.668 313.103C238.556 313.104 238.452 313.084 238.356 313.045C238.261 313.006 238.177 312.95 238.105 312.878C238.038 312.807 237.984 312.723 237.945 312.627C237.905 312.531 237.886 312.428 237.886 312.316ZM241.891 306.924C241.888 307.456 242.03 307.865 242.316 308.151C242.603 308.438 243.002 308.58 243.514 308.577C243.79 308.575 244.034 308.53 244.247 308.441C244.459 308.348 244.638 308.227 244.783 308.078C244.932 307.925 245.044 307.75 245.122 307.554C245.199 307.354 245.238 307.145 245.239 306.929C245.24 306.669 245.2 306.436 245.117 306.228C245.038 306.017 244.925 305.839 244.778 305.696C244.63 305.549 244.455 305.438 244.251 305.363C244.052 305.284 243.83 305.245 243.586 305.247C243.334 305.248 243.104 305.291 242.895 305.376C242.687 305.458 242.508 305.572 242.36 305.721C242.211 305.87 242.096 306.047 242.015 306.251C241.934 306.456 241.892 306.68 241.891 306.924ZM244.241 309.575C244.398 309.37 244.545 309.169 244.682 308.972C244.465 309.138 244.222 309.263 243.954 309.348C243.689 309.434 243.407 309.477 243.107 309.479C242.791 309.481 242.488 309.428 242.196 309.322C241.909 309.216 241.654 309.059 241.431 308.852C241.212 308.641 241.037 308.382 240.907 308.075C240.777 307.768 240.713 307.414 240.715 307.014C240.717 306.638 240.789 306.284 240.93 305.951C241.072 305.618 241.27 305.329 241.523 305.084C241.78 304.835 242.085 304.639 242.438 304.497C242.795 304.351 243.185 304.277 243.609 304.275C244.029 304.272 244.409 304.338 244.748 304.472C245.091 304.606 245.382 304.797 245.621 305.043C245.86 305.286 246.044 305.579 246.174 305.922C246.304 306.266 246.368 306.643 246.366 307.055C246.365 307.307 246.34 307.547 246.29 307.776C246.245 308.004 246.178 308.226 246.089 308.443C246.004 308.659 245.898 308.874 245.773 309.086C245.652 309.295 245.513 309.51 245.356 309.731L243.27 312.712C243.213 312.792 243.131 312.859 243.023 312.911C242.918 312.964 242.798 312.991 242.662 312.991L241.588 312.997L244.241 309.575ZM247.843 303.795L258.354 303.738L258.35 304.614L247.838 304.671L247.843 303.795ZM251.569 307.111L256.621 307.083L256.616 307.959L251.564 307.987L251.569 307.111ZM256.309 307.085L257.245 307.079C257.245 307.079 257.231 307.392 257.218 307.524C256.993 311.401 256.781 312.854 256.311 313.36C256.033 313.674 255.733 313.759 255.264 313.798C254.82 313.837 253.968 313.817 253.153 313.774C253.13 313.51 253.012 313.138 252.833 312.887C253.733 312.979 254.609 312.974 254.933 312.972C255.209 312.97 255.365 312.946 255.498 312.813C255.896 312.463 256.108 310.962 256.308 307.241L256.309 307.085ZM251.091 304.485L252.015 304.48C251.9 307.889 251.662 311.958 248.1 313.945C247.957 313.718 247.683 313.432 247.444 313.253C250.861 311.434 250.99 307.606 251.091 304.485Z" fill="#151522"/>
    <rect opacity="0.7" width="224.774" height="8.86487" rx="4.43243" transform="matrix(0.999985 -0.00549278 -0.00539025 0.999985 14.0478 353.754)" fill="#EFEFFF"/>
    <rect width="140.74" height="8.86487" rx="4.43243" transform="matrix(0.999985 -0.00549278 -0.00539025 0.999985 14.0478 353.754)" fill="#F9A271"/>
    <rect opacity="0.7" width="224.774" height="8.86487" rx="4.43243" transform="matrix(0.999985 -0.00549278 -0.00539025 0.999985 14.0478 256.754)" fill="#EFEFFF"/>
    <path d="M14.0233 261.305C14.0368 258.791 16.0856 256.742 18.5995 256.729L165.497 255.922C168.011 255.908 170.038 257.935 170.025 260.448V260.448C170.011 262.962 167.962 265.011 165.448 265.025L18.5504 265.832C16.0366 265.846 14.0097 263.819 14.0233 261.305V261.305Z" fill="#2FE1AC"/>
    <rect width="7.36945" height="7.54651" rx="3.68472" transform="matrix(0.999985 -0.00549278 -0.00539025 0.999985 14.3428 202.019)" fill="#2FE1AC"/>
    <path d="M29.9579 203.44L30.8818 203.435L30.8494 209.459C30.8463 210.023 30.9898 210.13 31.6497 210.127C31.9497 210.125 33.4617 210.117 33.8697 210.115C34.5777 210.111 34.6881 209.666 34.7953 207.59C35.0103 207.768 35.3814 207.934 35.6451 207.993C35.5008 210.262 35.2212 210.935 33.9132 210.942C33.6253 210.944 31.8373 210.954 31.5613 210.955C30.2893 210.962 29.9191 210.64 29.9254 209.464L29.9579 203.44ZM30.068 200.824L30.6356 200.137C32.085 200.621 33.8203 201.475 34.7648 202.118L34.1845 202.913C33.2643 202.222 31.5172 201.332 30.068 200.824ZM27.9487 204.411L28.8117 204.587C28.6231 206.196 28.2407 208.118 27.3705 209.274L26.5572 208.787C27.3669 207.726 27.7723 205.972 27.9487 204.411ZM34.9445 204.385L35.7507 203.984C36.8233 205.347 37.7135 207.154 38.0066 208.424L37.1043 208.861C36.8471 207.602 35.9572 205.735 34.9445 204.385ZM39.9575 200.458L42.1535 200.445L42.1495 201.177L39.9535 201.189L39.9575 200.458ZM41.7935 200.447L42.5855 200.443L42.534 209.983C42.5318 210.403 42.4464 210.655 42.1937 210.789C41.9169 210.946 41.5448 210.96 40.9448 210.964C40.922 210.748 40.8041 210.364 40.6852 210.149C41.0811 210.159 41.4411 210.157 41.5731 210.156C41.6932 210.144 41.7414 210.107 41.7422 209.963L41.7935 200.447ZM39.4295 200.46L40.2455 200.456L40.2216 204.884C40.2118 206.708 40.0894 209.372 39.3239 211.141C39.1928 210.973 38.8342 210.723 38.6427 210.628C39.3356 208.969 39.3963 206.616 39.4056 204.9L39.4295 200.46ZM39.6422 203.303L42.2341 203.289L42.2301 204.045L39.6381 204.059L39.6422 203.303ZM39.615 206.123L42.2069 206.109L42.2027 206.889L39.6108 206.903L39.615 206.123ZM44.2511 209.77L49.711 209.74L49.7063 210.616L44.2464 210.645L44.2511 209.77ZM44.8152 205.303L49.3751 205.278L49.3704 206.142L44.8105 206.167L44.8152 205.303ZM46.7003 202.844L47.5643 202.84L47.5236 210.4L46.6596 210.404L46.7003 202.844ZM45.6943 200.258L46.452 199.942C46.7977 200.36 47.1905 200.946 47.3565 201.329L46.5505 201.693C46.3967 201.298 46.0159 200.7 45.6943 200.258ZM43.9706 201.695L49.7546 201.664L49.75 202.504L43.9661 202.535L43.9706 201.695ZM43.4067 201.699L44.2586 201.694L44.239 205.33C44.23 207.01 44.085 209.422 43.2483 211.047C43.1052 210.88 42.7589 210.57 42.5674 210.475C43.3075 208.971 43.3787 206.882 43.3871 205.334L43.4067 201.699ZM58.0315 199.938L58.9306 200.089C58.2284 201.257 57.1422 202.415 55.5174 203.312C55.3984 203.121 55.136 202.834 54.9447 202.703C56.4488 201.939 57.4985 200.865 58.0315 199.938ZM57.7379 200.984L60.6538 200.968L60.6498 201.712L57.2059 201.731L57.7379 200.984ZM60.3418 200.97L60.5098 200.969L60.6661 200.92L61.2406 201.193C60.279 203.718 58.0273 205.158 55.6116 205.867C55.5288 205.652 55.3026 205.317 55.1476 205.138C57.3705 204.586 59.5377 203.218 60.341 201.114L60.3418 200.97ZM56.4813 202.587L57.0597 202.127C57.7176 202.508 58.4944 203.104 58.876 203.545L58.2733 204.053C57.9156 203.623 57.1271 202.991 56.4813 202.587ZM58.6432 204.447L59.5543 204.598C58.7793 205.91 57.5244 207.201 55.6472 208.171C55.5283 207.968 55.2659 207.681 55.0746 207.55C56.843 206.712 58.0495 205.506 58.6432 204.447ZM58.301 205.589L61.169 205.573L61.1648 206.341L57.7569 206.359L58.301 205.589ZM60.905 205.574L61.085 205.573L61.2532 205.536L61.8278 205.785C60.7914 208.827 58.2275 210.317 55.32 210.993C55.2252 210.765 55.0231 210.418 54.8682 210.227C57.5829 209.696 60.0384 208.291 60.9042 205.718L60.905 205.574ZM56.7193 207.397L57.334 206.89C58.0998 207.306 58.9961 207.973 59.4255 208.462L58.7864 209.03C58.3692 208.528 57.4849 207.849 56.7193 207.397ZM52.8663 200.951L53.7422 200.946L53.6882 210.966L52.8122 210.97L52.8663 200.951ZM50.8854 203.349L55.2414 203.325L55.2368 204.177L50.8808 204.201L50.8854 203.349ZM52.8996 203.662L53.4623 203.899C52.9732 205.594 52.0019 207.699 51.0719 208.82C50.9893 208.569 50.7753 208.198 50.6204 207.995C51.4895 207.03 52.4596 205.153 52.8996 203.662ZM54.6466 200.125L55.2789 200.817C54.1725 201.267 52.4907 201.613 51.0977 201.812C51.0508 201.609 50.9323 201.321 50.8254 201.118C52.1827 200.882 53.7684 200.538 54.6466 200.125ZM53.685 204.882C53.9836 205.144 55.1054 206.278 55.3438 206.577L54.812 207.288C54.5267 206.797 53.6328 205.662 53.2631 205.244L53.685 204.882ZM67.1326 201.148L73.8525 201.111L73.8482 201.903L67.1283 201.94L67.1326 201.148ZM67.5198 209.45L73.8557 209.415L73.8514 210.219L67.5155 210.254L67.5198 209.45ZM70.3553 199.871L71.279 199.913C71.1768 201.066 71.0131 202.495 70.8521 203.42L70.0487 203.316C70.1855 202.427 70.3133 200.975 70.3553 199.871ZM67.1425 203.752L67.9585 203.748L67.9198 210.923L67.1038 210.928L67.1425 203.752ZM69.6663 205.25L69.6612 206.198L72.3852 206.183L72.3903 205.235L69.6663 205.25ZM69.6577 206.846L69.6526 207.806L72.3765 207.791L72.3817 206.831L69.6577 206.846ZM69.6749 203.666L69.6698 204.602L72.3938 204.587L72.3988 203.651L69.6749 203.666ZM68.8866 202.986L73.2185 202.963L73.1889 208.459L68.8569 208.482L68.8866 202.986ZM62.9254 202.503L66.8254 202.482L66.8208 203.334L62.9208 203.355L62.9254 202.503ZM64.6314 199.89L65.4594 199.885L65.4 210.913L64.572 210.918L64.6314 199.89ZM64.5907 202.998L65.1417 203.187C64.7594 205.085 63.9547 207.453 63.1083 208.658C63.0135 208.431 62.7994 208.084 62.6564 207.892C63.4542 206.808 64.2455 204.716 64.5907 202.998ZM65.3772 204.014C65.6394 204.348 66.6511 205.879 66.8771 206.237L66.3695 206.912C66.1088 206.302 65.2646 204.866 64.9671 204.4L65.3772 204.014ZM83.891 199.808L84.5591 200.537C82.3837 201.184 78.83 201.528 75.9134 201.664C75.8906 201.436 75.7846 201.077 75.7017 200.873C78.5583 200.725 82.064 200.382 83.891 199.808ZM75.7009 203.237L85.0608 203.186L85.0561 204.05L75.6963 204.101L75.7009 203.237ZM74.8817 206.061L85.7176 206.002L85.7128 206.878L74.877 206.937L74.8817 206.061ZM79.8642 201.102L80.8002 201.097L80.7544 209.593C80.751 210.229 80.5575 210.506 80.1007 210.653C79.644 210.799 78.8639 210.827 77.5919 210.822C77.5333 210.571 77.3675 210.164 77.2248 209.924C78.2206 209.955 79.1806 209.938 79.4447 209.924C79.7207 209.923 79.8171 209.838 79.8185 209.586L79.8642 201.102ZM93.0036 203.346C94.0731 205.272 96.1014 207.421 97.8116 208.491C97.5826 208.673 97.2568 209.022 97.0874 209.275C95.39 208.061 93.4105 205.768 92.2459 203.65L93.0036 203.346ZM91.7435 203.365L92.5459 203.66C91.3931 206.043 89.3892 208.262 87.379 209.425C87.2123 209.186 86.9142 208.839 86.6992 208.66C88.6847 207.63 90.7001 205.495 91.7435 203.365ZM87.1027 202.814L97.4345 202.758L97.4297 203.646L87.0979 203.702L87.1027 202.814ZM91.8469 199.765L92.8309 199.759L92.7715 210.787L91.7875 210.792L91.8469 199.765ZM93.5949 200.499L94.2578 199.943C94.9871 200.443 95.9431 201.17 96.4206 201.647L95.7451 202.287C95.2798 201.798 94.3359 201.035 93.5949 200.499Z" fill="#151522"/>
    <path d="M229.253 214.955C229.381 214.954 229.481 214.992 229.552 215.067C229.624 215.139 229.659 215.235 229.659 215.355L229.655 216.063L223.871 216.095L223.873 215.693C223.873 215.613 223.89 215.528 223.922 215.44C223.955 215.348 224.009 215.266 224.086 215.193L226.824 212.448C227.054 212.219 227.261 211.998 227.446 211.785C227.631 211.572 227.788 211.361 227.917 211.153C228.046 210.94 228.146 210.723 228.215 210.503C228.288 210.283 228.325 210.05 228.327 209.806C228.328 209.566 228.291 209.357 228.216 209.177C228.141 208.993 228.038 208.842 227.906 208.723C227.775 208.603 227.62 208.514 227.44 208.455C227.26 208.396 227.066 208.367 226.858 208.368C226.65 208.37 226.458 208.401 226.282 208.462C226.11 208.523 225.955 208.607 225.819 208.716C225.682 208.825 225.567 208.954 225.474 209.102C225.382 209.251 225.315 209.411 225.274 209.583C225.217 209.735 225.144 209.838 225.056 209.89C224.972 209.943 224.848 209.955 224.684 209.928L224.073 209.824C224.131 209.423 224.243 209.071 224.408 208.766C224.574 208.461 224.781 208.206 225.03 208.001C225.28 207.791 225.564 207.634 225.885 207.528C226.209 207.422 226.558 207.368 226.93 207.366C227.306 207.364 227.651 207.418 227.967 207.528C228.286 207.635 228.561 207.791 228.792 207.998C229.023 208.205 229.204 208.458 229.334 208.757C229.465 209.052 229.529 209.388 229.527 209.764C229.525 210.084 229.475 210.382 229.378 210.659C229.284 210.931 229.155 211.192 228.99 211.441C228.828 211.69 228.639 211.933 228.422 212.17C228.209 212.403 227.981 212.64 227.74 212.881L225.544 215.125C225.712 215.08 225.88 215.044 226.049 215.015C226.221 214.986 226.383 214.971 226.535 214.97L229.253 214.955ZM233.776 215.206C234.048 215.205 234.29 215.165 234.503 215.088C234.715 215.011 234.896 214.904 235.044 214.767C235.193 214.626 235.306 214.46 235.383 214.267C235.46 214.075 235.499 213.865 235.5 213.637C235.502 213.357 235.457 213.117 235.366 212.918C235.275 212.714 235.152 212.549 234.997 212.422C234.842 212.29 234.66 212.195 234.453 212.137C234.245 212.074 234.025 212.043 233.793 212.044C233.557 212.046 233.335 212.079 233.127 212.144C232.918 212.205 232.736 212.302 232.579 212.435C232.422 212.564 232.298 212.73 232.204 212.935C232.115 213.135 232.07 213.376 232.069 213.656C232.067 213.884 232.104 214.093 232.179 214.285C232.254 214.477 232.365 214.642 232.512 214.781C232.66 214.916 232.839 215.021 233.051 215.096C233.262 215.171 233.504 215.208 233.776 215.206ZM233.814 208.228C233.566 208.23 233.348 208.269 233.159 208.346C232.975 208.419 232.82 208.52 232.696 208.648C232.571 208.777 232.476 208.926 232.411 209.094C232.35 209.262 232.319 209.442 232.318 209.634C232.317 209.822 232.342 210.006 232.393 210.186C232.448 210.362 232.533 210.519 232.649 210.659C232.768 210.794 232.921 210.903 233.109 210.986C233.296 211.069 233.526 211.11 233.798 211.108C234.066 211.107 234.294 211.064 234.483 210.978C234.675 210.893 234.83 210.783 234.947 210.646C235.067 210.505 235.154 210.347 235.207 210.171C235.264 209.99 235.293 209.806 235.294 209.618C235.295 209.426 235.264 209.246 235.201 209.079C235.142 208.911 235.051 208.763 234.927 208.636C234.804 208.509 234.649 208.41 234.461 208.339C234.278 208.264 234.062 208.227 233.814 208.228ZM235.086 211.539C235.621 211.696 236.026 211.952 236.3 212.306C236.578 212.661 236.715 213.11 236.712 213.654C236.71 214.03 236.636 214.371 236.491 214.675C236.349 214.98 236.148 215.241 235.887 215.459C235.63 215.672 235.321 215.838 234.96 215.956C234.599 216.074 234.203 216.134 233.771 216.136C233.339 216.139 232.943 216.083 232.584 215.969C232.225 215.855 231.916 215.692 231.657 215.482C231.402 215.267 231.203 215.008 231.061 214.705C230.923 214.402 230.854 214.062 230.856 213.686C230.859 213.142 231 212.692 231.278 212.334C231.56 211.977 231.969 211.716 232.506 211.553C232.063 211.388 231.73 211.14 231.508 210.809C231.286 210.474 231.176 210.077 231.178 209.617C231.18 209.297 231.244 208.998 231.369 208.722C231.499 208.441 231.678 208.198 231.907 207.993C232.14 207.787 232.419 207.626 232.744 207.508C233.068 207.39 233.427 207.33 233.819 207.328C234.211 207.326 234.568 207.382 234.892 207.496C235.215 207.611 235.49 207.769 235.717 207.972C235.948 208.175 236.125 208.416 236.247 208.695C236.374 208.97 236.436 209.268 236.434 209.588C236.432 210.048 236.318 210.446 236.092 210.784C235.866 211.117 235.531 211.369 235.086 211.539ZM237.886 215.316C237.887 215.208 237.907 215.105 237.948 215.009C237.988 214.913 238.043 214.829 238.111 214.756C238.184 214.684 238.268 214.628 238.364 214.587C238.46 214.542 238.565 214.52 238.677 214.519C238.785 214.519 238.886 214.54 238.982 214.584C239.078 214.623 239.162 214.679 239.233 214.75C239.305 214.822 239.36 214.906 239.4 215.001C239.443 215.097 239.465 215.199 239.464 215.307C239.464 215.419 239.441 215.523 239.397 215.619C239.356 215.716 239.3 215.8 239.227 215.872C239.155 215.945 239.071 216.001 238.974 216.042C238.878 216.082 238.776 216.103 238.668 216.103C238.556 216.104 238.452 216.084 238.356 216.045C238.261 216.006 238.177 215.95 238.105 215.878C238.038 215.807 237.984 215.723 237.945 215.627C237.905 215.531 237.886 215.428 237.886 215.316ZM246.639 207.354L246.636 207.876C246.635 208.028 246.616 208.152 246.58 208.248C246.547 208.34 246.515 208.421 246.483 208.489L242.953 215.576C242.896 215.692 242.817 215.79 242.717 215.871C242.617 215.952 242.482 215.992 242.314 215.993L241.474 215.998L245.058 209.012C245.118 208.9 245.179 208.798 245.24 208.705C245.3 208.609 245.367 208.521 245.439 208.44L241.035 208.465C240.959 208.465 240.893 208.437 240.837 208.382C240.782 208.326 240.754 208.26 240.755 208.184L240.759 207.386L246.639 207.354ZM247.843 206.795L258.354 206.738L258.35 207.614L247.838 207.671L247.843 206.795ZM251.569 210.111L256.621 210.083L256.616 210.959L251.564 210.987L251.569 210.111ZM256.309 210.085L257.245 210.079C257.245 210.079 257.231 210.392 257.218 210.524C256.993 214.401 256.781 215.854 256.311 216.36C256.033 216.674 255.733 216.76 255.264 216.798C254.82 216.837 253.968 216.817 253.153 216.774C253.13 216.51 253.012 216.138 252.833 215.887C253.733 215.979 254.609 215.974 254.933 215.972C255.209 215.97 255.365 215.946 255.498 215.813C255.896 215.463 256.108 213.962 256.308 210.241L256.309 210.085ZM251.091 207.485L252.015 207.48C251.9 210.889 251.662 214.958 248.1 216.945C247.957 216.718 247.683 216.432 247.444 216.253C250.861 214.434 250.99 210.606 251.091 207.485Z" fill="#151522"/>
    <rect width="7.7184" height="7.54923" rx="3.77462" transform="matrix(0.999985 -0.00549278 -0.00539025 0.999985 14.35 421.058)" fill="#D786C8"/>
    <path d="M32.4482 418.729L38.0521 418.698L38.0472 419.61L32.4433 419.641L32.4482 418.729ZM32.0418 422.883L38.4137 422.848L38.4088 423.76L32.0369 423.795L32.0418 422.883ZM34.7508 418.968L35.6748 418.963L35.62 429.127L34.696 429.132L34.7508 418.968ZM28.5612 418.57L31.3452 418.555L31.3407 419.395L28.5567 419.41L28.5612 418.57ZM28.5461 421.378L31.354 421.363L31.3495 422.203L28.5416 422.218L28.5461 421.378ZM28.5066 424.258L31.3145 424.243L31.3099 425.095L28.502 425.11L28.5066 424.258ZM28.1892 418.572L29.0172 418.568L28.9939 422.888C28.9838 424.759 28.8495 427.412 27.988 429.193C27.8208 429.05 27.4619 428.848 27.2463 428.765C28.0834 427.068 28.1564 424.656 28.1659 422.892L28.1892 418.572ZM30.8892 418.557L31.7172 418.553L31.6664 427.973C31.6638 428.453 31.5663 428.729 31.2655 428.887C30.9407 429.033 30.4726 429.059 29.6566 429.064C29.6218 428.836 29.516 428.428 29.3973 428.201C29.9611 428.222 30.4652 428.207 30.6212 428.206C30.7772 428.193 30.8376 428.133 30.8384 427.977L30.8892 418.557ZM40.5371 418.492L42.7331 418.48L42.7291 419.212L40.5332 419.224L40.5371 418.492ZM42.3731 418.482L43.1651 418.478L43.1136 428.018C43.1114 428.438 43.026 428.69 42.7733 428.824C42.4965 428.981 42.1244 428.995 41.5244 428.998C41.5016 428.783 41.3837 428.399 41.2648 428.184C41.6608 428.194 42.0208 428.192 42.1527 428.191C42.2728 428.178 42.321 428.142 42.3218 427.998L42.3731 418.482ZM40.0091 418.495L40.8251 418.491L40.8012 422.919C40.7914 424.743 40.669 427.407 39.9035 429.175C39.7725 429.008 39.4138 428.758 39.2223 428.663C39.9153 427.003 39.9759 424.651 39.9852 422.935L40.0091 418.495ZM40.2218 421.338L42.8137 421.324L42.8097 422.08L40.2177 422.094L40.2218 421.338ZM40.1946 424.158L42.7865 424.144L42.7823 424.924L40.1904 424.938L40.1946 424.158ZM44.8307 427.804L50.2906 427.774L50.2859 428.65L44.826 428.68L44.8307 427.804ZM45.3948 423.337L49.9547 423.312L49.95 424.176L45.3901 424.201L45.3948 423.337ZM47.2799 420.879L48.1439 420.874L48.1032 428.434L47.2392 428.439L47.2799 420.879ZM46.2739 418.293L47.0316 417.977C47.3773 418.395 47.7701 418.981 47.9361 419.364L47.1301 419.728C46.9763 419.333 46.5955 418.735 46.2739 418.293ZM44.5503 419.73L50.3342 419.698L50.3296 420.538L44.5457 420.57L44.5503 419.73ZM43.9863 419.733L44.8382 419.729L44.8186 423.365C44.8096 425.045 44.6646 427.457 43.8279 429.082C43.6848 428.915 43.3385 428.604 43.147 428.51C43.8871 427.006 43.9583 424.917 43.9667 423.369L43.9863 419.733ZM58.6111 417.973L59.5102 418.124C58.808 419.292 57.7218 420.45 56.097 421.347C55.9781 421.155 55.7156 420.869 55.5243 420.738C57.0284 419.974 58.0781 418.9 58.6111 417.973ZM58.3175 419.019L61.2334 419.003L61.2294 419.747L57.7855 419.766L58.3175 419.019ZM60.9214 419.004L61.0894 419.003L61.2457 418.955L61.8202 419.227C60.8586 421.753 58.607 423.193 56.1912 423.902C56.1084 423.687 55.8822 423.352 55.7272 423.173C57.9501 422.62 60.1173 421.253 60.9207 419.148L60.9214 419.004ZM57.0609 420.621L57.6393 420.162C58.2973 420.543 59.074 421.138 59.4556 421.58L58.8529 422.088C58.4952 421.658 57.7067 421.026 57.0609 420.621ZM59.2228 422.481L60.1339 422.632C59.3589 423.945 58.104 425.236 56.2268 426.206C56.1079 426.002 55.8455 425.716 55.6542 425.585C57.4226 424.747 58.6291 423.541 59.2228 422.481ZM58.8806 423.623L61.7486 423.608L61.7444 424.376L58.3365 424.394L58.8806 423.623ZM61.4846 423.609L61.6646 423.608L61.8328 423.571L62.4074 423.82C61.3711 426.862 58.8071 428.352 55.8996 429.027C55.8049 428.8 55.6027 428.453 55.4478 428.262C58.1625 427.731 60.618 426.326 61.4838 423.753L61.4846 423.609ZM57.2989 425.432L57.9137 424.925C58.6794 425.34 59.5757 426.007 60.0051 426.497L59.3661 427.065C58.9488 426.563 58.0645 425.884 57.2989 425.432ZM53.4459 418.985L54.3219 418.981L54.2678 429L53.3919 429.005L53.4459 418.985ZM51.465 421.384L55.821 421.36L55.8164 422.212L51.4604 422.236L51.465 421.384ZM53.4792 421.697L54.0419 421.934C53.5528 423.629 52.5815 425.734 51.6515 426.855C51.5689 426.603 51.3549 426.233 51.2 426.029C52.0692 425.065 53.0392 423.187 53.4792 421.697ZM55.2262 418.16L55.8585 418.852C54.7521 419.302 53.0703 419.647 51.6773 419.847C51.6304 419.643 51.512 419.356 51.4051 419.153C52.7623 418.917 54.3481 418.572 55.2262 418.16ZM54.2646 422.917C54.5632 423.179 55.6851 424.313 55.9234 424.612L55.3916 425.322C55.1063 424.832 54.2124 423.697 53.8427 423.279L54.2646 422.917ZM67.7122 419.183L74.4321 419.146L74.4278 419.938L67.7079 419.975L67.7122 419.183ZM68.0994 427.485L74.4353 427.45L74.431 428.254L68.0951 428.289L68.0994 427.485ZM70.9349 417.905L71.8586 417.948C71.7564 419.101 71.5927 420.53 71.4318 421.454L70.6283 421.351C70.7651 420.462 70.893 419.01 70.9349 417.905ZM67.7221 421.787L68.5381 421.782L68.4994 428.958L67.6834 428.963L67.7221 421.787ZM70.2459 423.285L70.2408 424.233L72.9648 424.218L72.9699 423.27L70.2459 423.285ZM70.2373 424.881L70.2322 425.841L72.9561 425.826L72.9613 424.866L70.2373 424.881ZM70.2545 421.701L70.2494 422.637L72.9734 422.622L72.9784 421.686L70.2545 421.701ZM69.4662 421.021L73.7981 420.997L73.7685 426.493L69.4366 426.517L69.4662 421.021ZM63.505 420.538L67.405 420.517L67.4004 421.369L63.5005 421.39L63.505 420.538ZM65.2111 417.925L66.039 417.92L65.9796 428.948L65.1516 428.953L65.2111 417.925ZM65.1703 421.033L65.7213 421.222C65.339 423.12 64.5343 425.488 63.6879 426.693C63.5931 426.465 63.379 426.119 63.236 425.927C64.0338 424.843 64.8251 422.751 65.1703 421.033ZM65.9568 422.049C66.219 422.383 67.2307 423.913 67.4567 424.272L66.9491 424.947C66.6884 424.336 65.8442 422.901 65.5467 422.435L65.9568 422.049ZM84.4706 417.843L85.1387 418.571C82.9633 419.219 79.4096 419.563 76.493 419.699C76.4702 419.471 76.3642 419.111 76.2813 418.908C79.1379 418.76 82.6436 418.417 84.4706 417.843ZM76.2805 421.272L85.6404 421.22L85.6357 422.084L76.2759 422.136L76.2805 421.272ZM75.4613 424.096L86.2972 424.037L86.2924 424.913L75.4566 424.972L75.4613 424.096ZM80.4438 419.137L81.3798 419.132L81.334 427.628C81.3306 428.264 81.1371 428.541 80.6804 428.687C80.2236 428.834 79.4435 428.862 78.1715 428.857C78.1129 428.605 77.9471 428.198 77.8044 427.959C78.8002 427.99 79.7602 427.972 80.0243 427.959C80.3003 427.957 80.3968 427.873 80.3981 427.621L80.4438 419.137ZM93.5832 421.381C94.6527 423.307 96.6811 425.456 98.3912 426.526C98.1622 426.707 97.8364 427.057 97.667 427.31C95.9696 426.095 93.9901 423.802 92.8256 421.685L93.5832 421.381ZM92.3231 421.4L93.1255 421.695C91.9727 424.078 89.9688 426.296 87.9586 427.459C87.7919 427.22 87.4938 426.874 87.2788 426.695C89.2643 425.664 91.2797 423.529 92.3231 421.4ZM87.6823 420.849L98.0141 420.792L98.0093 421.68L87.6775 421.737L87.6823 420.849ZM92.4265 417.799L93.4105 417.794L93.3511 428.822L92.3671 428.827L92.4265 417.799ZM94.1745 418.534L94.8374 417.978C95.5667 418.478 96.5228 419.205 97.0002 419.682L96.3247 420.322C95.8594 419.832 94.9156 419.07 94.1745 418.534Z" fill="#151522"/>
    <path d="M228.252 432.998C228.38 432.998 228.48 433.035 228.552 433.111C228.623 433.182 228.659 433.278 228.658 433.398L228.655 434.106L222.871 434.138L222.873 433.736C222.873 433.656 222.89 433.572 222.922 433.484C222.955 433.392 223.009 433.309 223.085 433.237L225.824 430.492C226.053 430.263 226.261 430.042 226.446 429.829C226.631 429.616 226.788 429.405 226.917 429.196C227.046 428.983 227.145 428.767 227.215 428.546C227.288 428.326 227.325 428.094 227.326 427.85C227.328 427.61 227.291 427.4 227.216 427.22C227.141 427.037 227.038 426.885 226.906 426.766C226.775 426.647 226.619 426.558 226.44 426.499C226.26 426.44 226.066 426.411 225.858 426.412C225.65 426.413 225.458 426.444 225.282 426.505C225.109 426.566 224.955 426.651 224.818 426.76C224.682 426.868 224.567 426.997 224.474 427.145C224.381 427.294 224.315 427.454 224.274 427.627C224.217 427.779 224.144 427.881 224.056 427.934C223.972 427.986 223.848 427.999 223.684 427.972L223.072 427.867C223.131 427.467 223.242 427.114 223.408 426.809C223.574 426.504 223.781 426.249 224.03 426.044C224.279 425.835 224.564 425.677 224.885 425.571C225.209 425.466 225.558 425.412 225.93 425.41C226.306 425.407 226.651 425.462 226.967 425.572C227.286 425.678 227.561 425.835 227.792 426.041C228.023 426.248 228.204 426.501 228.334 426.8C228.464 427.096 228.528 427.431 228.526 427.807C228.525 428.127 228.475 428.425 228.378 428.702C228.284 428.974 228.155 429.235 227.989 429.484C227.828 429.733 227.639 429.976 227.422 430.213C227.208 430.446 226.981 430.684 226.74 430.925L224.544 433.169C224.712 433.124 224.88 433.087 225.048 433.058C225.22 433.029 225.383 433.014 225.535 433.013L228.252 432.998ZM235.213 432.96C235.341 432.96 235.441 432.997 235.513 433.073C235.584 433.144 235.62 433.24 235.619 433.36L235.615 434.068L229.831 434.1L229.834 433.698C229.834 433.618 229.85 433.534 229.883 433.445C229.915 433.353 229.97 433.271 230.046 433.199L232.785 430.454C233.014 430.224 233.221 430.003 233.406 429.79C233.592 429.577 233.749 429.366 233.878 429.158C234.007 428.945 234.106 428.728 234.175 428.508C234.249 428.288 234.286 428.056 234.287 427.812C234.288 427.572 234.252 427.362 234.177 427.182C234.102 426.999 233.998 426.847 233.867 426.728C233.736 426.609 233.58 426.519 233.4 426.46C233.221 426.401 233.027 426.373 232.819 426.374C232.611 426.375 232.419 426.406 232.242 426.467C232.07 426.528 231.916 426.613 231.779 426.721C231.643 426.83 231.528 426.959 231.435 427.107C231.342 427.256 231.275 427.416 231.234 427.588C231.178 427.741 231.105 427.843 231.017 427.895C230.933 427.948 230.808 427.961 230.645 427.934L230.033 427.829C230.091 427.429 230.203 427.076 230.369 426.771C230.535 426.466 230.742 426.211 230.991 426.006C231.24 425.796 231.525 425.639 231.846 425.533C232.17 425.427 232.518 425.373 232.89 425.371C233.266 425.369 233.612 425.423 233.927 425.534C234.247 425.64 234.522 425.796 234.753 426.003C234.984 426.21 235.164 426.463 235.295 426.762C235.425 427.057 235.489 427.393 235.487 427.769C235.486 428.089 235.436 428.387 235.338 428.664C235.245 428.936 235.116 429.197 234.95 429.446C234.789 429.695 234.6 429.938 234.382 430.175C234.169 430.408 233.942 430.645 233.701 430.887L231.505 433.131C231.673 433.086 231.841 433.049 232.009 433.02C232.181 432.991 232.343 432.976 232.495 432.975L235.213 432.96ZM236.886 433.359C236.887 433.251 236.907 433.149 236.948 433.053C236.988 432.956 237.043 432.872 237.111 432.8C237.183 432.727 237.268 432.671 237.364 432.63C237.46 432.586 237.564 432.563 237.676 432.563C237.784 432.562 237.886 432.584 237.982 432.627C238.078 432.666 238.161 432.722 238.233 432.794C238.305 432.865 238.36 432.949 238.4 433.045C238.443 433.14 238.465 433.242 238.464 433.35C238.463 433.462 238.441 433.566 238.396 433.663C238.356 433.759 238.299 433.843 238.227 433.916C238.155 433.988 238.07 434.044 237.974 434.085C237.878 434.126 237.776 434.146 237.668 434.147C237.556 434.147 237.452 434.128 237.356 434.088C237.26 434.049 237.177 433.993 237.105 433.922C237.037 433.85 236.984 433.766 236.944 433.671C236.905 433.575 236.885 433.471 236.886 433.359ZM242.573 433.196C242.845 433.194 243.087 433.155 243.299 433.078C243.512 433.001 243.692 432.894 243.841 432.757C243.99 432.616 244.103 432.449 244.18 432.257C244.257 432.065 244.296 431.854 244.297 431.626C244.298 431.346 244.254 431.107 244.163 430.907C244.072 430.704 243.949 430.538 243.794 430.411C243.638 430.28 243.457 430.185 243.249 430.126C243.041 430.063 242.822 430.033 242.59 430.034C242.354 430.035 242.131 430.068 241.923 430.133C241.715 430.195 241.532 430.292 241.376 430.424C241.219 430.553 241.094 430.72 241.001 430.925C240.912 431.125 240.867 431.365 240.865 431.645C240.864 431.873 240.901 432.083 240.976 432.275C241.051 432.466 241.162 432.632 241.309 432.771C241.456 432.906 241.636 433.011 241.847 433.086C242.059 433.161 242.301 433.197 242.573 433.196ZM242.61 426.218C242.362 426.219 242.144 426.258 241.956 426.335C241.771 426.408 241.617 426.509 241.492 426.638C241.367 426.767 241.273 426.915 241.208 427.084C241.147 427.252 241.116 427.432 241.115 427.624C241.114 427.812 241.139 427.996 241.19 428.176C241.245 428.351 241.33 428.509 241.445 428.648C241.564 428.784 241.718 428.893 241.905 428.976C242.093 429.059 242.323 429.099 242.595 429.098C242.863 429.096 243.091 429.053 243.279 428.968C243.472 428.883 243.626 428.772 243.743 428.636C243.864 428.495 243.951 428.336 244.004 428.16C244.061 427.98 244.09 427.796 244.091 427.608C244.092 427.416 244.061 427.236 243.998 427.068C243.938 426.901 243.847 426.753 243.724 426.626C243.601 426.498 243.445 426.399 243.258 426.328C243.074 426.253 242.858 426.217 242.61 426.218ZM243.882 429.529C244.417 429.686 244.822 429.942 245.096 430.296C245.374 430.651 245.512 431.1 245.509 431.644C245.507 432.02 245.433 432.36 245.287 432.665C245.146 432.97 244.944 433.231 244.683 433.448C244.426 433.662 244.117 433.827 243.757 433.945C243.396 434.063 243 434.123 242.568 434.126C242.136 434.128 241.74 434.072 241.381 433.958C241.021 433.844 240.712 433.682 240.453 433.471C240.198 433.257 240 432.998 239.857 432.695C239.719 432.391 239.651 432.052 239.653 431.676C239.656 431.132 239.796 430.681 240.074 430.324C240.356 429.966 240.765 429.706 241.302 429.543C240.859 429.377 240.527 429.129 240.304 428.798C240.082 428.464 239.972 428.066 239.975 427.606C239.977 427.286 240.04 426.988 240.166 426.711C240.295 426.431 240.474 426.188 240.704 425.982C240.937 425.777 241.216 425.616 241.54 425.498C241.865 425.38 242.223 425.32 242.615 425.318C243.007 425.316 243.365 425.372 243.688 425.486C244.011 425.6 244.287 425.759 244.514 425.961C244.744 426.164 244.921 426.405 245.044 426.684C245.17 426.96 245.232 427.257 245.231 427.577C245.228 428.037 245.114 428.436 244.888 428.773C244.663 429.106 244.327 429.358 243.882 429.529ZM246.842 424.839L257.354 424.781L257.35 425.657L246.838 425.715L246.842 424.839ZM250.568 428.154L255.62 428.126L255.616 429.002L250.564 429.03L250.568 428.154ZM255.308 428.128L256.244 428.123C256.244 428.123 256.231 428.435 256.218 428.567C255.993 432.444 255.781 433.897 255.31 434.404C255.033 434.717 254.732 434.803 254.264 434.841C253.82 434.88 252.968 434.861 252.152 434.817C252.13 434.553 252.012 434.182 251.833 433.931C252.733 434.022 253.609 434.017 253.933 434.015C254.209 434.014 254.365 433.989 254.497 433.856C254.895 433.506 255.107 432.005 255.307 428.284L255.308 428.128ZM250.091 425.529L251.015 425.524C250.9 428.932 250.662 433.001 247.1 434.989C246.957 434.762 246.682 434.475 246.443 434.296C249.861 432.478 249.99 428.649 250.091 425.529Z" fill="#151522"/>
    <rect opacity="0.7" width="224.774" height="8.86489" rx="4.43245" transform="matrix(0.999985 -0.00549278 -0.00539025 0.999985 14.0478 477.132)" fill="#EFEFFF"/>
    <rect width="116.005" height="9.50562" rx="4.75281" transform="matrix(0.999985 -0.00549278 -0.00539025 0.999985 14.0478 477.132)" fill="#D786C8"/>
</svg>
