<svg width="339" height="281" viewBox="0 0 339 281" fill="none" xmlns="http://www.w3.org/2000/svg">
    <rect width="336.478" height="278.931" rx="10" transform="matrix(0.999985 -0.0054928 -0.00539025 0.999985 1.82626 2.11829)" fill="white"/>
    <path d="M93.9146 137.198C93.7976 158.905 76.4342 176.597 55.1324 176.714C33.8306 176.831 16.6569 159.329 16.7739 137.622C16.891 115.914 34.2543 98.2224 55.5561 98.1054C76.8579 97.9884 94.0316 115.491 93.9146 137.198ZM20.631 137.6C20.5257 157.137 35.982 172.889 55.1536 172.783C74.3252 172.678 89.9522 156.755 90.0575 137.219C90.1628 117.683 74.7065 101.931 55.5349 102.036C36.3633 102.141 20.7363 118.064 20.631 137.6Z" fill="#CDD2FD"/>
    <path d="M55.5455 100.071C55.5514 98.9853 56.4368 98.0953 57.5204 98.1456C65.6673 98.5242 73.4778 101.53 79.8119 106.756C86.1675 112 90.6775 119.183 92.7091 127.244C92.9675 128.269 92.2942 129.291 91.2563 129.519C90.2073 129.75 89.1857 129.082 88.9181 128.047C87.0643 120.879 83.0291 114.494 77.3651 109.821C71.7153 105.16 64.7603 102.461 57.4989 102.082C56.4157 102.025 55.5397 101.156 55.5455 100.071Z" fill="#0066FF"/>
    <path d="M47.9725 139.709L47.9631 141.464L40.8532 141.503L40.8613 140.003L44.2252 136.475C44.7782 135.902 45.1608 135.425 45.3728 135.044C45.5849 134.663 45.6918 134.297 45.6937 133.947C45.6987 133.027 45.1312 132.57 43.9912 132.577C43.5212 132.579 43.0458 132.652 42.5651 132.794C42.0943 132.937 41.6432 133.149 41.2117 133.432L41.2215 131.617C42.1041 131.122 43.0604 130.872 44.0904 130.866C45.2004 130.86 46.079 131.115 46.7261 131.632C47.3833 132.148 47.7095 132.861 47.7046 133.771C47.699 134.811 47.2234 135.854 46.2778 136.899L43.6976 139.733L47.9725 139.709ZM55.7642 135.962C56.2727 136.229 56.6657 136.592 56.9432 137.05C57.2308 137.499 57.3731 137.998 57.3701 138.548C57.3669 139.158 57.194 139.694 56.8515 140.156C56.509 140.617 56.0271 140.975 55.4058 141.229C54.7844 141.482 54.0788 141.611 53.2888 141.615C52.7088 141.618 52.1542 141.551 51.625 141.414C51.1057 141.277 50.5869 141.065 50.0685 140.778L50.0789 138.843L50.1389 138.843C51.175 139.557 52.203 139.911 53.223 139.906C53.863 139.902 54.3737 139.774 54.755 139.522C55.1364 139.26 55.3283 138.904 55.3307 138.454C55.3334 137.964 55.1205 137.57 54.6921 137.273C54.2638 136.965 53.6847 136.813 52.9547 136.817L52.3247 136.821L52.3336 135.171L52.9636 135.167C53.6436 135.163 54.1792 135.036 54.5706 134.783C54.9619 134.531 55.1588 134.185 55.1611 133.745C55.1632 133.355 54.9999 133.056 54.671 132.848C54.3521 132.64 53.9027 132.537 53.3227 132.54C52.8727 132.543 52.4173 132.615 51.9566 132.758C51.5059 132.9 51.0097 133.123 50.4681 133.426L50.4081 133.426L50.4181 131.566C51.3707 131.071 52.372 130.821 53.422 130.815C54.562 130.809 55.4706 131.054 56.1479 131.55C56.8353 132.036 57.1767 132.704 57.1721 133.554C57.1694 134.054 57.0419 134.515 56.7896 134.936C56.5474 135.348 56.2056 135.689 55.7642 135.962ZM61.5649 137.025C60.5949 137.03 59.8765 136.749 59.4096 136.182C58.9527 135.604 58.7268 134.846 58.7319 133.906C58.7369 132.966 58.971 132.209 59.4341 131.637C59.9072 131.054 60.6287 130.76 61.5987 130.755C62.5687 130.75 63.2821 131.036 63.739 131.613C64.2059 132.181 64.4368 132.934 64.4318 133.874C64.4267 134.814 64.1876 135.576 63.7145 136.158C63.2514 136.731 62.5349 137.02 61.5649 137.025ZM70.0425 130.904L61.7214 141.389L60.2364 141.397L68.5576 130.912L70.0425 130.904ZM61.5719 135.735C61.9819 135.733 62.2878 135.561 62.4896 135.22C62.6915 134.869 62.7939 134.423 62.7968 133.883C62.7997 133.353 62.697 132.914 62.4889 132.565C62.2908 132.216 61.9918 132.043 61.5918 132.045C61.1918 132.047 60.8858 132.224 60.674 132.575C60.4721 132.926 60.3697 133.367 60.3668 133.897C60.3639 134.437 60.4615 134.881 60.6596 135.23C60.8578 135.569 61.1619 135.737 61.5719 135.735ZM68.6802 141.546C67.7103 141.551 66.9918 141.27 66.5249 140.702C66.068 140.125 65.8421 139.366 65.8472 138.426C65.8522 137.486 66.0863 136.73 66.5494 136.158C67.0225 135.575 67.7441 135.281 68.714 135.276C69.684 135.27 70.3974 135.556 70.8543 136.134C71.3212 136.701 71.5522 137.455 71.5471 138.395C71.542 139.335 71.3029 140.096 70.8298 140.679C70.3667 141.251 69.6502 141.54 68.6802 141.546ZM68.6872 140.256C69.0972 140.253 69.4031 140.082 69.6049 139.741C69.8068 139.389 69.9092 138.944 69.9121 138.404C69.915 137.874 69.8123 137.435 69.6042 137.086C69.4061 136.737 69.1071 136.563 68.7071 136.566C68.3071 136.568 68.0011 136.745 67.7893 137.096C67.5874 137.447 67.485 137.887 67.4822 138.417C67.4792 138.957 67.5768 139.402 67.775 139.751C67.9731 140.09 68.2772 140.258 68.6872 140.256Z" fill="#151522"/>
    <path d="M43.5308 217.166L45.5307 217.155L45.5005 222.771L43.5005 222.782L43.5034 222.238L44.9434 222.23L44.9679 217.694L43.5279 217.702L43.5308 217.166ZM43.5217 218.846L45.2817 218.837L45.2789 219.365L43.5189 219.374L43.5217 218.846ZM43.5126 220.542L45.2726 220.533L45.2698 221.053L43.5098 221.062L43.5126 220.542ZM43.2108 217.168L43.7708 217.165L43.7369 223.445L43.1769 223.448L43.2108 217.168ZM46.2752 217.063L46.8672 217.06L46.8329 223.428L46.2405 223.511L46.2752 217.063ZM46.5712 217.062L49.8672 217.043L49.8482 220.555L46.5523 220.573L46.5551 220.046L49.2671 220.031L49.2803 217.575L46.5684 217.59L46.5712 217.062ZM46.5791 218.557L49.5311 218.541L49.5284 219.045L46.5764 219.061L46.5791 218.557ZM45.505 223.419C46.2257 223.279 47.3309 223.041 48.4122 222.803L48.4654 223.323C47.4721 223.568 46.4389 223.806 45.6699 223.986L45.505 223.419ZM48.1459 220.253C48.4658 221.763 49.171 223.007 50.3762 223.528C50.2395 223.649 50.0543 223.882 49.9574 224.043C48.7049 223.402 48.0002 222.061 47.6494 220.351L48.1459 220.253ZM49.863 220.779L50.2607 221.201C49.8027 221.58 49.2086 221.983 48.7511 222.249L48.4252 221.867C48.8586 221.601 49.5011 221.133 49.863 220.779ZM52.3215 217.334L52.9055 217.331L52.8695 224.011L52.2855 224.014L52.3215 217.334ZM50.9609 218.933L54.0809 218.916L54.0778 219.484L50.9579 219.501L50.9609 218.933ZM52.3437 219.142L52.7189 219.3C52.3928 220.429 51.7453 221.833 51.1253 222.58C51.0702 222.413 50.9275 222.165 50.8242 222.03C51.4037 221.387 52.0504 220.135 52.3437 219.142ZM53.6044 216.775L53.9698 217.261C53.2323 217.553 52.1271 217.775 51.2144 217.908C51.1832 217.772 51.1043 217.573 51.041 217.437C51.9457 217.288 52.995 217.05 53.6044 216.775ZM52.8613 219.595C53.0681 219.81 53.8309 220.774 54.0056 221.013L53.627 221.487C53.4371 221.104 52.8183 220.155 52.5799 219.844L52.8613 219.595ZM56.725 216.646L57.317 216.643L57.2774 223.994L56.6854 223.998L56.725 216.646ZM53.969 221.869L58.2286 221.157L58.3216 221.717L54.0539 222.436L53.969 221.869ZM54.6401 217.569L55.026 217.215C55.5044 217.516 56.0699 217.969 56.3401 218.304L55.922 218.698C55.6678 218.364 55.1104 217.887 54.6401 217.569ZM54.3089 219.651L54.6868 219.297C55.2051 219.606 55.8345 220.083 56.1287 220.425L55.7265 220.827C55.4324 220.477 54.8271 219.976 54.3089 219.651ZM65.0048 216.616L65.4501 217.102C63.9999 217.534 61.6308 217.763 59.6864 217.853C59.6712 217.702 59.6005 217.462 59.5452 217.326C61.4496 217.228 63.7868 216.999 65.0048 216.616ZM59.5447 218.902L65.7846 218.868L65.7815 219.444L59.5416 219.478L59.5447 218.902ZM58.9986 220.785L66.2225 220.745L66.2193 221.329L58.9954 221.369L58.9986 220.785ZM62.3203 217.479L62.9442 217.476L62.9137 223.14C62.9114 223.564 62.7824 223.748 62.4779 223.846C62.1734 223.944 61.6533 223.962 60.8054 223.959C60.7663 223.791 60.6558 223.52 60.5606 223.36C61.2245 223.381 61.8645 223.369 62.0406 223.36C62.2246 223.359 62.2889 223.303 62.2898 223.135L62.3203 217.479ZM71.0798 218.975C71.7928 220.259 73.1451 221.691 74.2852 222.405C74.1325 222.526 73.9153 222.759 73.8024 222.928C72.6708 222.118 71.3511 220.589 70.5747 219.178L71.0798 218.975ZM70.2398 218.987L70.7747 219.185C70.0062 220.773 68.6702 222.252 67.3301 223.027C67.219 222.868 67.0202 222.637 66.8769 222.518C68.2005 221.831 69.5441 220.407 70.2398 218.987ZM67.1459 218.62L74.0338 218.583L74.0306 219.175L67.1427 219.212L67.1459 218.62ZM70.3087 216.587L70.9647 216.584L70.9251 223.935L70.2691 223.939L70.3087 216.587ZM71.474 217.077L71.916 216.706C72.4022 217.04 73.0395 217.524 73.3578 217.842L72.9075 218.269C72.5973 217.943 71.9681 217.434 71.474 217.077ZM44.072 229.555L44.0653 230.795L45.5453 230.787L45.552 229.547L44.072 229.555ZM43.5226 229.07L46.1306 229.055L46.1186 231.271L43.5107 231.286L43.5226 229.07ZM47.5599 229.536L47.5532 230.776L49.0412 230.767L49.0479 229.527L47.5599 229.536ZM47.0106 229.051L49.6265 229.036L49.6146 231.252L46.9986 231.267L47.0106 229.051ZM42.9634 231.897L50.1393 231.857L50.1364 232.393L42.9605 232.433L42.9634 231.897ZM43.8891 235.283L45.8331 235.273L45.8303 235.785L43.8863 235.795L43.8891 235.283ZM47.1771 235.265L49.137 235.255L49.1343 235.767L47.1743 235.777L47.1771 235.265ZM47.5546 232.015C48.0946 232.748 49.2272 233.366 50.3618 233.624C50.2251 233.745 50.064 233.962 49.9751 234.114C48.801 233.785 47.6447 233.095 47.0094 232.234L47.5546 232.015ZM43.6188 233.485L46.1548 233.471L46.1408 236.055L45.5888 236.058L45.6 233.986L44.152 233.994L44.1407 236.098L43.6047 236.101L43.6188 233.485ZM46.9068 233.467L49.4587 233.453L49.4448 236.037L48.8848 236.04L48.896 233.968L47.44 233.976L47.4286 236.08L46.8927 236.083L46.9068 233.467ZM46.1598 231.047L46.7428 231.236C46.0954 232.615 44.7944 233.559 43.1192 234.16C43.0479 234.032 42.8651 233.809 42.7457 233.706C44.3566 233.153 45.6172 232.282 46.1598 231.047ZM52.3854 230.701L52.9854 230.698L52.9567 236.018L52.3567 236.021L52.3854 230.701ZM52.6974 230.699L56.7294 230.677L56.7183 232.725L52.6864 232.747L52.6892 232.219L56.1212 232.2L56.1265 231.208L52.6946 231.227L52.6974 230.699ZM52.6662 233.515L57.1782 233.491L57.1648 235.963L56.5729 235.966L56.5833 234.03L52.6634 234.051L52.6662 233.515ZM52.6735 235.131L56.9135 235.108L56.9106 235.644L52.6706 235.667L52.6735 235.131ZM54.2283 228.675L54.8603 228.672L54.8539 229.855L54.2219 229.859L54.2283 228.675ZM51.1846 229.38L57.9205 229.343L57.9111 231.079L57.3031 231.082L57.3094 229.914L51.7655 229.944L51.7592 231.112L51.1752 231.116L51.1846 229.38ZM63.7002 228.615L64.2996 228.716C63.8314 229.494 63.1073 230.266 62.0241 230.864C61.9448 230.736 61.7698 230.545 61.6423 230.458C62.645 229.949 63.3448 229.233 63.7002 228.615ZM63.5044 229.312L65.4484 229.301L65.4457 229.797L63.1497 229.81L63.5044 229.312ZM65.2404 229.302L65.3524 229.302L65.4566 229.269L65.8396 229.451C65.1985 231.135 63.6974 232.095 62.0869 232.568C62.0317 232.424 61.8809 232.201 61.7776 232.081C63.2595 231.713 64.7043 230.801 65.2399 229.398L65.2404 229.302ZM62.6667 230.381L63.0523 230.074C63.4909 230.328 64.0088 230.725 64.2632 231.02L63.8614 231.358C63.6229 231.071 63.0972 230.65 62.6667 230.381ZM64.1079 231.621L64.7154 231.721C64.1987 232.596 63.3621 233.457 62.1106 234.103C62.0314 233.968 61.8564 233.777 61.7289 233.69C62.9079 233.131 63.7122 232.327 64.1079 231.621ZM63.8798 232.382L65.7918 232.371L65.7891 232.883L63.5171 232.896L63.8798 232.382ZM65.6158 232.372L65.7358 232.372L65.8479 232.347L66.231 232.513C65.5401 234.541 63.8309 235.534 61.8925 235.985C61.8293 235.833 61.6946 235.602 61.5913 235.474C63.4011 235.12 65.0381 234.183 65.6153 232.468L65.6158 232.372ZM62.8254 233.588L63.2352 233.249C63.7457 233.526 64.3433 233.971 64.6295 234.298L64.2035 234.676C63.9253 234.341 63.3357 233.889 62.8254 233.588ZM60.2567 229.29L60.8407 229.287L60.8047 235.967L60.2207 235.97L60.2567 229.29ZM58.9361 230.889L61.8401 230.873L61.837 231.441L58.9331 231.457L58.9361 230.889ZM60.2789 231.098L60.6541 231.256C60.328 232.385 59.6805 233.789 59.0605 234.536C59.0054 234.368 58.8627 234.121 58.7594 233.986C59.3389 233.343 59.9856 232.091 60.2789 231.098ZM61.4436 228.739L61.8651 229.201C61.1275 229.501 60.0063 229.731 59.0776 229.864C59.0464 229.728 58.9674 229.537 58.8961 229.401C59.8009 229.244 60.8581 229.015 61.4436 228.739ZM60.8025 231.911C61.0016 232.086 61.7495 232.841 61.9084 233.041L61.5538 233.515C61.3636 233.188 60.7677 232.431 60.5212 232.152L60.8025 231.911ZM69.7675 229.422L74.2475 229.397L74.2446 229.925L69.7647 229.95L69.7675 229.422ZM70.0257 234.956L74.2496 234.933L74.2467 235.469L70.0228 235.492L70.0257 234.956ZM71.916 228.57L72.5319 228.598C72.4637 229.367 72.3546 230.319 72.2473 230.936L71.7117 230.867C71.8029 230.274 71.8881 229.306 71.916 228.57ZM69.7742 231.157L70.3182 231.154L70.2924 235.938L69.7484 235.941L69.7742 231.157ZM71.4567 232.156L71.4533 232.788L73.2693 232.778L73.2727 232.146L71.4567 232.156ZM71.451 233.22L71.4475 233.86L73.2635 233.85L73.267 233.21L71.451 233.22ZM71.4624 231.1L71.4591 231.724L73.275 231.714L73.2784 231.09L71.4624 231.1ZM70.9369 230.647L73.8248 230.631L73.8051 234.295L70.9171 234.311L70.9369 230.647ZM66.9628 230.325L69.5628 230.311L69.5597 230.879L66.9597 230.893L66.9628 230.325ZM68.1001 228.583L68.6521 228.58L68.6125 235.932L68.0605 235.935L68.1001 228.583ZM68.073 230.655L68.4403 230.781C68.1855 232.046 67.649 233.625 67.0847 234.428C67.0215 234.276 66.8787 234.045 66.7834 233.918C67.3153 233.195 67.8428 231.8 68.073 230.655ZM68.5973 231.332C68.7721 231.555 69.4466 232.575 69.5973 232.814L69.2589 233.264C69.0851 232.857 68.5222 231.9 68.3239 231.589L68.5973 231.332ZM42.4694 243.395L42.871 243.097C43.6578 244.052 44.5629 245.327 44.9586 246.125L44.5248 246.463C44.1451 245.666 43.2563 244.351 42.4694 243.395ZM44.3372 242.681L44.8486 242.79C44.408 244.384 43.7044 245.812 42.8033 246.753C42.7158 246.657 42.517 246.451 42.4055 246.355C43.2981 245.494 43.9533 244.155 44.3372 242.681ZM41.5492 241.96L46.0371 241.935L46.0341 242.503L41.5462 242.528L41.5492 241.96ZM41.7427 243.159L42.3107 243.156L42.2896 247.084L45.6015 247.066L45.5985 247.634L41.7185 247.655L41.7427 243.159ZM45.2549 243.1L45.8069 243.097L45.7802 248.057L45.2282 248.06L45.2549 243.1ZM43.0749 240.896L43.6038 240.717C43.8259 241.076 44.0792 241.57 44.1976 241.873L43.6445 242.077C43.5342 241.765 43.2889 241.271 43.0749 240.896ZM39.3943 241.028L41.0903 241.019L41.0877 241.507L39.3917 241.516L39.3943 241.028ZM40.7703 241.02L41.2823 241.018L41.248 247.385C41.2465 247.665 41.1896 247.834 41.0211 247.923C40.8446 248.02 40.5965 248.029 40.1965 248.031C40.1813 247.887 40.1026 247.648 40.0314 247.496C40.2954 247.511 40.5353 247.509 40.6233 247.509C40.7034 247.5 40.7355 247.476 40.736 247.38L40.7703 241.02ZM39.2023 241.029L39.7383 241.026L39.7224 243.978C39.7159 245.194 39.6343 246.962 39.132 248.141C39.0366 248.038 38.8055 247.871 38.6858 247.808C39.1398 246.701 39.1802 245.133 39.1864 243.989L39.2023 241.029ZM39.3362 242.916L41.0401 242.907L41.0374 243.411L39.3334 243.42L39.3362 242.916ZM39.3262 244.772L41.0301 244.763L41.0273 245.283L39.3234 245.292L39.3262 244.772ZM48.3971 241.922L50.4371 241.911L50.434 242.479L48.3941 242.49L48.3971 241.922ZM51.8997 240.679L52.5156 240.676L52.4761 248.012L51.8601 248.015L51.8997 240.679ZM47.5143 243.935L47.8287 243.493C48.4987 243.858 49.3196 244.421 49.7094 244.827L49.3707 245.325C48.989 244.911 48.1842 244.315 47.5143 243.935ZM48.6357 240.689L49.2351 240.806C48.8026 242.376 48.0912 243.772 47.1903 244.681C47.0869 244.578 46.8319 244.387 46.6884 244.292C47.5808 243.471 48.252 242.139 48.6357 240.689ZM51.0654 242.58C51.7387 243.832 53.06 245.065 54.3528 245.642C54.2082 245.762 54.0229 245.987 53.9181 246.148C52.6177 245.483 51.3049 244.162 50.5604 242.775L51.0654 242.58ZM50.2691 241.912L50.3811 241.912L50.4932 241.887L50.8765 242.013C50.3797 245.127 49.0495 247.047 47.3323 248.016C47.229 247.881 46.9982 247.666 46.8547 247.571C48.5635 246.665 49.837 244.898 50.2684 242.048L50.2691 241.912ZM56.1921 241.312L56.776 241.308L56.74 247.988L56.156 247.992L56.1921 241.312ZM54.8315 242.911L57.9514 242.894L57.9484 243.462L54.8284 243.479L54.8315 242.911ZM56.2143 243.119L56.5894 243.277C56.2634 244.407 55.6158 245.811 54.9958 246.558C54.9407 246.39 54.7981 246.143 54.6948 246.008C55.2742 245.364 55.921 244.113 56.2143 243.119ZM57.475 240.753L57.8404 241.239C57.1028 241.531 55.9977 241.753 55.085 241.886C55.0537 241.75 54.9748 241.55 54.9116 241.415C55.8163 241.266 56.8656 241.028 57.475 240.753ZM56.7318 243.573C56.9387 243.787 57.7014 244.751 57.8762 244.99L57.4976 245.464C57.3077 245.081 56.6888 244.133 56.4505 243.822L56.7318 243.573ZM60.5956 240.623L61.1876 240.62L61.1479 247.972L60.5559 247.975L60.5956 240.623ZM57.8395 245.846L62.0992 245.135L62.1922 245.694L57.9245 246.414L57.8395 245.846ZM58.5107 241.547L58.8966 241.193C59.3749 241.494 59.9405 241.947 60.2106 242.282L59.7925 242.676C59.5384 242.341 58.981 241.864 58.5107 241.547ZM58.1795 243.629L58.5574 243.275C59.0757 243.584 59.7051 244.06 59.9992 244.403L59.5971 244.805C59.303 244.454 58.6977 243.954 58.1795 243.629ZM68.8754 240.594L69.3207 241.08C67.8705 241.511 65.5013 241.74 63.5569 241.831C63.5417 241.679 63.471 241.44 63.4158 241.304C65.3202 241.205 67.6573 240.977 68.8754 240.594ZM63.4153 242.88L69.6552 242.846L69.6521 243.422L63.4122 243.456L63.4153 242.88ZM62.8692 244.763L70.093 244.723L70.0899 245.307L62.866 245.347L62.8692 244.763ZM66.1908 241.457L66.8148 241.453L66.7843 247.117C66.782 247.541 66.653 247.726 66.3485 247.824C66.044 247.921 65.5239 247.94 64.676 247.937C64.6369 247.769 64.5263 247.498 64.4312 247.338C65.0951 247.358 65.7351 247.347 65.9111 247.338C66.0951 247.337 66.1594 247.281 66.1603 247.113L66.1908 241.457ZM74.9504 242.953C75.6634 244.237 77.0156 245.669 78.1557 246.383C78.0031 246.504 77.7858 246.737 77.6729 246.905C76.5414 246.096 75.2217 244.567 74.4453 243.155L74.9504 242.953ZM74.1103 242.965L74.6453 243.162C73.8767 244.75 72.5408 246.23 71.2007 247.005C71.0896 246.846 70.8908 246.615 70.7475 246.495C72.0711 245.808 73.4147 244.385 74.1103 242.965ZM71.0165 242.598L77.9044 242.56L77.9012 243.152L71.0133 243.19L71.0165 242.598ZM74.1793 240.565L74.8353 240.561L74.7956 247.913L74.1396 247.917L74.1793 240.565ZM75.3446 241.054L75.7866 240.684C76.2727 241.017 76.9101 241.502 77.2284 241.82L76.7781 242.247C76.4679 241.92 75.8386 241.412 75.3446 241.054Z" fill="#666666"/>
    <path d="M44.7787 193.788L55.3626 193.729L55.355 195.133L44.7712 195.192L44.7787 193.788ZM47.004 199.463L53.256 199.429L53.2489 200.737L46.997 200.771L47.004 199.463ZM47.0243 202.379L53.0962 202.345L53.0891 203.677L47.0172 203.711L47.0243 202.379ZM49.2159 194.279L50.9659 194.63C50.6846 195.615 50.403 196.661 50.1593 197.358L48.7932 197.017C48.9652 196.26 49.1514 195.119 49.2159 194.279ZM45.9638 196.553L54.2797 196.507L54.2371 204.403L52.7011 204.412L52.7365 197.848L47.4206 197.877L47.3852 204.441L45.9212 204.449L45.9638 196.553ZM62.0787 194.388L63.5064 194.441C63.2791 198.762 62.7445 202.22 61.0168 204.402C60.778 204.187 60.1085 203.723 59.7615 203.545C61.4756 201.651 61.9374 198.349 62.0787 194.388ZM60.8817 193.843L65.6337 193.817L65.6265 195.149L60.8745 195.175L60.8817 193.843ZM64.993 196.904L66.409 196.897L66.4024 198.133L64.6144 198.142L64.993 196.904ZM66.025 196.899L66.289 196.897L66.5413 196.836L67.4274 197.179C66.7242 200.747 65.0194 203.144 62.8649 204.368C62.6627 204.045 62.1616 203.508 61.8628 203.281C63.9564 202.226 65.4794 200.166 66.0235 197.175L66.025 196.899ZM63.1778 197.514C63.9446 199.958 65.5408 202.133 67.7674 203.129C67.4539 203.395 67.0191 203.925 66.8132 204.286C64.4557 203.087 62.8845 200.732 61.952 197.869L63.1778 197.514ZM64.9737 193.821L66.4256 193.813C66.0698 195.267 65.5803 197.033 65.2384 198.139L63.8224 198.147C64.2126 196.993 64.6782 195.214 64.9737 193.821ZM56.7612 201.401C56.6906 201.138 56.49 200.503 56.3359 200.156C56.6483 200.082 56.9258 199.805 57.3122 199.346C57.7346 198.9 59.0038 197.189 59.8167 195.517L60.9648 196.243C60.0441 197.867 58.8353 199.506 57.6529 200.701L57.6528 200.725C57.6528 200.725 56.7625 201.149 56.7612 201.401ZM56.7612 201.401L56.6355 200.226L57.214 199.767L60.6267 198.86C60.6007 199.22 60.6338 199.772 60.6802 200.072C57.5794 200.977 57.0864 201.172 56.7612 201.401ZM56.7056 198.354C56.6351 198.078 56.4226 197.419 56.2686 197.06C56.521 196.987 56.7263 196.734 57.0045 196.336C57.2705 195.951 58.1186 194.446 58.5702 193.028L59.8868 193.645C59.2792 195.064 58.3591 196.581 57.4654 197.642L57.4653 197.666C57.4653 197.666 56.7069 198.114 56.7056 198.354ZM56.7056 198.354L56.675 197.346L57.2651 196.959L59.2819 196.792C59.208 197.14 59.1452 197.656 59.1317 197.944C57.3307 198.146 56.9462 198.244 56.7056 198.354ZM56.4797 202.423C57.5014 202.093 59.0887 201.473 60.5798 200.876L60.8612 202.111C59.4779 202.718 57.9986 203.35 56.82 203.849L56.4797 202.423Z" fill="#151522"/>
    <path d="M200.452 136.613C200.335 158.32 182.972 176.012 161.67 176.129C140.369 176.246 123.195 158.743 123.312 137.036C123.429 115.329 140.792 97.6372 162.094 97.5202C183.396 97.4032 200.569 114.905 200.452 136.613ZM127.169 137.015C127.064 156.552 142.52 172.304 161.692 172.198C180.863 172.093 196.49 156.17 196.595 136.634C196.701 117.097 181.244 101.345 162.073 101.451C142.901 101.556 127.274 117.479 127.169 137.015Z" fill="#CDD2FD"/>
    <path d="M162.083 99.4854C162.089 98.4001 162.975 97.5101 164.058 97.5604C172.685 97.9613 180.921 101.307 187.424 107.091C194.42 113.313 198.935 121.934 200.134 131.354C201.332 140.775 199.133 150.356 193.942 158.32C189.119 165.721 182.019 171.258 173.806 174.07C172.77 174.424 171.682 173.806 171.403 172.754C171.128 171.716 171.745 170.647 172.765 170.293C180.093 167.747 186.425 162.785 190.736 156.171C195.407 149.003 197.387 140.38 196.309 131.901C195.23 123.423 191.166 115.664 184.87 110.065C179.067 104.903 171.73 101.898 164.037 101.497C162.954 101.44 162.078 100.571 162.083 99.4854Z" fill="#0066FF"/>
    <path d="M152.327 138.611L150.887 138.619L150.875 140.899L148.895 140.91L148.907 138.63L144.227 138.656L144.235 137.111L148.951 130.47L150.931 130.459L150.896 136.924L152.336 136.916L152.327 138.611ZM148.916 136.935L148.936 133.26L146.546 136.948L148.916 136.935ZM157.595 141.042C156.815 141.046 156.121 140.92 155.512 140.664C154.904 140.407 154.431 140.045 154.093 139.576C153.756 139.108 153.589 138.579 153.592 137.989C153.595 137.419 153.753 136.908 154.065 136.457C154.388 136.005 154.789 135.688 155.27 135.505C154.821 135.358 154.463 135.06 154.195 134.611C153.938 134.163 153.81 133.673 153.813 133.143C153.816 132.573 153.979 132.067 154.301 131.626C154.634 131.184 155.09 130.846 155.672 130.613C156.253 130.37 156.909 130.246 157.639 130.242C158.379 130.238 159.033 130.355 159.602 130.592C160.18 130.818 160.629 131.151 160.946 131.589C161.274 132.017 161.436 132.516 161.433 133.086C161.43 133.616 161.293 134.107 161.02 134.559C160.748 135.01 160.386 135.317 159.935 135.48C160.464 135.667 160.872 135.989 161.16 136.448C161.458 136.896 161.605 137.395 161.602 137.945C161.599 138.545 161.426 139.081 161.083 139.553C160.741 140.015 160.264 140.378 159.652 140.641C159.051 140.904 158.365 141.038 157.595 141.042ZM157.615 134.637C158.185 134.634 158.625 134.517 158.937 134.285C159.258 134.043 159.42 133.702 159.422 133.262C159.425 132.823 159.271 132.483 158.963 132.245C158.654 132.007 158.21 131.889 157.63 131.892C157.05 131.896 156.604 132.018 156.293 132.26C155.981 132.501 155.825 132.842 155.822 133.282C155.82 133.722 155.973 134.061 156.282 134.3C156.59 134.528 157.035 134.641 157.615 134.637ZM157.589 139.377C158.219 139.374 158.705 139.236 159.046 138.964C159.388 138.692 159.56 138.317 159.563 137.837C159.565 137.347 159.397 136.972 159.059 136.714C158.72 136.446 158.236 136.314 157.606 136.317C156.986 136.321 156.5 136.458 156.149 136.73C155.807 136.992 155.635 137.368 155.633 137.858C155.63 138.348 155.798 138.727 156.136 138.995C156.475 139.253 156.959 139.381 157.589 139.377ZM165.436 136.454C164.466 136.46 163.748 136.179 163.281 135.611C162.824 135.034 162.598 134.275 162.603 133.335C162.608 132.395 162.843 131.639 163.306 131.066C163.779 130.484 164.5 130.19 165.47 130.184C166.44 130.179 167.154 130.465 167.611 131.043C168.077 131.61 168.308 132.364 168.303 133.304C168.298 134.244 168.059 135.005 167.586 135.588C167.123 136.16 166.406 136.449 165.436 136.454ZM173.914 130.333L165.593 140.818L164.108 140.826L172.429 130.341L173.914 130.333ZM165.443 135.164C165.853 135.162 166.159 134.99 166.361 134.649C166.563 134.298 166.665 133.853 166.668 133.313C166.671 132.783 166.569 132.343 166.36 131.994C166.162 131.646 165.863 131.472 165.463 131.474C165.063 131.477 164.757 131.653 164.545 132.004C164.344 132.356 164.241 132.796 164.238 133.326C164.235 133.866 164.333 134.31 164.531 134.659C164.729 134.998 165.033 135.167 165.443 135.164ZM172.552 140.975C171.582 140.98 170.863 140.699 170.396 140.132C169.94 139.554 169.714 138.796 169.719 137.856C169.724 136.916 169.958 136.159 170.421 135.587C170.894 135.004 171.616 134.71 172.586 134.705C173.556 134.7 174.269 134.986 174.726 135.563C175.193 136.131 175.424 136.884 175.419 137.824C175.414 138.764 175.174 139.526 174.701 140.108C174.238 140.681 173.522 140.97 172.552 140.975ZM172.559 139.685C172.969 139.683 173.275 139.511 173.476 139.17C173.678 138.819 173.781 138.373 173.784 137.833C173.787 137.303 173.684 136.864 173.476 136.515C173.278 136.166 172.979 135.993 172.579 135.995C172.179 135.997 171.873 136.174 171.661 136.525C171.459 136.876 171.357 137.317 171.354 137.847C171.351 138.387 171.448 138.831 171.646 139.18C171.845 139.519 172.149 139.687 172.559 139.685Z" fill="#151522"/>
    <path d="M146.768 216.447L148.328 216.439L148.325 216.991L146.765 216.999L146.768 216.447ZM149.293 221.465L151.765 221.452L151.762 221.94L149.29 221.953L149.293 221.465ZM146.726 218.327L148.222 218.319L148.219 218.871L146.723 218.879L146.726 218.327ZM146.707 220.247L148.219 220.239L148.216 220.799L146.704 220.807L146.707 220.247ZM146.504 216.449L147.024 216.446L147.008 219.318C147.002 220.558 146.928 222.326 146.394 223.513C146.29 223.417 146.059 223.291 145.923 223.244C146.433 222.113 146.482 220.505 146.488 219.321L146.504 216.449ZM147.968 216.441L148.504 216.438L148.47 222.814C148.468 223.118 148.403 223.294 148.21 223.391C148.01 223.488 147.722 223.506 147.218 223.5C147.195 223.365 147.124 223.109 147.053 222.949C147.397 222.963 147.701 222.962 147.789 222.953C147.893 222.945 147.933 222.912 147.934 222.8L147.968 216.441ZM149.532 217.184L152.98 217.165L152.977 217.717L149.529 217.736L149.532 217.184ZM152.74 217.166L153.284 217.163C153.284 217.163 153.283 217.395 153.282 217.475C153.181 221.42 153.094 222.74 152.788 223.118C152.626 223.359 152.45 223.424 152.17 223.449C151.89 223.483 151.402 223.469 150.938 223.448C150.931 223.288 150.868 223.056 150.765 222.897C151.293 222.942 151.765 222.939 151.965 222.938C152.109 222.938 152.205 222.913 152.293 222.809C152.543 222.519 152.638 221.135 152.739 217.302L152.74 217.166ZM149.705 216.135L150.289 216.26C149.979 217.334 149.462 218.328 148.866 218.988C148.763 218.876 148.516 218.685 148.38 218.598C148.983 218.011 149.436 217.096 149.705 216.135ZM149.003 218.867L149.475 218.864L149.455 222.6L148.983 222.603L149.003 218.867ZM151.627 218.852L152.099 218.85L152.08 222.378L151.608 222.38L151.627 218.852ZM150.846 218.305L151.285 218.374C150.999 219.576 150.529 220.666 149.917 221.398C149.845 221.326 149.662 221.199 149.559 221.136C150.17 220.452 150.6 219.41 150.846 218.305ZM149.641 219.271L149.89 218.934C150.512 219.418 151.188 220.087 151.506 220.533L151.232 220.918C150.914 220.464 150.23 219.756 149.641 219.271ZM155.611 217.335L157.651 217.323L157.648 217.891L155.608 217.903L155.611 217.335ZM159.113 216.091L159.729 216.088L159.69 223.424L159.074 223.427L159.113 216.091ZM154.728 219.347L155.042 218.906C155.712 219.27 156.533 219.833 156.923 220.239L156.584 220.737C156.203 220.323 155.398 219.728 154.728 219.347ZM155.849 216.101L156.449 216.218C156.016 217.788 155.305 219.184 154.404 220.093C154.3 219.99 154.046 219.799 153.902 219.704C154.794 218.883 155.466 217.551 155.849 216.101ZM158.279 217.992C158.952 219.244 160.274 220.477 161.566 221.054C161.422 221.174 161.237 221.399 161.132 221.56C159.831 220.895 158.519 219.574 157.774 218.187L158.279 217.992ZM157.483 217.324L157.595 217.324L157.707 217.299L158.09 217.425C157.593 220.54 156.263 222.459 154.546 223.428C154.443 223.293 154.212 223.078 154.068 222.983C155.777 222.077 157.051 220.311 157.482 217.46L157.483 217.324ZM163.406 216.724L163.99 216.721L163.954 223.4L163.37 223.404L163.406 216.724ZM162.045 218.323L165.165 218.306L165.162 218.874L162.042 218.891L162.045 218.323ZM163.428 218.532L163.803 218.69C163.477 219.819 162.829 221.223 162.209 221.97C162.154 221.802 162.012 221.555 161.908 221.42C162.488 220.777 163.135 219.525 163.428 218.532ZM164.689 216.165L165.054 216.651C164.316 216.943 163.211 217.165 162.299 217.298C162.267 217.162 162.188 216.962 162.125 216.827C163.03 216.678 164.079 216.44 164.689 216.165ZM163.945 218.985C164.152 219.2 164.915 220.163 165.09 220.402L164.711 220.876C164.521 220.493 163.902 219.545 163.664 219.234L163.945 218.985ZM167.809 216.036L168.401 216.032L168.362 223.384L167.77 223.388L167.809 216.036ZM165.053 221.259L169.313 220.547L169.406 221.107L165.138 221.826L165.053 221.259ZM165.724 216.959L166.11 216.605C166.589 216.906 167.154 217.359 167.424 217.694L167.006 218.088C166.752 217.753 166.195 217.276 165.724 216.959ZM165.393 219.041L165.771 218.687C166.289 218.996 166.919 219.472 167.213 219.815L166.811 220.217C166.517 219.867 165.911 219.366 165.393 219.041ZM142.537 232.614L148.745 232.58L148.742 233.076L142.534 233.11L142.537 232.614ZM142.094 228.696L145.79 228.676L145.788 229.116L142.092 229.136L142.094 228.696ZM145.635 233.709L148.211 233.694L148.208 234.166L145.632 234.181L145.635 233.709ZM141.989 234.857L149.253 234.817L149.25 235.321L141.986 235.361L141.989 234.857ZM145.312 232.782L145.912 232.779L145.9 235.083L145.3 235.086L145.312 232.782ZM143.681 228.168L144.217 228.165L144.194 232.389L143.658 232.392L143.681 228.168ZM143.308 233.465L143.884 233.462L143.875 235.118L143.299 235.121L143.308 233.465ZM142.815 229.948L142.812 230.604L145.076 230.592L145.079 229.936L142.815 229.948ZM142.33 229.543L145.593 229.525L145.586 230.997L142.322 231.015L142.33 229.543ZM144.194 230.981C144.473 231.099 145.391 231.558 145.638 231.693L145.34 232.094C145.037 231.88 144.239 231.428 143.896 231.246L144.194 230.981ZM146.785 228.159L147.328 228.276C147.043 229.197 146.551 230.056 145.964 230.611C145.884 230.507 145.677 230.301 145.558 230.205C146.12 229.714 146.548 228.968 146.785 228.159ZM146.628 229.047L149.252 229.033L149.249 229.529L146.385 229.545L146.628 229.047ZM148.227 229.263L148.794 229.323C148.378 230.942 147.357 231.851 145.866 232.411C145.803 232.292 145.628 232.061 145.508 231.965C146.943 231.518 147.891 230.688 148.227 229.263ZM146.69 229.343C147.029 230.349 147.871 231.48 149.372 231.944C149.26 232.049 149.107 232.274 149.026 232.418C147.517 231.866 146.659 230.655 146.297 229.609L146.69 229.343ZM143.619 230.8L144.002 230.966C143.607 231.504 142.868 232.1 142.298 232.407C142.219 232.279 142.06 232.112 141.94 232.025C142.518 231.774 143.24 231.266 143.619 230.8ZM150.102 228.628L154.222 228.606L154.219 229.174L150.099 229.196L150.102 228.628ZM149.96 231.269L154.32 231.245L154.317 231.805L149.957 231.829L149.96 231.269ZM152.877 228.765L153.469 228.762L153.433 235.474L152.841 235.477L152.877 228.765ZM151.021 228.767L151.589 228.764L151.575 231.34C151.567 232.844 151.431 234.357 150.353 235.539C150.258 235.419 150.043 235.228 149.899 235.141C150.881 234.064 151 232.687 151.007 231.343L151.021 228.767ZM156.408 228.234L156.975 228.463C156.379 229.202 155.471 229.919 154.661 230.371C154.557 230.244 154.382 230.061 154.223 229.95C154.993 229.561 155.916 228.884 156.408 228.234ZM156.636 230.432L157.179 230.661C156.559 231.449 155.578 232.222 154.72 232.707C154.625 232.579 154.45 232.396 154.298 232.285C155.116 231.865 156.096 231.131 156.636 230.432ZM156.8 232.599L157.367 232.82C156.681 233.928 155.532 234.886 154.289 235.469C154.194 235.326 154.019 235.111 153.868 234.991C155.054 234.489 156.195 233.603 156.8 232.599ZM159.546 229.312L161.586 229.301L161.583 229.869L159.543 229.88L159.546 229.312ZM163.049 228.069L163.665 228.066L163.625 235.402L163.009 235.405L163.049 228.069ZM158.663 231.325L158.978 230.883C159.648 231.248 160.468 231.811 160.858 232.217L160.52 232.715C160.138 232.301 159.333 231.705 158.663 231.325ZM159.785 228.079L160.384 228.196C159.952 229.766 159.24 231.162 158.339 232.071C158.236 231.967 157.981 231.777 157.837 231.682C158.73 230.861 159.401 229.529 159.785 228.079ZM162.214 229.97C162.888 231.222 164.209 232.455 165.502 233.032C165.357 233.152 165.172 233.377 165.067 233.538C163.767 232.873 162.454 231.552 161.709 230.164L162.214 229.97ZM161.418 229.302L161.53 229.302L161.642 229.277L162.025 229.403C161.529 232.517 160.198 234.437 158.481 235.406C158.378 235.271 158.147 235.056 158.004 234.961C159.712 234.055 160.986 232.288 161.417 229.438L161.418 229.302ZM167.341 228.702L167.925 228.698L167.889 235.378L167.305 235.382L167.341 228.702ZM165.98 230.301L169.1 230.284L169.097 230.852L165.977 230.869L165.98 230.301ZM167.363 230.509L167.738 230.667C167.412 231.797 166.765 233.201 166.145 233.948C166.09 233.78 165.947 233.533 165.844 233.398C166.423 232.754 167.07 231.503 167.363 230.509ZM168.624 228.143L168.989 228.629C168.252 228.921 167.147 229.143 166.234 229.276C166.203 229.14 166.124 228.94 166.06 228.805C166.965 228.656 168.014 228.418 168.624 228.143ZM167.881 230.963C168.088 231.177 168.85 232.141 169.025 232.38L168.647 232.854C168.457 232.471 167.838 231.523 167.599 231.212L167.881 230.963ZM171.744 228.013L172.336 228.01L172.297 235.362L171.705 235.365L171.744 228.013ZM168.988 233.236L173.248 232.525L173.341 233.084L169.073 233.804L168.988 233.236ZM169.66 228.937L170.045 228.583C170.524 228.884 171.089 229.337 171.36 229.672L170.941 230.066C170.687 229.731 170.13 229.254 169.66 228.937ZM169.328 231.019L169.706 230.665C170.225 230.974 170.854 231.45 171.148 231.793L170.746 232.195C170.452 231.844 169.847 231.344 169.328 231.019Z" fill="#666666"/>
    <path d="M146.859 197.408L157.791 197.348L157.784 198.752L146.852 198.812L146.859 197.408ZM151.518 194.683L153.066 194.674L153.016 203.938L151.468 203.947L151.518 194.683ZM155.62 192.752L156.705 193.97C154.242 194.68 150.856 195.119 147.915 195.339C147.88 194.979 147.692 194.392 147.537 194.069C150.419 193.825 153.649 193.363 155.62 192.752ZM164.349 193.916L165.777 193.969C165.55 198.29 165.015 201.748 163.288 203.93C163.049 203.715 162.379 203.251 162.032 203.073C163.746 201.179 164.208 197.877 164.349 193.916ZM163.152 193.371L167.904 193.345L167.897 194.677L163.145 194.703L163.152 193.371ZM167.264 196.432L168.68 196.425L168.673 197.661L166.885 197.67L167.264 196.432ZM168.296 196.427L168.56 196.425L168.812 196.364L169.698 196.707C168.995 200.275 167.29 202.672 165.136 203.896C164.933 203.573 164.432 203.036 164.134 202.809C166.227 201.754 167.75 199.693 168.294 196.703L168.296 196.427ZM165.449 197.042C166.215 199.486 167.812 201.661 170.038 202.657C169.725 202.923 169.29 203.453 169.084 203.814C166.726 202.615 165.155 200.26 164.223 197.397L165.449 197.042ZM167.244 193.349L168.696 193.341C168.341 194.794 167.851 196.561 167.509 197.667L166.093 197.675C166.483 196.521 166.949 194.742 167.244 193.349ZM159.032 200.929C158.961 200.666 158.761 200.031 158.607 199.684C158.919 199.61 159.196 199.332 159.583 198.874C160.005 198.428 161.274 196.717 162.087 195.045L163.235 195.77C162.315 197.395 161.106 199.034 159.924 200.228L159.923 200.252C159.923 200.252 159.033 200.677 159.032 200.929ZM159.032 200.929L158.906 199.754L159.485 199.295L162.897 198.388C162.871 198.748 162.904 199.3 162.951 199.6C159.85 200.505 159.357 200.7 159.032 200.929ZM158.976 197.882C158.906 197.606 158.693 196.947 158.539 196.588C158.792 196.515 158.997 196.262 159.275 195.864C159.541 195.479 160.389 193.974 160.841 192.556L162.158 193.173C161.55 194.592 160.63 196.109 159.736 197.17L159.736 197.194C159.736 197.194 158.978 197.642 158.976 197.882ZM158.976 197.882L158.946 196.874L159.536 196.487L161.553 196.32C161.479 196.668 161.416 197.184 161.402 197.472C159.601 197.674 159.217 197.772 158.976 197.882ZM158.75 201.951C159.772 201.621 161.359 201.001 162.851 200.404L163.132 201.639C161.749 202.246 160.269 202.878 159.091 203.377L158.75 201.951Z" fill="#151522"/>
    <path d="M306.99 136.027C306.873 157.735 289.51 175.426 268.208 175.543C246.906 175.66 229.733 158.158 229.85 136.451C229.967 114.744 247.33 97.052 268.632 96.935C289.934 96.818 307.107 114.32 306.99 136.027ZM233.707 136.43C233.601 155.966 249.058 171.718 268.229 171.613C287.401 171.508 303.028 155.585 303.133 136.049C303.239 116.512 287.782 100.76 268.611 100.865C249.439 100.971 233.812 116.894 233.707 136.43Z" fill="#CDD2FD"/>
    <path d="M268.621 98.9002C268.627 97.8149 269.512 96.9249 270.596 96.9752C275.597 97.2077 280.502 98.4317 285.034 100.586C289.59 102.751 293.669 105.808 297.044 109.578C297.747 110.363 297.622 111.573 296.809 112.26C295.974 112.965 294.734 112.851 294.007 112.05C291.003 108.746 287.394 106.062 283.373 104.151C279.353 102.241 275.008 101.143 270.575 100.911C269.491 100.855 268.616 99.9856 268.621 98.9002Z" fill="#0066FF"/>
    <path d="M264.017 138.538L264.007 140.278L256.717 140.318L256.727 138.578L259.652 138.562L259.686 132.172L257.762 133.022L257.702 133.023L257.288 131.75L257.289 131.69L260.283 129.859L261.678 129.851L261.632 138.551L264.017 138.538ZM273.711 137.944L272.271 137.952L272.259 140.232L270.279 140.243L270.291 137.963L265.611 137.989L265.619 136.444L270.335 129.803L272.315 129.793L272.28 136.257L273.72 136.25L273.711 137.944ZM270.3 136.268L270.32 132.593L267.93 136.281L270.3 136.268ZM277.519 135.839C276.549 135.844 275.831 135.563 275.364 134.996C274.907 134.418 274.681 133.659 274.686 132.719C274.691 131.779 274.925 131.023 275.388 130.451C275.861 129.868 276.583 129.574 277.553 129.569C278.523 129.563 279.236 129.849 279.693 130.427C280.16 130.994 280.391 131.748 280.386 132.688C280.381 133.628 280.142 134.389 279.669 134.972C279.205 135.544 278.489 135.833 277.519 135.839ZM285.997 129.717L277.675 140.203L276.19 140.211L284.512 129.726L285.997 129.717ZM277.526 134.549C277.936 134.546 278.242 134.375 278.444 134.034C278.646 133.683 278.748 133.237 278.751 132.697C278.754 132.167 278.651 131.728 278.443 131.379C278.245 131.03 277.946 130.857 277.546 130.859C277.146 130.861 276.84 131.038 276.628 131.389C276.426 131.74 276.324 132.18 276.321 132.71C276.318 133.25 276.416 133.695 276.614 134.044C276.812 134.383 277.116 134.551 277.526 134.549ZM284.634 140.359C283.664 140.365 282.946 140.084 282.479 139.516C282.022 138.939 281.796 138.18 281.801 137.24C281.806 136.3 282.04 135.544 282.503 134.971C282.977 134.389 283.698 134.095 284.668 134.089C285.638 134.084 286.351 134.37 286.808 134.948C287.275 135.515 287.506 136.269 287.501 137.209C287.496 138.149 287.257 138.91 286.784 139.493C286.321 140.065 285.604 140.354 284.634 140.359ZM284.641 139.069C285.051 139.067 285.357 138.895 285.559 138.554C285.761 138.203 285.863 137.758 285.866 137.218C285.869 136.688 285.766 136.248 285.558 135.899C285.36 135.551 285.061 135.377 284.661 135.379C284.261 135.382 283.955 135.558 283.743 135.909C283.541 136.261 283.439 136.701 283.436 137.231C283.433 137.771 283.531 138.216 283.729 138.564C283.927 138.903 284.231 139.072 284.641 139.069Z" fill="#151522"/>
    <path d="M253.241 216.542L259.577 216.508L259.575 217.012L253.239 217.046L253.241 216.542ZM252.774 218.625L259.966 218.585L259.963 219.089L252.772 219.129L252.774 218.625ZM255.264 216.739L255.824 216.736L255.813 218.888L255.253 218.891L255.264 216.739ZM256.848 216.73L257.424 216.727L257.413 218.879L256.837 218.882L256.848 216.73ZM253.629 217.34L254.126 217.145C254.42 217.512 254.689 218.022 254.784 218.374L254.262 218.585C254.168 218.241 253.907 217.723 253.629 217.34ZM254.23 215.761L254.759 215.55C255.013 215.805 255.251 216.171 255.362 216.427L254.809 216.678C254.714 216.414 254.468 216.024 254.23 215.761ZM258.59 217.081L259.133 217.27C258.883 217.719 258.576 218.217 258.326 218.538L257.863 218.381C258.097 218.028 258.42 217.474 258.59 217.081ZM257.903 215.533L258.494 215.721C258.284 216.051 258.034 216.372 257.841 216.597L257.314 216.416C257.515 216.175 257.765 215.789 257.903 215.533ZM253.953 219.61L258.801 219.584L258.783 222.864L258.151 222.867L258.166 220.067L254.55 220.087L254.535 222.911L253.935 222.914L253.953 219.61ZM254.274 220.872L258.45 220.85L258.447 221.322L254.272 221.344L254.274 220.872ZM254.275 222.152L258.451 222.129L258.448 222.617L254.273 222.64L254.275 222.152ZM262.28 216.749L264.32 216.737L264.317 217.305L262.277 217.317L262.28 216.749ZM265.782 215.505L266.398 215.502L266.359 222.838L265.743 222.841L265.782 215.505ZM261.397 218.761L261.711 218.32C262.382 218.684 263.202 219.247 263.592 219.653L263.254 220.151C262.872 219.737 262.067 219.142 261.397 218.761ZM262.519 215.515L263.118 215.632C262.685 217.202 261.974 218.598 261.073 219.507C260.97 219.404 260.715 219.213 260.571 219.118C261.464 218.297 262.135 216.965 262.519 215.515ZM264.948 217.406C265.621 218.658 266.943 219.891 268.236 220.468C268.091 220.589 267.906 220.814 267.801 220.974C266.501 220.309 265.188 218.989 264.443 217.601L264.948 217.406ZM264.152 216.738L264.264 216.738L264.376 216.713L264.759 216.839C264.263 219.954 262.932 221.873 261.215 222.842C261.112 222.707 260.881 222.492 260.738 222.397C262.446 221.492 263.72 219.725 264.151 216.874L264.152 216.738ZM270.075 216.138L270.659 216.135L270.623 222.815L270.039 222.818L270.075 216.138ZM268.714 217.737L271.834 217.72L271.831 218.288L268.711 218.305L268.714 217.737ZM270.097 217.946L270.472 218.104C270.146 219.233 269.499 220.637 268.879 221.384C268.824 221.217 268.681 220.969 268.578 220.834C269.157 220.191 269.804 218.939 270.097 217.946ZM271.358 215.579L271.723 216.065C270.986 216.357 269.881 216.579 268.968 216.712C268.937 216.576 268.858 216.377 268.794 216.241C269.699 216.092 270.748 215.854 271.358 215.579ZM270.615 218.399C270.822 218.614 271.584 219.577 271.759 219.816L271.38 220.291C271.191 219.908 270.572 218.959 270.333 218.648L270.615 218.399ZM274.478 215.45L275.07 215.446L275.031 222.798L274.439 222.802L274.478 215.45ZM271.722 220.673L275.982 219.961L276.075 220.521L271.807 221.24L271.722 220.673ZM272.394 216.373L272.779 216.019C273.258 216.32 273.823 216.773 274.093 217.108L273.675 217.502C273.421 217.167 272.864 216.691 272.394 216.373ZM272.062 218.455L272.44 218.101C272.959 218.41 273.588 218.886 273.882 219.229L273.48 219.631C273.186 219.281 272.581 218.78 272.062 218.455ZM252.709 229.217L255.205 229.203L255.202 229.763L252.706 229.777L252.709 229.217ZM255.029 229.204L255.133 229.203L255.237 229.179L255.589 229.249C255.34 232.322 254.427 233.999 252.911 234.855C252.832 234.704 252.681 234.481 252.553 234.369C253.933 233.682 254.798 232.021 255.028 229.324L255.029 229.204ZM252.878 231.944L253.201 231.51C254.094 232.057 255.153 232.875 255.638 233.48L255.283 233.986C254.815 233.373 253.763 232.507 252.878 231.944ZM252.878 231.944C253.236 230.846 253.654 228.963 253.814 227.563L254.422 227.607C254.222 229.072 253.78 230.987 253.413 232.165L252.878 231.944ZM255.797 233.744L259.253 233.725L259.25 234.285L255.794 234.304L255.797 233.744ZM256.084 230.854L259.26 230.837L259.257 231.429L256.081 231.446L256.084 230.854ZM255.906 228.311L259.522 228.291L259.487 234.843L258.911 234.846L258.943 228.838L255.903 228.855L255.906 228.311ZM261.638 230.536L267.726 230.502L267.722 231.094L261.634 231.128L261.638 230.536ZM261.193 228.49L267.529 228.455L267.526 229.023L261.19 229.058L261.193 228.49ZM261.294 230.537L261.918 230.534L261.912 231.638C261.907 232.598 261.755 233.999 261.054 234.947C260.951 234.827 260.688 234.605 260.56 234.533C261.197 233.658 261.283 232.473 261.288 231.625L261.294 230.537ZM262.404 229.347L262.933 229.129C263.195 229.463 263.497 229.941 263.631 230.253L263.086 230.504C262.959 230.192 262.674 229.698 262.404 229.347ZM265.813 229.153L266.468 229.365C266.185 229.839 265.862 230.392 265.596 230.746L265.133 230.548C265.367 230.171 265.659 229.57 265.813 229.153ZM263.717 227.668L264.31 227.497C264.556 227.784 264.802 228.19 264.913 228.462L264.28 228.665C264.185 228.386 263.947 227.971 263.717 227.668ZM270.01 228.138L270.594 228.134L270.558 234.814L269.974 234.818L270.01 228.138ZM268.65 229.737L271.77 229.72L271.767 230.288L268.647 230.305L268.65 229.737ZM270.032 229.945L270.408 230.103C270.082 231.233 269.434 232.637 268.814 233.384C268.759 233.216 268.616 232.969 268.513 232.834C269.092 232.191 269.739 230.939 270.032 229.945ZM271.293 227.579L271.659 228.065C270.921 228.357 269.816 228.579 268.903 228.712C268.872 228.576 268.793 228.376 268.73 228.241C269.634 228.092 270.684 227.854 271.293 227.579ZM270.55 230.399C270.757 230.613 271.52 231.577 271.694 231.816L271.316 232.29C271.126 231.907 270.507 230.959 270.269 230.648L270.55 230.399ZM274.414 227.45L275.006 227.446L274.966 234.798L274.374 234.801L274.414 227.45ZM271.658 232.672L275.917 231.961L276.01 232.521L271.743 233.24L271.658 232.672ZM272.329 228.373L272.715 228.019C273.193 228.32 273.759 228.773 274.029 229.108L273.611 229.502C273.356 229.167 272.799 228.69 272.329 228.373ZM271.998 230.455L272.376 230.101C272.894 230.41 273.523 230.886 273.817 231.229L273.415 231.631C273.121 231.28 272.516 230.78 271.998 230.455Z" fill="#666666"/>
    <path d="M254.307 192.954L264.915 192.896L264.907 194.3L254.299 194.358L254.307 192.954ZM258.129 196.293L262.929 196.267L262.921 197.659L258.121 197.685L258.129 196.293ZM262.413 196.27L263.925 196.261C263.925 196.261 263.91 196.717 263.885 196.898C263.685 200.606 263.473 202.072 262.99 202.614C262.64 203.024 262.255 203.158 261.715 203.209C261.223 203.272 260.395 203.264 259.603 203.233C259.581 202.825 259.381 202.214 259.095 201.82C259.934 201.899 260.762 201.894 261.11 201.893C261.374 201.891 261.53 201.866 261.687 201.721C262.049 201.395 262.249 199.882 262.411 196.51L262.413 196.27ZM257.12 194.127L258.632 194.119C258.506 197.527 258.258 201.296 254.827 203.379C254.601 202.984 254.171 202.495 253.789 202.209C256.966 200.427 257.008 197.091 257.12 194.127ZM271.62 193.327L273.048 193.379C272.82 197.7 272.286 201.159 270.558 203.341C270.319 203.126 269.65 202.662 269.303 202.484C271.017 200.59 271.479 197.288 271.62 193.327ZM270.423 192.782L275.175 192.756L275.168 194.088L270.416 194.114L270.423 192.782ZM274.534 195.843L275.95 195.835L275.944 197.071L274.156 197.081L274.534 195.843ZM275.566 195.837L275.83 195.836L276.083 195.775L276.969 196.118C276.265 199.685 274.561 202.083 272.406 203.306C272.204 202.984 271.703 202.446 271.404 202.22C273.498 201.165 275.021 199.104 275.565 196.113L275.566 195.837ZM272.719 196.453C273.486 198.897 275.082 201.072 277.309 202.068C276.995 202.333 276.56 202.864 276.354 203.225C273.997 202.026 272.426 199.671 271.493 196.808L272.719 196.453ZM274.515 192.759L275.967 192.751C275.611 194.205 275.122 195.972 274.78 197.078L273.364 197.085C273.754 195.931 274.219 194.153 274.515 192.759ZM266.302 200.34C266.232 200.077 266.031 199.442 265.877 199.095C266.19 199.021 266.467 198.743 266.853 198.285C267.276 197.839 268.545 196.128 269.358 194.456L270.506 195.181C269.585 196.806 268.377 198.445 267.194 199.639L267.194 199.663C267.194 199.663 266.304 200.088 266.302 200.34ZM266.302 200.34L266.177 199.165L266.755 198.706L270.168 197.799C270.142 198.159 270.175 198.711 270.221 199.011C267.121 199.916 266.628 200.11 266.302 200.34ZM266.247 197.293C266.176 197.017 265.964 196.358 265.81 195.999C266.062 195.926 266.268 195.673 266.546 195.275C266.812 194.89 267.66 193.385 268.111 191.967L269.428 192.583C268.82 194.003 267.9 195.52 267.007 196.58L267.007 196.604C267.007 196.604 266.248 197.053 266.247 197.293ZM266.247 197.293L266.216 196.285L266.806 195.898L268.823 195.73C268.749 196.079 268.686 196.595 268.673 196.883C266.872 197.085 266.487 197.183 266.247 197.293ZM266.021 201.362C267.043 201.032 268.63 200.411 270.121 199.815L270.402 201.05C269.019 201.657 267.54 202.289 266.361 202.788L266.021 201.362Z" fill="#151522"/>
    <path d="M18.0856 61.0459L21.1325 61.0291L21.0939 68.19L18.047 68.2068L18.051 67.4588L20.328 67.4463L20.3585 61.7814L18.0815 61.7939L18.0856 61.0459ZM18.1126 64.2026L20.6315 64.1888L20.6275 64.9257L18.1086 64.9396L18.1126 64.2026ZM17.6896 61.0481L18.4706 61.0438L18.4272 69.0846L17.6462 69.0889L17.6896 61.0481ZM21.6206 62.3134L27.3625 62.2819L27.3581 63.0959L21.6162 63.1274L21.6206 62.3134ZM25.2071 60.1488L26.0431 60.1442L25.9956 68.9551C25.9923 69.5601 25.826 69.814 25.4293 69.9481C25.0325 70.0823 24.3394 70.1081 23.2285 70.1032C23.1858 69.8725 23.0558 69.4992 22.936 69.2689C23.7939 69.2862 24.5969 69.2817 24.8389 69.2694C25.07 69.2571 25.1583 69.1907 25.1596 68.9597L25.2071 60.1488ZM21.9835 64.3683L22.6674 64.0126C23.2569 64.8453 24.0098 65.9631 24.3802 66.6211L23.6519 67.054C23.3036 66.385 22.5729 65.212 21.9835 64.3683ZM28.791 62.549L29.627 62.5444L29.5858 70.1893L28.7498 70.1939L28.791 62.549ZM28.9555 60.6012L29.5955 60.2127C30.1101 60.6608 30.7005 61.3176 30.9731 61.7671L30.2777 62.2219C30.0381 61.7722 29.4588 61.0934 28.9555 60.6012ZM31.661 60.6743L37.4579 60.6425L37.4537 61.4125L31.6568 61.4443L31.661 60.6743ZM36.9849 60.6451L37.8319 60.6404L37.7861 69.1323C37.7836 69.5943 37.6944 69.8148 37.4077 69.9483C37.11 70.082 36.637 70.0956 35.955 70.0993C35.9231 69.8905 35.8149 69.5501 35.7061 69.3307C36.168 69.3502 36.619 69.3367 36.751 69.336C36.905 69.3351 36.9383 69.28 36.9391 69.137L36.9849 60.6451ZM31.929 66.0406L31.921 67.5256L34.572 67.511L34.58 66.0261L31.929 66.0406ZM31.9406 63.8846L31.9327 65.3586L34.5837 65.3441L34.5916 63.8701L31.9406 63.8846ZM31.1963 63.2068L35.3763 63.1838L35.3492 68.1997L31.1693 68.2227L31.1963 63.2068ZM40.204 65.4122C39.9914 65.4134 39.8121 65.3447 39.6662 65.2061C39.5276 65.0676 39.4589 64.8846 39.4601 64.6573C39.4614 64.43 39.532 64.2463 39.6721 64.1062C39.8195 63.966 39.9996 63.8954 40.2122 63.8942C40.4249 63.893 40.6005 63.9617 40.7391 64.1003C40.885 64.2388 40.9573 64.4218 40.9561 64.6491C40.9549 64.8764 40.8806 65.0602 40.7332 65.2003C40.5931 65.3404 40.4167 65.411 40.204 65.4122ZM40.1827 69.3721C39.97 69.3733 39.7907 69.3046 39.6448 69.1661C39.5063 69.0275 39.4376 68.8446 39.4388 68.6172C39.44 68.3899 39.5107 68.2062 39.6508 68.0661C39.7982 67.926 39.9782 67.8553 40.1909 67.8542C40.4035 67.853 40.5792 67.9217 40.7177 68.0602C40.8637 68.1988 40.936 68.3817 40.9348 68.609C40.9336 68.8364 40.8592 69.0201 40.7118 69.1602C40.5717 69.3003 40.3954 69.371 40.1827 69.3721Z" fill="#151522"/>
    <path d="M50.6497 68.2587L50.6447 69.1827L45.5628 69.2106L45.5667 68.4736L48.3325 65.5215C48.7603 65.0645 49.0519 64.7036 49.2073 64.4388C49.3628 64.1666 49.4412 63.8948 49.4427 63.6235C49.445 63.1982 49.3038 62.8726 49.019 62.6469C48.7343 62.4138 48.3316 62.2987 47.8109 62.3015C47.1069 62.3054 46.4495 62.5143 45.8386 62.9283L45.8438 61.9604C46.4544 61.5977 47.1264 61.4143 47.8597 61.4103C48.3804 61.4074 48.8345 61.493 49.2223 61.6668C49.6173 61.8333 49.9204 62.0736 50.1313 62.3878C50.3423 62.7019 50.4467 63.068 50.4444 63.486C50.4423 63.8747 50.3449 64.2675 50.1521 64.6646C49.9666 65.0616 49.6895 65.4481 49.3208 65.8241L46.9427 68.279L50.6497 68.2587ZM54.9242 69.2912C53.9709 69.2964 53.2688 68.9409 52.818 68.2248C52.3746 67.5012 52.1561 66.5418 52.1626 65.3465C52.169 64.1512 52.3978 63.193 52.849 62.4719C53.3076 61.7434 54.0136 61.3765 54.9669 61.3713C55.9202 61.366 56.6186 61.7252 57.062 62.4487C57.5128 63.1649 57.7349 64.1206 57.7285 65.3159C57.7221 66.5112 57.4895 67.4731 57.031 68.2016C56.5798 68.9227 55.8775 69.2859 54.9242 69.2912ZM54.9289 68.4112C55.5889 68.4075 56.045 68.1337 56.2973 67.5897C56.5496 67.0383 56.6783 66.2823 56.6835 65.3217C56.6887 64.361 56.5681 63.61 56.3217 63.0688C56.0753 62.5201 55.6221 62.2476 54.9621 62.2513C54.3022 62.2549 53.846 62.5324 53.5937 63.0837C53.3415 63.6278 53.2127 64.3801 53.2076 65.3408C53.2024 66.3014 53.323 67.056 53.5693 67.6047C53.8158 68.146 54.2689 68.4148 54.9289 68.4112ZM64.292 68.1947L64.2871 69.1077L59.2051 69.1356L59.2101 68.2227L61.476 68.2102L61.5057 62.7103L59.9614 63.5107L59.9174 63.511L59.7228 62.8851L59.723 62.8411L61.7544 61.466L62.4803 61.462L62.444 68.2049L64.292 68.1947ZM68.5776 69.2162C68.0422 69.2191 67.5624 69.1264 67.1381 68.9381C66.7138 68.7498 66.3816 68.4876 66.1414 68.1516C65.9086 67.8082 65.7934 67.4239 65.7956 66.9985C65.798 66.5659 65.9174 66.1839 66.1538 65.8526C66.3902 65.5213 66.6958 65.2887 67.0705 65.1546C66.7338 65.0391 66.4637 64.8206 66.2601 64.4991C66.0565 64.1702 65.9559 63.8041 65.958 63.4008C65.9603 62.9828 66.0759 62.6155 66.305 62.2989C66.534 61.9824 66.847 61.7387 67.2439 61.5678C67.6481 61.3896 68.1033 61.2991 68.6093 61.2963C69.1152 61.2936 69.5658 61.3791 69.9608 61.5529C70.3632 61.7193 70.6773 61.9596 70.9029 62.2737C71.1285 62.5878 71.2402 62.9538 71.238 63.3718C71.2358 63.7678 71.1312 64.1314 70.9241 64.4625C70.7243 64.7862 70.4481 65.0114 70.0955 65.138C70.4981 65.2751 70.8084 65.5117 71.0266 65.8479C71.2522 66.1766 71.3638 66.55 71.3616 66.968C71.3592 67.4006 71.2362 67.7863 70.9923 68.1249C70.7559 68.4636 70.4244 68.7294 69.9981 68.9224C69.5791 69.1153 69.1056 69.2133 68.5776 69.2162ZM68.602 64.6842C69.1227 64.6814 69.5266 64.5692 69.8138 64.3476C70.101 64.1187 70.2457 63.8026 70.2478 63.3992C70.25 62.9959 70.1087 62.685 69.8239 62.4666C69.5391 62.2482 69.1327 62.1404 68.6047 62.1433C68.0767 62.1462 67.6691 62.2585 67.3819 62.48C67.0947 62.7016 66.9501 63.014 66.9479 63.4174C66.9457 63.8207 67.087 64.1352 67.3718 64.361C67.6639 64.5794 68.074 64.6871 68.602 64.6842ZM68.5602 68.3583C69.1322 68.3552 69.5728 68.2354 69.8821 67.999C70.1914 67.7554 70.3472 67.4135 70.3496 66.9735C70.352 66.5262 70.1998 66.1824 69.8932 65.9421C69.5865 65.7018 69.1508 65.5832 68.5861 65.5863C68.0215 65.5894 67.5845 65.7128 67.2752 65.9565C66.9659 66.2001 66.81 66.5457 66.8076 66.993C66.8053 67.433 66.9537 67.7731 67.2531 68.0135C67.5598 68.2465 67.9955 68.3614 68.5602 68.3583ZM78.7097 65.6407L78.7052 66.4766L75.8452 66.4924L75.8497 65.6564L78.7097 65.6407ZM88.5046 68.0507L88.4996 68.9747L83.4177 69.0026L83.4216 68.2657L86.1874 65.3136C86.6152 64.8566 86.9068 64.4957 87.0622 64.2308C87.2177 63.9587 87.2961 63.6869 87.2976 63.4156C87.2999 62.9903 87.1587 62.6647 86.8739 62.439C86.5892 62.2059 86.1865 62.0907 85.6658 62.0936C84.9618 62.0975 84.3044 62.3064 83.6935 62.7204L83.6987 61.7524C84.3093 61.3898 84.9813 61.2064 85.7146 61.2024C86.2353 61.1995 86.6894 61.285 87.0772 61.4589C87.4722 61.6254 87.7753 61.8657 87.9862 62.1799C88.1972 62.494 88.3015 62.8601 88.2993 63.2781C88.2972 63.6667 88.1998 64.0596 88.007 64.4566C87.8215 64.8536 87.5444 65.2401 87.1757 65.6162L84.7976 68.0711L88.5046 68.0507ZM92.7791 69.0832C91.8258 69.0885 91.1237 68.733 90.6729 68.0168C90.2295 67.2933 90.011 66.3339 90.0175 65.1386C90.0239 63.9433 90.2527 62.985 90.7039 62.2639C91.1625 61.5354 91.8685 61.1686 92.8218 61.1633C93.7751 61.1581 94.4735 61.5172 94.9169 62.2408C95.3677 62.9569 95.5898 63.9127 95.5834 65.108C95.5769 66.3033 95.3444 67.2652 94.8859 67.9937C94.4347 68.7148 93.7324 69.078 92.7791 69.0832ZM92.7838 68.2032C93.4438 68.1996 93.8999 67.9258 94.1522 67.3818C94.4045 66.8304 94.5332 66.0744 94.5384 65.1137C94.5436 64.1531 94.423 63.4021 94.1766 62.8608C93.9302 62.3122 93.477 62.0397 92.817 62.0433C92.157 62.047 91.7009 62.3244 91.4486 62.8758C91.1964 63.4198 91.0676 64.1722 91.0625 65.1328C91.0573 66.0935 91.1779 66.8481 91.4242 67.3967C91.6706 67.938 92.1238 68.2069 92.7838 68.2032ZM102.147 67.9758L102.142 68.8998L97.06 68.9277L97.064 68.1907L99.8298 65.2387C100.258 64.7817 100.549 64.4207 100.705 64.1559C100.86 63.8837 100.939 63.612 100.94 63.3406C100.942 62.9153 100.801 62.5898 100.516 62.364C100.232 62.1309 99.8288 62.0158 99.3082 62.0187C98.6042 62.0225 97.9467 62.2315 97.3359 62.6455L97.3411 61.6775C97.9517 61.3148 98.6236 61.1315 99.357 61.1274C99.8776 61.1246 100.332 61.2101 100.72 61.3839C101.115 61.5504 101.418 61.7908 101.629 62.1049C101.84 62.4191 101.944 62.7852 101.942 63.2032C101.94 63.5918 101.842 63.9847 101.649 64.3817C101.464 64.7787 101.187 65.1652 100.818 65.5412L98.44 67.9962L102.147 67.9758ZM107.555 64.8772C108.001 65.0508 108.348 65.3055 108.596 65.6415C108.85 65.9701 108.977 66.3544 108.974 66.7944C108.972 67.2197 108.849 67.6017 108.605 67.9403C108.361 68.2717 108.019 68.5339 107.578 68.7269C107.144 68.9127 106.649 69.007 106.091 69.0101C105.695 69.0123 105.318 68.963 104.959 68.8623C104.608 68.7616 104.249 68.6059 103.884 68.3953L103.889 67.3833L103.933 67.383C104.306 67.6376 104.664 67.8263 105.008 67.9491C105.36 68.0645 105.719 68.1212 106.085 68.1192C106.643 68.1161 107.094 67.9853 107.44 67.7267C107.786 67.4682 107.96 67.1336 107.963 66.7229C107.965 66.2903 107.773 65.9503 107.385 65.7031C107.005 65.4486 106.489 65.3231 105.836 65.3267L105.352 65.3293L105.357 64.4603L105.841 64.4577C106.472 64.4542 106.96 64.3452 107.306 64.1306C107.652 63.9088 107.826 63.6035 107.828 63.2148C107.83 62.8335 107.677 62.5337 107.37 62.3154C107.071 62.097 106.661 61.9893 106.14 61.9921C105.825 61.9939 105.513 62.0433 105.205 62.1403C104.903 62.2299 104.565 62.3821 104.19 62.5968L104.146 62.5971L104.151 61.6401C104.806 61.2772 105.492 61.0937 106.211 61.0898C106.732 61.0869 107.19 61.1687 107.585 61.3352C107.98 61.4944 108.283 61.7237 108.494 62.0232C108.712 62.3227 108.821 62.6704 108.818 63.0664C108.816 63.4697 108.701 63.8297 108.472 64.1462C108.25 64.4628 107.944 64.7064 107.555 64.8772Z" fill="#0066FF"/>
    <path d="M23.5094 36.1107L35.5572 36.0445L35.5436 38.5644L23.4958 38.6306L23.5094 36.1107ZM26.134 16.6811L28.8648 17.6261C26.8546 21.0209 23.6461 24.1104 20.5399 26.0234C20.0869 25.4739 19.0369 24.3757 18.4155 23.8992C21.52 22.2982 24.4623 19.6182 26.134 16.6811ZM34.8561 19.2011L35.456 19.1978L35.9368 19.0511L37.9937 20.3598C34.3623 26.2115 26.7118 29.7094 19.3112 31.3579C19.0514 30.5914 18.4337 29.4188 17.9092 28.7737C24.7317 27.5123 32.0451 24.2323 34.8537 19.6331L34.8561 19.2011ZM24.8888 20.6238C27.94 24.4708 34.0442 27.3412 40.9502 28.4072C40.2747 29.0589 39.476 30.3112 39.0637 31.1054C32.0632 29.776 26.1289 26.5447 22.4588 21.7651L24.8888 20.6238ZM22.0757 30.5028L36.8115 30.4218L36.7632 39.3737L33.6913 39.3906L33.7256 33.0307L24.9657 33.0788L24.9309 39.5347L22.0269 39.5507L22.0757 30.5028ZM26.0482 19.2495L35.504 19.1975L35.4907 21.6695L24.3069 21.7309L26.0482 19.2495ZM43.0048 21.2202L64.0045 21.1049L63.9903 23.7448L42.9906 23.8602L43.0048 21.2202ZM42.7376 30.7253L64.1693 30.6076L64.1549 33.2715L42.7232 33.3892L42.7376 30.7253ZM58.7703 17.1018L61.8856 17.9487C60.8462 19.3223 59.7111 20.6485 58.8424 21.5412L56.4468 20.7384C57.2682 19.7259 58.2364 18.2087 58.7703 17.1018ZM51.9322 16.8034L54.8122 16.7876L54.7509 28.1634L51.8709 28.1792L51.9322 16.8034ZM45.3002 18.3517L47.8018 17.282C48.7805 18.2606 49.853 19.6467 50.3037 20.6282L47.6574 21.8186C47.2546 20.8609 46.2545 19.4025 45.3002 18.3517ZM55.5846 29.3108L57.1999 27.958C58.4212 28.4312 60.1212 29.1659 61.0061 29.737L59.2942 31.2103C58.5053 30.6387 56.8536 29.8558 55.5846 29.3108ZM51.8683 28.6592L54.8923 28.6426C54.3574 34.3813 53.019 37.7965 43.5549 39.3844C43.3191 38.5937 42.6299 37.3496 42.0814 36.7046C50.6793 35.5294 51.4361 33.1494 51.8683 28.6592ZM51.1103 22.3516L53.5051 23.2985C51.4019 26.1419 47.8859 28.3931 44.16 29.5175C43.756 28.7758 42.8981 27.6525 42.2534 27.0561C45.8336 26.2445 49.3471 24.4492 51.1103 22.3516ZM55.4548 22.2318C57.195 24.4061 60.7141 26.0187 64.5982 26.7174C63.9712 27.2728 63.1492 28.4053 62.7612 29.1514C58.6864 28.2138 55.1941 26.0731 53.0982 23.1087L55.4548 22.2318ZM54.7084 31.5955C56.1799 34.6353 59.3638 36.1057 64.6899 36.4124C64.0383 37.088 63.2154 38.3884 62.8507 39.2544C57.0227 38.5665 53.9141 36.4716 51.9936 32.1384L54.7084 31.5955ZM84.188 16.5782L86.2631 18.9427C81.3124 20.2418 74.3972 20.8798 68.5163 21.1041C68.4482 20.3845 68.0945 19.2105 67.8339 18.588C73.6191 18.3162 80.2464 17.6558 84.188 16.5782ZM68.0235 23.4827L87.0072 23.3784L86.9923 26.1384L68.0086 26.2427L68.0235 23.4827ZM66.3374 29.0837L88.393 28.9626L88.3779 31.7705L66.3222 31.8917L66.3374 29.0837ZM75.9379 20.0074L78.9378 19.9909L78.8528 35.7587C78.8436 37.4626 78.4075 38.233 77.2532 38.6713C76.0988 39.1336 74.3464 39.2153 71.8986 39.2047C71.711 38.3898 71.166 37.0968 70.738 36.3552C72.5136 36.4175 74.5297 36.3824 75.0817 36.3794C75.6336 36.3763 75.8505 36.2071 75.8531 35.7271L75.9379 20.0074ZM103.705 24.3187C105.654 27.8358 109.401 31.703 112.798 33.8203C112.051 34.4244 111.012 35.606 110.456 36.425C107.062 33.8758 103.533 29.5034 101.324 25.2677L103.705 24.3187ZM99.5051 24.4137L102.092 25.3355C99.8107 30.0518 96.1399 34.2958 92.0231 36.7183C91.4992 35.9532 90.5216 34.7826 89.8288 34.1864C93.8234 32.1966 97.5881 28.3121 99.5051 24.4137ZM90.8518 22.4933L111.851 22.378L111.836 25.2099L90.8365 25.3253L90.8518 22.4933ZM99.8834 16.564L103.075 16.5465L102.954 39.0821L99.7619 39.0997L99.8834 16.564ZM103.929 18.4857L106.074 16.722C107.365 17.6988 109.229 19.1285 110.136 20.0835L107.893 22.0877C107.059 21.1084 105.267 19.5583 103.929 18.4857ZM124.845 20.4347L135.861 20.3742L135.847 23.0622L124.831 23.1227L124.845 20.4347ZM118.263 34.9902L132.159 34.9139L132.144 37.6258L118.249 37.7022L118.263 34.9902ZM123.619 16.4336L126.619 16.4171L126.553 28.561L123.554 28.5774L123.619 16.4336ZM116.553 27.3439L134.096 27.2476L134.034 38.7194L131.058 38.7358L131.106 29.9519L119.37 30.0164L119.322 38.9202L116.49 38.9358L116.553 27.3439ZM142.924 23.4313L148.972 23.398L148.957 26.23L142.909 26.2632L142.924 23.4313ZM141.233 16.5768L144.209 16.5605L144.104 36.0482L141.125 36.7606L141.233 16.5768ZM138.084 35.3853C140.943 34.8896 145.243 34.0021 149.184 33.1164L149.457 35.9468C145.804 36.8068 141.864 37.6685 138.884 38.3568L138.084 35.3853ZM158.318 21.4748L160.321 23.9597C157.866 25.2691 154.835 26.5097 152.19 27.4842C152.026 26.8131 151.575 25.8076 151.219 25.1856C153.744 24.2118 156.488 22.7088 158.318 21.4748ZM150.401 16.5265L153.377 16.5101L153.283 34.0539C153.275 35.4459 153.394 35.6372 154.306 35.6322C154.714 35.63 156.466 35.6203 156.922 35.6178C157.834 35.6128 157.983 34.772 158.144 31.4833C158.837 32.0075 160.035 32.5289 160.85 32.7164C160.515 36.822 159.763 38.3861 157.171 38.4003C156.595 38.4035 154.411 38.4155 153.859 38.4185C151.051 38.434 150.288 37.4542 150.307 34.0462L150.401 16.5265Z" fill="#171725"/>
</svg>
