<svg width="292" height="217" viewBox="0 0 292 217" fill="none" xmlns="http://www.w3.org/2000/svg">
    <path d="M77.9146 125.978C77.7976 147.685 60.4342 165.377 39.1324 165.494C17.8306 165.611 0.656969 148.109 0.773977 126.402C0.890986 104.695 18.2544 87.0027 39.5561 86.8857C60.8579 86.7687 78.0316 104.271 77.9146 125.978ZM4.63101 126.381C4.5257 145.917 19.982 161.669 39.1536 161.564C58.3252 161.458 73.9523 145.536 74.0576 125.999C74.1629 106.463 58.7066 90.7108 39.535 90.8161C20.3633 90.9214 4.73632 106.844 4.63101 126.381Z" fill="#CDD2FD"/>
    <path d="M39.5456 88.8509C39.5514 87.7655 40.4368 86.8755 41.5204 86.9259C50.2039 87.3293 58.4892 90.7163 65.0102 96.5673C72.0213 102.858 76.511 111.565 77.637 121.054C78.763 130.543 76.4479 140.162 71.126 148.107C66.1785 155.493 58.9487 160.96 50.6366 163.645C49.5952 163.982 48.5184 163.345 48.2575 162.289V162.289C48 161.245 48.6357 160.186 49.6624 159.849C57.0781 157.415 63.5259 152.517 67.9478 145.915C72.7375 138.765 74.8211 130.107 73.8077 121.567C72.7944 113.027 68.7536 105.191 62.4436 99.5295C56.6239 94.3078 49.2427 91.2666 41.499 90.862C40.4158 90.8053 39.5397 89.9362 39.5456 88.8509V88.8509Z" fill="#0066FF"/>
    <path d="M32.4554 127.962L31.0154 127.97L31.0031 130.25L29.0232 130.261L29.0355 127.981L24.3555 128.007L24.3639 126.462L29.0794 119.821L31.0594 119.81L31.0246 126.275L32.4645 126.267L32.4554 127.962ZM29.0446 126.286L29.0644 122.611L26.6746 126.299L29.0446 126.286ZM38.0459 123.507C38.7659 123.503 39.4001 123.644 39.9486 123.931C40.497 124.208 40.9199 124.606 41.2171 125.124C41.5143 125.632 41.6612 126.217 41.6576 126.877C41.6539 127.567 41.4856 128.177 41.1527 128.709C40.8299 129.241 40.3777 129.653 39.7961 129.947C39.2146 130.24 38.5588 130.388 37.8288 130.392C36.5288 130.4 35.5313 129.955 34.8361 129.059C34.141 128.163 33.7978 126.905 33.8065 125.285C33.8128 124.115 33.9983 123.104 34.3629 122.252C34.7274 121.4 35.2459 120.747 35.9183 120.293C36.5908 119.83 37.387 119.595 38.307 119.59C39.357 119.584 40.3305 119.859 41.2275 120.414L41.2177 122.229L41.1577 122.229C40.7394 121.912 40.2857 121.674 39.7966 121.517C39.3075 121.35 38.853 121.267 38.433 121.269C37.743 121.273 37.1867 121.521 36.764 122.014C36.3515 122.496 36.0877 123.197 35.9727 124.118C36.2839 123.906 36.6047 123.754 36.9351 123.663C37.2757 123.561 37.6459 123.509 38.0459 123.507ZM37.8079 128.713C38.3179 128.71 38.7387 128.542 39.0705 128.211C39.4123 127.879 39.5846 127.448 39.5875 126.918C39.5902 126.418 39.4374 126.009 39.1291 125.69C38.8309 125.362 38.4068 125.199 37.8568 125.202C37.2468 125.206 36.5957 125.409 35.9036 125.813C35.9485 126.763 36.1296 127.487 36.4469 127.985C36.7642 128.473 37.2179 128.716 37.8079 128.713ZM45.565 125.805C44.595 125.81 43.8765 125.529 43.4096 124.962C42.9527 124.385 42.7268 123.626 42.7319 122.686C42.737 121.746 42.971 120.99 43.4341 120.417C43.9072 119.834 44.6288 119.541 45.5988 119.535C46.5687 119.53 47.2822 119.816 47.739 120.393C48.206 120.961 48.4369 121.715 48.4318 122.654C48.4267 123.594 48.1877 124.356 47.7145 124.938C47.2515 125.511 46.5349 125.8 45.565 125.805ZM54.0426 119.684L45.7214 130.169L44.2364 130.177L52.5576 119.692L54.0426 119.684ZM45.5719 124.515C45.9819 124.513 46.2878 124.341 46.4896 124C46.6915 123.649 46.7939 123.203 46.7968 122.663C46.7997 122.133 46.6971 121.694 46.489 121.345C46.2908 120.996 45.9918 120.823 45.5918 120.825C45.1918 120.827 44.8859 121.004 44.674 121.355C44.4721 121.706 44.3697 122.147 44.3669 122.677C44.364 123.217 44.4616 123.661 44.6597 124.01C44.8578 124.349 45.1619 124.517 45.5719 124.515ZM52.6803 130.326C51.7103 130.331 50.9918 130.05 50.5249 129.483C50.068 128.905 49.8421 128.147 49.8472 127.207C49.8523 126.267 50.0863 125.51 50.5494 124.938C51.0225 124.355 51.7441 124.061 52.7141 124.056C53.6841 124.051 54.3975 124.337 54.8543 124.914C55.3213 125.482 55.5522 126.235 55.5471 127.175C55.5421 128.115 55.303 128.876 54.8298 129.459C54.3668 130.032 53.6503 130.32 52.6803 130.326ZM52.6872 129.036C53.0972 129.034 53.4031 128.862 53.605 128.521C53.8068 128.17 53.9092 127.724 53.9122 127.184C53.915 126.654 53.8124 126.215 53.6043 125.866C53.4062 125.517 53.1071 125.344 52.7071 125.346C52.3071 125.348 52.0012 125.525 51.7893 125.876C51.5874 126.227 51.485 126.668 51.4822 127.198C51.4793 127.738 51.5769 128.182 51.775 128.531C51.9732 128.87 52.2772 129.038 52.6872 129.036Z" fill="#151522"/>
    <path d="M19.6721 208.814L26.992 208.773L26.9885 209.429L19.6686 209.47L19.6721 208.814ZM27.9133 207.048L34.8012 207.011L34.7982 207.562L27.9103 207.6L27.9133 207.048ZM27.8642 210.224L34.824 210.186L34.821 210.754L27.8611 210.792L27.8642 210.224ZM33.2967 205.635L33.9355 205.839C33.6052 206.281 33.2107 206.747 32.897 207.061L32.394 206.872C32.6998 206.542 33.0867 206.004 33.2967 205.635ZM31.0175 205.487L31.6175 205.484L31.5977 209.164L30.9977 209.167L31.0175 205.487ZM28.7911 205.956L29.3044 205.713C29.6546 206.039 30.0361 206.501 30.1944 206.82L29.6569 207.095C29.4987 206.776 29.1333 206.298 28.7911 205.956ZM32.1077 209.529L32.4613 209.223C32.9243 209.405 33.5388 209.681 33.8657 209.888L33.4879 210.234C33.193 210.019 32.5866 209.727 32.1077 209.529ZM31.0288 209.343L31.6608 209.34C31.4345 211.253 30.8765 212.36 27.9779 212.864C27.9228 212.704 27.7802 212.441 27.6689 212.313C30.3991 211.89 30.8439 210.984 31.0288 209.343ZM30.784 207.257L31.2789 207.462C30.6018 208.418 29.3656 209.2 28.1317 209.567C28.0446 209.408 27.8698 209.184 27.7345 209.057C28.952 208.763 30.1797 208.068 30.784 207.257ZM31.8161 207.235C32.4117 208.048 33.6242 208.681 34.9028 208.938C34.7742 209.051 34.6049 209.283 34.5241 209.444C33.2219 209.123 31.9858 208.394 31.3271 207.43L31.8161 207.235ZM31.6871 210.387C32.1369 211.529 33.2298 212.099 35.005 212.241C34.8682 212.378 34.6988 212.643 34.6259 212.819C32.7712 212.589 31.6709 211.907 31.1345 210.51L31.6871 210.387ZM41.7133 205.437L42.1587 205.922C40.7084 206.354 38.3393 206.583 36.3949 206.674C36.3797 206.522 36.309 206.282 36.2538 206.147C38.1582 206.048 40.4953 205.819 41.7133 205.437ZM36.2533 207.722L42.4932 207.688L42.4901 208.264L36.2502 208.298L36.2533 207.722ZM35.7071 209.605L42.931 209.566L42.9279 210.15L35.704 210.189L35.7071 209.605ZM39.0288 206.299L39.6528 206.296L39.6223 211.96C39.62 212.384 39.491 212.568 39.1865 212.666C38.882 212.764 38.3619 212.783 37.514 212.779C37.4749 212.612 37.3643 212.34 37.2692 212.181C37.933 212.201 38.5731 212.19 38.7491 212.181C38.9331 212.18 38.9974 212.123 38.9983 211.955L39.0288 206.299ZM47.7884 207.795C48.5014 209.079 49.8536 210.512 50.9937 211.225C50.8411 211.346 50.6238 211.579 50.5109 211.748C49.3793 210.938 48.0596 209.41 47.2833 207.998L47.7884 207.795ZM46.9483 207.808L47.4832 208.005C46.7147 209.593 45.3788 211.072 44.0387 211.848C43.9275 211.688 43.7288 211.457 43.5854 211.338C44.9091 210.651 46.2527 209.228 46.9483 207.808ZM43.8544 207.441L50.7423 207.403L50.7391 207.995L43.8513 208.033L43.8544 207.441ZM47.0173 205.407L47.6733 205.404L47.6336 212.756L46.9776 212.759L47.0173 205.407ZM48.1826 205.897L48.6245 205.527C49.1107 205.86 49.7481 206.344 50.0664 206.663L49.6161 207.089C49.3059 206.763 48.6766 206.254 48.1826 205.897Z" fill="#666666"/>
    <path d="M23.2207 187.908C23.6275 188.122 23.9419 188.412 24.1639 188.779C24.394 189.137 24.5078 189.537 24.5055 189.977C24.5028 190.465 24.3645 190.893 24.0905 191.263C23.8166 191.632 23.431 191.918 22.934 192.121C22.4369 192.324 21.8724 192.427 21.2404 192.43C20.7764 192.433 20.3327 192.379 19.9093 192.27C19.4939 192.16 19.0788 191.99 18.6641 191.761L18.6724 190.213L18.7204 190.212C19.5493 190.784 20.3718 191.067 21.1877 191.063C21.6997 191.06 22.1083 190.958 22.4133 190.756C22.7185 190.546 22.872 190.262 22.8739 189.902C22.876 189.51 22.7057 189.195 22.363 188.956C22.0204 188.71 21.5571 188.589 20.9731 188.592L20.4691 188.595L20.4762 187.275L20.9802 187.272C21.5242 187.269 21.9527 187.167 22.2658 186.965C22.5789 186.763 22.7363 186.487 22.7382 186.135C22.7399 185.823 22.6092 185.583 22.3461 185.417C22.091 185.25 21.7315 185.168 21.2675 185.171C20.9075 185.173 20.5432 185.231 20.1746 185.345C19.814 185.459 19.4171 185.637 18.9838 185.879L18.9358 185.879L18.9438 184.391C19.7059 183.995 20.507 183.795 21.3469 183.79C22.2589 183.785 22.9858 183.981 23.5277 184.378C24.0776 184.767 24.3507 185.302 24.347 185.982C24.3448 186.382 24.2429 186.75 24.041 187.087C23.8473 187.416 23.5738 187.69 23.2207 187.908ZM31.87 190.824L31.8624 192.228L26.1745 192.259L26.1809 191.059L28.872 188.237C29.3145 187.778 29.6205 187.397 29.7902 187.092C29.9598 186.787 30.0454 186.494 30.0469 186.214C30.0509 185.478 29.5969 185.113 28.6849 185.118C28.3089 185.12 27.9286 185.178 27.544 185.292C27.1674 185.406 26.8065 185.576 26.4613 185.802L26.4691 184.35C27.1752 183.954 27.9402 183.754 28.7642 183.75C29.6522 183.745 30.3551 183.949 30.8728 184.362C31.3986 184.775 31.6595 185.346 31.6556 186.074C31.6511 186.906 31.2706 187.74 30.5141 188.576L28.45 190.843L31.87 190.824ZM38.1033 187.826C38.5101 188.04 38.8245 188.33 39.0465 188.697C39.2766 189.056 39.3904 189.455 39.388 189.895C39.3854 190.383 39.2471 190.812 38.9731 191.181C38.6991 191.551 38.3136 191.837 37.8166 192.039C37.3195 192.242 36.7549 192.345 36.123 192.349C35.659 192.351 35.2153 192.298 34.7919 192.188C34.3765 192.078 33.9614 191.909 33.5467 191.679L33.555 190.131L33.603 190.131C34.4319 190.702 35.2543 190.986 36.0703 190.981C36.5823 190.978 36.9909 190.876 37.2959 190.674C37.601 190.465 37.7546 190.18 37.7565 189.82C37.7586 189.428 37.5883 189.113 37.2456 188.875C36.903 188.629 36.4397 188.507 35.8557 188.51L35.3517 188.513L35.3588 187.193L35.8628 187.19C36.4068 187.187 36.8353 187.085 37.1484 186.883C37.4614 186.682 37.6189 186.405 37.6208 186.053C37.6225 185.741 37.4918 185.502 37.2287 185.335C36.9736 185.168 36.6141 185.086 36.1501 185.089C35.7901 185.091 35.4258 185.149 35.0572 185.263C34.6966 185.377 34.2997 185.555 33.8664 185.797L33.8184 185.798L33.8264 184.31C34.5885 183.914 35.3895 183.713 36.2295 183.709C37.1415 183.704 37.8684 183.9 38.4103 184.297C38.9601 184.685 39.2332 185.22 39.2296 185.9C39.2274 186.3 39.1254 186.668 38.9236 187.006C38.7299 187.335 38.4564 187.608 38.1033 187.826ZM40.7005 184.86L44.5405 184.839L44.5332 186.195L40.6932 186.216L40.7005 184.86ZM42.0231 182.153L43.367 182.145L43.3237 190.185L41.9797 190.193L42.0231 182.153ZM40.5028 190.381C41.4884 190.075 43.0153 189.527 44.446 189.003L44.715 190.31C43.4521 190.845 42.0571 191.416 40.9629 191.842L40.5028 190.381ZM44.721 182.51L49.7849 182.482L49.7776 183.838L44.7137 183.866L44.721 182.51ZM50.2716 185.695L51.7116 185.687C51.7116 185.687 51.6972 186.131 51.6722 186.312C51.4219 190.453 51.1735 192.014 50.7387 192.544C50.4487 192.918 50.16 193.04 49.7637 193.102C49.4154 193.164 48.9114 193.166 48.3475 193.158C48.3256 192.762 48.1727 192.187 47.9588 191.804C48.4145 191.849 48.8344 191.859 49.0624 191.858C49.2544 191.857 49.3626 191.82 49.4955 191.651C49.7973 191.314 50.0574 189.824 50.2701 185.971L50.2716 185.695ZM45.2594 187.259C45.153 186.959 44.8567 186.277 44.6666 185.93C45.0269 185.868 45.4843 185.602 45.9419 185.299C46.4115 185.009 48.0253 183.908 49.0878 182.702L49.0882 182.618L49.7615 182.374L50.7772 183.173C49.2456 184.585 47.5833 185.782 46.1751 186.558L46.1749 186.594C46.1749 186.594 45.2608 187.007 45.2594 187.259ZM45.2594 187.259L45.2656 186.107L45.9397 185.719L50.7636 185.693L50.7443 187.049L46.3403 187.073C45.8604 187.075 45.368 187.138 45.2594 187.259ZM48.611 186.556L49.8578 186.778C49.1227 189.589 47.7909 191.781 45.9596 193.147C45.7328 192.932 45.1829 192.539 44.8718 192.373C46.7743 191.162 47.9973 189.104 48.611 186.556ZM46.6191 186.567L47.8657 186.8C47.377 188.423 46.4458 189.772 45.3252 190.63C45.0984 190.416 44.5725 190.022 44.2854 189.856C45.3933 189.13 46.2276 187.949 46.6191 186.567Z" fill="#151522"/>
    <path d="M184.452 125.393C184.335 147.1 166.972 164.792 145.67 164.909C124.369 165.026 107.195 147.524 107.312 125.817C107.429 104.109 124.792 86.4175 146.094 86.3005C167.396 86.1835 184.569 103.686 184.452 125.393ZM111.169 125.795C111.064 145.332 126.52 161.084 145.692 160.978C164.863 160.873 180.49 144.95 180.595 125.414C180.701 105.878 165.244 90.1256 146.073 90.2309C126.901 90.3362 111.274 106.259 111.169 125.795Z" fill="#CDD2FD"/>
    <path d="M146.083 88.2657C146.089 87.1803 146.975 86.2903 148.058 86.3407C154.995 86.6631 161.711 88.8913 167.487 92.8067C173.806 97.0907 178.717 103.202 181.598 110.368C184.478 117.534 185.199 125.432 183.67 133.065C182.141 140.697 178.429 147.721 173.006 153.247C167.582 158.774 160.689 162.555 153.199 164.112C145.709 165.67 137.958 164.934 130.926 161.998C123.894 159.062 117.898 154.057 113.694 147.617C109.839 141.71 107.652 134.839 107.348 127.744C107.302 126.681 108.175 125.812 109.24 125.806V125.806C110.306 125.8 111.159 126.659 111.21 127.723C111.514 134.04 113.479 140.153 116.913 145.416C120.696 151.212 126.093 155.716 132.422 158.359C138.75 161.001 145.726 161.663 152.467 160.262C159.208 158.86 165.412 155.457 170.293 150.483C175.175 145.509 178.515 139.188 179.891 132.319C181.268 125.45 180.619 118.341 178.026 111.892C175.434 105.442 171.014 99.9421 165.326 96.0865C160.183 92.5996 154.21 90.5994 148.037 90.2768C146.954 90.2201 146.078 89.351 146.083 88.2657V88.2657Z" fill="#0066FF"/>
    <path d="M145.4 119.182L145.395 120.187L141.309 129.644L139.494 129.654L139.134 129.596L143.081 120.92L138.446 120.945L138.455 119.22L145.4 119.182ZM155.048 127.289L153.608 127.297L153.595 129.576L151.616 129.587L151.628 127.307L146.948 127.333L146.956 125.788L151.672 119.148L153.652 119.137L153.617 125.602L155.057 125.594L155.048 127.289ZM151.637 125.612L151.657 121.937L149.267 125.625L151.637 125.612ZM142.693 145.271C141.723 145.276 141.005 144.995 140.538 144.428C140.081 143.85 139.855 143.091 139.86 142.151C139.865 141.211 140.1 140.455 140.563 139.883C141.036 139.3 141.757 139.006 142.727 139.001C143.697 138.995 144.411 139.282 144.868 139.859C145.334 140.426 145.565 141.18 145.56 142.12C145.555 143.06 145.316 143.821 144.843 144.404C144.38 144.976 143.663 145.265 142.693 145.271ZM151.171 139.149L142.85 149.635L141.365 149.643L149.686 139.158L151.171 139.149ZM142.7 143.981C143.11 143.978 143.416 143.807 143.618 143.466C143.82 143.115 143.922 142.669 143.925 142.129C143.928 141.599 143.826 141.16 143.617 140.811C143.419 140.462 143.12 140.289 142.72 140.291C142.32 140.293 142.014 140.47 141.802 140.821C141.601 141.172 141.498 141.612 141.495 142.142C141.492 142.682 141.59 143.127 141.788 143.476C141.986 143.815 142.29 143.983 142.7 143.981ZM149.809 149.791C148.839 149.797 148.12 149.516 147.653 148.948C147.197 148.371 146.971 147.612 146.976 146.672C146.981 145.732 147.215 144.976 147.678 144.403C148.151 143.821 148.873 143.527 149.843 143.521C150.813 143.516 151.526 143.802 151.983 144.38C152.45 144.947 152.681 145.701 152.676 146.641C152.671 147.581 152.431 148.342 151.958 148.925C151.495 149.497 150.779 149.786 149.809 149.791ZM149.816 148.501C150.226 148.499 150.532 148.328 150.733 147.986C150.935 147.635 151.038 147.19 151.041 146.65C151.044 146.12 150.941 145.68 150.733 145.332C150.535 144.983 150.236 144.809 149.836 144.811C149.436 144.814 149.13 144.99 148.918 145.341C148.716 145.693 148.614 146.133 148.611 146.663C148.608 147.203 148.705 147.648 148.903 147.996C149.102 148.335 149.406 148.504 149.816 148.501Z" fill="#151522"/>
    <path d="M126.835 206.105L132.579 206.073L132.576 206.713L126.832 206.745L126.835 206.105ZM126.13 210.853L133.234 210.814L133.23 211.486L126.126 211.525L126.13 210.853ZM134.289 206.464L141.177 206.426L141.174 206.978L134.286 207.016L134.289 206.464ZM134.24 209.64L141.2 209.602L141.197 210.17L134.237 210.208L134.24 209.64ZM139.673 205.051L140.311 205.255C139.981 205.697 139.587 206.163 139.273 206.477L138.77 206.287C139.076 205.958 139.463 205.42 139.673 205.051ZM137.393 204.903L137.993 204.9L137.974 208.58L137.374 208.583L137.393 204.903ZM135.167 205.371L135.68 205.128C136.03 205.455 136.412 205.916 136.57 206.236L136.033 206.51C135.875 206.191 135.509 205.713 135.167 205.371ZM138.484 208.945L138.837 208.639C139.3 208.82 139.915 209.097 140.242 209.303L139.864 209.649C139.569 209.435 138.962 209.142 138.484 208.945ZM137.405 208.759L138.037 208.755C137.81 210.668 137.252 211.776 134.354 212.279C134.299 212.12 134.156 211.857 134.045 211.729C136.775 211.306 137.22 210.4 137.405 208.759ZM137.16 206.672L137.655 206.878C136.978 207.833 135.741 208.616 134.508 208.983C134.42 208.823 134.246 208.6 134.11 208.473C135.328 208.178 136.556 207.484 137.16 206.672ZM138.192 206.651C138.788 207.463 140 208.097 141.279 208.354C141.15 208.466 140.981 208.699 140.9 208.86C139.598 208.539 138.362 207.81 137.703 206.845L138.192 206.651ZM138.063 209.803C138.513 210.945 139.606 211.515 141.381 211.657C141.244 211.794 141.075 212.059 141.002 212.235C139.147 212.005 138.047 211.323 137.51 209.926L138.063 209.803ZM148.089 204.852L148.535 205.338C147.084 205.77 144.715 205.999 142.771 206.089C142.756 205.938 142.685 205.698 142.63 205.562C144.534 205.464 146.871 205.235 148.089 204.852ZM142.629 207.138L148.869 207.104L148.866 207.68L142.626 207.714L142.629 207.138ZM142.083 209.021L149.307 208.981L149.304 209.565L142.08 209.605L142.083 209.021ZM145.405 205.715L146.029 205.712L145.998 211.375C145.996 211.799 145.867 211.984 145.562 212.082C145.258 212.18 144.738 212.198 143.89 212.195C143.851 212.027 143.74 211.756 143.645 211.596C144.309 211.617 144.949 211.605 145.125 211.596C145.309 211.595 145.373 211.539 145.374 211.371L145.405 205.715ZM154.164 207.211C154.877 208.495 156.229 209.927 157.37 210.641C157.217 210.762 157 210.995 156.887 211.164C155.755 210.354 154.435 208.825 153.659 207.414L154.164 207.211ZM153.324 207.223L153.859 207.42C153.091 209.009 151.755 210.488 150.415 211.263C150.303 211.104 150.105 210.873 149.961 210.754C151.285 210.067 152.629 208.643 153.324 207.223ZM150.23 206.856L157.118 206.819L157.115 207.411L150.227 207.448L150.23 206.856ZM153.393 204.823L154.049 204.82L154.009 212.171L153.353 212.175L153.393 204.823ZM154.558 205.313L155 204.942C155.487 205.276 156.124 205.76 156.442 206.078L155.992 206.505C155.682 206.179 155.052 205.67 154.558 205.313Z" fill="#666666"/>
    <path d="M137.344 183.297L137.339 184.101L134.071 191.667L132.619 191.675L132.331 191.628L135.488 184.687L131.78 184.708L131.788 183.328L137.344 183.297ZM142.093 186.259C142.669 186.256 143.176 186.369 143.615 186.599C144.054 186.82 144.392 187.138 144.63 187.553C144.868 187.96 144.985 188.427 144.982 188.955C144.979 189.507 144.845 189.996 144.578 190.421C144.32 190.846 143.958 191.176 143.493 191.411C143.028 191.646 142.503 191.764 141.919 191.768C140.879 191.773 140.081 191.418 139.525 190.701C138.969 189.984 138.694 188.977 138.701 187.681C138.706 186.745 138.855 185.937 139.146 185.255C139.438 184.574 139.853 184.051 140.391 183.688C140.929 183.317 141.566 183.13 142.302 183.126C143.142 183.121 143.92 183.341 144.638 183.785L144.63 185.237L144.582 185.237C144.248 184.983 143.885 184.793 143.493 184.667C143.102 184.533 142.738 184.467 142.402 184.469C141.85 184.472 141.405 184.671 141.067 185.065C140.737 185.45 140.526 186.012 140.434 186.748C140.683 186.579 140.94 186.457 141.204 186.384C141.477 186.302 141.773 186.261 142.093 186.259ZM141.902 190.424C142.31 190.422 142.647 190.288 142.912 190.022C143.186 189.757 143.324 189.412 143.326 188.988C143.328 188.588 143.206 188.261 142.959 188.006C142.721 187.743 142.381 187.613 141.941 187.616C141.454 187.618 140.933 187.781 140.379 188.104C140.415 188.864 140.56 189.443 140.814 189.842C141.067 190.232 141.43 190.426 141.902 190.424ZM150.909 187.206C151.316 187.42 151.63 187.71 151.852 188.077C152.082 188.436 152.196 188.835 152.193 189.275C152.191 189.763 152.053 190.192 151.779 190.561C151.505 190.931 151.119 191.217 150.622 191.42C150.125 191.623 149.56 191.726 148.928 191.729C148.464 191.732 148.021 191.678 147.597 191.568C147.182 191.459 146.767 191.289 146.352 191.059L146.36 189.511L146.408 189.511C147.237 190.082 148.06 190.366 148.876 190.361C149.388 190.359 149.796 190.256 150.101 190.055C150.407 189.845 150.56 189.56 150.562 189.2C150.564 188.808 150.394 188.493 150.051 188.255C149.708 188.009 149.245 187.888 148.661 187.891L148.157 187.894L148.164 186.574L148.668 186.571C149.212 186.568 149.641 186.465 149.954 186.264C150.267 186.062 150.424 185.785 150.426 185.433C150.428 185.121 150.297 184.882 150.034 184.715C149.779 184.549 149.42 184.467 148.956 184.469C148.596 184.471 148.231 184.529 147.863 184.643C147.502 184.757 147.105 184.935 146.672 185.178L146.624 185.178L146.632 183.69C147.394 183.294 148.195 183.094 149.035 183.089C149.947 183.084 150.674 183.28 151.216 183.677C151.766 184.066 152.039 184.6 152.035 185.28C152.033 185.68 151.931 186.049 151.729 186.386C151.535 186.715 151.262 186.988 150.909 187.206ZM153.506 184.24L157.346 184.219L157.339 185.575L153.499 185.596L153.506 184.24ZM154.829 181.533L156.172 181.526L156.129 189.566L154.785 189.573L154.829 181.533ZM153.308 189.761C154.294 189.456 155.821 188.907 157.251 188.384L157.52 189.69C156.258 190.225 154.863 190.797 153.768 191.223L153.308 189.761ZM157.526 181.89L162.59 181.862L162.583 183.218L157.519 183.246L157.526 181.89ZM163.077 185.076L164.517 185.068C164.517 185.068 164.503 185.512 164.478 185.692C164.227 189.833 163.979 191.394 163.544 191.925C163.254 192.298 162.965 192.42 162.569 192.482C162.221 192.544 161.717 192.547 161.153 192.538C161.131 192.142 160.978 191.567 160.764 191.184C161.22 191.23 161.64 191.239 161.868 191.238C162.06 191.237 162.168 191.2 162.301 191.032C162.603 190.694 162.863 189.205 163.076 185.352L163.077 185.076ZM158.065 186.639C157.958 186.34 157.662 185.657 157.472 185.31C157.832 185.248 158.29 184.982 158.747 184.679C159.217 184.389 160.831 183.288 161.893 182.082L161.894 181.998L162.567 181.755L163.583 182.553C162.051 183.965 160.389 185.162 158.981 185.938L158.98 185.974C158.98 185.974 158.066 186.387 158.065 186.639ZM158.065 186.639L158.071 185.487L158.745 185.099L163.569 185.073L163.55 186.429L159.146 186.453C158.666 186.456 158.173 186.519 158.065 186.639ZM161.416 185.937L162.663 186.158C161.928 188.97 160.596 191.161 158.765 192.527C158.538 192.312 157.988 191.919 157.677 191.753C159.58 190.543 160.803 188.484 161.416 185.937ZM159.425 185.948L160.671 186.181C160.182 187.803 159.251 189.153 158.131 190.011C157.904 189.796 157.378 189.403 157.091 189.236C158.199 188.51 159.033 187.33 159.425 185.948Z" fill="#151522"/>
    <path d="M290.99 124.808C290.873 146.515 273.51 164.207 252.208 164.324C230.906 164.441 213.733 146.938 213.85 125.231C213.967 103.524 231.33 85.8323 252.632 85.7153C273.934 85.5983 291.107 103.101 290.99 124.808ZM217.707 125.21C217.602 144.747 233.058 160.499 252.229 160.393C271.401 160.288 287.028 144.365 287.133 124.829C287.239 105.292 271.782 89.5404 252.611 89.6457C233.439 89.751 217.812 105.674 217.707 125.21Z" fill="#CDD2FD"/>
    <path d="M252.621 87.6805C252.627 86.5951 253.512 85.7051 254.596 85.7555C259.597 85.988 264.502 87.2119 269.034 89.3658C273.59 91.5308 277.669 94.588 281.044 98.3585C281.747 99.1434 281.623 100.353 280.809 101.04V101.04C279.974 101.746 278.734 101.631 278.007 100.831C275.003 97.5262 271.394 94.8424 267.373 92.9311C263.353 91.0208 259.008 89.9233 254.575 89.6916C253.491 89.635 252.616 88.7658 252.621 87.6805V87.6805Z" fill="#0066FF"/>
    <path d="M251.401 127.299L251.392 129.039L244.102 129.079L244.111 127.339L247.036 127.323L247.071 120.933L245.146 121.784L245.086 121.784L244.673 120.512L244.673 120.452L247.668 118.62L249.063 118.613L249.016 127.312L251.401 127.299ZM261.096 126.706L259.656 126.714L259.643 128.994L257.663 129.005L257.676 126.725L252.996 126.751L253.004 125.206L257.72 118.565L259.7 118.554L259.665 125.019L261.105 125.011L261.096 126.706ZM257.685 125.03L257.705 121.355L255.315 125.043L257.685 125.03ZM248.741 144.688C247.771 144.694 247.053 144.412 246.586 143.845C246.129 143.268 245.903 142.509 245.908 141.569C245.913 140.629 246.147 139.873 246.611 139.3C247.084 138.718 247.805 138.424 248.775 138.418C249.745 138.413 250.459 138.699 250.915 139.276C251.382 139.844 251.613 140.598 251.608 141.538C251.603 142.478 251.364 143.239 250.891 143.821C250.428 144.394 249.711 144.683 248.741 144.688ZM257.219 138.567L248.898 149.052L247.413 149.06L255.734 138.575L257.219 138.567ZM248.748 143.398C249.158 143.396 249.464 143.224 249.666 142.883C249.868 142.532 249.97 142.087 249.973 141.547C249.976 141.017 249.874 140.577 249.665 140.228C249.467 139.879 249.168 139.706 248.768 139.708C248.368 139.71 248.062 139.887 247.85 140.238C247.649 140.589 247.546 141.03 247.543 141.56C247.54 142.1 247.638 142.544 247.836 142.893C248.034 143.232 248.338 143.4 248.748 143.398ZM255.857 149.209C254.887 149.214 254.168 148.933 253.701 148.366C253.245 147.788 253.019 147.03 253.024 146.09C253.029 145.15 253.263 144.393 253.726 143.821C254.199 143.238 254.921 142.944 255.891 142.939C256.861 142.934 257.574 143.22 258.031 143.797C258.498 144.365 258.729 145.118 258.724 146.058C258.719 146.998 258.479 147.76 258.006 148.342C257.543 148.915 256.827 149.204 255.857 149.209ZM255.864 147.919C256.274 147.917 256.58 147.745 256.781 147.404C256.983 147.053 257.086 146.607 257.089 146.067C257.091 145.537 256.989 145.098 256.781 144.749C256.583 144.4 256.284 144.227 255.884 144.229C255.484 144.231 255.178 144.408 254.966 144.759C254.764 145.11 254.661 145.551 254.659 146.081C254.656 146.621 254.753 147.065 254.951 147.414C255.15 147.753 255.454 147.921 255.864 147.919Z" fill="#151522"/>
    <path d="M233.363 205.152L239.41 205.119L239.407 205.719L233.359 205.752L233.363 205.152ZM233.86 207.765L238.764 207.738L238.761 208.338L233.857 208.365L233.86 207.765ZM232.87 210.546L239.813 210.508L239.81 211.116L232.866 211.154L232.87 210.546ZM240.958 205.878L247.846 205.84L247.843 206.392L240.955 206.43L240.958 205.878ZM240.909 209.054L247.869 209.016L247.866 209.584L240.906 209.622L240.909 209.054ZM246.342 204.465L246.981 204.669C246.65 205.111 246.256 205.577 245.942 205.891L245.439 205.702C245.745 205.372 246.132 204.834 246.342 204.465ZM244.063 204.317L244.663 204.314L244.643 207.994L244.043 207.997L244.063 204.317ZM241.836 204.785L242.349 204.543C242.7 204.869 243.081 205.33 243.239 205.65L242.702 205.925C242.544 205.605 242.178 205.127 241.836 204.785ZM245.153 208.359L245.506 208.053C245.969 208.234 246.584 208.511 246.911 208.717L246.533 209.063C246.238 208.849 245.632 208.556 245.153 208.359ZM244.074 208.173L244.706 208.169C244.48 210.083 243.922 211.19 241.023 211.694C240.968 211.534 240.825 211.271 240.714 211.143C243.444 210.72 243.889 209.814 244.074 208.173ZM243.829 206.086L244.324 206.292C243.647 207.247 242.411 208.03 241.177 208.397C241.09 208.237 240.915 208.014 240.78 207.887C241.997 207.592 243.225 206.898 243.829 206.086ZM244.861 206.065C245.457 206.877 246.669 207.511 247.948 207.768C247.819 207.88 247.65 208.113 247.569 208.274C246.267 207.953 245.031 207.224 244.372 206.259L244.861 206.065ZM244.732 209.217C245.182 210.359 246.275 210.929 248.05 211.071C247.913 211.208 247.744 211.473 247.671 211.649C245.816 211.419 244.716 210.737 244.18 209.34L244.732 209.217ZM254.758 204.266L255.204 204.752C253.754 205.184 251.384 205.413 249.44 205.504C249.425 205.352 249.354 205.112 249.299 204.976C251.203 204.878 253.54 204.649 254.758 204.266ZM249.298 206.552L255.538 206.518L255.535 207.094L249.295 207.128L249.298 206.552ZM248.752 208.435L255.976 208.396L255.973 208.98L248.749 209.019L248.752 208.435ZM252.074 205.129L252.698 205.126L252.667 210.79C252.665 211.214 252.536 211.398 252.232 211.496C251.927 211.594 251.407 211.612 250.559 211.609C250.52 211.441 250.409 211.17 250.314 211.01C250.978 211.031 251.618 211.019 251.794 211.01C251.978 211.009 252.042 210.953 252.043 210.785L252.074 205.129ZM260.833 206.625C261.546 207.909 262.899 209.341 264.039 210.055C263.886 210.176 263.669 210.409 263.556 210.578C262.424 209.768 261.105 208.239 260.328 206.828L260.833 206.625ZM259.993 206.638L260.528 206.835C259.76 208.423 258.424 209.902 257.084 210.677C256.973 210.518 256.774 210.287 256.631 210.168C257.954 209.481 259.298 208.057 259.993 206.638ZM256.9 206.271L263.787 206.233L263.784 206.825L256.896 206.863L256.9 206.271ZM260.062 204.237L260.718 204.234L260.679 211.586L260.023 211.589L260.062 204.237ZM261.228 204.727L261.67 204.356C262.156 204.69 262.793 205.174 263.111 205.492L262.661 205.919C262.351 205.593 261.722 205.084 261.228 204.727Z" fill="#666666"/>
    <path d="M243.307 189.675L243.299 191.067L237.467 191.099L237.475 189.707L239.815 189.694L239.842 184.582L238.303 185.262L238.255 185.263L237.924 184.245L237.924 184.197L240.32 182.731L241.436 182.725L241.399 189.685L243.307 189.675ZM250.676 189.622L250.668 191.026L244.98 191.058L244.987 189.858L247.678 187.035C248.12 186.576 248.426 186.195 248.596 185.89C248.766 185.585 248.851 185.293 248.853 185.013C248.857 184.277 248.403 183.911 247.491 183.916C247.115 183.918 246.734 183.976 246.35 184.09C245.973 184.204 245.612 184.374 245.267 184.6L245.275 183.148C245.981 182.752 246.746 182.552 247.57 182.548C248.458 182.543 249.161 182.747 249.679 183.16C250.204 183.573 250.465 184.144 250.461 184.872C250.457 185.704 250.077 186.538 249.32 187.374L247.256 189.641L250.676 189.622ZM255.251 182.505C256.307 182.5 257.098 182.843 257.622 183.536C258.154 184.229 258.416 185.256 258.409 186.616C258.401 188.096 258.087 189.222 257.467 189.993C256.847 190.756 255.941 191.141 254.749 191.148C254.333 191.15 253.949 191.104 253.598 191.01C253.246 190.908 252.887 190.742 252.52 190.512L252.528 189.036L252.576 189.036C252.911 189.274 253.274 189.456 253.665 189.582C254.057 189.708 254.436 189.77 254.804 189.768C255.38 189.764 255.821 189.578 256.127 189.208C256.433 188.839 256.624 188.262 256.701 187.477C256.227 187.792 255.662 187.951 255.006 187.955C254.126 187.959 253.431 187.723 252.922 187.246C252.421 186.761 252.172 186.114 252.176 185.306C252.18 184.738 252.306 184.246 252.556 183.828C252.815 183.403 253.176 183.077 253.642 182.85C254.107 182.624 254.643 182.509 255.251 182.505ZM253.833 185.249C253.83 185.665 253.953 185.996 254.199 186.243C254.446 186.482 254.785 186.6 255.217 186.597C255.713 186.595 256.218 186.428 256.732 186.097C256.696 185.321 256.555 184.758 256.309 184.408C256.071 184.049 255.712 183.871 255.232 183.874C254.808 183.876 254.467 184.002 254.21 184.251C253.961 184.492 253.835 184.825 253.833 185.249ZM259.506 183.658L263.346 183.637L263.339 184.993L259.499 185.014L259.506 183.658ZM260.829 180.951L262.173 180.944L262.13 188.983L260.786 188.991L260.829 180.951ZM259.309 189.179C260.294 188.873 261.821 188.325 263.252 187.801L263.521 189.108C262.258 189.643 260.863 190.214 259.769 190.64L259.309 189.179ZM263.527 181.308L268.591 181.28L268.584 182.636L263.52 182.664L263.527 181.308ZM269.078 184.493L270.517 184.486C270.517 184.486 270.503 184.93 270.478 185.11C270.228 189.251 269.979 190.812 269.545 191.343C269.255 191.716 268.966 191.838 268.57 191.9C268.221 191.962 267.717 191.965 267.153 191.956C267.131 191.56 266.979 190.985 266.765 190.602C267.22 190.647 267.64 190.657 267.868 190.656C268.06 190.655 268.169 190.618 268.301 190.449C268.603 190.112 268.863 188.622 269.076 184.769L269.078 184.493ZM264.065 186.057C263.959 185.757 263.663 185.075 263.472 184.728C263.833 184.666 264.29 184.4 264.748 184.097C265.217 183.807 266.831 182.706 267.894 181.5L267.894 181.416L268.567 181.172L269.583 181.971C268.052 183.383 266.389 184.58 264.981 185.356L264.981 185.392C264.981 185.392 264.067 185.805 264.065 186.057ZM264.065 186.057L264.072 184.905L264.746 184.517L269.569 184.491L269.55 185.847L265.146 185.871C264.666 185.874 264.174 185.936 264.065 186.057ZM267.417 185.355L268.664 185.576C267.929 188.388 266.597 190.579 264.766 191.945C264.539 191.73 263.989 191.337 263.678 191.171C265.58 189.96 266.803 187.902 267.417 185.355ZM265.425 185.365L266.672 185.599C266.183 187.221 265.252 188.57 264.131 189.428C263.904 189.214 263.378 188.821 263.091 188.654C264.199 187.928 265.034 186.748 265.425 185.365Z" fill="#151522"/>
    <path d="M2.08557 45.1424L5.13252 45.1256L5.09392 52.2865L2.04697 52.3033L2.051 51.5553L4.32797 51.5428L4.3585 45.8779L2.08154 45.8904L2.08557 45.1424ZM2.11255 48.2991L4.63151 48.2853L4.62754 49.0222L2.10858 49.0361L2.11255 48.2991ZM1.68958 45.1445L2.47056 45.1403L2.42722 53.1811L1.64623 53.1854L1.68958 45.1445ZM5.62058 46.4099L11.3625 46.3784L11.3581 47.1923L5.61619 47.2239L5.62058 46.4099ZM9.20709 44.2453L10.0431 44.2407L9.99558 53.0516C9.99232 53.6566 9.82596 53.9105 9.42925 54.0446C9.03255 54.1788 8.33944 54.2046 7.22852 54.1997C7.18576 53.969 7.05578 53.5957 6.93603 53.3654C7.7939 53.3827 8.59688 53.3782 8.83894 53.3659C9.06999 53.3536 9.15835 53.2872 9.15959 53.0562L9.20709 44.2453ZM5.98349 48.4648L6.66737 48.1091C7.25686 48.9418 8.0098 50.0596 8.38024 50.7176L7.65193 51.1505C7.30356 50.4815 6.57291 49.3085 5.98349 48.4648ZM12.791 46.6455L13.627 46.6409L13.5858 54.2858L12.7498 54.2904L12.791 46.6455ZM12.9555 44.6977L13.5955 44.3092C14.1101 44.7573 14.7005 45.4141 14.9731 45.8636L14.2777 46.3184C14.0381 45.8687 13.4588 45.1899 12.9555 44.6977ZM15.661 44.7708L21.4579 44.739L21.4537 45.509L15.6568 45.5408L15.661 44.7708ZM20.9849 44.7416L21.8319 44.7369L21.7861 53.2288C21.7836 53.6908 21.6944 53.9113 21.4077 54.0448C21.11 54.1785 20.637 54.1921 19.955 54.1958C19.9231 53.987 19.8149 53.6466 19.7061 53.4272C20.168 53.4467 20.619 53.4332 20.751 53.4325C20.905 53.4316 20.9383 53.3765 20.9391 53.2335L20.9849 44.7416ZM15.929 50.1371L15.921 51.6221L18.572 51.6075L18.58 50.1225L15.929 50.1371ZM15.9406 47.9811L15.9327 49.4551L18.5837 49.4406L18.5916 47.9666L15.9406 47.9811ZM15.1963 47.3033L19.3763 47.2803L19.3492 52.2962L15.1693 52.3192L15.1963 47.3033ZM24.204 49.5087C23.9914 49.5099 23.8121 49.4412 23.6662 49.3026C23.5276 49.1641 23.4589 48.9811 23.4601 48.7538C23.4614 48.5265 23.532 48.3428 23.6721 48.2027C23.8195 48.0625 23.9996 47.9919 24.2122 47.9907C24.4249 47.9895 24.6005 48.0582 24.7391 48.1968C24.885 48.3353 24.9573 48.5183 24.9561 48.7456C24.9549 48.9729 24.8806 49.1566 24.7332 49.2968C24.5931 49.4369 24.4167 49.5075 24.204 49.5087ZM24.1827 53.4686C23.97 53.4698 23.7907 53.4011 23.6448 53.2626C23.5063 53.124 23.4376 52.9411 23.4388 52.7137C23.44 52.4864 23.5107 52.3027 23.6508 52.1626C23.7982 52.0225 23.9782 51.9518 24.1909 51.9506C24.4035 51.9495 24.5792 52.0182 24.7177 52.1567C24.8637 52.2953 24.936 52.4782 24.9348 52.7055C24.9336 52.9329 24.8592 53.1166 24.7118 53.2567C24.5717 53.3968 24.3954 53.4675 24.1827 53.4686Z" fill="#151522"/>
    <path d="M34.6497 52.3552L34.6447 53.2792L29.5628 53.3071L29.5667 52.5701L32.3325 49.618C32.7603 49.161 33.0519 48.8001 33.2073 48.5353C33.3628 48.2631 33.4412 47.9913 33.4427 47.72C33.445 47.2947 33.3038 46.9691 33.019 46.7434C32.7343 46.5103 32.3316 46.3952 31.8109 46.398C31.1069 46.4019 30.4495 46.6108 29.8386 47.0248L29.8438 46.0569C30.4544 45.6942 31.1264 45.5108 31.8597 45.5068C32.3804 45.5039 32.8345 45.5894 33.2223 45.7633C33.6173 45.9298 33.9204 46.1701 34.1313 46.4843C34.3423 46.7984 34.4467 47.1645 34.4444 47.5825C34.4423 47.9712 34.3449 48.364 34.1521 48.7611C33.9666 49.1581 33.6895 49.5446 33.3208 49.9206L30.9427 52.3755L34.6497 52.3552ZM38.9242 53.3877C37.9709 53.3929 37.2688 53.0374 36.818 52.3213C36.3746 51.5977 36.1561 50.6383 36.1626 49.443C36.169 48.2477 36.3978 47.2895 36.849 46.5684C37.3076 45.8399 38.0136 45.473 38.9669 45.4678C39.9202 45.4625 40.6186 45.8217 41.062 46.5452C41.5128 47.2614 41.7349 48.2171 41.7285 49.4124C41.7221 50.6077 41.4895 51.5696 41.031 52.2981C40.5798 53.0192 39.8775 53.3824 38.9242 53.3877ZM38.9289 52.5077C39.5889 52.504 40.045 52.2302 40.2973 51.6862C40.5496 51.1348 40.6783 50.3788 40.6835 49.4182C40.6887 48.4575 40.5681 47.7065 40.3217 47.1652C40.0753 46.6166 39.6221 46.3441 38.9621 46.3478C38.3022 46.3514 37.846 46.6289 37.5937 47.1802C37.3415 47.7243 37.2127 48.4766 37.2076 49.4373C37.2024 50.3979 37.323 51.1525 37.5693 51.7012C37.8158 52.2425 38.2689 52.5113 38.9289 52.5077ZM48.292 52.2912L48.2871 53.2042L43.2051 53.2321L43.2101 52.3192L45.476 52.3067L45.5057 46.8068L43.9614 47.6072L43.9174 47.6075L43.7228 46.9816L43.723 46.9376L45.7544 45.5625L46.4803 45.5585L46.444 52.3014L48.292 52.2912ZM52.5776 53.3127C52.0422 53.3156 51.5624 53.2229 51.1381 53.0346C50.7138 52.8462 50.3816 52.5841 50.1414 52.2481C49.9086 51.9047 49.7934 51.5204 49.7956 51.095C49.798 50.6624 49.9174 50.2804 50.1538 49.9491C50.3902 49.6178 50.6958 49.3852 51.0705 49.2511C50.7338 49.1356 50.4637 48.9171 50.2601 48.5956C50.0565 48.2667 49.9559 47.9006 49.958 47.4973C49.9603 47.0793 50.0759 46.712 50.305 46.3954C50.534 46.0789 50.847 45.8352 51.2439 45.6643C51.6481 45.4861 52.1033 45.3956 52.6093 45.3928C53.1152 45.3901 53.5658 45.4756 53.9608 45.6494C54.3632 45.8158 54.6773 46.0561 54.9029 46.3702C55.1285 46.6843 55.2402 47.0503 55.238 47.4683C55.2358 47.8643 55.1312 48.2279 54.9241 48.559C54.7243 48.8827 54.4481 49.1079 54.0955 49.2345C54.4981 49.3716 54.8084 49.6082 55.0266 49.9444C55.2522 50.2731 55.3638 50.6465 55.3616 51.0645C55.3592 51.4971 55.2362 51.8828 54.9923 52.2214C54.7559 52.5601 54.4244 52.8259 53.9981 53.0189C53.5791 53.2118 53.1056 53.3098 52.5776 53.3127ZM52.602 48.7807C53.1227 48.7779 53.5266 48.6656 53.8138 48.4441C54.101 48.2152 54.2457 47.8991 54.2478 47.4957C54.25 47.0924 54.1087 46.7815 53.8239 46.5631C53.5391 46.3447 53.1327 46.2369 52.6047 46.2398C52.0767 46.2427 51.6691 46.355 51.3819 46.5765C51.0947 46.7981 50.9501 47.1105 50.9479 47.5139C50.9457 47.9172 51.087 48.2317 51.3718 48.4575C51.6639 48.6759 52.074 48.7836 52.602 48.7807ZM52.5602 52.4548C53.1322 52.4516 53.5728 52.3319 53.8821 52.0955C54.1914 51.8519 54.3472 51.51 54.3496 51.07C54.352 50.6227 54.1998 50.2789 53.8932 50.0386C53.5865 49.7983 53.1508 49.6797 52.5861 49.6828C52.0215 49.6859 51.5845 49.8093 51.2752 50.053C50.9659 50.2966 50.81 50.6421 50.8076 51.0895C50.8053 51.5295 50.9537 51.8696 51.2531 52.11C51.5598 52.343 51.9955 52.4579 52.5602 52.4548ZM62.7097 49.7372L62.7052 50.5731L59.8452 50.5889L59.8497 49.7529L62.7097 49.7372ZM72.5046 52.1472L72.4996 53.0712L67.4177 53.0991L67.4216 52.3622L70.1874 49.4101C70.6152 48.9531 70.9068 48.5922 71.0622 48.3273C71.2177 48.0552 71.2961 47.7834 71.2976 47.5121C71.2999 47.0868 71.1587 46.7612 70.8739 46.5355C70.5892 46.3024 70.1865 46.1872 69.6658 46.1901C68.9618 46.194 68.3044 46.4029 67.6935 46.8169L67.6987 45.8489C68.3093 45.4863 68.9813 45.3029 69.7146 45.2989C70.2353 45.296 70.6894 45.3815 71.0772 45.5554C71.4722 45.7219 71.7753 45.9622 71.9862 46.2764C72.1972 46.5905 72.3015 46.9566 72.2993 47.3746C72.2972 47.7632 72.1998 48.1561 72.007 48.5531C71.8215 48.9501 71.5444 49.3366 71.1757 49.7127L68.7976 52.1676L72.5046 52.1472ZM76.7791 53.1797C75.8258 53.185 75.1237 52.8295 74.6729 52.1133C74.2295 51.3898 74.011 50.4304 74.0175 49.2351C74.0239 48.0397 74.2527 47.0815 74.7039 46.3604C75.1625 45.6319 75.8685 45.2651 76.8218 45.2598C77.7751 45.2546 78.4735 45.6137 78.9169 46.3373C79.3677 47.0534 79.5898 48.0092 79.5834 49.2045C79.5769 50.3998 79.3444 51.3617 78.8859 52.0902C78.4347 52.8113 77.7324 53.1745 76.7791 53.1797ZM76.7838 52.2997C77.4438 52.2961 77.8999 52.0223 78.1522 51.4783C78.4045 50.9269 78.5332 50.1709 78.5384 49.2102C78.5436 48.2496 78.423 47.4986 78.1766 46.9573C77.9302 46.4087 77.477 46.1362 76.817 46.1398C76.157 46.1434 75.7009 46.4209 75.4486 46.9723C75.1964 47.5163 75.0676 48.2687 75.0625 49.2293C75.0573 50.19 75.1779 50.9446 75.4242 51.4932C75.6706 52.0345 76.1238 52.3034 76.7838 52.2997ZM86.1469 52.0723L86.1419 52.9963L81.06 53.0242L81.064 52.2872L83.8298 49.3352C84.2576 48.8782 84.5492 48.5172 84.7046 48.2524C84.86 47.9802 84.9385 47.7085 84.94 47.4371C84.9423 47.0118 84.801 46.6863 84.5163 46.4605C84.2315 46.2274 83.8288 46.1123 83.3082 46.1152C82.6042 46.119 81.9467 46.328 81.3359 46.742L81.3411 45.774C81.9517 45.4113 82.6236 45.228 83.357 45.2239C83.8776 45.2211 84.3318 45.3066 84.7195 45.4804C85.1146 45.6469 85.4176 45.8873 85.6286 46.2014C85.8396 46.5156 85.9439 46.8817 85.9417 47.2996C85.9396 47.6883 85.8421 48.0812 85.6493 48.4782C85.4639 48.8752 85.1868 49.2617 84.8181 49.6377L82.44 52.0927L86.1469 52.0723ZM91.5547 48.9737C92.0011 49.1473 92.348 49.402 92.5955 49.738C92.8504 50.0666 92.9767 50.4509 92.9743 50.8909C92.972 51.3162 92.8489 51.6982 92.6051 52.0368C92.3613 52.3682 92.0189 52.6304 91.5779 52.8234C91.1443 53.0092 90.6488 53.1035 90.0915 53.1066C89.6955 53.1088 89.3181 53.0595 88.9593 52.9588C88.6079 52.8581 88.2494 52.7024 87.8839 52.4917L87.8893 51.4798L87.9333 51.4795C88.3059 51.7341 88.6642 51.9228 89.0082 52.0456C89.3596 52.161 89.7186 52.2177 90.0853 52.2157C90.6426 52.2126 91.0943 52.0818 91.4403 51.8232C91.7864 51.5647 91.9605 51.2301 91.9627 50.8194C91.965 50.3868 91.7726 50.0468 91.3852 49.7996C91.0053 49.5451 90.489 49.4196 89.8363 49.4232L89.3523 49.4258L89.357 48.5568L89.841 48.5542C90.4717 48.5507 90.9599 48.4417 91.3057 48.2271C91.6516 48.0053 91.8255 47.7 91.8276 47.3113C91.8297 46.93 91.6773 46.6302 91.3705 46.4119C91.071 46.1935 90.661 46.0858 90.1403 46.0886C89.825 46.0904 89.513 46.1397 89.2045 46.2368C88.9034 46.3264 88.5653 46.4786 88.1901 46.6933L88.1461 46.6936L88.1513 45.7366C88.8059 45.3737 89.4925 45.1902 90.2112 45.1863C90.7318 45.1834 91.1897 45.2652 91.5848 45.4317C91.9799 45.5909 92.283 45.8202 92.494 46.1197C92.7124 46.4192 92.8205 46.7669 92.8184 47.1629C92.8162 47.5662 92.7006 47.9262 92.4716 48.2427C92.2499 48.5593 91.9442 48.8029 91.5547 48.9737Z" fill="#0066FF"/>
    <path d="M20.2157 1.26375L22.2908 3.62824C17.34 4.92738 10.4249 5.56534 4.54397 5.78963C4.47585 5.07004 4.1222 3.89603 3.86156 3.27349C9.64677 3.00173 16.274 2.34135 20.2157 1.26375ZM4.05117 8.16823L23.0349 8.06396L23.02 10.8239L4.03629 10.9282L4.05117 8.16823ZM2.36505 13.7692L24.4207 13.6481L24.4056 16.4561L2.34992 16.5772L2.36505 13.7692ZM11.9655 4.69291L14.9655 4.67644L14.8805 20.4442C14.8713 22.1482 14.4352 22.9185 13.2809 23.3569C12.1264 23.8192 10.3741 23.9008 7.92625 23.8903C7.73865 23.0753 7.19364 21.7824 6.76566 21.0408C8.54124 21.103 10.5573 21.0679 11.1093 21.0649C11.6613 21.0619 11.8782 20.8927 11.8808 20.4127L11.9655 4.69291ZM39.7331 9.00419C41.682 12.5213 45.429 16.3886 48.8254 18.5058C48.0782 19.1099 47.0399 20.2916 46.4835 21.1106C43.0894 18.5613 39.5611 14.1889 37.3521 9.95323L39.7331 9.00419ZM35.5327 9.09926L38.1197 10.021C35.8383 14.7373 32.1676 18.9813 28.0507 21.4038C27.5269 20.6387 26.5492 19.4682 25.8565 18.872C29.851 16.8821 33.6158 12.9976 35.5327 9.09926ZM26.8795 7.17888L47.8792 7.06353L47.8639 9.89549L26.8642 10.0108L26.8795 7.17888ZM35.911 1.24953L39.103 1.232L38.9815 23.7677L35.7896 23.7852L35.911 1.24953ZM39.9565 3.17122L42.1019 1.40752C43.3926 2.38438 45.2568 3.81408 46.1636 4.76906L43.9209 6.77329C43.0862 5.79392 41.2947 4.24382 39.9565 3.17122ZM60.8731 5.12024L71.8889 5.05973L71.8744 7.74769L60.8586 7.8082L60.8731 5.12024ZM54.2909 19.6758L68.1867 19.5994L68.1721 22.3114L54.2763 22.3877L54.2909 19.6758ZM59.6467 1.11915L62.6466 1.10267L62.5812 13.2465L59.5812 13.263L59.6467 1.11915ZM52.5802 12.0295L70.1239 11.9331L70.0621 23.405L67.0861 23.4213L67.1335 14.6374L55.3977 14.7019L55.3497 23.6058L52.5177 23.6213L52.5802 12.0295ZM78.9521 8.1168L85 8.08358L84.9847 10.9155L78.9368 10.9488L78.9521 8.1168ZM77.2611 1.26239L80.2371 1.24604L80.132 20.7338L77.1523 21.4461L77.2611 1.26239ZM74.1119 20.0709C76.9704 19.5752 81.271 18.6876 85.2116 17.802L85.4843 20.6324C81.8319 21.4924 77.8914 22.354 74.9118 23.0423L74.1119 20.0709ZM94.346 6.16032L96.3485 8.64521C93.8935 9.95464 90.863 11.1952 88.2178 12.1697C88.0535 11.4987 87.6029 10.4932 87.2463 9.87116C89.7714 8.89733 92.5154 7.39432 94.346 6.16032ZM86.429 1.21203L89.4049 1.19568L89.3104 18.7394C89.3029 20.1314 89.4218 20.3227 90.3338 20.3177C90.7418 20.3155 92.4938 20.3059 92.9498 20.3034C93.8618 20.2984 94.0103 19.4576 94.172 16.1688C94.8652 16.693 96.0623 17.2144 96.8772 17.4019C96.5431 21.5076 95.7907 23.0716 93.1988 23.0859C92.6228 23.089 90.4388 23.101 89.8868 23.1041C87.0789 23.1195 86.3162 22.1397 86.3345 18.7318L86.429 1.21203Z" fill="#171725"/>
</svg>
