<svg width="322" height="312" viewBox="0 0 322 312" fill="none" xmlns="http://www.w3.org/2000/svg">
    <rect width="318.476" height="309.557" rx="10" transform="matrix(0.999985 -0.0054928 -0.00539025 0.999985 2.64592 2.02353)" fill="white"/>
    <path d="M44.4137 251.925L301.151 250.515" stroke="#E4E4E4" stroke-opacity="0.2" stroke-linecap="square"/>
    <path d="M44.6129 214.979L301.35 213.569" stroke="#E4E4E4" stroke-opacity="0.2" stroke-linecap="square"/>
    <path d="M44.812 178.032L301.549 176.622" stroke="#E4E4E4" stroke-opacity="0.2" stroke-linecap="square"/>
    <path d="M45.0112 141.086L301.748 139.675" stroke="#E4E4E4" stroke-opacity="0.2" stroke-linecap="square"/>
    <path d="M45.2103 104.139L301.947 102.729" stroke="#E4E4E4" stroke-opacity="0.2" stroke-linecap="square"/>
    <path d="M241 268.102L241.613 268.769C239.619 269.363 236.361 269.678 233.688 269.803C233.667 269.594 233.57 269.265 233.494 269.078C236.112 268.943 239.326 268.628 241 268.102ZM233.493 271.245L242.073 271.198L242.068 271.99L233.489 272.037L233.493 271.245ZM232.742 273.834L242.675 273.779L242.67 274.582L232.738 274.637L232.742 273.834ZM237.309 269.288L238.167 269.283L238.125 277.071C238.122 277.654 237.945 277.908 237.526 278.042C237.107 278.177 236.392 278.203 235.226 278.198C235.173 277.967 235.021 277.594 234.89 277.375C235.803 277.403 236.683 277.387 236.925 277.375C237.178 277.373 237.266 277.296 237.267 277.065L237.309 269.288ZM249.354 271.345C250.334 273.11 252.193 275.08 253.761 276.061C253.551 276.228 253.252 276.548 253.097 276.78C251.541 275.667 249.727 273.565 248.659 271.624L249.354 271.345ZM248.199 271.362L248.934 271.633C247.877 273.817 246.04 275.851 244.198 276.917C244.045 276.698 243.772 276.38 243.575 276.216C245.395 275.271 247.242 273.314 248.199 271.362ZM243.944 270.858L253.415 270.806L253.411 271.62L243.94 271.672L243.944 270.858ZM248.293 268.062L249.195 268.057L249.141 278.166L248.239 278.171L248.293 268.062ZM249.896 268.735L250.503 268.226C251.172 268.684 252.048 269.35 252.486 269.788L251.867 270.374C251.44 269.925 250.575 269.226 249.896 268.735ZM257.795 272.42C258.25 272.418 258.656 272.522 259.015 272.733C259.373 272.943 259.65 273.239 259.846 273.619C260.049 273.992 260.15 274.409 260.147 274.871C260.144 275.363 260.028 275.796 259.799 276.171C259.57 276.539 259.246 276.827 258.826 277.035C258.407 277.242 257.923 277.347 257.373 277.35C256.948 277.353 256.534 277.296 256.131 277.181C255.728 277.059 255.37 276.885 255.056 276.659L255.061 275.614L255.105 275.614C255.405 275.869 255.759 276.076 256.169 276.235C256.586 276.394 256.985 276.473 257.367 276.471C257.887 276.468 258.313 276.319 258.645 276.024C258.977 275.721 259.144 275.328 259.146 274.844C259.149 274.389 259.004 274.02 258.712 273.735C258.428 273.444 258.055 273.299 257.593 273.301C257.057 273.304 256.55 273.502 256.072 273.893L256.028 273.893L255.314 273.6L255.314 273.545L255.82 269.582L259.813 269.56L259.808 270.462L256.585 270.48L256.286 272.836C256.786 272.562 257.289 272.423 257.795 272.42Z" fill="#999999"/>
    <path d="M194.638 268.357L195.25 269.024C193.256 269.618 189.998 269.933 187.325 270.058C187.304 269.849 187.207 269.519 187.131 269.333C189.749 269.197 192.963 268.883 194.638 268.357ZM187.13 271.5L195.71 271.452L195.706 272.244L187.126 272.292L187.13 271.5ZM186.379 274.089L196.312 274.034L196.308 274.837L186.375 274.892L186.379 274.089ZM190.946 269.543L191.804 269.538L191.762 277.326C191.759 277.909 191.582 278.163 191.163 278.297C190.744 278.431 190.029 278.457 188.863 278.453C188.81 278.222 188.658 277.849 188.527 277.63C189.44 277.658 190.32 277.642 190.562 277.629C190.815 277.628 190.903 277.551 190.904 277.32L190.946 269.543ZM202.991 271.599C203.971 273.365 205.831 275.335 207.398 276.316C207.188 276.482 206.89 276.803 206.734 277.035C205.178 275.921 203.364 273.819 202.296 271.878L202.991 271.599ZM201.836 271.617L202.571 271.888C201.515 274.071 199.678 276.105 197.835 277.172C197.682 276.952 197.409 276.635 197.212 276.471C199.032 275.526 200.879 273.569 201.836 271.617ZM197.582 271.112L207.052 271.06L207.048 271.874L197.577 271.926L197.582 271.112ZM201.931 268.316L202.832 268.311L202.778 278.42L201.876 278.425L201.931 268.316ZM203.533 268.99L204.141 268.48C204.809 268.939 205.685 269.605 206.123 270.042L205.504 270.629C205.077 270.18 204.212 269.481 203.533 268.99ZM214.265 275.673L213.055 275.68L213.046 277.473L212.078 277.478L212.087 275.685L208.457 275.705L208.461 274.968L208.527 274.957L208.462 274.935L212.119 269.822L213.087 269.817L213.06 274.8L214.27 274.793L214.265 275.673ZM212.092 274.805L212.112 271.131L209.551 274.819L212.092 274.805Z" fill="#999999"/>
    <path d="M149.285 268.606L149.897 269.273C147.903 269.867 144.646 270.182 141.972 270.307C141.951 270.098 141.854 269.768 141.778 269.582C144.397 269.446 147.61 269.132 149.285 268.606ZM141.777 271.749L150.357 271.702L150.353 272.494L141.773 272.541L141.777 271.749ZM141.026 274.338L150.959 274.283L150.955 275.086L141.022 275.141L141.026 274.338ZM145.594 269.792L146.452 269.787L146.41 277.575C146.407 278.158 146.229 278.412 145.81 278.546C145.392 278.681 144.677 278.706 143.511 278.702C143.457 278.471 143.305 278.098 143.174 277.879C144.087 277.907 144.967 277.891 145.209 277.879C145.462 277.877 145.551 277.8 145.552 277.569L145.594 269.792ZM157.638 271.849C158.618 273.614 160.478 275.584 162.045 276.565C161.836 276.731 161.537 277.052 161.382 277.284C159.826 276.17 158.011 274.068 156.944 272.127L157.638 271.849ZM156.483 271.866L157.219 272.137C156.162 274.321 154.325 276.355 152.482 277.421C152.329 277.201 152.056 276.884 151.859 276.72C153.679 275.775 155.527 273.818 156.483 271.866ZM152.229 271.361L161.7 271.309L161.695 272.123L152.225 272.175L152.229 271.361ZM156.578 268.566L157.48 268.561L157.425 278.669L156.523 278.674L156.578 268.566ZM158.18 269.239L158.788 268.729C159.456 269.188 160.333 269.854 160.77 270.291L160.151 270.878C159.725 270.429 158.859 269.73 158.18 269.239ZM167.01 273.733C167.457 273.907 167.804 274.161 168.051 274.497C168.306 274.826 168.432 275.21 168.43 275.65C168.428 276.075 168.305 276.457 168.061 276.796C167.817 277.127 167.475 277.39 167.034 277.583C166.6 277.768 166.105 277.863 165.547 277.866C165.151 277.868 164.774 277.819 164.415 277.718C164.064 277.617 163.705 277.462 163.34 277.251L163.345 276.239L163.389 276.239C163.762 276.493 164.12 276.682 164.464 276.805C164.815 276.92 165.174 276.977 165.541 276.975C166.098 276.972 166.55 276.841 166.896 276.582C167.242 276.324 167.416 275.989 167.419 275.579C167.421 275.146 167.228 274.806 166.841 274.559C166.461 274.304 165.945 274.179 165.292 274.182L164.808 274.185L164.813 273.316L165.297 273.313C165.927 273.31 166.416 273.201 166.762 272.986C167.107 272.765 167.281 272.459 167.283 272.071C167.285 271.689 167.133 271.389 166.826 271.171C166.527 270.953 166.117 270.845 165.596 270.848C165.281 270.85 164.969 270.899 164.66 270.996C164.359 271.086 164.021 271.238 163.646 271.453L163.602 271.453L163.607 270.496C164.262 270.133 164.948 269.949 165.667 269.946C166.188 269.943 166.645 270.024 167.041 270.191C167.436 270.35 167.739 270.579 167.95 270.879C168.168 271.178 168.276 271.526 168.274 271.922C168.272 272.325 168.156 272.685 167.927 273.002C167.706 273.319 167.4 273.562 167.01 273.733Z" fill="#999999"/>
    <path d="M96.9173 269.739L97.5297 270.406C95.5356 271 92.278 271.315 89.6045 271.44C89.5836 271.231 89.4864 270.901 89.4104 270.715C92.029 270.579 95.2426 270.265 96.9173 269.739ZM89.4097 272.882L97.9896 272.835L97.9853 273.627L89.4054 273.674L89.4097 272.882ZM88.6588 275.471L98.5916 275.416L98.5873 276.219L88.6545 276.274L88.6588 275.471ZM93.2261 270.925L94.0841 270.92L94.0421 278.708C94.039 279.291 93.8616 279.545 93.4429 279.679C93.0242 279.814 92.3091 279.84 91.1432 279.835C91.0894 279.604 90.9374 279.231 90.8066 279.012C91.7194 279.04 92.5995 279.024 92.8415 279.012C93.0945 279.01 93.1829 278.933 93.1842 278.702L93.2261 270.925ZM105.27 272.982C106.251 274.747 108.11 276.717 109.678 277.698C109.468 277.864 109.169 278.185 109.014 278.417C107.458 277.303 105.643 275.201 104.576 273.26L105.27 272.982ZM104.115 272.999L104.851 273.27C103.794 275.454 101.957 277.488 100.115 278.554C99.9618 278.335 99.6886 278.017 99.4915 277.853C101.311 276.908 103.159 274.951 104.115 272.999ZM99.8613 272.494L109.332 272.442L109.328 273.256L99.8569 273.308L99.8613 272.494ZM104.21 269.699L105.112 269.694L105.058 279.802L104.156 279.807L104.21 269.699ZM105.813 270.372L106.42 269.862C107.089 270.321 107.965 270.987 108.403 271.424L107.784 272.011C107.357 271.562 106.492 270.863 105.813 270.372ZM116.056 277.927L116.051 278.851L110.969 278.879L110.973 278.142L113.739 275.19C114.167 274.733 114.459 274.372 114.614 274.107C114.769 273.835 114.848 273.563 114.849 273.292C114.852 272.867 114.71 272.541 114.426 272.315C114.141 272.082 113.738 271.967 113.218 271.97C112.514 271.974 111.856 272.183 111.245 272.597L111.25 271.629C111.861 271.266 112.533 271.083 113.266 271.079C113.787 271.076 114.241 271.161 114.629 271.335C115.024 271.502 115.327 271.742 115.538 272.056C115.749 272.37 115.853 272.736 115.851 273.154C115.849 273.543 115.752 273.936 115.559 274.333C115.373 274.73 115.096 275.117 114.728 275.493L112.349 277.948L116.056 277.927Z" fill="#999999"/>
    <path d="M289.833 267.834L290.446 268.501C288.451 269.095 285.194 269.41 282.52 269.535C282.499 269.326 282.402 268.996 282.326 268.81C284.945 268.674 288.158 268.36 289.833 267.834ZM282.326 270.977L290.905 270.93L290.901 271.722L282.321 271.769L282.326 270.977ZM281.575 273.566L291.507 273.511L291.503 274.314L281.57 274.369L281.575 273.566ZM286.142 269.02L287 269.015L286.958 276.803C286.955 277.386 286.777 277.64 286.359 277.774C285.94 277.909 285.225 277.934 284.059 277.93C284.005 277.699 283.853 277.326 283.722 277.107C284.635 277.135 285.515 277.119 285.757 277.107C286.01 277.105 286.099 277.028 286.1 276.797L286.142 269.02ZM298.186 271.077C299.167 272.842 301.026 274.812 302.594 275.793C302.384 275.959 302.085 276.28 301.93 276.512C300.374 275.398 298.559 273.296 297.492 271.355L298.186 271.077ZM297.031 271.094L297.767 271.365C296.71 273.549 294.873 275.583 293.031 276.649C292.878 276.43 292.604 276.112 292.407 275.948C294.227 275.003 296.075 273.046 297.031 271.094ZM292.777 270.589L302.248 270.537L302.244 271.351L292.773 271.403L292.777 270.589ZM297.126 267.794L298.028 267.789L297.974 277.897L297.072 277.902L297.126 267.794ZM298.728 268.467L299.336 267.957C300.005 268.416 300.881 269.082 301.319 269.519L300.699 270.106C300.273 269.657 299.408 268.958 298.728 268.467ZM306.683 272.24C307.189 272.237 307.632 272.334 308.012 272.53C308.4 272.718 308.699 272.988 308.91 273.339C309.12 273.689 309.225 274.096 309.222 274.558C309.219 275.049 309.1 275.486 308.863 275.869C308.634 276.251 308.313 276.55 307.901 276.765C307.489 276.98 307.023 277.089 306.503 277.092C305.593 277.097 304.891 276.77 304.396 276.113C303.901 275.456 303.656 274.533 303.663 273.345C303.667 272.487 303.8 271.746 304.06 271.121C304.32 270.497 304.693 270.018 305.178 269.685C305.664 269.345 306.234 269.173 306.886 269.17C307.238 269.168 307.583 269.214 307.919 269.307C308.264 269.401 308.585 269.535 308.885 269.709L308.88 270.677L308.836 270.677C308.536 270.466 308.226 270.306 307.904 270.198C307.582 270.09 307.263 270.037 306.948 270.038C306.28 270.042 305.755 270.298 305.37 270.806C304.986 271.314 304.77 272.038 304.721 272.977C305.023 272.726 305.328 272.541 305.637 272.422C305.953 272.303 306.301 272.242 306.683 272.24ZM306.485 276.223C306.801 276.221 307.087 276.15 307.344 276.009C307.609 275.868 307.815 275.673 307.963 275.423C308.111 275.173 308.186 274.893 308.188 274.585C308.19 274.138 308.042 273.783 307.743 273.521C307.451 273.251 307.063 273.118 306.579 273.12C305.978 273.124 305.357 273.351 304.716 273.802C304.763 274.593 304.936 275.197 305.235 275.614C305.533 276.023 305.95 276.226 306.485 276.223Z" fill="#999999"/>
    <path d="M50.3435 269.492L50.9558 270.16C48.9617 270.754 45.7042 271.069 43.0306 271.194C43.0097 270.985 42.9125 270.655 42.8365 270.469C45.4551 270.333 48.6687 270.019 50.3435 269.492ZM42.8358 272.636L51.4157 272.588L51.4114 273.38L42.8316 273.427L42.8358 272.636ZM42.0849 275.225L52.0178 275.17L52.0134 275.973L42.0806 276.028L42.0849 275.225ZM46.6522 270.679L47.5102 270.674L47.4682 278.462C47.4651 279.045 47.2877 279.299 46.869 279.433C46.4503 279.567 45.7352 279.593 44.5693 279.589C44.5155 279.358 44.3636 278.985 44.2327 278.766C45.1455 278.794 46.0256 278.778 46.2676 278.765C46.5206 278.764 46.6091 278.687 46.6103 278.456L46.6522 270.679ZM58.6966 272.735C59.677 274.501 61.5363 276.471 63.104 277.452C62.8941 277.618 62.5954 277.939 62.4401 278.171C60.8842 277.057 59.0696 274.955 58.0021 273.014L58.6966 272.735ZM57.5416 272.753L58.2771 273.024C57.2203 275.207 55.3835 277.241 53.5408 278.307C53.388 278.088 53.1147 277.771 52.9176 277.607C54.7376 276.662 56.5851 274.705 57.5416 272.753ZM53.2875 272.248L62.7583 272.196L62.7539 273.01L53.2831 273.062L53.2875 272.248ZM57.6363 269.452L58.5383 269.447L58.4838 279.556L57.5819 279.561L57.6363 269.452ZM59.2386 270.126L59.8464 269.616C60.5149 270.075 61.3912 270.741 61.8289 271.178L61.2097 271.765C60.7832 271.316 59.918 270.617 59.2386 270.126ZM69.4824 277.692L69.4775 278.605L64.3956 278.633L64.4005 277.72L66.6664 277.707L66.6961 272.207L65.1518 273.008L65.1078 273.008L64.9132 272.382L64.9135 272.338L66.9448 270.963L67.6708 270.959L67.6344 277.702L69.4824 277.692Z" fill="#999999"/>
    <path d="M34.1342 253.625C33.1809 253.63 32.4789 253.274 32.0281 252.558C31.5847 251.835 31.3662 250.875 31.3726 249.68C31.3791 248.485 31.6079 247.526 32.0591 246.805C32.5177 246.077 33.2236 245.71 34.1769 245.705C35.1302 245.699 35.8286 246.059 36.272 246.782C36.7228 247.498 36.945 248.454 36.9385 249.649C36.9321 250.845 36.6996 251.807 36.241 252.535C35.7898 253.256 35.0876 253.619 34.1342 253.625ZM34.139 252.745C34.799 252.741 35.2551 252.467 35.5073 251.923C35.7596 251.372 35.8884 250.616 35.8936 249.655C35.8987 248.694 35.7781 247.943 35.5317 247.402C35.2853 246.853 34.8322 246.581 34.1722 246.585C33.5122 246.588 33.056 246.866 32.8038 247.417C32.5515 247.961 32.4228 248.713 32.4176 249.674C32.4124 250.635 32.533 251.389 32.7794 251.938C33.0258 252.479 33.479 252.748 34.139 252.745Z" fill="#999999"/>
    <path d="M23.2377 215.683L23.2327 216.607L18.1508 216.635L18.1547 215.898L20.9205 212.946C21.3483 212.489 21.6399 212.128 21.7953 211.863C21.9508 211.591 22.0293 211.319 22.0307 211.048C22.033 210.622 21.8918 210.297 21.607 210.071C21.3223 209.838 20.9196 209.723 20.3989 209.726C19.6949 209.73 19.0375 209.939 18.4266 210.353L18.4318 209.385C19.0424 209.022 19.7144 208.839 20.4477 208.835C20.9684 208.832 21.4226 208.917 21.8103 209.091C22.2054 209.257 22.5084 209.498 22.7194 209.812C22.9303 210.126 23.0347 210.492 23.0324 210.91C23.0303 211.299 22.9329 211.692 22.7401 212.089C22.5546 212.486 22.2775 212.872 21.9089 213.248L19.5307 215.703L23.2377 215.683ZM27.5122 216.715C26.5589 216.721 25.8568 216.365 25.4061 215.649C24.9626 214.925 24.7442 213.966 24.7506 212.771C24.757 211.575 24.9859 210.617 25.4371 209.896C25.8956 209.168 26.6016 208.801 27.5549 208.795C28.5082 208.79 29.2066 209.149 29.65 209.873C30.1008 210.589 30.323 211.545 30.3165 212.74C30.3101 213.935 30.0776 214.897 29.619 215.626C29.1678 216.347 28.4655 216.71 27.5122 216.715ZM27.517 215.835C28.1769 215.832 28.6331 215.558 28.8853 215.014C29.1376 214.463 29.2664 213.707 29.2715 212.746C29.2767 211.785 29.1561 211.034 28.9097 210.493C28.6633 209.944 28.2101 209.672 27.5502 209.675C26.8902 209.679 26.434 209.957 26.1817 210.508C25.9295 211.052 25.8008 211.804 25.7956 212.765C25.7904 213.726 25.911 214.48 26.1574 215.029C26.4038 215.57 26.857 215.839 27.517 215.835ZM34.3334 216.678C33.3801 216.683 32.678 216.328 32.2272 215.611C31.7838 214.888 31.5653 213.929 31.5718 212.733C31.5782 211.538 31.8071 210.58 32.2583 209.859C32.7168 209.13 33.4228 208.763 34.3761 208.758C35.3294 208.753 36.0278 209.112 36.4712 209.835C36.922 210.552 37.1441 211.507 37.1377 212.703C37.1313 213.898 36.8988 214.86 36.4402 215.588C35.989 216.309 35.2867 216.673 34.3334 216.678ZM34.3381 215.798C34.9981 215.794 35.4543 215.52 35.7065 214.976C35.9588 214.425 36.0875 213.669 36.0927 212.708C36.0979 211.748 35.9773 210.997 35.7309 210.455C35.4845 209.907 35.0313 209.634 34.3713 209.638C33.7114 209.642 33.2552 209.919 33.0029 210.47C32.7507 211.014 32.6219 211.767 32.6168 212.727C32.6116 213.688 32.7322 214.443 32.9785 214.991C33.225 215.533 33.6782 215.802 34.3381 215.798Z" fill="#999999"/>
    <path d="M23.9255 177.865L22.7155 177.871L22.7059 179.664L21.7379 179.67L21.7475 177.877L18.1176 177.896L18.1216 177.16L18.1876 177.148L18.1218 177.127L21.7792 172.014L22.7471 172.008L22.7203 176.991L23.9303 176.985L23.9255 177.865ZM21.7523 176.997L21.7721 173.323L19.2113 177.011L21.7523 176.997ZM27.7114 179.769C26.7581 179.774 26.056 179.418 25.6052 178.702C25.1618 177.979 24.9433 177.019 24.9498 175.824C24.9562 174.629 25.185 173.671 25.6362 172.949C26.0948 172.221 26.8007 171.854 27.7541 171.849C28.7074 171.844 29.4057 172.203 29.8492 172.926C30.2999 173.642 30.5221 174.598 30.5157 175.793C30.5092 176.989 30.2767 177.951 29.8181 178.679C29.3669 179.4 28.6647 179.763 27.7114 179.769ZM27.7161 178.889C28.3761 178.885 28.8322 178.611 29.0845 178.067C29.3368 177.516 29.4655 176.76 29.4707 175.799C29.4759 174.839 29.3553 174.088 29.1088 173.546C28.8625 172.998 28.4093 172.725 27.7493 172.729C27.0893 172.732 26.6332 173.01 26.3809 173.561C26.1286 174.105 25.9999 174.858 25.9947 175.818C25.9896 176.779 26.1102 177.534 26.3565 178.082C26.6029 178.624 27.0561 178.892 27.7161 178.889ZM34.5326 179.731C33.5792 179.736 32.8772 179.381 32.4264 178.665C31.983 177.941 31.7645 176.982 31.7709 175.787C31.7774 174.591 32.0062 173.633 32.4574 172.912C32.916 172.183 33.6219 171.817 34.5752 171.811C35.5286 171.806 36.2269 172.165 36.6703 172.889C37.1211 173.605 37.3433 174.561 37.3369 175.756C37.3304 176.951 37.0979 177.913 36.6393 178.642C36.1881 179.363 35.4859 179.726 34.5326 179.731ZM34.5373 178.851C35.1973 178.848 35.6534 178.574 35.9057 178.03C36.158 177.478 36.2867 176.722 36.2919 175.762C36.2971 174.801 36.1764 174.05 35.93 173.509C35.6837 172.96 35.2305 172.688 34.5705 172.691C33.9105 172.695 33.4544 172.972 33.2021 173.524C32.9498 174.068 32.8211 174.82 32.8159 175.781C32.8107 176.742 32.9313 177.496 33.1777 178.045C33.4241 178.586 33.8773 178.855 34.5373 178.851Z" fill="#999999"/>
    <path d="M21.3465 138.007C21.8525 138.005 22.2956 138.101 22.6759 138.297C23.0635 138.486 23.3627 138.755 23.5735 139.106C23.7842 139.457 23.8884 139.863 23.8859 140.325C23.8832 140.817 23.7635 141.254 23.5268 141.636C23.2974 142.019 22.9768 142.318 22.565 142.532C22.1532 142.747 21.687 142.856 21.1663 142.859C20.257 142.864 19.5548 142.538 19.0597 141.881C18.5646 141.223 18.3202 140.301 18.3267 139.113C18.3313 138.255 18.4636 137.514 18.7236 136.889C18.9836 136.264 19.3565 135.785 19.8423 135.453C20.3281 135.113 20.8974 134.941 21.55 134.937C21.902 134.935 22.2464 134.981 22.5832 135.075C22.9274 135.168 23.2493 135.302 23.549 135.476L23.5438 136.444L23.4998 136.445C23.2003 136.234 22.8895 136.074 22.5674 135.966C22.2454 135.858 21.9267 135.804 21.6113 135.806C20.944 135.81 20.4183 136.066 20.0343 136.574C19.6502 137.082 19.4337 137.805 19.3846 138.744C19.6866 138.493 19.9919 138.308 20.3005 138.189C20.6165 138.07 20.9651 138.009 21.3465 138.007ZM21.149 141.99C21.4643 141.989 21.7507 141.917 22.0081 141.777C22.2729 141.636 22.4793 141.44 22.6273 141.19C22.7753 140.94 22.8501 140.661 22.8518 140.353C22.8542 139.906 22.7058 139.551 22.4065 139.288C22.1147 139.019 21.7267 138.885 21.2427 138.888C20.6414 138.891 20.0205 139.118 19.3801 139.569C19.4272 140.361 19.5999 140.965 19.8984 141.381C20.1968 141.79 20.6137 141.993 21.149 141.99ZM27.9105 142.822C26.9572 142.827 26.2551 142.472 25.8044 141.756C25.3609 141.032 25.1425 140.073 25.1489 138.877C25.1553 137.682 25.3842 136.724 25.8354 136.003C26.2939 135.274 26.9999 134.907 27.9532 134.902C28.9065 134.897 29.6049 135.256 30.0483 135.98C30.4991 136.696 30.7213 137.652 30.7148 138.847C30.7084 140.042 30.4759 141.004 30.0173 141.733C29.5661 142.454 28.8638 142.817 27.9105 142.822ZM27.9153 141.942C28.5753 141.938 29.0314 141.665 29.2836 141.121C29.5359 140.569 29.6647 139.813 29.6698 138.853C29.675 137.892 29.5544 137.141 29.308 136.6C29.0616 136.051 28.6085 135.779 27.9485 135.782C27.2885 135.786 26.8323 136.063 26.58 136.615C26.3278 137.159 26.1991 137.911 26.1939 138.872C26.1887 139.832 26.3093 140.587 26.5557 141.136C26.8021 141.677 27.2553 141.946 27.9153 141.942ZM34.7317 142.785C33.7784 142.79 33.0763 142.434 32.6255 141.718C32.1821 140.995 31.9636 140.035 31.9701 138.84C31.9765 137.645 32.2054 136.686 32.6566 135.965C33.1151 135.237 33.8211 134.87 34.7744 134.865C35.7277 134.859 36.4261 135.219 36.8695 135.942C37.3203 136.658 37.5425 137.614 37.536 138.809C37.5296 140.005 37.2971 140.967 36.8385 141.695C36.3873 142.416 35.685 142.779 34.7317 142.785ZM34.7364 141.905C35.3964 141.901 35.8526 141.627 36.1048 141.083C36.3571 140.532 36.4858 139.776 36.491 138.815C36.4962 137.854 36.3756 137.103 36.1292 136.562C35.8828 136.014 35.4296 135.741 34.7697 135.745C34.1097 135.748 33.6535 136.026 33.4012 136.577C33.149 137.121 33.0203 137.874 33.0151 138.834C33.0099 139.795 33.1305 140.55 33.3769 141.098C33.6233 141.639 34.0765 141.908 34.7364 141.905Z" fill="#999999"/>
    <path d="M21.2995 105.913C20.7642 105.916 20.2843 105.823 19.86 105.635C19.4357 105.446 19.1035 105.184 18.8633 104.848C18.6305 104.505 18.5153 104.121 18.5176 103.695C18.5199 103.263 18.6393 102.881 18.8757 102.549C19.1122 102.218 19.4177 101.985 19.7924 101.851C19.4557 101.736 19.1856 101.517 18.982 101.196C18.7785 100.867 18.6778 100.501 18.6799 100.097C18.6822 99.6795 18.7978 99.3122 19.0269 98.9956C19.2559 98.6791 19.5689 98.4353 19.9658 98.2645C20.37 98.0863 20.8252 97.9958 21.3312 97.993C21.8372 97.9902 22.2877 98.0758 22.6827 98.2496C23.0851 98.416 23.3992 98.6563 23.6248 98.9704C23.8504 99.2845 23.9621 99.6505 23.9599 100.068C23.9577 100.464 23.8531 100.828 23.646 101.159C23.4463 101.483 23.1701 101.708 22.8174 101.835C23.22 101.972 23.5303 102.208 23.7485 102.545C23.9741 102.873 24.0857 103.247 24.0835 103.665C24.0811 104.097 23.9581 104.483 23.7143 104.822C23.4778 105.16 23.1464 105.426 22.72 105.619C22.301 105.812 21.8275 105.91 21.2995 105.913ZM21.3239 101.381C21.8446 101.378 22.2485 101.266 22.5357 101.044C22.8229 100.815 22.9676 100.499 22.9698 100.096C22.9719 99.6926 22.8306 99.3817 22.5458 99.1633C22.261 98.9449 21.8546 98.8371 21.3266 98.84C20.7986 98.8429 20.391 98.9551 20.1038 99.1767C19.8167 99.3983 19.672 99.7107 19.6698 100.114C19.6676 100.517 19.8089 100.832 20.0937 101.058C20.3858 101.276 20.7959 101.384 21.3239 101.381ZM21.2821 105.055C21.8541 105.052 22.2947 104.932 22.604 104.696C22.9133 104.452 23.0691 104.11 23.0715 103.67C23.0739 103.223 22.9218 102.879 22.6151 102.639C22.3084 102.398 21.8727 102.28 21.308 102.283C20.7434 102.286 20.3064 102.409 19.9971 102.653C19.6878 102.897 19.532 103.242 19.5295 103.69C19.5272 104.13 19.6757 104.47 19.975 104.71C20.2818 104.943 20.7174 105.058 21.2821 105.055ZM28.1097 105.875C27.1563 105.881 26.4543 105.525 26.0035 104.809C25.5601 104.086 25.3416 103.126 25.3481 101.931C25.3545 100.735 25.5833 99.7773 26.0345 99.0561C26.4931 98.3277 27.199 97.9608 28.1524 97.9556C29.1057 97.9503 29.804 98.3095 30.2475 99.033C30.6982 99.7492 30.9204 100.705 30.914 101.9C30.9075 103.096 30.675 104.057 30.2164 104.786C29.7652 105.507 29.063 105.87 28.1097 105.875ZM28.1144 104.995C28.7744 104.992 29.2305 104.718 29.4828 104.174C29.7351 103.623 29.8638 102.867 29.869 101.906C29.8742 100.945 29.7536 100.194 29.5071 99.653C29.2608 99.1044 28.8076 98.8319 28.1476 98.8355C27.4876 98.8392 27.0315 99.1167 26.7792 99.668C26.5269 100.212 26.3982 100.964 26.393 101.925C26.3879 102.886 26.5085 103.64 26.7548 104.189C27.0012 104.73 27.4544 104.999 28.1144 104.995ZM34.9309 105.838C33.9775 105.843 33.2755 105.488 32.8247 104.772C32.3813 104.048 32.1628 103.089 32.1692 101.893C32.1757 100.698 32.4045 99.7398 32.8557 99.0187C33.3143 98.2902 34.0202 97.9233 34.9735 97.9181C35.9269 97.9128 36.6252 98.272 37.0686 98.9955C37.5194 99.7117 37.7416 100.667 37.7352 101.863C37.7287 103.058 37.4962 104.02 37.0376 104.748C36.5864 105.47 35.8842 105.833 34.9309 105.838ZM34.9356 104.958C35.5956 104.954 36.0517 104.681 36.304 104.137C36.5563 103.585 36.685 102.829 36.6902 101.868C36.6953 100.908 36.5747 100.157 36.3283 99.6156C36.082 99.0669 35.6288 98.7944 34.9688 98.7981C34.3088 98.8017 33.8527 99.0792 33.6004 99.6306C33.3481 100.175 33.2194 100.927 33.2142 101.888C33.209 102.848 33.3296 103.603 33.576 104.151C33.8224 104.693 34.2756 104.962 34.9356 104.958Z" fill="#999999"/>
    <rect width="7.83942" height="7.98857" rx="3.91971" transform="matrix(0.999985 -0.0054928 -0.00539025 0.999985 101.304 59.6242)" fill="#F8A77A"/>
    <path d="M115.254 57.3853L116.183 56.5043C116.828 57.0287 117.7 57.8159 118.105 58.3296L117.128 59.331C116.746 58.7931 115.899 57.9578 115.254 57.3853ZM115.968 67.461L115.651 66.2028L115.905 65.7574L118.292 63.7404C118.41 64.1237 118.647 64.6624 118.825 64.9374C116.583 66.8336 116.185 67.1718 115.968 67.461ZM114.448 60.0657L116.62 60.0537L116.612 61.4337L114.44 61.4456L114.448 60.0657ZM120.033 56.7231L123.297 56.7052L123.29 58.0372L120.026 58.0551L120.033 56.7231ZM118.591 61.5548L124.063 61.5248L124.056 62.8688L118.584 62.8988L118.591 61.5548ZM123.631 61.5271L123.883 61.5258L124.136 61.4764L125.01 61.8436C124.007 65.2449 121.575 66.8302 118.391 67.5917C118.273 67.2323 117.988 66.6579 117.75 66.3472C120.608 65.8276 122.86 64.3753 123.63 61.7311L123.631 61.5271ZM120.158 62.6502C121.095 64.5289 123.044 65.8262 125.694 66.3156C125.392 66.6173 125.005 67.2074 124.823 67.5923C122.018 66.9478 120.119 65.4103 118.955 63.0648L120.158 62.6502ZM119.685 56.725L121.029 56.7177L121.022 58.0616C121.016 59.2736 120.624 60.6197 118.904 61.4211C118.738 61.146 118.225 60.5849 117.962 60.3703C119.477 59.726 119.674 58.849 119.678 58.033L119.685 56.725ZM122.637 56.7088L123.993 56.7014L123.979 59.3293C123.977 59.6773 124.001 59.8212 124.181 59.8202C124.301 59.8195 124.661 59.8176 124.805 59.8168C124.985 59.8158 125.285 59.7781 125.453 59.7292C125.475 60.0891 125.508 60.5929 125.555 60.9166C125.374 61.0016 125.086 61.0152 124.81 61.0167C124.63 61.0177 124.21 61.02 124.042 61.0209C122.854 61.0274 122.617 60.5248 122.623 59.3248L122.637 56.7088ZM115.968 67.461C115.862 67.1256 115.493 66.5156 115.254 66.253C115.519 66.0595 115.858 65.6257 115.861 65.0617L115.888 60.0578L117.28 60.0501L117.247 66.05C117.247 66.05 115.971 66.945 115.968 67.461ZM130.038 57.2441L135.078 57.2165L135.071 58.4644L130.031 58.4921L130.038 57.2441ZM134.598 57.2191L134.898 57.2174L135.126 57.1562L136.071 57.703C134.376 60.5322 130.673 61.8965 126.854 62.4454C126.736 62.0501 126.476 61.4275 126.238 61.1049C129.852 60.713 133.326 59.53 134.597 57.4111L134.598 57.2191ZM130.02 58.4322C131.524 59.8039 134.58 60.639 137.866 60.909C137.552 61.2347 137.165 61.8488 136.971 62.2458C133.673 61.88 130.667 60.8525 128.792 59.0869L130.02 58.4322ZM127.803 62.2362L136.107 62.1906L136.079 67.5065L134.495 67.5152L134.517 63.4353L129.297 63.4639L129.275 67.5559L127.775 67.5641L127.803 62.2362ZM128.489 64.1163L135.089 64.0801L135.083 65.1961L128.483 65.2323L128.489 64.1163ZM128.479 65.9883L135.079 65.9521L135.072 67.1881L128.472 67.2243L128.479 65.9883ZM131.221 62.7094L132.721 62.7012L132.699 66.6491L131.199 66.6574L131.221 62.7094ZM130.38 56.2223L131.914 56.5259C130.934 57.9472 129.632 59.1783 127.695 60.1609C127.492 59.814 127.051 59.3125 126.74 59.0862C128.52 58.3204 129.726 57.2339 130.38 56.2223Z" fill="#151522"/>
    <rect width="7.83941" height="7.98858" rx="3.91971" transform="matrix(0.999985 -0.0054928 -0.00539025 0.999985 18.0111 60.0817)" fill="#0066FF"/>
    <path d="M35.7575 57.09L37.4015 57.081C37.2826 59.0976 37.095 64.9544 32.1709 67.9933C31.9209 67.6227 31.4553 67.1812 30.9651 66.8479C35.8034 64.1455 35.665 58.6625 35.7575 57.09ZM37.3518 57.3933C37.3821 58.4371 37.6019 64.4236 42.5094 66.7005C42.0515 67.051 41.6169 67.5334 41.3988 67.9306C36.2407 65.391 36.0484 58.7804 35.959 57.5449L37.3518 57.3933ZM46.4057 58.4475L46.4008 59.3595L51.1167 59.3336L51.1216 58.4216L46.4057 58.4475ZM44.9003 57.2318L52.7362 57.1888L52.7181 60.5487L44.8822 60.5918L44.9003 57.2318ZM47.8679 63.2273L49.4278 63.2187L49.422 64.2987C49.4152 65.5707 48.6868 67.1226 44.3376 68.1304C44.1593 67.8194 43.7063 67.2579 43.3599 66.9599C47.4919 66.1932 47.8579 65.0752 47.8622 64.2712L47.8679 63.2273ZM49.1467 66.4001L49.8484 65.3283C51.1424 65.7052 53.1067 66.3663 54.1122 66.8288L53.3736 68.0568C52.4402 67.5819 50.5002 66.8486 49.1467 66.4001ZM44.362 61.3746L53.2659 61.3257L53.243 65.5736L51.671 65.5823L51.6868 62.6543L45.8549 62.6863L45.8382 65.7823L44.3382 65.7905L44.362 61.3746Z" fill="#151522"/>
    <path d="M26.9563 28.4224L25.3064 28.4315L25.2932 30.8764L23.9732 30.8837L23.9864 28.4387L19.0365 28.4659L19.0419 27.4609L19.132 27.4454L19.0421 27.4159L24.0295 20.4438L25.3495 20.4366L25.3128 27.2315L26.9628 27.2224L26.9563 28.4224ZM23.9929 27.2387L24.0199 22.2288L20.5279 27.2578L23.9929 27.2387ZM31.3285 19.0388L39.1584 18.9958L39.1525 20.0908L31.3226 20.1338L31.3285 19.0388ZM31.309 22.6537L39.1989 22.6104L39.1931 23.6904L31.3032 23.7337L31.309 22.6537ZM31.1694 26.2844L39.1043 26.2408L39.0985 27.3208L31.1636 27.3643L31.1694 26.2844ZM30.6385 19.0426L31.7785 19.0363L31.7535 23.6713C31.7395 26.2662 31.3454 29.8082 28.7533 32.0724C28.5896 31.8333 28.1418 31.4308 27.9027 31.2671C30.3291 29.1388 30.6005 26.0925 30.6135 23.6775L30.6385 19.0426ZM38.6634 18.9985L39.8334 18.9921L39.7722 30.3469C39.7679 31.1419 39.5558 31.5331 38.9847 31.7312C38.3987 31.9294 37.4086 31.9498 35.7886 31.9587C35.7154 31.6291 35.5083 31.0903 35.315 30.7764C36.5598 30.8145 37.7898 30.7928 38.1348 30.7909C38.4799 30.774 38.6005 30.6683 38.6023 30.3383L38.6634 18.9985ZM45.0572 23.7932L48.7922 23.7727L48.7865 24.8226L45.0516 24.8432L45.0572 23.7932ZM48.3422 23.7751L49.4372 23.7691C49.4372 23.7691 49.4354 24.0991 49.4346 24.2491C49.3413 27.6395 49.2445 28.9 48.9273 29.3217C48.6858 29.593 48.4453 29.6993 48.025 29.7466C47.6348 29.7938 46.9599 29.7825 46.225 29.7565C46.1968 29.4267 46.0792 28.9923 45.9157 28.7082C46.5904 28.7645 47.2504 28.7609 47.5054 28.7595C47.7154 28.7584 47.8654 28.7425 47.9712 28.607C48.1976 28.3357 48.2787 27.2103 48.3411 23.9701L48.3422 23.7751ZM52.5983 18.892L53.2771 18.1833C54.2045 18.6582 55.3856 19.3716 55.9678 19.8934L55.2587 20.6623C54.6915 20.1404 53.5406 19.3818 52.5983 18.892ZM54.7214 22.9451L55.8449 23.2089C54.5488 27.1309 52.2983 30.0381 49.2135 31.87C49.0497 31.6459 48.6322 31.1832 48.3935 30.9595C51.4472 29.3228 53.5769 26.5663 54.7214 22.9451ZM45.1638 20.7177L56.7736 20.654L56.7677 21.7639L45.1578 21.8277L45.1638 20.7177ZM44.4438 20.7217L45.6138 20.7153L45.591 24.9452C45.5795 27.0752 45.3232 30.1064 43.9476 32.0789C43.7538 31.855 43.276 31.4676 43.0067 31.3341C44.2616 29.4823 44.4105 26.9016 44.4211 24.9366L44.4438 20.7217ZM50.6823 18.1675L51.8523 18.1611C51.7851 25.0612 53.2248 30.678 55.1747 30.6673C55.5947 30.665 55.7939 29.8839 55.8947 27.8885C56.1483 28.1421 56.5669 28.3948 56.8664 28.4981C56.6425 31.0642 56.2186 31.8015 55.0786 31.8078C52.0186 31.8246 50.7036 25.3521 50.6823 18.1675ZM58.4803 21.2596L71.5751 21.1876L71.569 22.3276L58.4742 22.3995L58.4803 21.2596ZM61.4442 27.933L68.4341 27.8946L68.4279 29.0346L61.438 29.073L61.4442 27.933ZM64.4222 18.0771L65.6072 18.0705L65.5329 31.8553L64.3479 31.8619L64.4222 18.0771ZM64.0582 21.6039L65.0613 21.9434C63.7092 25.1307 61.3388 28.0086 58.7357 29.5378C58.5572 29.2538 58.1845 28.8358 57.9307 28.6122C60.4427 27.2935 62.8427 24.4904 64.0582 21.6039ZM65.9629 21.6384C67.1325 24.4819 69.4728 27.1989 72.061 28.4296C71.7748 28.6712 71.3823 29.1233 71.2006 29.4393C68.5536 27.9839 66.2591 25.1317 64.9561 21.989L65.9629 21.6384ZM75.3115 23.687L83.8913 23.6399L83.8854 24.7348L75.3056 24.782L75.3115 23.687ZM83.5163 23.6419L84.6863 23.6355C84.6863 23.6355 84.6692 24.0256 84.6534 24.1757C84.4183 28.8267 84.199 30.5679 83.6559 31.1408C83.3539 31.5175 83.0233 31.6243 82.4981 31.6722C82.0029 31.7199 81.058 31.7101 80.1132 31.6703C80.1001 31.3254 79.9526 30.8612 79.7444 30.5323C80.7339 30.6169 81.6638 30.6268 82.0238 30.6248C82.3238 30.6232 82.5039 30.5922 82.6548 30.4264C83.062 30.0191 83.2962 28.3079 83.5152 23.8519L83.5163 23.6419ZM77.3954 18.3058L78.5785 18.6443C77.4849 21.1852 75.7028 23.4299 73.8051 24.8802C73.5964 24.6414 73.1187 24.209 72.8349 24.0006C74.7618 22.7001 76.4379 20.6209 77.3954 18.3058ZM82.6305 18.247C83.5946 20.2516 85.5173 22.521 87.146 23.667C86.8448 23.9086 86.4223 24.3609 86.1956 24.6772C84.5379 23.3363 82.6611 20.9167 81.5481 18.688L82.6305 18.247ZM78.4748 23.9696L79.6748 23.963C79.3121 27.2499 78.5154 30.3591 74.3223 31.8821C74.1889 31.5978 73.8613 31.1496 73.6076 30.911C77.5446 29.5845 78.1595 26.8062 78.4748 23.9696ZM95.3541 23.0369L101.939 23.0008L101.933 24.0657L95.3483 24.1019L95.3541 23.0369ZM94.7902 19.1252L96.1979 19.5374C96.1823 19.6425 96.092 19.703 95.8969 19.7341L95.8773 23.364C95.8644 25.749 95.5909 29.1854 93.7177 31.6555C93.554 31.4164 93.1509 31.0587 92.8667 30.9102C94.5588 28.651 94.7552 25.6201 94.7674 23.3551L94.7902 19.1252ZM100.331 18.0448L101.286 18.9095C99.6925 19.5782 97.3797 20.1159 95.3979 20.4718C95.3394 20.2021 95.1616 19.7831 95.0278 19.5589C96.9198 19.1735 99.0978 18.6066 100.331 18.0448ZM98.5922 23.3641L99.7021 23.358L99.6574 31.6679L98.5474 31.674L98.5922 23.3641ZM88.2845 21.1558L93.7444 21.1259L93.7386 22.2058L88.2787 22.2358L88.2845 21.1558ZM90.6419 17.918L91.7219 17.9121L91.6476 31.6969L90.5676 31.7028L90.6419 17.918ZM90.5609 21.8033L91.2795 22.0543C90.7565 24.4721 89.6457 27.4181 88.4826 28.9244C88.3643 28.6251 88.0817 28.1766 87.8881 27.9227C88.9753 26.5668 90.0843 23.9658 90.5609 21.8033ZM91.587 23.4476C91.9748 23.8655 93.4349 25.6723 93.7626 26.1055L93.0677 27.0243C92.6817 26.2765 91.5059 24.588 91.0141 23.9907L91.587 23.4476Z" fill="#171725"/>
    <path fill-rule="evenodd" clip-rule="evenodd" d="M246 249.931L246.849 92.5147C246.859 90.6636 248.368 89.1547 250.219 89.1446C252.07 89.1344 253.562 90.6268 253.552 92.4779L252.704 249.894L246 249.931Z" fill="#0066FF"/>
    <path fill-rule="evenodd" clip-rule="evenodd" d="M235.221 249.99L235.795 143.5C235.805 141.649 237.314 140.14 239.165 140.13C241.016 140.12 242.509 141.612 242.499 143.464L241.925 249.953L235.221 249.99Z" fill="#F78F54"/>
    <path fill-rule="evenodd" clip-rule="evenodd" d="M198.492 250.192L199.228 113.745C199.238 111.894 200.746 110.385 202.597 110.375C204.449 110.365 205.941 111.857 205.931 113.709L205.196 250.155L198.492 250.192Z" fill="#0066FF"/>
    <path fill-rule="evenodd" clip-rule="evenodd" d="M187.713 250.251L188.126 173.718C188.136 171.867 189.644 170.358 191.495 170.348C193.347 170.338 194.839 171.83 194.829 173.681L194.417 250.214L187.713 250.251Z" fill="#F78F54"/>
    <path fill-rule="evenodd" clip-rule="evenodd" d="M150.984 250.453L151.612 133.978C151.622 132.126 153.13 130.618 154.982 130.607C156.833 130.597 158.325 132.09 158.315 133.941L157.687 250.416L150.984 250.453Z" fill="#0066FF"/>
    <path fill-rule="evenodd" clip-rule="evenodd" d="M140.205 250.512L140.671 163.993C140.681 162.142 142.19 160.633 144.041 160.623C145.892 160.613 147.385 162.106 147.375 163.957L146.908 250.475L140.205 250.512Z" fill="#F78F54"/>
    <path fill-rule="evenodd" clip-rule="evenodd" d="M103.476 250.714L104.265 104.282C104.275 102.431 105.784 100.922 107.635 100.912C109.486 100.901 110.978 102.394 110.968 104.245L110.179 250.677L103.476 250.714Z" fill="#0066FF"/>
    <path fill-rule="evenodd" clip-rule="evenodd" d="M92.6965 250.773L93.3782 124.312C93.3882 122.461 94.8969 120.952 96.748 120.942C98.5991 120.932 100.092 122.424 100.082 124.275L99.4 250.736L92.6965 250.773Z" fill="#F78F54"/>
    <path fill-rule="evenodd" clip-rule="evenodd" d="M293.431 249.67L294.279 92.3322C294.289 90.438 295.833 88.894 297.727 88.8836C299.621 88.8732 301.148 90.4003 301.138 92.2945L300.29 249.633L293.431 249.67Z" fill="#0066FF"/>
    <path fill-rule="evenodd" clip-rule="evenodd" d="M282.652 249.729L283.064 173.275C283.074 171.38 284.618 169.836 286.512 169.826C288.406 169.816 289.933 171.343 289.923 173.237L289.511 249.692L282.652 249.729Z" fill="#F78F54"/>
    <path fill-rule="evenodd" clip-rule="evenodd" d="M55.9674 250.975L56.649 124.514C56.659 122.663 58.1677 121.154 60.0188 121.144C61.87 121.133 63.3625 122.626 63.3525 124.477L62.6708 250.938L55.9674 250.975Z" fill="#0066FF"/>
    <path fill-rule="evenodd" clip-rule="evenodd" d="M45.1883 251.034L45.6009 174.501C45.6108 172.65 47.1195 171.141 48.9707 171.131C50.8218 171.121 52.3143 172.613 52.3043 174.464L51.8918 250.997L45.1883 251.034Z" fill="#F78F54"/>
</svg>
