<svg width="901" height="335" viewBox="0 0 901 335" fill="none" xmlns="http://www.w3.org/2000/svg">
    <g filter="url(#filter0_b_0_1)">
        <path d="M41.5342 41.9998C41.5342 36.477 46.0113 31.9998 51.5342 31.9998H277.014C282.536 31.9998 287.014 36.477 287.014 41.9998V292.779C287.014 298.302 282.536 302.779 277.014 302.779H51.5342C46.0113 302.779 41.5342 298.302 41.5342 292.779V41.9998Z" fill="white" fill-opacity="0.5"/>
    </g>
    <path d="M68.6121 56.8646H74.8641V62.5286H73.4601V58.2566H69.9681V62.6246H68.6121V56.8646ZM71.0001 54.5006H72.4401V65.6846H71.0001V54.5006ZM69.0681 60.4886H74.5641V61.8806H69.0681V60.4886ZM65.6361 55.5806H67.0401V65.7206H65.6361V55.5806ZM63.8481 57.8366H68.3601V59.1806H63.8481V57.8366ZM65.7081 58.3766L66.5481 58.7486C66.0921 60.4646 65.2401 62.6006 64.3161 63.7886C64.1841 63.3686 63.8721 62.7686 63.6561 62.4086C64.4841 61.4486 65.3241 59.7086 65.7081 58.3766ZM67.7841 54.5726L68.5761 55.7486C67.3401 56.2046 65.6961 56.5046 64.2801 56.6726C64.2321 56.3486 64.0521 55.8686 63.8961 55.5566C65.2641 55.3526 66.7881 54.9806 67.7841 54.5726ZM67.0041 59.3366C67.3041 59.6006 68.3481 60.7766 68.5761 61.0646L67.7481 62.1926C67.4721 61.5926 66.7401 60.4166 66.3801 59.9006L67.0041 59.3366ZM76.4961 56.6486H86.9961V57.9686H76.4961V56.6486ZM76.3881 61.4006H87.1041V62.7326H76.3881V61.4006ZM84.3681 54.6326L85.9281 55.0646C85.4121 55.7486 84.8481 56.4086 84.4161 56.8526L83.2161 56.4446C83.6241 55.9406 84.1041 55.1846 84.3681 54.6326ZM80.9481 54.4646H82.3881V60.1526H80.9481V54.4646ZM77.6361 55.2206L78.8841 54.6926C79.3761 55.1846 79.9161 55.8806 80.1441 56.3726L78.8241 56.9606C78.6201 56.4806 78.1161 55.7486 77.6361 55.2206ZM82.8081 60.7286L83.6121 60.0566C84.2241 60.2966 85.0761 60.6686 85.5201 60.9566L84.6681 61.6886C84.2721 61.4006 83.4441 61.0046 82.8081 60.7286ZM80.9481 60.3926H82.4601C82.2081 63.2606 81.5481 64.9646 76.8201 65.7326C76.7001 65.3366 76.3521 64.7126 76.0761 64.3886C80.3721 63.8246 80.7441 62.6366 80.9481 60.3926ZM80.5521 57.2366L81.7521 57.7166C80.7081 59.1326 78.9561 60.2486 77.0961 60.8006C76.8921 60.4286 76.4601 59.8646 76.1361 59.5646C77.9241 59.1686 79.6761 58.2806 80.5521 57.2366ZM82.7241 57.1886C83.6001 58.2806 85.3641 59.0966 87.3081 59.4566C86.9961 59.7326 86.5881 60.2966 86.3961 60.6686C84.3561 60.1886 82.6041 59.1086 81.5481 57.6206L82.7241 57.1886ZM82.3761 61.8686C83.1201 63.3926 84.7161 64.1366 87.3801 64.3046C87.0561 64.6406 86.6481 65.2886 86.4681 65.7206C83.5521 65.3606 81.9921 64.3046 81.0201 62.1326L82.3761 61.8686Z" fill="#0A0A1F"/>
    <rect opacity="0.1" x="63.4521" y="87.0735" width="37.2603" height="39.0105" rx="6" fill="#5458F7"/>
    <path d="M119.123 93.812H123.543V95.138H119.123V93.812ZM123.816 93.812H128.483V95.125H123.816V93.812ZM120.761 92.252H122.152V101.378H120.761V92.252ZM125.246 92.252H126.65V101.378H125.246V92.252ZM120.631 94.631L121.593 94.891C121.164 96.763 120.41 98.687 119.448 99.753C119.227 99.428 118.785 98.934 118.46 98.687C119.409 97.829 120.215 96.178 120.631 94.631ZM125.168 94.631L126.065 94.891C125.61 96.737 124.817 98.687 123.881 99.766C123.66 99.454 123.205 98.986 122.906 98.739C123.842 97.855 124.713 96.178 125.168 94.631ZM126.858 94.553C127.274 96.022 128.08 97.673 128.873 98.583C128.548 98.817 128.08 99.298 127.833 99.662C127.079 98.544 126.39 96.555 126 94.826L126.858 94.553ZM121.97 95.229C122.321 95.502 123.491 96.633 123.777 96.906L122.997 98.154C122.607 97.556 121.671 96.451 121.229 95.97L121.97 95.229ZM122.152 89.184H123.777V91.498H122.152V89.184ZM118.213 90.51H128.509V91.992H118.213V90.51ZM117.264 90.51H118.837V94.111C118.837 96.191 118.655 99.363 117.589 101.365C117.316 101.079 116.627 100.585 116.263 100.429C117.199 98.622 117.264 95.97 117.264 94.111V90.51ZM137.934 89.197H139.377V91.082H137.934V89.197ZM135.711 90.484H141.704V91.849H135.711V90.484ZM137.934 95.918H139.377V101.391H137.934V95.918ZM135.477 97.023H141.899V98.414H135.477V97.023ZM136.79 91.966L138.051 92.174C137.739 93.89 137.102 95.437 136.153 96.425C135.971 96.178 135.503 95.684 135.243 95.463C136.062 94.657 136.556 93.383 136.79 91.966ZM136.621 94.137L137.323 93.097C137.778 93.461 138.389 93.981 138.662 94.332L137.934 95.489C137.661 95.112 137.076 94.54 136.621 94.137ZM139.702 91.966L140.989 92.187C140.651 93.825 140.014 95.294 139.065 96.23C138.883 95.97 138.415 95.476 138.155 95.242C138.961 94.488 139.468 93.292 139.702 91.966ZM139.403 94.059L140.261 93.214C140.872 93.838 141.678 94.696 142.042 95.255L141.145 96.217C140.807 95.632 140.027 94.722 139.403 94.059ZM130.03 92.252H135.256V101.183H134.06V93.539H131.174V101.365H130.03V92.252ZM130.563 97.335H134.84V98.505H130.563V97.335ZM130.563 99.311H134.84V100.507H130.563V99.311ZM129.874 89.704H135.347V90.991H129.874V89.704ZM131.356 90.107H132.37V93.266H131.356V90.107ZM132.89 90.107H133.93V93.266H132.89V90.107ZM131.681 93.253H132.409V94.501C132.409 95.216 132.279 96.139 131.668 96.776C131.551 96.633 131.252 96.386 131.096 96.308C131.629 95.749 131.681 95.073 131.681 94.501V93.253ZM132.838 93.253H133.566V95.281C133.566 95.437 133.579 95.463 133.67 95.463C133.709 95.463 133.839 95.463 133.891 95.463C134.021 95.463 134.047 95.45 134.073 95.424C134.216 95.554 134.515 95.645 134.736 95.71C134.645 96.074 134.424 96.217 134.021 96.217C133.917 96.217 133.683 96.217 133.579 96.217C133.007 96.217 132.838 96.048 132.838 95.294V93.253ZM143.446 91.55H154.821V92.98H143.446V91.55ZM143.329 96.698H154.938V98.141H143.329V96.698ZM151.974 89.366L153.664 89.834C153.105 90.575 152.494 91.29 152.026 91.771L150.726 91.329C151.168 90.783 151.688 89.964 151.974 89.366ZM148.269 89.184H149.829V95.346H148.269V89.184ZM144.681 90.003L146.033 89.431C146.566 89.964 147.151 90.718 147.398 91.251L145.968 91.888C145.747 91.368 145.201 90.575 144.681 90.003ZM150.284 95.97L151.155 95.242C151.818 95.502 152.741 95.905 153.222 96.217L152.299 97.01C151.87 96.698 150.973 96.269 150.284 95.97ZM148.269 95.606H149.907C149.634 98.713 148.919 100.559 143.797 101.391C143.667 100.962 143.29 100.286 142.991 99.935C147.645 99.324 148.048 98.037 148.269 95.606ZM147.84 92.187L149.14 92.707C148.009 94.241 146.111 95.45 144.096 96.048C143.875 95.645 143.407 95.034 143.056 94.709C144.993 94.28 146.891 93.318 147.84 92.187ZM150.193 92.135C151.142 93.318 153.053 94.202 155.159 94.592C154.821 94.891 154.379 95.502 154.171 95.905C151.961 95.385 150.063 94.215 148.919 92.603L150.193 92.135ZM149.816 97.205C150.622 98.856 152.351 99.662 155.237 99.844C154.886 100.208 154.444 100.91 154.249 101.378C151.09 100.988 149.4 99.844 148.347 97.491L149.816 97.205Z" fill="#0A0A1F"/>
    <path d="M121.145 120.488V121.168H117.305V120.488H118.84V115.603C118.84 115.457 118.845 115.308 118.855 115.158L117.58 116.253C117.536 116.29 117.493 116.313 117.45 116.323C117.406 116.33 117.366 116.33 117.33 116.323C117.293 116.317 117.258 116.303 117.225 116.283C117.195 116.263 117.171 116.242 117.155 116.218L116.875 115.833L119.01 113.988H119.735V120.488H121.145ZM127.046 120.488V121.168H123.206V120.488H124.741V115.603C124.741 115.457 124.746 115.308 124.756 115.158L123.481 116.253C123.437 116.29 123.394 116.313 123.351 116.323C123.307 116.33 123.267 116.33 123.231 116.323C123.194 116.317 123.159 116.303 123.126 116.283C123.096 116.263 123.072 116.242 123.056 116.218L122.776 115.833L124.911 113.988H125.636V120.488H127.046ZM131.245 114.708H139.855V115.398H131.245V114.708ZM131.205 118.678H139.905V119.388H131.205V118.678ZM137.965 112.978L138.765 113.238C138.355 113.788 137.865 114.368 137.475 114.758L136.845 114.518C137.225 114.108 137.705 113.438 137.965 112.978ZM135.115 112.778H135.865V117.378H135.115V112.778ZM132.335 113.348L132.975 113.048C133.415 113.458 133.895 114.038 134.095 114.438L133.425 114.778C133.225 114.378 132.765 113.778 132.335 113.348ZM136.505 117.838L136.945 117.458C137.525 117.688 138.295 118.038 138.705 118.298L138.235 118.728C137.865 118.458 137.105 118.088 136.505 117.838ZM135.155 117.598H135.945C135.675 119.988 134.985 121.368 131.365 121.978C131.295 121.778 131.115 121.448 130.975 121.288C134.385 120.778 134.935 119.648 135.155 117.598ZM134.835 114.988L135.455 115.248C134.615 116.438 133.075 117.408 131.535 117.858C131.425 117.658 131.205 117.378 131.035 117.218C132.555 116.858 134.085 115.998 134.835 114.988ZM136.125 114.968C136.875 115.988 138.395 116.788 139.995 117.118C139.835 117.258 139.625 117.548 139.525 117.748C137.895 117.338 136.345 116.418 135.515 115.208L136.125 114.968ZM135.985 118.908C136.555 120.338 137.925 121.058 140.145 121.248C139.975 121.418 139.765 121.748 139.675 121.968C137.355 121.668 135.975 120.808 135.295 119.058L135.985 118.908Z" fill="black" fill-opacity="0.5"/>
    <rect opacity="0.1" x="63.4521" y="236.231" width="37.2603" height="39.0105" rx="6" fill="#F78F54"/>
    <path d="M81.7166 250.956C78.0126 250.956 75.6034 252.721 74.0769 254.921C72.9503 256.546 72.3077 258.4 71.9503 259.944H73.0803C73.424 258.563 74.0058 256.977 74.9637 255.596C76.3109 253.653 78.4069 252.103 81.7166 252.103C85.3775 252.103 87.7182 253.674 89.1867 255.615C90.2326 256.997 90.8448 258.58 91.1559 259.944H92.2796C91.9571 258.381 91.2731 256.524 90.0456 254.902C88.3786 252.699 85.727 250.956 81.7166 250.956Z" fill="#F78F54"/>
    <path d="M70.6272 261.856C70.6272 261.105 71.2019 260.544 71.8536 260.544H92.3103C92.962 260.544 93.5367 261.105 93.5367 261.856C93.5367 262.607 92.962 263.168 92.3103 263.168H71.8536C71.2019 263.168 70.6272 262.607 70.6272 261.856Z" stroke="#F78F54" stroke-width="1.2"/>
    <path d="M83.408 249.617C83.408 250.419 82.7927 251.03 82.0815 251.03C81.3703 251.03 80.755 250.419 80.755 249.617C80.755 248.816 81.3703 248.205 82.0815 248.205C82.7927 248.205 83.408 248.816 83.408 249.617Z" stroke="#F78F54"/>
    <path d="M116.692 242.125H128.314V243.62H116.692V242.125ZM117.784 239.538H127.378V241.02H117.784V239.538ZM120.202 244.712H126.468V246.168H120.202V244.712ZM125.961 244.712H126.247L126.507 244.634L127.703 245.323C126.559 246.532 125.025 248.053 123.686 249.34L122.295 248.521C123.595 247.338 125.155 245.765 125.961 244.881V244.712ZM119.24 248.261L120.085 247.091C122.074 247.546 124.934 248.495 126.403 249.275L125.493 250.627C124.128 249.847 121.32 248.807 119.24 248.261ZM121.19 238.251L122.828 238.459C122.165 241.046 121.255 244.257 120.618 246.168L118.954 246.155C119.682 244.127 120.618 240.812 121.19 238.251ZM132.045 239.213H140.027V240.695H132.045V239.213ZM132.045 242.203H140.053V243.659H132.045V242.203ZM132.019 245.271H140.105V246.74H132.019V245.271ZM131.148 239.213H132.695V243.893C132.695 245.96 132.435 248.885 130.836 250.627C130.589 250.328 129.952 249.808 129.614 249.613C131.031 248.04 131.148 245.713 131.148 243.88V239.213ZM139.481 239.213H141.028V248.716C141.028 249.548 140.846 249.964 140.326 250.211C139.78 250.458 139 250.484 137.817 250.471C137.752 250.055 137.518 249.379 137.31 248.976C138.051 249.028 138.909 249.015 139.143 249.015C139.39 249.002 139.481 248.924 139.481 248.703V239.213ZM135.152 239.798H136.738V250.393H135.152V239.798ZM143.875 239.447L144.876 238.498C145.578 239.07 146.527 239.928 146.969 240.487L145.916 241.566C145.5 240.981 144.577 240.071 143.875 239.447ZM144.707 250.367L144.356 249.002L144.629 248.521L147.203 246.35C147.333 246.766 147.593 247.351 147.788 247.65C145.37 249.691 144.941 250.055 144.707 250.367ZM143.017 242.346H145.37V243.841H143.017V242.346ZM149.049 238.758H152.585V240.201H149.049V238.758ZM147.515 243.984H153.443V245.44H147.515V243.984ZM152.975 243.984H153.248L153.521 243.932L154.47 244.335C153.404 248.014 150.778 249.717 147.333 250.523C147.203 250.133 146.891 249.509 146.631 249.171C149.725 248.625 152.156 247.065 152.975 244.205V243.984ZM149.218 245.18C150.245 247.221 152.364 248.638 155.237 249.184C154.912 249.509 154.496 250.146 154.301 250.562C151.259 249.847 149.192 248.17 147.918 245.622L149.218 245.18ZM148.672 238.758H150.128V240.214C150.128 241.527 149.712 242.983 147.853 243.841C147.671 243.542 147.112 242.931 146.826 242.697C148.464 242.008 148.672 241.059 148.672 240.175V238.758ZM151.87 238.758H153.339V241.605C153.339 241.982 153.365 242.138 153.56 242.138C153.69 242.138 154.08 242.138 154.236 242.138C154.431 242.138 154.756 242.099 154.938 242.047C154.964 242.437 155.003 242.983 155.055 243.334C154.86 243.425 154.548 243.438 154.249 243.438C154.054 243.438 153.599 243.438 153.417 243.438C152.13 243.438 151.87 242.892 151.87 241.592V238.758ZM144.707 250.367C144.59 250.003 144.187 249.34 143.927 249.054C144.213 248.846 144.577 248.378 144.577 247.767V242.346H146.085V248.846C146.085 248.846 144.707 249.808 144.707 250.367ZM160.151 239.382H165.611V240.734H160.151V239.382ZM165.091 239.382H165.416L165.663 239.317L166.69 239.915C164.87 242.97 160.866 244.426 156.732 244.998C156.602 244.569 156.316 243.893 156.056 243.542C159.969 243.139 163.726 241.878 165.091 239.59V239.382ZM160.138 240.669C161.776 242.164 165.091 243.087 168.653 243.399C168.315 243.75 167.899 244.413 167.691 244.842C164.116 244.426 160.853 243.295 158.812 241.371L160.138 240.669ZM157.759 244.777H166.755V250.536H165.039V246.116H159.384V250.549H157.759V244.777ZM158.513 246.818H165.663V248.027H158.513V246.818ZM158.513 248.846H165.663V250.185H158.513V248.846ZM161.464 245.31H163.089V249.587H161.464V245.31ZM160.515 238.277L162.179 238.615C161.126 240.149 159.722 241.475 157.629 242.528C157.408 242.151 156.927 241.605 156.589 241.358C158.513 240.539 159.813 239.369 160.515 238.277Z" fill="#0A0A1F"/>
    <path d="M121.145 269.646V270.326H117.305V269.646H118.84V264.761C118.84 264.614 118.845 264.466 118.855 264.316L117.58 265.411C117.536 265.448 117.493 265.471 117.45 265.481C117.406 265.488 117.366 265.488 117.33 265.481C117.293 265.474 117.258 265.461 117.225 265.441C117.195 265.421 117.171 265.399 117.155 265.376L116.875 264.991L119.01 263.146H119.735V269.646H121.145ZM124.856 269.696C125.089 269.696 125.297 269.664 125.481 269.601C125.667 269.534 125.824 269.443 125.951 269.326C126.081 269.206 126.179 269.064 126.246 268.901C126.316 268.734 126.351 268.551 126.351 268.351C126.351 268.104 126.309 267.894 126.226 267.721C126.146 267.544 126.036 267.401 125.896 267.291C125.759 267.181 125.601 267.101 125.421 267.051C125.241 266.998 125.052 266.971 124.856 266.971C124.659 266.971 124.471 266.998 124.291 267.051C124.111 267.101 123.951 267.181 123.811 267.291C123.674 267.401 123.564 267.544 123.481 267.721C123.401 267.894 123.361 268.104 123.361 268.351C123.361 268.551 123.394 268.734 123.461 268.901C123.531 269.064 123.629 269.206 123.756 269.326C123.886 269.443 124.042 269.534 124.226 269.601C124.412 269.664 124.622 269.696 124.856 269.696ZM124.856 263.771C124.642 263.771 124.454 263.803 124.291 263.866C124.131 263.929 123.996 264.016 123.886 264.126C123.779 264.236 123.697 264.364 123.641 264.511C123.587 264.658 123.561 264.814 123.561 264.981C123.561 265.144 123.584 265.303 123.631 265.456C123.677 265.609 123.752 265.746 123.856 265.866C123.959 265.983 124.092 266.078 124.256 266.151C124.422 266.221 124.622 266.256 124.856 266.256C125.089 266.256 125.287 266.221 125.451 266.151C125.617 266.078 125.752 265.983 125.856 265.866C125.959 265.746 126.034 265.609 126.081 265.456C126.127 265.303 126.151 265.144 126.151 264.981C126.151 264.814 126.122 264.658 126.066 264.511C126.012 264.364 125.931 264.236 125.821 264.126C125.714 264.016 125.579 263.929 125.416 263.866C125.256 263.803 125.069 263.771 124.856 263.771ZM125.881 266.591C126.327 266.718 126.671 266.929 126.911 267.226C127.151 267.523 127.271 267.903 127.271 268.366C127.271 268.679 127.211 268.963 127.091 269.216C126.974 269.466 126.809 269.679 126.596 269.856C126.386 270.033 126.132 270.169 125.836 270.266C125.539 270.359 125.212 270.406 124.856 270.406C124.499 270.406 124.172 270.359 123.876 270.266C123.579 270.169 123.324 270.033 123.111 269.856C122.897 269.679 122.732 269.466 122.616 269.216C122.499 268.963 122.441 268.679 122.441 268.366C122.441 267.903 122.561 267.523 122.801 267.226C123.041 266.929 123.384 266.718 123.831 266.591C123.454 266.451 123.169 266.243 122.976 265.966C122.786 265.686 122.691 265.353 122.691 264.966C122.691 264.703 122.742 264.456 122.846 264.226C122.949 263.996 123.096 263.796 123.286 263.626C123.476 263.456 123.702 263.323 123.966 263.226C124.232 263.129 124.529 263.081 124.856 263.081C125.179 263.081 125.474 263.129 125.741 263.226C126.007 263.323 126.236 263.456 126.426 263.626C126.616 263.796 126.762 263.996 126.866 264.226C126.969 264.456 127.021 264.703 127.021 264.966C127.021 265.353 126.924 265.686 126.731 265.966C126.541 266.243 126.257 266.451 125.881 266.591ZM131.245 263.866H139.855V264.556H131.245V263.866ZM131.205 267.836H139.905V268.546H131.205V267.836ZM137.965 262.136L138.765 262.396C138.355 262.946 137.865 263.526 137.475 263.916L136.845 263.676C137.225 263.266 137.705 262.596 137.965 262.136ZM135.115 261.936H135.865V266.536H135.115V261.936ZM132.335 262.506L132.975 262.206C133.415 262.616 133.895 263.196 134.095 263.596L133.425 263.936C133.225 263.536 132.765 262.936 132.335 262.506ZM136.505 266.996L136.945 266.616C137.525 266.846 138.295 267.196 138.705 267.456L138.235 267.886C137.865 267.616 137.105 267.246 136.505 266.996ZM135.155 266.756H135.945C135.675 269.146 134.985 270.526 131.365 271.136C131.295 270.936 131.115 270.606 130.975 270.446C134.385 269.936 134.935 268.806 135.155 266.756ZM134.835 264.146L135.455 264.406C134.615 265.596 133.075 266.566 131.535 267.016C131.425 266.816 131.205 266.536 131.035 266.376C132.555 266.016 134.085 265.156 134.835 264.146ZM136.125 264.126C136.875 265.146 138.395 265.946 139.995 266.276C139.835 266.416 139.625 266.706 139.525 266.906C137.895 266.496 136.345 265.576 135.515 264.366L136.125 264.126ZM135.985 268.066C136.555 269.496 137.925 270.216 140.145 270.406C139.975 270.576 139.765 270.906 139.675 271.126C137.355 270.826 135.975 269.966 135.295 268.216L135.985 268.066Z" fill="black" fill-opacity="0.5"/>
    <g filter="url(#filter1_d_0_1)">
        <path d="M24.0001 153.621C24.0001 147.284 28.9066 142.147 34.959 142.147H208.11C214.162 142.147 219.069 147.284 219.069 153.621V206.4C219.069 212.737 214.162 217.874 208.11 217.874H34.959C28.9066 217.874 24.0001 212.737 24.0001 206.4V153.621Z" fill="url(#paint0_linear_0_1)"/>
    </g>
    <rect opacity="0.1" x="43.7259" y="160.505" width="37.2603" height="39.0105" rx="6" fill="#2FE1AC"/>
    <path d="M71.6195 180.01C71.6195 185.408 67.4466 189.737 62.3565 189.737C57.2663 189.737 53.0934 185.408 53.0934 180.01C53.0934 174.612 57.2663 170.284 62.3565 170.284C67.4466 170.284 71.6195 174.612 71.6195 180.01Z" stroke="#2FE1AC" stroke-width="1.2"/>
    <path d="M53.5892 184.6C56.3289 183.261 62.6851 180.814 70.5755 184.026" stroke="#2FE1AC" stroke-width="1.2"/>
    <path d="M53.5892 175.942C56.3289 177.28 63.233 179.207 71.1235 175.995" stroke="#2FE1AC" stroke-width="1.2"/>
    <path d="M62.3564 170.832C63.6349 173.7 66.1922 180.584 62.3564 189.189" stroke="#2FE1AC" stroke-width="1.2"/>
    <path d="M96.832 163.834H108.168V165.433H96.832V163.834ZM103.111 168.189L104.32 167.175C105.711 168.189 107.713 169.684 108.662 170.724L107.336 171.92C106.478 170.893 104.554 169.294 103.111 168.189ZM102.591 164.419L104.333 165.03C102.851 167.773 100.485 170.425 97.495 171.985C97.248 171.569 96.754 170.919 96.429 170.568C99.211 169.255 101.512 166.733 102.591 164.419ZM101.642 167.565L103.358 165.862V175.144H101.642V167.565ZM109.559 171.114C110.56 170.919 112.081 170.542 113.55 170.178L113.732 171.556C112.484 171.972 111.158 172.375 110.092 172.7L109.559 171.114ZM112.9 163.054H114.421V175.157H112.9V163.054ZM110.365 164.471H111.86V171.478H110.365V164.471ZM116.41 165.29H121.922V166.759H116.41V165.29ZM116.423 162.95L118.022 163.262C117.476 165.693 116.514 168.02 115.253 169.476C115.006 169.164 114.382 168.566 114.031 168.293C115.188 167.071 116.007 165.056 116.423 162.95ZM119.699 166.07L121.259 166.304C120.427 170.698 118.698 173.545 115.253 175.209C115.11 174.845 114.655 174.13 114.369 173.792C117.541 172.44 119.049 169.957 119.699 166.07ZM117.021 166.291C117.71 169.749 119.205 172.583 122.052 173.818C121.701 174.13 121.207 174.754 120.986 175.17C117.905 173.649 116.449 170.594 115.604 166.564L117.021 166.291ZM124.821 165.264H132.556V164.679H123.885V163.639H133.973V166.291H124.821V165.264ZM124.561 166.85H133.83V167.877H124.275L124.561 166.85ZM133.336 166.85H134.792C134.792 166.85 134.779 167.11 134.779 167.279C134.714 168.176 134.623 168.67 134.402 168.93C134.207 169.151 133.934 169.242 133.648 169.255C133.401 169.281 132.933 169.281 132.413 169.255C132.4 168.969 132.283 168.553 132.153 168.267C132.478 168.319 132.738 168.319 132.881 168.319C132.998 168.319 133.076 168.306 133.154 168.228C133.232 168.111 133.284 167.773 133.336 167.019V166.85ZM126.914 162.963H128.318V165.862C128.318 167.825 127.72 169.411 123.872 170.139C123.742 169.814 123.365 169.216 123.105 168.943C126.459 168.371 126.914 167.24 126.914 165.836V162.963ZM129.761 162.963H131.217V169.242H129.761V162.963ZM124.743 169.502H133.349V172.947H131.763V170.763H126.251V173.077H124.743V169.502ZM128.435 171.192H129.982C129.449 173.337 128.162 174.559 123.56 175.144C123.469 174.78 123.157 174.143 122.897 173.818C127.044 173.428 127.98 172.648 128.435 171.192ZM129.241 173.545L130.047 172.518C131.607 172.856 133.882 173.506 135.078 174L134.207 175.183C133.102 174.689 130.853 173.961 129.241 173.545ZM124.223 165.277H125.614C125.497 166.161 125.354 167.201 125.211 167.877H123.807C123.963 167.175 124.132 166.135 124.223 165.277ZM136.443 164.25H141.331V165.563H136.443V164.25ZM141.812 167.357L147.675 166.46L147.896 167.838L142.033 168.761L141.812 167.357ZM141.565 170.256L148.195 169.268L148.39 170.646L141.773 171.673L141.565 170.256ZM146.427 162.976L147.714 164.016C146.167 164.913 143.996 165.589 142.046 166.044C141.968 165.719 141.734 165.186 141.539 164.887C143.359 164.432 145.322 163.717 146.427 162.976ZM143.775 165.082H145.283V172.986C145.283 173.584 145.335 173.675 145.699 173.675C145.855 173.675 146.518 173.675 146.7 173.675C147.038 173.675 147.103 173.324 147.155 171.855C147.493 172.115 148.078 172.375 148.481 172.466C148.338 174.351 147.974 175.001 146.83 175.001C146.557 175.001 145.686 175.001 145.439 175.001C144.126 175.001 143.775 174.533 143.775 172.986V165.082ZM136.274 168.566H141.617V169.918H136.274V168.566ZM136.677 166.395H141.071V167.708H136.677V166.395ZM138.315 162.95H139.758V175.157H138.315V162.95ZM138.38 169.073L139.355 169.528C138.783 171.01 137.782 172.791 136.729 173.727C136.586 173.298 136.274 172.674 136.053 172.297C136.963 171.53 137.925 170.165 138.38 169.073ZM139.628 169.541C140.031 169.905 141.383 171.413 141.682 171.79L140.707 172.973C140.278 172.232 139.277 170.88 138.77 170.256L139.628 169.541ZM155.215 165.654H161.598V167.136H155.215V165.654ZM158.699 162.976H160.35V173.259C160.35 174.143 160.168 174.572 159.635 174.819C159.102 175.079 158.283 175.118 157.152 175.118C157.074 174.676 156.84 173.974 156.619 173.545C157.334 173.571 158.14 173.558 158.374 173.558C158.608 173.558 158.699 173.48 158.699 173.259V162.976ZM158.569 166.369L159.83 167.136C158.881 169.398 157.061 171.868 155.228 173.246C154.968 172.83 154.487 172.284 154.097 171.972C155.917 170.815 157.698 168.488 158.569 166.369ZM149.625 165.641H154.851V167.136H149.625V165.641ZM151.627 162.963H153.2V175.17H151.627V162.963ZM151.575 166.642L152.589 167.006C152.095 169.151 151.172 171.66 150.054 173.025C149.898 172.544 149.508 171.881 149.248 171.465C150.262 170.321 151.172 168.332 151.575 166.642ZM153.083 167.37C153.499 167.695 154.916 169.138 155.228 169.489L154.318 170.828C153.863 170.087 152.823 168.735 152.316 168.137L153.083 167.37Z" fill="#0A0A1F"/>
    <path d="M101.264 193.755C101.361 193.755 101.438 193.783 101.494 193.84C101.551 193.897 101.579 193.97 101.579 194.06V194.6H96.7993V194.295C96.7993 194.232 96.8126 194.167 96.8393 194.1C96.8659 194.033 96.9076 193.972 96.9643 193.915L99.2593 191.61C99.4493 191.417 99.6226 191.232 99.7793 191.055C99.9359 190.875 100.069 190.695 100.179 190.515C100.289 190.335 100.374 190.153 100.434 189.97C100.494 189.783 100.524 189.585 100.524 189.375C100.524 189.165 100.491 188.982 100.424 188.825C100.358 188.665 100.266 188.533 100.149 188.43C100.036 188.327 99.9009 188.25 99.7443 188.2C99.5876 188.147 99.4193 188.12 99.2393 188.12C99.0559 188.12 98.8876 188.147 98.7343 188.2C98.5809 188.253 98.4443 188.328 98.3243 188.425C98.2076 188.518 98.1093 188.63 98.0293 188.76C97.9493 188.89 97.8926 189.033 97.8593 189.19C97.8193 189.307 97.7643 189.385 97.6943 189.425C97.6276 189.462 97.5326 189.472 97.4093 189.455L96.9443 189.375C96.9909 189.048 97.0809 188.76 97.2143 188.51C97.3509 188.257 97.5209 188.045 97.7243 187.875C97.9309 187.705 98.1659 187.577 98.4293 187.49C98.6926 187.4 98.9776 187.355 99.2843 187.355C99.5876 187.355 99.8709 187.4 100.134 187.49C100.398 187.58 100.626 187.712 100.819 187.885C101.013 188.055 101.164 188.263 101.274 188.51C101.384 188.757 101.439 189.037 101.439 189.35C101.439 189.617 101.399 189.865 101.319 190.095C101.239 190.322 101.131 190.538 100.994 190.745C100.858 190.952 100.699 191.153 100.519 191.35C100.343 191.547 100.154 191.745 99.9543 191.945L98.0643 193.875C98.1976 193.838 98.3326 193.81 98.4693 193.79C98.6059 193.767 98.7376 193.755 98.8643 193.755H101.264ZM105.88 192.015V189.06C105.88 188.973 105.883 188.878 105.89 188.775C105.897 188.672 105.907 188.567 105.92 188.46L103.31 192.015H105.88ZM107.745 192.015V192.525C107.745 192.578 107.728 192.623 107.695 192.66C107.665 192.697 107.617 192.715 107.55 192.715H106.66V194.6H105.88V192.715H102.7C102.633 192.715 102.575 192.697 102.525 192.66C102.478 192.62 102.448 192.572 102.435 192.515L102.345 192.06L105.83 187.435H106.66V192.015H107.745ZM111.519 188.14H120.129V188.83H111.519V188.14ZM111.479 192.11H120.179V192.82H111.479V192.11ZM118.239 186.41L119.039 186.67C118.629 187.22 118.139 187.8 117.749 188.19L117.119 187.95C117.499 187.54 117.979 186.87 118.239 186.41ZM115.389 186.21H116.139V190.81H115.389V186.21ZM112.609 186.78L113.249 186.48C113.689 186.89 114.169 187.47 114.369 187.87L113.699 188.21C113.499 187.81 113.039 187.21 112.609 186.78ZM116.779 191.27L117.219 190.89C117.799 191.12 118.569 191.47 118.979 191.73L118.509 192.16C118.139 191.89 117.379 191.52 116.779 191.27ZM115.429 191.03H116.219C115.949 193.42 115.259 194.8 111.639 195.41C111.569 195.21 111.389 194.88 111.249 194.72C114.659 194.21 115.209 193.08 115.429 191.03ZM115.109 188.42L115.729 188.68C114.889 189.87 113.349 190.84 111.809 191.29C111.699 191.09 111.479 190.81 111.309 190.65C112.829 190.29 114.359 189.43 115.109 188.42ZM116.399 188.4C117.149 189.42 118.669 190.22 120.269 190.55C120.109 190.69 119.899 190.98 119.799 191.18C118.169 190.77 116.619 189.85 115.789 188.64L116.399 188.4ZM116.259 192.34C116.829 193.77 118.199 194.49 120.419 194.68C120.249 194.85 120.039 195.18 119.949 195.4C117.629 195.1 116.249 194.24 115.569 192.49L116.259 192.34Z" fill="black" fill-opacity="0.5"/>
    <path d="M82.0823 100.589V113.463M82.0823 100.589L82.6338 100.01C82.8257 99.8089 83.0927 99.6966 83.3707 99.7003L88.7667 99.771C89.3138 99.7782 89.7536 100.224 89.7536 100.771V110.854C89.7536 111.406 89.3059 111.854 88.7536 111.854H84.5484C84.3309 111.854 84.1193 111.925 83.9458 112.056L82.0823 113.463M82.0823 100.589L81.5309 100.01C81.339 99.8089 81.072 99.6966 80.794 99.7003L75.398 99.771C74.8509 99.7782 74.4111 100.224 74.4111 100.771V110.854C74.4111 111.406 74.8588 111.854 75.4111 111.854H79.2368C79.4253 111.854 79.6099 111.907 79.7694 112.007L82.0823 113.463" stroke="#5458F7" stroke-width="1.2"/>
    <g filter="url(#filter2_d_0_1)">
        <rect x="258.52" y="31.9998" width="642.192" height="270.779" rx="10" fill="white"/>
    </g>
    <path d="M308.564 261.356L305.06 270.032H303.602L300.098 261.356H301.394C301.534 261.356 301.648 261.39 301.736 261.458C301.824 261.526 301.89 261.614 301.934 261.722L303.98 267.014C304.048 267.186 304.112 267.376 304.172 267.584C304.236 267.788 304.296 268.002 304.352 268.226C304.4 268.002 304.452 267.788 304.508 267.584C304.564 267.376 304.626 267.186 304.694 267.014L306.728 261.722C306.76 261.63 306.822 261.546 306.914 261.47C307.01 261.394 307.126 261.356 307.262 261.356H308.564ZM311.004 263.876V270.032H309.516V263.876H311.004ZM311.208 262.082C311.208 262.21 311.182 262.33 311.13 262.442C311.078 262.554 311.008 262.652 310.92 262.736C310.836 262.82 310.736 262.888 310.62 262.94C310.504 262.988 310.38 263.012 310.248 263.012C310.12 263.012 309.998 262.988 309.882 262.94C309.77 262.888 309.672 262.82 309.588 262.736C309.504 262.652 309.436 262.554 309.384 262.442C309.336 262.33 309.312 262.21 309.312 262.082C309.312 261.95 309.336 261.826 309.384 261.71C309.436 261.594 309.504 261.494 309.588 261.41C309.672 261.326 309.77 261.26 309.882 261.212C309.998 261.16 310.12 261.134 310.248 261.134C310.38 261.134 310.504 261.16 310.62 261.212C310.736 261.26 310.836 261.326 310.92 261.41C311.008 261.494 311.078 261.594 311.13 261.71C311.182 261.826 311.208 261.95 311.208 262.082ZM316.721 266.246C316.721 266.054 316.693 265.874 316.637 265.706C316.585 265.534 316.505 265.384 316.397 265.256C316.289 265.128 316.151 265.028 315.983 264.956C315.819 264.88 315.627 264.842 315.407 264.842C314.979 264.842 314.641 264.964 314.393 265.208C314.149 265.452 313.993 265.798 313.925 266.246H316.721ZM313.895 267.14C313.919 267.456 313.975 267.73 314.063 267.962C314.151 268.19 314.267 268.38 314.411 268.532C314.555 268.68 314.725 268.792 314.921 268.868C315.121 268.94 315.341 268.976 315.581 268.976C315.821 268.976 316.027 268.948 316.199 268.892C316.375 268.836 316.527 268.774 316.655 268.706C316.787 268.638 316.901 268.576 316.997 268.52C317.097 268.464 317.193 268.436 317.285 268.436C317.409 268.436 317.501 268.482 317.561 268.574L317.987 269.114C317.823 269.306 317.639 269.468 317.435 269.6C317.231 269.728 317.017 269.832 316.793 269.912C316.573 269.988 316.347 270.042 316.115 270.074C315.887 270.106 315.665 270.122 315.449 270.122C315.021 270.122 314.623 270.052 314.255 269.912C313.887 269.768 313.567 269.558 313.295 269.282C313.023 269.002 312.809 268.658 312.653 268.25C312.497 267.838 312.419 267.362 312.419 266.822C312.419 266.402 312.487 266.008 312.623 265.64C312.759 265.268 312.953 264.946 313.205 264.674C313.461 264.398 313.771 264.18 314.135 264.02C314.503 263.86 314.917 263.78 315.377 263.78C315.765 263.78 316.123 263.842 316.451 263.966C316.779 264.09 317.061 264.272 317.297 264.512C317.533 264.748 317.717 265.04 317.849 265.388C317.985 265.732 318.053 266.126 318.053 266.57C318.053 266.794 318.029 266.946 317.981 267.026C317.933 267.102 317.841 267.14 317.705 267.14H313.895ZM328.113 263.876L326.157 270.032H324.969C324.833 270.032 324.739 269.944 324.687 269.768L323.583 266.21C323.547 266.09 323.513 265.972 323.481 265.856C323.453 265.736 323.429 265.616 323.409 265.496C323.385 265.616 323.357 265.738 323.325 265.862C323.297 265.982 323.265 266.102 323.229 266.222L322.107 269.768C322.059 269.944 321.953 270.032 321.789 270.032H320.649L318.699 263.876H319.881C319.989 263.876 320.081 263.902 320.157 263.954C320.233 264.006 320.283 264.072 320.307 264.152L321.189 267.44C321.233 267.62 321.271 267.796 321.303 267.968C321.339 268.14 321.369 268.312 321.393 268.484C321.437 268.312 321.483 268.14 321.531 267.968C321.583 267.796 321.637 267.62 321.693 267.44L322.713 264.14C322.737 264.06 322.783 263.994 322.851 263.942C322.923 263.89 323.009 263.864 323.109 263.864H323.763C323.867 263.864 323.955 263.89 324.027 263.942C324.103 263.994 324.153 264.06 324.177 264.14L325.167 267.44C325.219 267.62 325.267 267.798 325.311 267.974C325.359 268.146 325.405 268.318 325.449 268.49C325.501 268.15 325.575 267.8 325.671 267.44L326.577 264.152C326.605 264.072 326.655 264.006 326.727 263.954C326.799 263.902 326.885 263.876 326.985 263.876H328.113ZM341.75 261.356V270.032H340.328V264.428C340.328 264.204 340.34 263.962 340.364 263.702L337.742 268.628C337.618 268.864 337.428 268.982 337.172 268.982H336.944C336.688 268.982 336.498 268.864 336.374 268.628L333.722 263.684C333.734 263.816 333.744 263.946 333.752 264.074C333.76 264.202 333.764 264.32 333.764 264.428V270.032H332.342V261.356H333.56C333.632 261.356 333.694 261.358 333.746 261.362C333.798 261.366 333.844 261.376 333.884 261.392C333.928 261.408 333.966 261.434 333.998 261.47C334.034 261.506 334.068 261.554 334.1 261.614L336.698 266.432C336.766 266.56 336.828 266.692 336.884 266.828C336.944 266.964 337.002 267.104 337.058 267.248C337.114 267.1 337.172 266.958 337.232 266.822C337.292 266.682 337.356 266.548 337.424 266.42L339.986 261.614C340.018 261.554 340.052 261.506 340.088 261.47C340.124 261.434 340.162 261.408 340.202 261.392C340.246 261.376 340.294 261.366 340.346 261.362C340.398 261.358 340.46 261.356 340.532 261.356H341.75ZM346.228 263.78C346.684 263.78 347.098 263.854 347.47 264.002C347.846 264.15 348.166 264.36 348.43 264.632C348.698 264.904 348.904 265.236 349.048 265.628C349.192 266.02 349.264 266.458 349.264 266.942C349.264 267.43 349.192 267.87 349.048 268.262C348.904 268.654 348.698 268.988 348.43 269.264C348.166 269.54 347.846 269.752 347.47 269.9C347.098 270.048 346.684 270.122 346.228 270.122C345.768 270.122 345.35 270.048 344.974 269.9C344.598 269.752 344.276 269.54 344.008 269.264C343.744 268.988 343.538 268.654 343.39 268.262C343.246 267.87 343.174 267.43 343.174 266.942C343.174 266.458 343.246 266.02 343.39 265.628C343.538 265.236 343.744 264.904 344.008 264.632C344.276 264.36 344.598 264.15 344.974 264.002C345.35 263.854 345.768 263.78 346.228 263.78ZM346.228 268.982C346.74 268.982 347.118 268.81 347.362 268.466C347.61 268.122 347.734 267.618 347.734 266.954C347.734 266.29 347.61 265.784 347.362 265.436C347.118 265.088 346.74 264.914 346.228 264.914C345.708 264.914 345.322 265.09 345.07 265.442C344.822 265.79 344.698 266.294 344.698 266.954C344.698 267.614 344.822 268.118 345.07 268.466C345.322 268.81 345.708 268.982 346.228 268.982ZM352.033 264.944C352.225 264.576 352.453 264.288 352.717 264.08C352.981 263.868 353.293 263.762 353.653 263.762C353.937 263.762 354.165 263.824 354.337 263.948L354.241 265.058C354.221 265.13 354.191 265.182 354.151 265.214C354.115 265.242 354.065 265.256 354.001 265.256C353.941 265.256 353.851 265.246 353.731 265.226C353.615 265.206 353.501 265.196 353.389 265.196C353.225 265.196 353.079 265.22 352.951 265.268C352.823 265.316 352.707 265.386 352.603 265.478C352.503 265.566 352.413 265.674 352.333 265.802C352.257 265.93 352.185 266.076 352.117 266.24V270.032H350.635V263.876H351.505C351.657 263.876 351.763 263.904 351.823 263.96C351.883 264.012 351.923 264.108 351.943 264.248L352.033 264.944ZM359.142 266.246C359.142 266.054 359.114 265.874 359.058 265.706C359.006 265.534 358.926 265.384 358.818 265.256C358.71 265.128 358.572 265.028 358.404 264.956C358.24 264.88 358.048 264.842 357.828 264.842C357.4 264.842 357.062 264.964 356.814 265.208C356.57 265.452 356.414 265.798 356.346 266.246H359.142ZM356.316 267.14C356.34 267.456 356.396 267.73 356.484 267.962C356.572 268.19 356.688 268.38 356.832 268.532C356.976 268.68 357.146 268.792 357.342 268.868C357.542 268.94 357.762 268.976 358.002 268.976C358.242 268.976 358.448 268.948 358.62 268.892C358.796 268.836 358.948 268.774 359.076 268.706C359.208 268.638 359.322 268.576 359.418 268.52C359.518 268.464 359.614 268.436 359.706 268.436C359.83 268.436 359.922 268.482 359.982 268.574L360.408 269.114C360.244 269.306 360.06 269.468 359.856 269.6C359.652 269.728 359.438 269.832 359.214 269.912C358.994 269.988 358.768 270.042 358.536 270.074C358.308 270.106 358.086 270.122 357.87 270.122C357.442 270.122 357.044 270.052 356.676 269.912C356.308 269.768 355.988 269.558 355.716 269.282C355.444 269.002 355.23 268.658 355.074 268.25C354.918 267.838 354.84 267.362 354.84 266.822C354.84 266.402 354.908 266.008 355.044 265.64C355.18 265.268 355.374 264.946 355.626 264.674C355.882 264.398 356.192 264.18 356.556 264.02C356.924 263.86 357.338 263.78 357.798 263.78C358.186 263.78 358.544 263.842 358.872 263.966C359.2 264.09 359.482 264.272 359.718 264.512C359.954 264.748 360.138 265.04 360.27 265.388C360.406 265.732 360.474 266.126 360.474 266.57C360.474 266.794 360.45 266.946 360.402 267.026C360.354 267.102 360.262 267.14 360.126 267.14H356.316Z" fill="#0A0A1F"/>
    <path d="M372.931 266.817L381.971 266.817" stroke="black" stroke-width="1.3" stroke-linecap="round"/>
    <path d="M378.882 270.71L382.526 266.895C382.599 266.818 382.599 266.696 382.526 266.619L378.882 262.803" stroke="black" stroke-width="1.3" stroke-linecap="round"/>
    <rect x="287.414" y="110.421" width="284.132" height="56.5684" rx="7.6" stroke="#EEEEEE" stroke-width="0.8"/>
    <rect opacity="0.1" x="295.78" y="119.2" width="37.2603" height="39.0105" rx="6" fill="#559BED"/>
    <path d="M305.644 135.786C307.296 134.442 310.548 132.819 314.411 135.786C319.671 139.828 322.035 137.131 323.178 135.786" stroke="#559BED" stroke-width="1.3" stroke-linecap="round"/>
    <path d="M305.644 141.161C307.296 139.817 310.548 138.193 314.411 141.161C319.671 145.202 322.035 142.505 323.178 141.161" stroke="#559BED" stroke-width="1.3" stroke-linecap="round"/>
    <path d="M347.044 130.319C346.972 130.055 346.744 129.395 346.6 129.035C346.912 128.963 347.176 128.699 347.572 128.267C347.992 127.847 349.252 126.203 350.056 124.595L351.232 125.351C350.32 126.899 349.084 128.483 347.896 129.611V129.647C347.896 129.647 347.044 130.067 347.044 130.319ZM347.044 130.319L346.96 129.179L347.608 128.735L351.028 128.279C350.992 128.651 351.016 129.203 351.064 129.503C347.896 130.007 347.38 130.139 347.044 130.319ZM346.936 127.391C346.864 127.115 346.648 126.443 346.48 126.071C346.732 126.011 346.948 125.759 347.224 125.387C347.488 125.003 348.316 123.551 348.784 122.159L350.152 122.723C349.528 124.139 348.616 125.627 347.776 126.659V126.683C347.776 126.683 346.936 127.139 346.936 127.391ZM346.936 127.391L346.9 126.383L347.512 125.999L350.068 125.819C349.996 126.167 349.924 126.683 349.924 126.959C347.644 127.175 347.212 127.271 346.936 127.391ZM346.576 131.471C347.692 131.219 349.396 130.727 350.992 130.271L351.196 131.519C349.696 131.999 348.088 132.479 346.852 132.863L346.576 131.471ZM351.784 124.223L353.104 124.475C352.924 125.855 352.576 127.343 352.204 128.291C351.916 128.111 351.316 127.847 350.992 127.715C351.364 126.851 351.64 125.483 351.784 124.223ZM355.36 124.355L356.608 123.935C357.136 124.991 357.628 126.323 357.832 127.235L356.5 127.703C356.332 126.803 355.852 125.399 355.36 124.355ZM356.104 128.075L357.46 128.459C356.476 131.351 354.472 132.695 351.208 133.451C351.076 133.031 350.764 132.467 350.464 132.143C353.404 131.639 355.24 130.535 356.104 128.075ZM353.572 122.171H354.952V129.611H353.572V122.171ZM359.068 123.863H369.82V125.243H359.068V123.863ZM364.324 125.687H365.788V133.427H364.324V125.687ZM360.988 127.067H368.404V128.423H362.428V132.359H360.988V127.067ZM367.78 127.067H369.244V130.811C369.244 131.471 369.1 131.843 368.632 132.059C368.164 132.263 367.516 132.275 366.616 132.275C366.556 131.879 366.34 131.327 366.16 130.967C366.712 130.991 367.36 130.991 367.528 130.991C367.72 130.979 367.78 130.931 367.78 130.787V127.067ZM362.92 122.135L364.408 122.471C363.532 125.423 362.032 128.411 359.464 130.199C359.272 129.839 358.9 129.251 358.636 128.927C360.892 127.439 362.284 124.655 362.92 122.135Z" fill="#0A0A1F"/>
    <rect x="583.304" y="110.421" width="284.132" height="56.5684" rx="7.6" stroke="#EEEEEE" stroke-width="0.8"/>
    <rect opacity="0.1" x="591.671" y="119.2" width="37.2603" height="39.0105" rx="6" fill="#21C750"/>
    <path d="M619.564 138.705C619.564 144.103 615.392 148.431 610.301 148.431C605.211 148.431 601.038 144.103 601.038 138.705C601.038 133.307 605.211 128.979 610.301 128.979C615.392 128.979 619.564 133.307 619.564 138.705Z" stroke="#21C750" stroke-width="1.2"/>
    <path d="M608.018 129.526C608.423 132.054 607.694 137.428 601.534 138.705" stroke="#21C750"/>
    <path d="M619.69 138.021C616.965 138.295 611.631 140.675 612.096 148.012" stroke="#21C750"/>
    <path d="M643.09 123.347H652.138V124.811H643.09V123.347ZM651.502 123.347H653.038C653.038 123.347 653.026 123.899 653.014 124.103C652.858 129.767 652.714 131.819 652.174 132.515C651.802 133.031 651.43 133.187 650.89 133.271C650.398 133.355 649.582 133.343 648.826 133.307C648.802 132.875 648.586 132.167 648.286 131.723C649.126 131.795 649.882 131.795 650.23 131.795C650.482 131.795 650.626 131.747 650.782 131.579C651.202 131.135 651.37 128.891 651.502 123.671V123.347ZM646.426 123.707H648.07C647.95 127.139 647.734 131.303 643.522 133.499C643.294 133.091 642.838 132.551 642.406 132.227C646.366 130.343 646.33 126.659 646.426 123.707ZM657.01 125.147H665.11V126.647H657.01V125.147ZM660.718 122.171H662.266V125.759H660.718V122.171ZM656.254 122.411H657.766V126.479C657.766 128.915 657.55 131.567 655.726 133.499C655.486 133.139 654.946 132.575 654.598 132.311C656.086 130.703 656.254 128.483 656.254 126.467V122.411ZM656.974 128.171H663.694V133.427H662.11V129.683H656.974V128.171Z" fill="#0A0A1F"/>
    <g filter="url(#filter3_d_0_1)">
        <rect x="287.014" y="178.863" width="284.932" height="57.3684" rx="8" fill="white"/>
    </g>
    <rect opacity="0.1" x="295.78" y="188.042" width="37.2603" height="39.0105" rx="6" fill="#F78F54"/>
    <path d="M323.674 207.547C323.674 212.945 319.501 217.274 314.411 217.274C309.321 217.274 305.148 212.945 305.148 207.547C305.148 202.149 309.321 197.821 314.411 197.821C319.501 197.821 323.674 202.149 323.674 207.547Z" stroke="#F78F54" stroke-width="1.2"/>
    <path d="M305.644 212.137C308.384 210.798 314.74 208.35 322.63 211.563" stroke="#F78F54" stroke-width="1.2"/>
    <path d="M305.644 203.479C308.384 204.817 315.288 206.744 323.178 203.531" stroke="#F78F54" stroke-width="1.2"/>
    <path d="M314.411 198.368C315.69 201.237 318.247 208.121 314.411 216.726" stroke="#F78F54" stroke-width="1.2"/>
    <path d="M353.476 190.977L355.096 191.097C354.892 191.769 354.664 192.417 354.484 192.861L353.212 192.681C353.32 192.177 353.44 191.481 353.476 190.977ZM353.476 196.329H354.856V202.245H353.476V196.329ZM350.98 197.277H356.452V198.537H352.312V201.249H350.98V197.277ZM356.152 197.277H357.52V199.953C357.52 200.529 357.436 200.865 357.064 201.069C356.692 201.261 356.212 201.273 355.588 201.273C355.54 200.901 355.384 200.409 355.228 200.061C355.552 200.073 355.9 200.073 356.008 200.073C356.116 200.061 356.152 200.037 356.152 199.929V197.277ZM352.6 194.781V195.417H355.864V194.781H352.6ZM352.6 193.173V193.797H355.864V193.173H352.6ZM351.268 192.129H357.256V196.473H351.268V192.129ZM346.72 193.473H350.932V194.817H346.72V193.473ZM348.292 191.001H349.648V202.269H348.292V191.001ZM348.268 194.397L349.108 194.685C348.772 196.605 348.088 198.957 347.236 200.205C347.104 199.797 346.78 199.209 346.564 198.849C347.32 197.793 347.992 195.909 348.268 194.397ZM349.6 195.213C349.888 195.525 350.908 196.941 351.124 197.265L350.32 198.357C350.02 197.673 349.3 196.389 348.952 195.825L349.6 195.213ZM361.12 193.989H369.22V195.489H361.12V193.989ZM364.828 191.013H366.376V194.601H364.828V191.013ZM360.364 191.253H361.876V195.321C361.876 197.757 361.66 200.409 359.836 202.341C359.596 201.981 359.056 201.417 358.708 201.153C360.196 199.545 360.364 197.325 360.364 195.309V191.253ZM361.084 197.013H367.804V202.269H366.22V198.525H361.084V197.013Z" fill="#0A0A1F"/>
    <rect x="583.304" y="179.263" width="284.132" height="56.5684" rx="7.6" stroke="#EEEEEE" stroke-width="0.8"/>
    <rect opacity="0.1" x="591.671" y="188.042" width="37.2603" height="39.0105" rx="6" fill="#C248AD"/>
    <path d="M619.564 207.547C619.564 212.945 615.392 217.274 610.301 217.274C605.211 217.274 601.038 212.945 601.038 207.547C601.038 202.149 605.211 197.821 610.301 197.821C615.392 197.821 619.564 202.149 619.564 207.547Z" stroke="#C248AD" stroke-width="1.2"/>
    <ellipse cx="607.014" cy="204.105" rx="1.09589" ry="1.14737" fill="#C248AD"/>
    <ellipse cx="609.205" cy="207.547" rx="1.09589" ry="1.14737" fill="#C248AD"/>
    <ellipse cx="604.822" cy="207.547" rx="1.09589" ry="1.14737" fill="#C248AD"/>
    <path d="M647.59 192.081L648.538 190.977C649.51 191.433 650.782 192.189 651.394 192.777L650.362 194.013C649.81 193.413 648.574 192.597 647.59 192.081ZM646.798 196.953H653.026V198.333H646.798V196.953ZM645.934 200.517H653.722V201.885H645.934V200.517ZM646.366 193.617H653.47V194.985H646.366V193.617ZM649.102 194.073H650.602V201.129H649.102V194.073ZM643.21 192.117L643.99 191.061C644.758 191.337 645.778 191.853 646.282 192.285L645.442 193.461C644.974 193.029 643.99 192.453 643.21 192.117ZM642.406 195.381L643.15 194.289C643.93 194.553 644.974 195.045 645.49 195.441L644.698 196.641C644.218 196.233 643.198 195.693 642.406 195.381ZM642.922 201.153C643.558 200.253 644.482 198.753 645.202 197.373L646.258 198.321C645.622 199.593 644.854 200.961 644.134 202.125L642.922 201.153ZM656.458 194.073H659.062V195.081H656.458V194.073ZM656.458 195.741H659.062V196.749H656.458V195.741ZM657.154 190.989L658.81 191.169C658.546 191.805 658.258 192.381 658.03 192.789L656.686 192.573C656.854 192.105 657.058 191.457 657.154 190.989ZM655.642 192.333H659.122V193.425H656.926V198.057H655.642V192.333ZM658.678 192.333H659.998V200.805C659.998 201.441 659.878 201.801 659.482 202.017C659.074 202.245 658.522 202.269 657.706 202.269C657.658 201.909 657.454 201.321 657.274 200.997C657.766 201.021 658.282 201.009 658.45 201.009C658.618 200.997 658.678 200.949 658.678 200.781V192.333ZM654.67 197.697C655.726 197.601 657.274 197.445 658.774 197.265L658.822 198.429C657.43 198.633 655.978 198.813 654.85 198.957L654.67 197.697ZM659.338 195.753L660.634 196.149C659.506 198.537 657.61 200.433 655.474 201.585C655.282 201.309 654.814 200.769 654.526 200.517C656.626 199.545 658.39 197.853 659.338 195.753ZM660.334 193.857H665.962V195.189H660.334V193.857ZM663.37 191.073H664.798V200.625C664.798 201.369 664.642 201.753 664.186 201.981C663.73 202.221 663.07 202.281 662.086 202.269C662.026 201.885 661.762 201.237 661.558 200.865C662.218 200.901 662.866 200.889 663.082 200.889C663.298 200.877 663.37 200.817 663.37 200.613V191.073ZM660.682 196.557L661.882 196.077C662.398 196.917 662.89 198.009 663.034 198.753L661.726 199.293C661.606 198.573 661.162 197.433 660.682 196.557ZM669.166 192.585V193.845H670.618V192.585H669.166ZM667.858 191.469H671.998V194.961H667.858V191.469ZM674.422 192.585V193.845H675.874V192.585H674.422ZM673.114 191.469H677.254V194.961H673.114V191.469ZM667.102 195.633H678.034V196.893H667.102V195.633ZM668.734 200.721H671.386V201.909H668.734V200.721ZM673.654 200.721H676.306V201.909H673.654V200.721ZM674.35 195.957C675.106 197.061 676.702 197.973 678.442 198.393C678.142 198.657 677.746 199.197 677.542 199.533C675.646 198.993 674.026 197.889 673.018 196.449L674.35 195.957ZM668.062 198.225H672.058V202.281H670.75V199.413H669.31V202.293H668.062V198.225ZM672.994 198.225H677.014V202.281H675.694V199.413H674.254V202.293H672.994V198.225ZM671.734 194.457L673.126 194.925C672.082 197.145 670.09 198.621 667.558 199.509C667.39 199.197 666.97 198.645 666.694 198.393C669.046 197.637 670.894 196.281 671.734 194.457Z" fill="#0A0A1F"/>
    <path opacity="0.3" d="M395.264 58.4513C394.532 59.7113 393.224 61.2833 391.76 62.2673C391.58 61.8953 391.232 61.3553 390.956 61.0433C392.444 60.0953 393.86 58.3313 394.532 56.9753H395.9C396.836 58.5593 398.276 60.1553 399.68 60.9233C399.38 61.2953 399.068 61.8113 398.84 62.2433C397.46 61.3193 396.032 59.7233 395.264 58.4513ZM396.236 61.2833H397.676V67.9073H396.236V61.2833ZM393.116 61.3073H394.508V63.0593C394.508 64.5233 394.22 66.6593 392.336 68.1233C392.12 67.8353 391.664 67.4033 391.316 67.1633C392.972 65.9753 393.116 64.1273 393.116 63.0353V61.3073ZM390.68 56.8073L392.036 57.2273C391.256 59.2793 390.008 61.4393 388.7 62.8073C388.568 62.4593 388.184 61.6673 387.932 61.3193C389.024 60.2273 390.068 58.5233 390.68 56.8073ZM389.516 60.1193L390.884 58.7513L390.896 58.7633V68.0153H389.516V60.1193ZM406.808 58.0313H409.964V59.2553H406.808V58.0313ZM405.56 63.5273H410.804V67.9913H409.412V64.7393H406.892V68.0273H405.56V63.5273ZM406.1 66.3833H410.168V67.6193H406.1V66.3833ZM406.94 56.7473L408.308 57.1313C407.648 58.7753 406.544 60.3593 405.44 61.3433C405.2 61.0913 404.648 60.5873 404.336 60.3713C405.428 59.5313 406.4 58.1633 406.94 56.7473ZM409.592 58.0313H409.844L410.084 57.9833L410.996 58.3913C410 61.4633 407.66 63.4073 404.936 64.4273C404.768 64.0793 404.408 63.5393 404.132 63.2633C406.616 62.4953 408.824 60.6593 409.592 58.2593V58.0313ZM406.856 58.8593C407.624 60.4673 409.352 62.2433 411.896 62.9513C411.608 63.2273 411.2 63.7913 411.008 64.1513C408.416 63.2273 406.64 61.2473 405.788 59.4113L406.856 58.8593ZM400.604 59.2313H404.9V60.5753H400.604V59.2313ZM402.2 56.7593H403.556V68.0273H402.2V56.7593ZM402.164 60.1553L402.992 60.4433C402.632 62.3753 401.888 64.6793 400.988 65.9153C400.868 65.5193 400.544 64.9553 400.316 64.6073C401.132 63.5633 401.864 61.6913 402.164 60.1553ZM403.508 60.8033C403.784 61.0673 404.768 62.2553 404.984 62.5433L404.204 63.6233C403.916 63.0353 403.208 61.8953 402.86 61.4033L403.508 60.8033Z" fill="#0A0A1F"/>
    <path opacity="0.3" d="M454.201 57.9473H458.713V59.1593H454.201V57.9473ZM459.157 60.8153L464.569 59.9873L464.773 61.2593L459.361 62.1113L459.157 60.8153ZM458.929 63.4913L465.049 62.5793L465.229 63.8513L459.121 64.7993L458.929 63.4913ZM463.417 56.7713L464.605 57.7313C463.177 58.5593 461.173 59.1833 459.373 59.6033C459.301 59.3033 459.085 58.8113 458.905 58.5353C460.585 58.1153 462.397 57.4553 463.417 56.7713ZM460.969 58.7153H462.361V66.0113C462.361 66.5633 462.409 66.6473 462.745 66.6473C462.889 66.6473 463.501 66.6473 463.669 66.6473C463.981 66.6473 464.041 66.3233 464.089 64.9673C464.401 65.2073 464.941 65.4473 465.313 65.5313C465.181 67.2713 464.845 67.8713 463.789 67.8713C463.537 67.8713 462.733 67.8713 462.505 67.8713C461.293 67.8713 460.969 67.4393 460.969 66.0113V58.7153ZM454.045 61.9313H458.977V63.1793H454.045V61.9313ZM454.417 59.9273H458.473V61.1393H454.417V59.9273ZM455.929 56.7473H457.261V68.0153H455.929V56.7473ZM455.989 62.3993L456.889 62.8193C456.361 64.1873 455.437 65.8313 454.465 66.6953C454.333 66.2993 454.045 65.7233 453.841 65.3753C454.681 64.6673 455.569 63.4073 455.989 62.3993ZM457.141 62.8313C457.513 63.1673 458.761 64.5593 459.037 64.9073L458.137 65.9993C457.741 65.3153 456.817 64.0673 456.349 63.4913L457.141 62.8313ZM467.953 58.8833H475.093V58.3433H467.089V57.3833H476.401V59.8313H467.953V58.8833ZM467.713 60.3473H476.269V61.2953H467.449L467.713 60.3473ZM475.813 60.3473H477.157C477.157 60.3473 477.145 60.5873 477.145 60.7433C477.085 61.5713 477.001 62.0273 476.797 62.2673C476.617 62.4713 476.365 62.5553 476.101 62.5673C475.873 62.5913 475.441 62.5913 474.961 62.5673C474.949 62.3033 474.841 61.9193 474.721 61.6553C475.021 61.7033 475.261 61.7033 475.393 61.7033C475.501 61.7033 475.573 61.6913 475.645 61.6193C475.717 61.5113 475.765 61.1993 475.813 60.5033V60.3473ZM469.885 56.7593H471.181V59.4353C471.181 61.2473 470.629 62.7113 467.077 63.3833C466.957 63.0833 466.609 62.5313 466.369 62.2793C469.465 61.7513 469.885 60.7073 469.885 59.4113V56.7593ZM472.513 56.7593H473.857V62.5553H472.513V56.7593ZM467.881 62.7953H475.825V65.9753H474.361V63.9593H469.273V66.0953H467.881V62.7953ZM471.289 64.3553H472.717C472.225 66.3353 471.037 67.4633 466.789 68.0033C466.705 67.6673 466.417 67.0793 466.177 66.7793C470.005 66.4193 470.869 65.6993 471.289 64.3553ZM472.033 66.5273L472.777 65.5793C474.217 65.8913 476.317 66.4913 477.421 66.9473L476.617 68.0393C475.597 67.5833 473.521 66.9113 472.033 66.5273ZM467.401 58.8953H468.685C468.577 59.7113 468.445 60.6713 468.313 61.2953H467.017C467.161 60.6473 467.317 59.6873 467.401 58.8953Z" fill="#0A0A1F"/>
    <g opacity="0.4">
        <ellipse cx="844.602" cy="63.8969" rx="1.9726" ry="2.06526" fill="#0A0A1F"/>
        <ellipse cx="852.493" cy="63.8968" rx="1.9726" ry="2.06526" fill="#0A0A1F"/>
        <ellipse cx="860.383" cy="63.8968" rx="1.9726" ry="2.06526" fill="#0A0A1F"/>
    </g>
    <path d="M287.65 57.3473H292.978V58.6553H287.65V57.3473ZM293.962 60.8273H298.678V62.2073H293.962V60.8273ZM296.17 61.7993H297.598V68.0393H296.17V61.7993ZM293.386 57.8273L295.114 58.2353C295.102 58.3553 295.018 58.4153 294.802 58.4513V61.1753C294.802 63.1193 294.526 66.0833 292.618 68.0153C292.426 67.7033 291.886 67.2113 291.55 67.0433C293.23 65.3393 293.386 62.9513 293.386 61.1633V57.8273ZM288.034 59.5553H289.402V62.6273C289.402 64.2473 289.234 66.5753 288.298 68.0513C288.07 67.7993 287.47 67.3433 287.17 67.1873C287.962 65.8913 288.034 64.0073 288.034 62.6153V59.5553ZM297.334 56.8793L298.594 57.9593C297.31 58.5953 295.618 59.0873 294.154 59.4113C294.07 59.0873 293.842 58.5593 293.662 58.2593C295.006 57.9233 296.47 57.3953 297.334 56.8793ZM288.826 59.5553H292.726V63.6593H288.826V62.3753H291.334V60.8513H288.826V59.5553ZM299.902 58.2113H310.606V59.5553H299.902V58.2113ZM303.142 62.5313H308.362V63.7313H303.142V62.5313ZM302.074 60.5033H308.146V61.7633H303.502V68.0153H302.074V60.5033ZM307.858 60.5033H309.262V66.4673C309.262 67.1753 309.13 67.5713 308.638 67.7993C308.158 68.0153 307.474 68.0273 306.502 68.0273C306.442 67.6313 306.25 67.0193 306.058 66.6473C306.682 66.6833 307.39 66.6713 307.594 66.6713C307.786 66.6713 307.858 66.6113 307.858 66.4433V60.5033ZM303.622 56.7473L305.11 57.0833C304.27 59.7953 302.83 62.5553 300.49 64.1873C300.286 63.8633 299.83 63.3473 299.542 63.0713C301.678 61.6673 303.022 59.0873 303.622 56.7473ZM303.142 64.5113H308.362V65.7113H303.142V64.5113Z" fill="#0A0A1F"/>
    <line x1="288.014" y1="83.7789" x2="312.315" y2="83.7789" stroke="#0A0A1F" stroke-width="2" stroke-linecap="round"/>
    <defs>
        <filter id="filter0_b_0_1" x="1.53418" y="-8.00018" width="325.479" height="350.779" filterUnits="userSpaceOnUse" color-interpolation-filters="sRGB">
            <feFlood flood-opacity="0" result="BackgroundImageFix"/>
            <feGaussianBlur in="BackgroundImageFix" stdDeviation="20"/>
            <feComposite in2="SourceAlpha" operator="in" result="effect1_backgroundBlur_0_1"/>
            <feBlend mode="normal" in="SourceGraphic" in2="effect1_backgroundBlur_0_1" result="shape"/>
        </filter>
        <filter id="filter1_d_0_1" x="0.00012207" y="130.147" width="243.068" height="123.726" filterUnits="userSpaceOnUse" color-interpolation-filters="sRGB">
            <feFlood flood-opacity="0" result="BackgroundImageFix"/>
            <feColorMatrix in="SourceAlpha" type="matrix" values="0 0 0 0 0 0 0 0 0 0 0 0 0 0 0 0 0 0 127 0" result="hardAlpha"/>
            <feOffset dy="12"/>
            <feGaussianBlur stdDeviation="12"/>
            <feColorMatrix type="matrix" values="0 0 0 0 0.0374256 0 0 0 0 0.0407613 0 0 0 0 0.120819 0 0 0 0.06 0"/>
            <feBlend mode="normal" in2="BackgroundImageFix" result="effect1_dropShadow_0_1"/>
            <feBlend mode="normal" in="SourceGraphic" in2="effect1_dropShadow_0_1" result="shape"/>
        </filter>
        <filter id="filter2_d_0_1" x="194.52" y="-0.000183105" width="706.192" height="334.779" filterUnits="userSpaceOnUse" color-interpolation-filters="sRGB">
            <feFlood flood-opacity="0" result="BackgroundImageFix"/>
            <feColorMatrix in="SourceAlpha" type="matrix" values="0 0 0 0 0 0 0 0 0 0 0 0 0 0 0 0 0 0 127 0" result="hardAlpha"/>
            <feOffset dx="-32"/>
            <feGaussianBlur stdDeviation="16"/>
            <feColorMatrix type="matrix" values="0 0 0 0 0.0374256 0 0 0 0 0.0407613 0 0 0 0 0.120819 0 0 0 0.02 0"/>
            <feBlend mode="normal" in2="BackgroundImageFix" result="effect1_dropShadow_0_1"/>
            <feBlend mode="normal" in="SourceGraphic" in2="effect1_dropShadow_0_1" result="shape"/>
        </filter>
        <filter id="filter3_d_0_1" x="263.014" y="166.863" width="332.932" height="105.368" filterUnits="userSpaceOnUse" color-interpolation-filters="sRGB">
            <feFlood flood-opacity="0" result="BackgroundImageFix"/>
            <feColorMatrix in="SourceAlpha" type="matrix" values="0 0 0 0 0 0 0 0 0 0 0 0 0 0 0 0 0 0 127 0" result="hardAlpha"/>
            <feOffset dy="12"/>
            <feGaussianBlur stdDeviation="12"/>
            <feColorMatrix type="matrix" values="0 0 0 0 0.0374256 0 0 0 0 0.0407613 0 0 0 0 0.120819 0 0 0 0.04 0"/>
            <feBlend mode="normal" in2="BackgroundImageFix" result="effect1_dropShadow_0_1"/>
            <feBlend mode="normal" in="SourceGraphic" in2="effect1_dropShadow_0_1" result="shape"/>
        </filter>
        <linearGradient id="paint0_linear_0_1" x1="71.1234" y1="173.794" x2="210.302" y2="174.857" gradientUnits="userSpaceOnUse">
            <stop stop-color="white"/>
            <stop offset="1" stop-color="#F4F4F5"/>
        </linearGradient>
    </defs>
</svg>
