<svg width="42" height="44" viewBox="0 0 42 44" fill="none" xmlns="http://www.w3.org/2000/svg">
    <rect opacity="0.1" width="41.6438" height="43.6" rx="8" fill="#C248AD"/>
    <g opacity="0.6">
        <path d="M17.4282 28.684C17.6457 26.8902 19.1252 23.3025 23.3025 23.3025C27.4799 23.3025 28.9594 26.8902 29.1769 28.684" stroke="#C248AD" stroke-width="1.3" stroke-linecap="round"/>
        <ellipse cx="23.302" cy="18.0748" rx="2.34975" ry="2.46013" stroke="#C248AD" stroke-width="1.3"/>
        <path d="M11.5534 24.3302C11.6967 23.1483 12.6715 20.7847 15.4236 20.7847C17.4278 20.7847 18.6027 22.485 18.6027 22.485" stroke="#C248AD" stroke-width="1.2" stroke-linecap="round"/>
        <path d="M16.9283 17.1854C16.9283 18.0501 16.2644 18.7114 15.4932 18.7114C14.722 18.7114 14.0581 18.0501 14.0581 17.1854C14.0581 16.3208 14.722 15.6594 15.4932 15.6594C16.2644 15.6594 16.9283 16.3208 16.9283 17.1854Z" stroke="#C248AD"/>
    </g>
</svg>
