<svg width="321" height="312" viewBox="0 0 321 312" fill="none" xmlns="http://www.w3.org/2000/svg">
    <rect width="318.476" height="309.557" rx="10" transform="matrix(0.999985 -0.0054928 -0.00539025 0.999985 1.93224 1.94678)" fill="white"/>
    <path d="M45.1699 251.84L301.907 250.43" stroke="#E4E4E4" stroke-opacity="0.2" stroke-linecap="square"/>
    <path d="M45.3691 214.894L302.106 213.484" stroke="#E4E4E4" stroke-opacity="0.2" stroke-linecap="square"/>
    <path d="M45.5682 177.947L302.305 176.537" stroke="#E4E4E4" stroke-opacity="0.2" stroke-linecap="square"/>
    <path d="M45.7674 141.001L302.504 139.59" stroke="#E4E4E4" stroke-opacity="0.2" stroke-linecap="square"/>
    <path d="M45.9665 104.054L302.703 102.644" stroke="#E4E4E4" stroke-opacity="0.2" stroke-linecap="square"/>
    <path d="M237.247 271.331C238.227 273.096 240.086 275.066 241.654 276.047C241.444 276.213 241.145 276.534 240.99 276.766C239.434 275.652 237.62 273.55 236.552 271.609L237.247 271.331ZM236.092 271.348L236.827 271.619C235.77 273.803 233.934 275.837 232.091 276.903C231.938 276.684 231.665 276.366 231.468 276.202C233.288 275.257 235.135 273.3 236.092 271.348ZM231.838 270.843L241.308 270.791L241.304 271.605L231.833 271.657L231.838 270.843ZM236.186 268.048L237.088 268.043L237.034 278.152L236.132 278.156L236.186 268.048ZM237.789 268.721L238.396 268.211C239.065 268.67 239.941 269.336 240.379 269.774L239.76 270.36C239.333 269.911 238.468 269.212 237.789 268.721ZM244.178 271.04L252.692 270.993L252.688 271.785L244.174 271.832L244.178 271.04ZM245.907 276.761L251.154 276.732L251.15 277.513L245.903 277.542L245.907 276.761ZM243.761 268.831L244.816 269.034C244.804 269.122 244.738 269.167 244.584 269.189L244.569 271.928C244.56 273.71 244.381 276.296 243.062 278.129C242.942 277.943 242.635 277.67 242.416 277.572C243.602 275.894 243.735 273.616 243.744 271.922L243.761 268.831ZM251.102 268.043L251.791 268.688C249.787 269.216 246.76 269.573 244.174 269.764C244.153 269.555 244.034 269.236 243.958 269.061C246.489 268.86 249.449 268.481 251.102 268.043ZM245.518 273.397L251.722 273.363L251.697 278.06L250.861 278.065L250.882 274.138L246.306 274.163L246.285 278.101L245.493 278.105L245.518 273.397ZM234.863 281.01L235.664 281.237C235.141 282.505 234.298 283.719 233.403 284.505C233.272 284.352 232.965 284.057 232.768 283.926C233.641 283.239 234.416 282.157 234.863 281.01ZM234.846 282.132L239.575 282.106L239.572 282.821L234.468 282.849L234.846 282.132ZM234.927 285.41L234.923 286.169L238.212 286.151L238.216 285.392L234.927 285.41ZM234.934 284.101L234.93 284.849L238.219 284.831L238.223 284.083L234.934 284.101ZM234.178 283.522L239.018 283.495L239.001 286.729L234.161 286.756L234.178 283.522ZM235.548 286.506L236.295 286.733C235.629 287.848 234.48 288.811 233.387 289.422C233.267 289.269 232.983 288.984 232.796 288.853C233.91 288.319 234.971 287.477 235.548 286.506ZM235.122 287.895C236.007 289.166 237.948 290.123 240.125 290.43C239.948 290.596 239.726 290.938 239.615 291.148C237.395 290.742 235.487 289.641 234.505 288.129L235.122 287.895ZM235.279 287.377L238.524 287.359L238.521 287.975L234.88 287.995L235.279 287.377ZM238.26 287.36L238.425 287.359L238.568 287.326L239.084 287.576C238.05 289.649 235.69 290.729 233.29 291.215C233.214 291.007 233.039 290.722 232.908 290.558C235.143 290.182 237.403 289.18 238.26 287.481L238.26 287.36ZM249.713 284.977L250.571 284.972C250.571 284.972 250.569 285.258 250.557 285.368C250.395 288.955 250.245 290.187 249.902 290.596C249.67 290.873 249.438 290.962 249.064 290.986C248.745 291.01 248.173 291.002 247.612 290.983C247.602 290.763 247.505 290.444 247.385 290.236C247.979 290.277 248.518 290.285 248.738 290.284C248.936 290.283 249.046 290.26 249.146 290.138C249.422 289.851 249.572 288.541 249.712 285.131L249.713 284.977ZM246.683 283.849L247.519 283.845C247.336 287.047 246.948 289.788 243.322 291.116C243.235 290.93 243.005 290.634 242.83 290.47C246.268 289.285 246.535 286.765 246.683 283.849ZM242.722 282.045L252.402 281.992L252.397 282.773L242.717 282.826L242.722 282.045ZM245.213 280.986L246.027 280.982L246.011 284.007L245.197 284.011L245.213 280.986ZM249.063 280.965L249.888 280.961L249.872 283.986L249.047 283.99L249.063 280.965ZM243.476 285.011L250.142 284.974L250.137 285.755L243.471 285.792L243.476 285.011ZM244.358 286.656L245.038 286.982C244.66 287.754 244.115 288.747 243.474 289.389L242.794 288.952C243.447 288.366 244.024 287.417 244.358 286.656ZM250.604 286.853L251.288 286.607C251.757 287.352 252.268 288.372 252.474 289.009L251.757 289.321C251.552 288.662 251.062 287.631 250.604 286.853Z" fill="#999999"/>
    <path d="M184.981 269.143L194.617 269.09L194.613 269.893L184.977 269.946L184.981 269.143ZM188.397 272.182L193.028 272.157L193.024 272.96L188.393 272.985L188.397 272.182ZM192.742 272.158L193.6 272.153C193.6 272.153 193.587 272.439 193.576 272.56C193.37 276.114 193.175 277.446 192.744 277.911C192.489 278.198 192.214 278.277 191.785 278.312C191.378 278.347 190.597 278.33 189.849 278.29C189.828 278.048 189.72 277.707 189.556 277.477C190.381 277.561 191.184 277.556 191.481 277.555C191.734 277.553 191.877 277.531 191.999 277.409C192.363 277.088 192.558 275.712 192.741 272.301L192.742 272.158ZM187.959 269.775L188.806 269.771C188.701 272.895 188.483 276.625 185.217 278.447C185.086 278.239 184.835 277.976 184.616 277.812C187.749 276.145 187.867 272.636 187.959 269.775ZM200.941 269.22L201.766 269.249C201.569 273.265 201.167 276.314 199.583 278.368C199.441 278.237 199.057 277.986 198.86 277.877C200.432 276.021 200.811 272.983 200.941 269.22ZM199.689 268.941L204.034 268.917L204.03 269.698L199.685 269.722L199.689 268.941ZM203.292 271.924L204.865 271.916L204.861 272.652L203.046 272.662L203.292 271.924ZM204.634 271.917L204.799 271.916L204.953 271.882L205.458 272.088C204.758 275.304 203.054 277.315 200.991 278.361C200.882 278.174 200.587 277.868 200.411 277.737C202.44 276.791 204.045 274.956 204.633 272.093L204.634 271.917ZM201.532 271.802C202.267 274.35 203.783 276.662 205.879 277.63C205.691 277.785 205.436 278.094 205.303 278.304C203.142 277.194 201.648 274.793 200.827 272.015L201.532 271.802ZM203.682 268.919L204.529 268.914C204.203 270.148 203.744 271.713 203.442 272.66L202.617 272.665C202.963 271.684 203.412 270.098 203.682 268.919ZM195.936 275.539C195.892 275.375 195.773 275.001 195.676 274.793C195.918 274.748 196.183 274.46 196.538 274.051C196.914 273.642 198.121 272.063 198.91 270.54L199.601 270.954C198.691 272.488 197.583 274.012 196.499 275.107L196.499 275.118C196.499 275.118 195.936 275.374 195.936 275.539ZM195.936 275.539L195.873 274.847L196.271 274.526L199.444 273.628C199.432 273.837 199.452 274.156 199.484 274.332C196.553 275.217 196.178 275.362 195.936 275.539ZM195.884 272.845C195.841 272.669 195.711 272.285 195.624 272.065C195.822 272.02 196.022 271.755 196.277 271.38C196.532 271.004 197.365 269.57 197.845 268.225L198.613 268.584C198.011 269.962 197.19 271.386 196.381 272.391L196.381 272.413C196.381 272.413 195.885 272.68 195.884 272.845ZM195.884 272.845L195.865 272.229L196.263 271.974L198.332 271.742C198.287 271.952 198.263 272.26 198.262 272.425C196.38 272.677 196.072 272.756 195.884 272.845ZM195.708 276.872C196.656 276.569 198.089 276.034 199.478 275.509L199.628 276.234C198.327 276.747 196.949 277.283 195.913 277.684L195.708 276.872ZM193.001 281.284L193.613 281.952C191.619 282.546 188.361 282.861 185.688 282.985C185.667 282.776 185.57 282.447 185.494 282.26C188.112 282.125 191.326 281.81 193.001 281.284ZM185.493 284.427L194.073 284.38L194.069 285.172L185.489 285.219L185.493 284.427ZM184.742 287.016L194.675 286.962L194.671 287.765L184.738 287.819L184.742 287.016ZM189.309 282.47L190.167 282.466L190.125 290.254C190.122 290.837 189.945 291.091 189.526 291.225C189.108 291.359 188.392 291.385 187.227 291.381C187.173 291.15 187.021 290.777 186.89 290.557C187.803 290.585 188.683 290.57 188.925 290.557C189.178 290.556 189.266 290.478 189.268 290.247L189.309 282.47ZM201.354 284.527C202.334 286.293 204.194 288.262 205.761 289.244C205.551 289.41 205.253 289.731 205.097 289.962C203.541 288.849 201.727 286.747 200.659 284.806L201.354 284.527ZM200.199 284.545L200.934 284.816C199.878 286.999 198.041 289.033 196.198 290.099C196.045 289.88 195.772 289.563 195.575 289.399C197.395 288.454 199.242 286.497 200.199 284.545ZM195.945 284.04L205.416 283.988L205.411 284.802L195.94 284.854L195.945 284.04ZM200.294 281.244L201.196 281.239L201.141 291.348L200.239 291.353L200.294 281.244ZM201.896 281.917L202.504 281.408C203.172 281.866 204.048 282.533 204.486 282.97L203.867 283.556C203.44 283.108 202.575 282.409 201.896 281.917Z" fill="#999999"/>
    <path d="M137.54 272.912L147.407 272.858L147.403 273.661L137.536 273.715L137.54 272.912ZM142.01 270.028L142.89 270.023L142.844 278.658L141.964 278.663L142.01 270.028ZM145.714 268.666L146.337 269.366C144.277 269.982 141.084 270.429 138.366 270.675C138.345 270.477 138.237 270.148 138.15 269.95C140.824 269.682 143.962 269.225 145.714 268.666ZM153.629 269.48L154.454 269.509C154.256 273.524 153.855 276.574 152.271 278.628C152.128 278.497 151.745 278.246 151.547 278.137C153.119 276.281 153.499 273.243 153.629 269.48ZM152.376 269.201L156.721 269.177L156.717 269.958L152.372 269.982L152.376 269.201ZM155.979 272.184L157.552 272.175L157.548 272.912L155.733 272.922L155.979 272.184ZM157.321 272.177L157.486 272.176L157.64 272.142L158.145 272.348C157.446 275.564 155.741 277.575 153.679 278.62C153.57 278.434 153.274 278.128 153.099 277.997C155.128 277.05 156.733 275.216 157.32 272.353L157.321 272.177ZM154.22 272.062C154.954 274.61 156.471 276.922 158.566 277.89C158.378 278.045 158.124 278.354 157.991 278.564C155.83 277.454 154.336 275.053 153.515 272.275L154.22 272.062ZM156.369 269.179L157.216 269.174C156.891 270.408 156.431 271.973 156.129 272.92L155.304 272.925C155.65 271.944 156.099 270.357 156.369 269.179ZM148.623 275.799C148.58 275.635 148.461 275.261 148.363 275.053C148.605 275.007 148.871 274.72 149.225 274.311C149.601 273.902 150.809 272.322 151.598 270.8L152.289 271.214C151.378 272.748 150.27 274.272 149.186 275.367L149.186 275.378C149.186 275.378 148.624 275.634 148.623 275.799ZM148.623 275.799L148.561 275.107L148.958 274.785L152.131 273.888C152.119 274.097 152.139 274.416 152.171 274.592C149.241 275.477 148.866 275.622 148.623 275.799ZM148.571 273.105C148.528 272.929 148.399 272.545 148.312 272.325C148.51 272.28 148.709 272.015 148.964 271.64C149.219 271.264 150.052 269.83 150.532 268.485L151.3 268.844C150.699 270.222 149.877 271.646 149.069 272.651L149.069 272.673C149.069 272.673 148.572 272.94 148.571 273.105ZM148.571 273.105L148.553 272.489L148.95 272.234L151.019 272.002C150.974 272.212 150.951 272.52 150.95 272.685C149.067 272.937 148.759 273.016 148.571 273.105ZM148.396 277.131C149.343 276.829 150.776 276.293 152.165 275.769L152.315 276.494C151.014 277.007 149.637 277.543 148.6 277.944L148.396 277.131ZM145.688 281.544L146.3 282.212C144.306 282.806 141.049 283.121 138.375 283.245C138.354 283.036 138.257 282.707 138.181 282.52C140.8 282.385 144.013 282.07 145.688 281.544ZM138.181 284.687L146.76 284.64L146.756 285.432L138.176 285.479L138.181 284.687ZM137.43 287.276L147.362 287.222L147.358 288.025L137.425 288.079L137.43 287.276ZM141.997 282.73L142.855 282.726L142.813 290.514C142.81 291.097 142.632 291.351 142.214 291.485C141.795 291.619 141.08 291.645 139.914 291.64C139.86 291.41 139.708 291.037 139.577 290.817C140.49 290.845 141.37 290.829 141.612 290.817C141.865 290.816 141.954 290.738 141.955 290.507L141.997 282.73ZM154.041 284.787C155.022 286.553 156.881 288.522 158.449 289.504C158.239 289.67 157.94 289.99 157.785 290.222C156.229 289.109 154.414 287.007 153.347 285.066L154.041 284.787ZM152.886 284.804L153.622 285.075C152.565 287.259 150.728 289.293 148.885 290.359C148.733 290.14 148.459 289.823 148.262 289.659C150.082 288.714 151.93 286.757 152.886 284.804ZM148.632 284.3L158.103 284.248L158.099 285.062L148.628 285.114L148.632 284.3ZM152.981 281.504L153.883 281.499L153.829 291.608L152.927 291.613L152.981 281.504ZM154.583 282.177L155.191 281.668C155.86 282.126 156.736 282.792 157.174 283.23L156.554 283.816C156.128 283.368 155.263 282.669 154.583 282.177Z" fill="#999999"/>
    <path d="M89.8713 269.434L99.4851 269.381L99.4808 270.184L89.867 270.237L89.8713 269.434ZM91.6801 274.649L97.818 274.615L97.8139 275.374L91.676 275.408L91.6801 274.649ZM91.6869 277.465L97.7258 277.432L97.7216 278.213L91.6827 278.246L91.6869 277.465ZM94.1707 269.697L95.1485 269.9C94.924 270.737 94.6878 271.718 94.4753 272.357L93.7065 272.152C93.886 271.491 94.0897 270.434 94.1707 269.697ZM91.1121 271.869L98.372 271.829L98.3337 278.924L97.4648 278.929L97.4988 272.615L91.9439 272.646L91.9098 278.96L91.0739 278.964L91.1121 271.869ZM105.819 269.743L106.644 269.771C106.446 273.787 106.045 276.836 104.461 278.891C104.318 278.76 103.935 278.509 103.737 278.4C105.309 276.543 105.689 273.505 105.819 269.743ZM104.566 269.464L108.911 269.44L108.907 270.221L104.562 270.245L104.566 269.464ZM108.169 272.447L109.742 272.438L109.738 273.175L107.923 273.185L108.169 272.447ZM109.511 272.439L109.676 272.438L109.83 272.405L110.335 272.611C109.636 275.826 107.931 277.838 105.869 278.883C105.76 278.697 105.464 278.39 105.289 278.259C107.318 277.313 108.923 275.478 109.51 272.615L109.511 272.439ZM106.41 272.324C107.144 274.872 108.661 277.185 110.756 278.152C110.569 278.307 110.314 278.617 110.181 278.826C108.02 277.716 106.526 275.316 105.705 272.537L106.41 272.324ZM108.559 269.442L109.406 269.437C109.081 270.671 108.621 272.235 108.319 273.183L107.494 273.187C107.841 272.206 108.289 270.62 108.559 269.442ZM100.813 276.062C100.77 275.897 100.651 275.524 100.553 275.315C100.795 275.27 101.061 274.983 101.415 274.574C101.791 274.165 102.999 272.585 103.788 271.063L104.479 271.477C103.568 273.011 102.46 274.535 101.376 275.63L101.376 275.641C101.376 275.641 100.814 275.897 100.813 276.062ZM100.813 276.062L100.751 275.369L101.149 275.048L104.321 274.151C104.309 274.36 104.329 274.679 104.361 274.854C101.431 275.74 101.056 275.885 100.813 276.062ZM100.762 273.367C100.719 273.192 100.589 272.807 100.502 272.588C100.7 272.543 100.899 272.278 101.154 271.902C101.409 271.527 102.242 270.092 102.722 268.748L103.49 269.107C102.889 270.485 102.067 271.908 101.259 272.914L101.259 272.936C101.259 272.936 100.762 273.202 100.762 273.367ZM100.762 273.367L100.743 272.751L101.14 272.496L103.209 272.265C103.164 272.474 103.141 272.782 103.14 272.947C101.257 273.2 100.949 273.278 100.762 273.367ZM100.586 277.394C101.533 277.092 102.966 276.556 104.355 276.031L104.505 276.757C103.204 277.27 101.827 277.805 100.791 278.207L100.586 277.394ZM97.8782 281.807L98.4906 282.474C96.4965 283.068 93.2389 283.383 90.5654 283.508C90.5445 283.299 90.4473 282.97 90.3713 282.783C92.9899 282.648 96.2035 282.333 97.8782 281.807ZM90.3706 284.95L98.9505 284.903L98.9462 285.695L90.3664 285.742L90.3706 284.95ZM89.6197 287.539L99.5525 287.484L99.5482 288.287L89.6154 288.342L89.6197 287.539ZM94.187 282.993L95.045 282.988L95.003 290.776C94.9999 291.359 94.8225 291.613 94.4038 291.747C93.9851 291.882 93.27 291.908 92.1041 291.903C92.0503 291.672 91.8983 291.299 91.7675 291.08C92.6803 291.108 93.5604 291.092 93.8024 291.08C94.0554 291.078 94.1438 291.001 94.1451 290.77L94.187 282.993ZM106.231 285.05C107.212 286.815 109.071 288.785 110.639 289.766C110.429 289.932 110.13 290.253 109.975 290.485C108.419 289.372 106.604 287.27 105.537 285.329L106.231 285.05ZM105.076 285.067L105.812 285.338C104.755 287.522 102.918 289.556 101.076 290.622C100.923 290.403 100.649 290.085 100.452 289.921C102.272 288.976 104.12 287.019 105.076 285.067ZM100.822 284.562L110.293 284.51L110.289 285.324L100.818 285.376L100.822 284.562ZM105.171 281.767L106.073 281.762L106.019 291.871L105.117 291.876L105.171 281.767ZM106.773 282.44L107.381 281.931C108.05 282.389 108.926 283.055 109.364 283.493L108.744 284.079C108.318 283.63 107.453 282.931 106.773 282.44Z" fill="#999999"/>
    <path d="M284.71 269.343C285.847 269.337 286.714 269.669 287.311 270.341C287.909 271.012 288.205 271.949 288.198 273.152C288.192 274.354 287.886 275.295 287.281 275.973C286.676 276.651 285.805 276.993 284.669 276.999L282.084 277.013L282.125 269.357L284.71 269.343ZM284.751 276.075C285.543 276.07 286.138 275.81 286.537 275.295C286.943 274.772 287.148 274.059 287.153 273.157C287.158 272.255 286.96 271.549 286.56 271.038C286.167 270.519 285.574 270.262 284.782 270.267L283.088 270.276L283.057 276.084L284.751 276.075ZM294.747 274.92L291.062 274.94L290.27 276.968L289.302 276.973L292.291 269.301L293.633 269.294L296.54 276.934L295.517 276.939L294.747 274.92ZM294.432 274.096L292.936 270.145L291.385 274.113L294.432 274.096ZM300.579 277.044C300.154 277.046 299.71 276.993 299.249 276.886C298.787 276.778 298.352 276.63 297.942 276.442L297.948 275.397C298.43 275.658 298.877 275.85 299.287 275.973C299.704 276.095 300.114 276.155 300.518 276.153C301.024 276.15 301.417 276.034 301.696 275.805C301.976 275.577 302.117 275.264 302.12 274.868C302.121 274.597 302.045 274.37 301.892 274.187C301.739 274.005 301.546 273.859 301.312 273.751C301.077 273.642 300.763 273.523 300.368 273.393C299.892 273.234 299.508 273.082 299.215 272.937C298.93 272.792 298.685 272.584 298.481 272.314C298.278 272.044 298.177 271.693 298.179 271.26C298.183 270.615 298.42 270.1 298.891 269.716C299.363 269.325 299.995 269.127 300.787 269.123C301.557 269.118 302.263 269.28 302.907 269.606L302.901 270.618C302.178 270.211 301.471 270.01 300.782 270.014C300.276 270.016 299.879 270.121 299.592 270.328C299.305 270.528 299.161 270.804 299.159 271.156C299.157 271.398 299.23 271.599 299.375 271.759C299.521 271.92 299.7 272.051 299.912 272.152C300.124 272.247 300.424 272.362 300.812 272.499C301.295 272.658 301.691 272.814 301.998 272.966C302.305 273.118 302.564 273.34 302.775 273.633C302.994 273.925 303.102 274.302 303.099 274.764C303.097 275.218 302.992 275.619 302.785 275.964C302.577 276.303 302.283 276.569 301.9 276.761C301.518 276.947 301.078 277.041 300.579 277.044ZM282.464 282.08L288.91 282.044L288.906 282.825L282.46 282.861L282.464 282.08ZM288.448 282.047L289.273 282.042L289.26 284.374C289.259 284.638 289.314 284.682 289.633 284.68C289.776 284.68 290.491 284.676 290.678 284.675C290.975 284.673 291.03 284.53 291.058 283.408C291.234 283.539 291.585 283.669 291.805 283.733C291.72 285.109 291.487 285.451 290.761 285.455C290.574 285.456 289.694 285.461 289.518 285.462C288.671 285.467 288.431 285.237 288.435 284.39L288.448 282.047ZM285.584 280.754L286.431 280.749C286.143 283.171 285.473 284.967 282.301 285.843C282.214 285.645 282.007 285.327 281.842 285.174C284.816 284.421 285.342 282.845 285.584 280.754ZM284.194 287.68L285.017 287.94C284.451 288.845 283.501 289.741 282.673 290.306C282.52 290.142 282.191 289.847 281.994 289.716C282.843 289.227 283.705 288.475 284.194 287.68ZM288.306 288.009L289.001 287.632C289.756 288.254 290.698 289.129 291.156 289.732L290.428 290.165C290.002 289.562 289.083 288.654 288.306 288.009ZM286.33 285.27L287.21 285.266L287.185 289.875C287.182 290.359 287.071 290.59 286.718 290.724C286.366 290.847 285.816 290.85 284.958 290.855C284.915 290.635 284.785 290.295 284.665 290.064C285.303 290.094 285.908 290.08 286.084 290.068C286.249 290.067 286.304 290.022 286.305 289.868L286.33 285.27ZM282.078 286.306L291.494 286.254L291.49 287.035L282.074 287.087L282.078 286.306ZM299.409 285.155L300.287 285.392C299.061 288.467 296.633 290.01 293.251 290.875C293.164 290.667 292.902 290.294 292.727 290.097C296.064 289.386 298.382 287.943 299.409 285.155ZM295.833 283.282L296.667 283.597C295.881 284.657 294.643 285.698 293.572 286.375C293.43 286.199 293.113 285.871 292.905 285.718C293.986 285.14 295.157 284.221 295.833 283.282ZM296.262 285.227C297.271 287.828 299.495 289.455 302.902 289.997C302.714 290.185 302.47 290.561 302.348 290.792C298.843 290.14 296.641 288.393 295.48 285.473L296.262 285.227ZM293.012 282.154L302.67 282.101L302.666 282.904L293.008 282.957L293.012 282.154ZM297.398 280.678L298.245 280.673L298.234 282.642L297.387 282.647L297.398 280.678ZM299.119 283.726L299.804 283.216C300.834 283.904 302.127 284.92 302.75 285.642L302.032 286.218C301.442 285.495 300.172 284.435 299.119 283.726Z" fill="#999999"/>
    <path d="M48.979 272.365C49.9595 274.13 51.8188 276.1 53.3864 277.081C53.1765 277.248 52.8778 277.568 52.7226 277.8C51.1666 276.687 49.3521 274.585 48.2846 272.644L48.979 272.365ZM47.824 272.382L48.5595 272.653C47.5028 274.837 45.6659 276.871 43.8232 277.937C43.6704 277.718 43.3971 277.4 43.2 277.236C45.02 276.291 46.8675 274.334 47.824 272.382ZM43.5699 271.878L53.0408 271.826L53.0364 272.64L43.5655 272.692L43.5699 271.878ZM47.9188 269.082L48.8208 269.077L48.7663 279.186L47.8643 279.191L47.9188 269.082ZM49.5211 269.755L50.1288 269.246C50.7973 269.704 51.6737 270.37 52.1113 270.808L51.4922 271.394C51.0656 270.945 50.2004 270.246 49.5211 269.755ZM54.4324 270.762L64.2663 270.708L64.2621 271.478L54.4283 271.532L54.4324 270.762ZM55.5463 274.298L58.6263 274.281L58.6228 274.93L55.5428 274.947L55.5463 274.298ZM55.5368 276.058L58.6168 276.041L58.6133 276.69L55.5333 276.707L55.5368 276.058ZM60.4724 272.577L61.2534 272.572L61.229 277.093L60.448 277.098L60.4724 272.577ZM58.3389 272.489L59.1419 272.485L59.1113 278.172C59.109 278.59 59.0088 278.81 58.7001 278.944C58.4024 279.078 57.9184 279.08 57.1704 279.085C57.1276 278.876 57.0082 278.568 56.8994 278.36C57.4492 278.379 57.9552 278.376 58.1093 278.364C58.2633 278.353 58.3076 278.308 58.3084 278.165L58.3389 272.489ZM62.7071 272.234L63.5211 272.23L63.4896 278.071C63.487 278.555 63.3758 278.786 63.0341 278.92C62.6924 279.043 62.1423 279.068 61.2843 279.073C61.2415 278.853 61.1114 278.502 60.9916 278.283C61.6625 278.301 62.2565 278.298 62.4435 278.286C62.6196 278.274 62.6748 278.229 62.6756 278.075L62.7071 272.234ZM56.1453 269.29L56.9058 268.999C57.3323 269.47 57.7908 270.117 57.9974 270.544L57.1819 270.846C57.0081 270.429 56.5607 269.76 56.1453 269.29ZM61.8009 268.94L62.6794 269.221C62.2577 269.905 61.7586 270.667 61.3488 271.186L60.6243 270.915C61.0232 270.385 61.5227 269.535 61.8009 268.94ZM55.116 272.507L58.6029 272.488L58.5991 273.203L55.8931 273.218L55.8615 279.081L55.0805 279.085L55.116 272.507ZM47.5174 286.417L52.7973 286.388L52.7932 287.136L47.5133 287.165L47.5174 286.417ZM47.5054 288.639L52.7853 288.61L52.7813 289.347L47.5014 289.376L47.5054 288.639ZM47.5263 290.883L53.2902 290.851L53.286 291.632L47.5221 291.664L47.5263 290.883ZM49.8487 284.48L50.6407 284.475L50.6037 291.328L49.8118 291.332L49.8487 284.48ZM50.6865 282.099L51.5212 282.325C51.2198 283.141 50.8516 284.111 50.5513 284.729L49.8816 284.501C50.171 283.862 50.5066 282.815 50.6865 282.099ZM48.0138 282.059L48.8156 282.274C48.1899 284.093 47.2013 285.869 46.1282 287.019C45.9971 286.855 45.7018 286.526 45.5156 286.384C46.5662 285.344 47.4659 283.723 48.0138 282.059ZM47.9031 284.237L53.073 284.209L53.069 284.957L47.8991 284.985L47.8603 292.179L47.0793 292.183L47.1187 284.879L47.7381 284.238L47.9031 284.237ZM43.4971 283.337L44.0282 282.763C44.7298 283.21 45.6062 283.865 46.0106 284.336L45.4572 284.988C45.0638 284.506 44.2096 283.807 43.4971 283.337ZM43.1379 290.808C43.725 290.035 44.5899 288.743 45.256 287.607L45.8581 288.142C45.2474 289.202 44.4819 290.427 43.8279 291.354L43.1379 290.808ZM57.3586 282.953L62.0775 282.927L62.0735 283.664L57.3546 283.69L57.3586 282.953ZM61.8135 282.929L61.9895 282.928L62.1327 282.894L62.6699 283.221C61.0951 285.606 57.568 286.956 54.4633 287.49C54.3876 287.248 54.2245 286.886 54.0935 286.711C57.0876 286.288 60.4823 285.015 61.8129 283.05L61.8135 282.929ZM57.3106 283.702C58.6441 285.256 61.4439 286.209 64.456 286.522C64.279 286.71 64.0572 287.052 63.9459 287.284C60.9451 286.904 58.1349 285.853 56.5935 284.079L57.3106 283.702ZM55.6301 287.33L62.846 287.29L62.8202 292.075L61.9292 292.08L61.951 288.032L56.4731 288.062L56.4511 292.143L55.6041 292.148L55.6301 287.33ZM55.9612 289.165L62.3411 289.13L62.3375 289.801L55.9575 289.836L55.9612 289.165ZM55.951 291.057L62.3309 291.022L62.327 291.748L55.9471 291.783L55.951 291.057ZM58.8072 287.653L59.6652 287.648L59.6447 291.443L58.7867 291.448L58.8072 287.653ZM57.8478 281.983L58.7268 282.154C57.9835 283.335 56.8552 284.507 55.1675 285.407C55.0476 285.199 54.7961 284.925 54.6098 284.794C56.1978 284.038 57.2927 282.932 57.8478 281.983Z" fill="#999999"/>
    <path fill-rule="evenodd" clip-rule="evenodd" d="M241.356 250.763C239.462 250.773 237.935 249.246 237.945 247.352L238.158 207.782C238.168 205.888 239.712 204.344 241.606 204.334C243.501 204.323 245.028 205.85 245.018 207.744L244.804 247.314C244.794 249.208 243.25 250.752 241.356 250.763Z" fill="#0066FF"/>
    <path fill-rule="evenodd" clip-rule="evenodd" d="M241.628 200.354C239.734 200.364 238.206 198.837 238.217 196.943L238.305 180.588C238.315 178.694 239.859 177.15 241.753 177.139C243.647 177.129 245.174 178.656 245.164 180.55L245.076 196.905C245.066 198.8 243.522 200.343 241.628 200.354Z" fill="#68A5EE"/>
    <path fill-rule="evenodd" clip-rule="evenodd" d="M241.774 173.16C239.88 173.17 238.353 171.643 238.363 169.749L238.398 163.343C238.408 161.448 239.952 159.905 241.846 159.894C243.74 159.884 245.267 161.411 245.257 163.305L245.223 169.711C245.212 171.605 243.669 173.149 241.774 173.16Z" fill="#D688CA"/>
    <path fill-rule="evenodd" clip-rule="evenodd" d="M287.218 250.511C285.324 250.521 283.797 248.994 283.807 247.1L284.197 174.622C284.208 172.727 285.751 171.183 287.646 171.173C289.54 171.163 291.067 172.69 291.057 174.584L290.666 247.063C290.656 248.957 289.112 250.501 287.218 250.511Z" fill="#0066FF"/>
    <path fill-rule="evenodd" clip-rule="evenodd" d="M287.682 164.373C285.788 164.383 284.261 162.856 284.271 160.962L284.448 128.152C284.458 126.258 286.002 124.714 287.896 124.704C289.79 124.693 291.318 126.22 291.307 128.114L291.13 160.924C291.12 162.818 289.576 164.362 287.682 164.373Z" fill="#68A5EE"/>
    <path fill-rule="evenodd" clip-rule="evenodd" d="M287.933 117.903C286.039 117.914 284.511 116.387 284.522 114.492L284.607 98.6838C284.617 96.7897 286.161 95.2457 288.055 95.2353C289.949 95.2249 291.476 96.752 291.466 98.6462L291.381 114.455C291.371 116.349 289.827 117.893 287.933 117.903Z" fill="#D688CA"/>
    <path fill-rule="evenodd" clip-rule="evenodd" d="M195.494 251.015C193.6 251.025 192.073 249.498 192.083 247.604L192.387 191.197C192.397 189.303 193.941 187.759 195.835 187.749C197.729 187.738 199.257 189.265 199.246 191.159L198.942 247.566C198.932 249.461 197.388 251.004 195.494 251.015Z" fill="#0066FF"/>
    <path fill-rule="evenodd" clip-rule="evenodd" d="M195.865 182.326C193.97 182.336 192.443 180.809 192.453 178.915L192.587 154.141C192.597 152.247 194.141 150.703 196.035 150.692C197.929 150.682 199.456 152.209 199.446 154.103L199.313 178.877C199.303 180.771 197.759 182.315 195.865 182.326Z" fill="#68A5EE"/>
    <path fill-rule="evenodd" clip-rule="evenodd" d="M196.064 145.27C194.17 145.28 192.643 143.753 192.653 141.859L192.714 130.642C192.724 128.748 194.268 127.204 196.162 127.194C198.056 127.183 199.583 128.71 199.573 130.605L199.512 141.821C199.502 143.715 197.958 145.259 196.064 145.27Z" fill="#D688CA"/>
    <path fill-rule="evenodd" clip-rule="evenodd" d="M149.632 251.267C147.738 251.277 146.211 249.75 146.221 247.856L146.468 202.163C146.478 200.269 148.022 198.725 149.916 198.715C151.81 198.705 153.337 200.232 153.327 202.126L153.081 247.818C153.07 249.712 151.527 251.256 149.632 251.267Z" fill="#0066FF"/>
    <path fill-rule="evenodd" clip-rule="evenodd" d="M149.94 194.21C148.046 194.221 146.519 192.694 146.529 190.799L146.633 171.383C146.644 169.489 148.188 167.945 150.082 167.934C151.976 167.924 153.503 169.451 153.493 171.345L153.388 190.762C153.378 192.656 151.834 194.2 149.94 194.21Z" fill="#68A5EE"/>
    <path fill-rule="evenodd" clip-rule="evenodd" d="M150.106 163.43C148.212 163.44 146.685 161.913 146.695 160.019L146.739 151.864C146.749 149.97 148.293 148.426 150.187 148.415C152.081 148.405 153.608 149.932 153.598 151.826L153.554 159.982C153.544 161.876 152 163.42 150.106 163.43Z" fill="#D688CA"/>
    <path fill-rule="evenodd" clip-rule="evenodd" d="M103.771 251.519C101.876 251.529 100.349 250.002 100.359 248.108L100.573 208.538C100.583 206.644 102.127 205.1 104.021 205.089C105.915 205.079 107.442 206.606 107.432 208.5L107.219 248.07C107.209 249.964 105.665 251.508 103.771 251.519Z" fill="#0066FF"/>
    <path fill-rule="evenodd" clip-rule="evenodd" d="M104.042 201.11C102.148 201.12 100.621 199.593 100.631 197.699L100.719 181.344C100.73 179.449 102.273 177.905 104.167 177.895C106.062 177.885 107.589 179.412 107.579 181.306L107.491 197.661C107.48 199.555 105.936 201.099 104.042 201.11Z" fill="#68A5EE"/>
    <path fill-rule="evenodd" clip-rule="evenodd" d="M104.189 173.915C102.295 173.926 100.768 172.399 100.778 170.505L100.812 164.098C100.822 162.204 102.366 160.66 104.26 160.65C106.155 160.639 107.682 162.167 107.672 164.061L107.637 170.467C107.627 172.361 106.083 173.905 104.189 173.915Z" fill="#D688CA"/>
    <path fill-rule="evenodd" clip-rule="evenodd" d="M57.9087 251.77C56.0146 251.781 54.4873 250.254 54.4975 248.36L54.8373 185.32C54.8475 183.426 56.3913 181.882 58.2855 181.871C60.1797 181.861 61.7069 183.388 61.6967 185.282L61.3569 248.322C61.3467 250.216 59.8029 251.76 57.9087 251.77Z" fill="#0066FF"/>
    <path fill-rule="evenodd" clip-rule="evenodd" d="M58.3178 175.88C56.4237 175.891 54.8964 174.363 54.9066 172.469L55.0581 144.379C55.0683 142.485 56.6121 140.941 58.5062 140.931C60.4004 140.92 61.9276 142.447 61.9174 144.341L61.766 172.432C61.7558 174.326 60.212 175.87 58.3178 175.88Z" fill="#68A5EE"/>
    <path fill-rule="evenodd" clip-rule="evenodd" d="M58.5385 134.939C56.6444 134.95 55.1171 133.423 55.1273 131.528L55.198 118.417C55.2082 116.522 56.752 114.979 58.6462 114.968C60.5403 114.958 62.0676 116.485 62.0574 118.379L61.9867 131.491C61.9765 133.385 60.4327 134.929 58.5385 134.939Z" fill="#D688CA"/>
    <path d="M34.8904 253.54C33.9371 253.545 33.2351 253.189 32.7843 252.473C32.3409 251.75 32.1224 250.79 32.1288 249.595C32.1353 248.4 32.3641 247.441 32.8153 246.72C33.2738 245.992 33.9798 245.625 34.9331 245.62C35.8864 245.615 36.5848 245.974 37.0282 246.697C37.479 247.413 37.7012 248.369 37.6947 249.564C37.6883 250.76 37.4558 251.722 36.9972 252.45C36.546 253.171 35.8437 253.534 34.8904 253.54ZM34.8952 252.66C35.5552 252.656 36.0113 252.382 36.2635 251.838C36.5158 251.287 36.6446 250.531 36.6497 249.57C36.6549 248.61 36.5343 247.859 36.2879 247.317C36.0415 246.769 35.5884 246.496 34.9284 246.5C34.2684 246.503 33.8122 246.781 33.5599 247.332C33.3077 247.876 33.179 248.629 33.1738 249.589C33.1686 250.55 33.2892 251.305 33.5356 251.853C33.782 252.394 34.2352 252.663 34.8952 252.66Z" fill="#999999"/>
    <path d="M23.9939 215.598L23.9889 216.522L18.907 216.55L18.9109 215.813L21.6767 212.861C22.1045 212.404 22.3961 212.043 22.5515 211.778C22.707 211.506 22.7854 211.234 22.7869 210.963C22.7892 210.537 22.648 210.212 22.3632 209.986C22.0785 209.753 21.6758 209.638 21.1551 209.641C20.4511 209.645 19.7937 209.854 19.1828 210.268L19.188 209.3C19.7986 208.937 20.4706 208.754 21.2039 208.75C21.7246 208.747 22.1788 208.832 22.5665 209.006C22.9615 209.173 23.2646 209.413 23.4755 209.727C23.6865 210.041 23.7909 210.407 23.7886 210.825C23.7865 211.214 23.6891 211.607 23.4963 212.004C23.3108 212.401 23.0337 212.787 22.6651 213.163L20.2869 215.618L23.9939 215.598ZM28.2684 216.63C27.3151 216.636 26.613 216.28 26.1622 215.564C25.7188 214.841 25.5003 213.881 25.5068 212.686C25.5132 211.49 25.7421 210.532 26.1933 209.811C26.6518 209.083 27.3578 208.716 28.3111 208.711C29.2644 208.705 29.9628 209.064 30.4062 209.788C30.857 210.504 31.0791 211.46 31.0727 212.655C31.0663 213.851 30.8338 214.812 30.3752 215.541C29.924 216.262 29.2217 216.625 28.2684 216.63ZM28.2731 215.75C28.9331 215.747 29.3893 215.473 29.6415 214.929C29.8938 214.378 30.0225 213.622 30.0277 212.661C30.0329 211.7 29.9123 210.949 29.6659 210.408C29.4195 209.859 28.9663 209.587 28.3063 209.591C27.6464 209.594 27.1902 209.872 26.9379 210.423C26.6857 210.967 26.5569 211.719 26.5518 212.68C26.5466 213.641 26.6672 214.395 26.9136 214.944C27.16 215.485 27.6132 215.754 28.2731 215.75ZM35.0896 216.593C34.1363 216.598 33.4342 216.243 32.9834 215.527C32.54 214.803 32.3215 213.844 32.328 212.648C32.3344 211.453 32.5632 210.495 33.0144 209.774C33.473 209.045 34.179 208.678 35.1323 208.673C36.0856 208.668 36.784 209.027 37.2274 209.751C37.6782 210.467 37.9003 211.422 37.8939 212.618C37.8874 213.813 37.6549 214.775 37.1964 215.503C36.7452 216.225 36.0429 216.588 35.0896 216.593ZM35.0943 215.713C35.7543 215.709 36.2104 215.436 36.4627 214.892C36.715 214.34 36.8437 213.584 36.8489 212.624C36.8541 211.663 36.7335 210.912 36.4871 210.371C36.2407 209.822 35.7875 209.549 35.1275 209.553C34.4675 209.557 34.0114 209.834 33.7591 210.386C33.5069 210.93 33.3781 211.682 33.373 212.643C33.3678 213.603 33.4884 214.358 33.7347 214.907C33.9811 215.448 34.4343 215.717 35.0943 215.713Z" fill="#999999"/>
    <path d="M24.6817 177.78L23.4717 177.786L23.4621 179.579L22.4941 179.585L22.5037 177.792L18.8738 177.812L18.8778 177.075L18.9438 177.063L18.8779 177.042L22.5353 171.929L23.5033 171.924L23.4765 176.906L24.6864 176.9L24.6817 177.78ZM22.5085 176.912L22.5283 173.238L19.9675 176.926L22.5085 176.912ZM28.4676 179.684C27.5142 179.689 26.8122 179.334 26.3614 178.618C25.918 177.894 25.6995 176.935 25.7059 175.739C25.7124 174.544 25.9412 173.586 26.3924 172.865C26.851 172.136 27.5569 171.769 28.5102 171.764C29.4636 171.759 30.1619 172.118 30.6053 172.841C31.0561 173.558 31.2783 174.513 31.2719 175.709C31.2654 176.904 31.0329 177.866 30.5743 178.594C30.1231 179.316 29.4209 179.679 28.4676 179.684ZM28.4723 178.804C29.1323 178.8 29.5884 178.526 29.8407 177.982C30.093 177.431 30.2217 176.675 30.2269 175.714C30.2321 174.754 30.1114 174.003 29.865 173.462C29.6187 172.913 29.1655 172.64 28.5055 172.644C27.8455 172.648 27.3894 172.925 27.1371 173.477C26.8848 174.021 26.7561 174.773 26.7509 175.734C26.7457 176.694 26.8663 177.449 27.1127 177.997C27.3591 178.539 27.8123 178.808 28.4723 178.804ZM35.2887 179.646C34.3354 179.652 33.6334 179.296 33.1826 178.58C32.7392 177.857 32.5207 176.897 32.5271 175.702C32.5336 174.506 32.7624 173.548 33.2136 172.827C33.6722 172.099 34.3781 171.732 35.3314 171.727C36.2847 171.721 36.9831 172.08 37.4265 172.804C37.8773 173.52 38.0995 174.476 38.093 175.671C38.0866 176.867 37.8541 177.828 37.3955 178.557C36.9443 179.278 36.2421 179.641 35.2887 179.646ZM35.2935 178.766C35.9535 178.763 36.4096 178.489 36.6618 177.945C36.9141 177.394 37.0429 176.638 37.0481 175.677C37.0532 174.716 36.9326 173.965 36.6862 173.424C36.4399 172.875 35.9867 172.603 35.3267 172.607C34.6667 172.61 34.2106 172.888 33.9583 173.439C33.706 173.983 33.5773 174.735 33.5721 175.696C33.5669 176.657 33.6875 177.411 33.9339 177.96C34.1803 178.501 34.6335 178.77 35.2935 178.766Z" fill="#999999"/>
    <path d="M22.1027 137.923C22.6086 137.92 23.0518 138.016 23.432 138.212C23.8197 138.401 24.1189 138.67 24.3296 139.021C24.5404 139.372 24.6445 139.778 24.642 140.24C24.6394 140.732 24.5197 141.169 24.283 141.551C24.0536 141.934 23.733 142.233 23.3212 142.448C22.9094 142.663 22.4432 142.771 21.9225 142.774C21.0132 142.779 20.311 142.453 19.8159 141.796C19.3208 141.139 19.0764 140.216 19.0828 139.028C19.0875 138.17 19.2198 137.429 19.4798 136.804C19.7398 136.179 20.1127 135.701 20.5985 135.368C21.0843 135.028 21.6535 134.856 22.3062 134.853C22.6582 134.851 23.0026 134.896 23.3394 134.99C23.6836 135.083 24.0055 135.217 24.3052 135.392L24.3 136.36L24.256 136.36C23.9565 136.149 23.6457 135.989 23.3236 135.881C23.0015 135.773 22.6828 135.719 22.3675 135.721C21.7002 135.725 21.1745 135.981 20.7904 136.489C20.4064 136.997 20.1898 137.72 20.1408 138.659C20.4428 138.408 20.7481 138.223 21.0567 138.104C21.3727 137.985 21.7213 137.925 22.1027 137.923ZM21.9052 141.905C22.2205 141.904 22.5069 141.832 22.7643 141.692C23.0291 141.551 23.2354 141.355 23.3834 141.105C23.5314 140.855 23.6063 140.576 23.6079 140.268C23.6104 139.821 23.4619 139.466 23.1627 139.204C22.8708 138.934 22.4829 138.8 21.9989 138.803C21.3976 138.806 20.7767 139.033 20.1363 139.484C20.1834 140.276 20.3561 140.88 20.6545 141.296C20.953 141.705 21.3699 141.908 21.9052 141.905ZM28.6667 142.737C27.7134 142.743 27.0113 142.387 26.5605 141.671C26.1171 140.947 25.8986 139.988 25.9051 138.793C25.9115 137.597 26.1403 136.639 26.5915 135.918C27.0501 135.189 27.7561 134.823 28.7094 134.817C29.6627 134.812 30.3611 135.171 30.8045 135.895C31.2553 136.611 31.4774 137.567 31.471 138.762C31.4646 139.957 31.232 140.919 30.7735 141.648C30.3223 142.369 29.62 142.732 28.6667 142.737ZM28.6714 141.857C29.3314 141.854 29.7876 141.58 30.0398 141.036C30.2921 140.484 30.4208 139.728 30.426 138.768C30.4312 137.807 30.3106 137.056 30.0642 136.515C29.8178 135.966 29.3646 135.694 28.7046 135.697C28.0447 135.701 27.5885 135.978 27.3362 136.53C27.084 137.074 26.9552 137.826 26.9501 138.787C26.9449 139.748 27.0655 140.502 27.3118 141.051C27.5583 141.592 28.0114 141.861 28.6714 141.857ZM35.4879 142.7C34.5346 142.705 33.8325 142.35 33.3817 141.633C32.9383 140.91 32.7198 139.95 32.7263 138.755C32.7327 137.56 32.9615 136.602 33.4127 135.881C33.8713 135.152 34.5773 134.785 35.5306 134.78C36.4839 134.775 37.1823 135.134 37.6257 135.857C38.0765 136.574 38.2986 137.529 38.2922 138.725C38.2857 139.92 38.0532 140.882 37.5947 141.61C37.1435 142.331 36.4412 142.695 35.4879 142.7ZM35.4926 141.82C36.1526 141.816 36.6087 141.542 36.861 140.998C37.1133 140.447 37.242 139.691 37.2472 138.73C37.2524 137.77 37.1318 137.019 36.8854 136.477C36.639 135.929 36.1858 135.656 35.5258 135.66C34.8658 135.664 34.4097 135.941 34.1574 136.492C33.9051 137.036 33.7764 137.789 33.7713 138.749C33.7661 139.71 33.8867 140.465 34.133 141.013C34.3794 141.555 34.8326 141.823 35.4926 141.82Z" fill="#999999"/>
    <path d="M22.0557 105.828C21.5203 105.831 21.0405 105.738 20.6162 105.55C20.1919 105.362 19.8597 105.099 19.6195 104.763C19.3867 104.42 19.2715 104.036 19.2738 103.61C19.2761 103.178 19.3955 102.796 19.6319 102.464C19.8684 102.133 20.1739 101.901 20.5486 101.766C20.2119 101.651 19.9418 101.432 19.7382 101.111C19.5347 100.782 19.434 100.416 19.4361 100.013C19.4384 99.5947 19.554 99.2274 19.7831 98.9108C20.0121 98.5942 20.3251 98.3505 20.722 98.1797C21.1262 98.0015 21.5814 97.911 22.0874 97.9082C22.5934 97.9054 23.0439 97.9909 23.4389 98.1648C23.8413 98.3312 24.1554 98.5715 24.381 98.8856C24.6066 99.1996 24.7183 99.5657 24.7161 99.9837C24.7139 100.38 24.6093 100.743 24.4022 101.074C24.2025 101.398 23.9263 101.623 23.5736 101.75C23.9762 101.887 24.2865 102.124 24.5047 102.46C24.7303 102.788 24.8419 103.162 24.8397 103.58C24.8373 104.012 24.7143 104.398 24.4704 104.737C24.234 105.075 23.9025 105.341 23.4762 105.534C23.0572 105.727 22.5837 105.825 22.0557 105.828ZM22.0801 101.296C22.6008 101.293 23.0047 101.181 23.2919 100.959C23.5791 100.731 23.7238 100.414 23.726 100.011C23.7281 99.6078 23.5868 99.2969 23.302 99.0785C23.0172 98.86 22.6108 98.7523 22.0828 98.7552C21.5548 98.7581 21.1472 98.8703 20.86 99.0919C20.5729 99.3135 20.4282 99.6259 20.426 100.029C20.4238 100.433 20.5651 100.747 20.8499 100.973C21.142 101.191 21.5521 101.299 22.0801 101.296ZM22.0383 104.97C22.6103 104.967 23.0509 104.847 23.3602 104.611C23.6695 104.367 23.8253 104.025 23.8277 103.585C23.8301 103.138 23.678 102.794 23.3713 102.554C23.0646 102.314 22.6289 102.195 22.0642 102.198C21.4996 102.201 21.0626 102.325 20.7533 102.568C20.444 102.812 20.2881 103.158 20.2857 103.605C20.2834 104.045 20.4319 104.385 20.7312 104.625C21.0379 104.858 21.4736 104.973 22.0383 104.97ZM28.8659 105.791C27.9125 105.796 27.2105 105.44 26.7597 104.724C26.3163 104.001 26.0978 103.041 26.1042 101.846C26.1107 100.651 26.3395 99.6924 26.7907 98.9713C27.2493 98.2428 27.9552 97.876 28.9085 97.8707C29.8619 97.8655 30.5602 98.2246 31.0036 98.9482C31.4544 99.6643 31.6766 100.62 31.6702 101.815C31.6637 103.011 31.4312 103.973 30.9726 104.701C30.5214 105.422 29.8192 105.785 28.8659 105.791ZM28.8706 104.911C29.5306 104.907 29.9867 104.633 30.239 104.089C30.4913 103.538 30.62 102.782 30.6252 101.821C30.6304 100.86 30.5097 100.11 30.2633 99.5682C30.017 99.0196 29.5638 98.7471 28.9038 98.7507C28.2438 98.7543 27.7877 99.0318 27.5354 99.5832C27.2831 100.127 27.1544 100.88 27.1492 101.84C27.1441 102.801 27.2646 103.556 27.511 104.104C27.7574 104.645 28.2106 104.914 28.8706 104.911ZM35.687 105.753C34.7337 105.758 34.0317 105.403 33.5809 104.687C33.1375 103.963 32.919 103.004 32.9254 101.808C32.9319 100.613 33.1607 99.655 33.6119 98.9338C34.0705 98.2054 34.7764 97.8385 35.7297 97.8333C36.6831 97.828 37.3814 98.1872 37.8248 98.9107C38.2756 99.6269 38.4978 100.583 38.4913 101.778C38.4849 102.973 38.2524 103.935 37.7938 104.664C37.3426 105.385 36.6404 105.748 35.687 105.753ZM35.6918 104.873C36.3518 104.87 36.8079 104.596 37.0602 104.052C37.3124 103.5 37.4412 102.744 37.4464 101.784C37.4515 100.823 37.3309 100.072 37.0845 99.5307C36.8382 98.9821 36.385 98.7096 35.725 98.7132C35.065 98.7169 34.6089 98.9944 34.3566 99.5457C34.1043 100.09 33.9756 100.842 33.9704 101.803C33.9652 102.763 34.0858 103.518 34.3322 104.067C34.5786 104.608 35.0318 104.877 35.6918 104.873Z" fill="#999999"/>
    <rect width="7.8394" height="7.98858" rx="3.9197" transform="matrix(0.999985 -0.0054928 -0.00539025 0.999985 185.842 59.0792)" fill="#D688CA"/>
    <path d="M199.147 63.1677L209.947 63.1083L209.939 64.4283L199.14 64.4876L199.147 63.1677ZM199.552 57.0217L209.68 56.9661L209.673 58.2861L199.545 58.3417L199.552 57.0217ZM202.133 59.0714L206.993 59.0447L206.986 60.2447L202.126 60.2714L202.133 59.0714ZM202.122 61.0874L206.982 61.0607L206.975 62.2607L202.115 62.2874L202.122 61.0874ZM201.238 55.8365L202.666 55.8287L202.623 63.8565L201.195 63.8644L201.238 55.8365ZM206.458 55.8078L207.922 55.7998L207.879 63.8277L206.415 63.8357L206.458 55.8078ZM205.146 65.4266L206.183 64.533C207.548 64.9934 209.093 65.6329 210.002 66.0839L208.606 67.0035C207.84 66.5398 206.464 65.8994 205.146 65.4266ZM202.728 64.4319L203.923 65.3733C202.827 66.0033 201.192 66.6843 199.918 67.0753C199.703 66.7764 199.286 66.2988 198.987 66.0004C200.249 65.6575 201.885 64.9765 202.728 64.4319ZM217.882 55.7691L219.226 55.7617L219.181 64.1256L217.837 64.133L217.882 55.7691ZM213.8 60.4953L220.943 57.6842L221.477 58.9292L214.346 61.7642L213.8 60.4953ZM215.283 57.0793L216.711 57.0715L216.67 64.6913C216.666 65.4113 216.785 65.5187 217.577 65.5143C217.937 65.5123 219.581 65.5033 220.001 65.501C220.697 65.4972 220.831 65.2085 220.946 63.8399C221.269 64.0661 221.844 64.3029 222.251 64.3967C222.049 66.1977 221.614 66.7881 220.102 66.7964C219.694 66.7986 217.822 66.8089 217.45 66.811C215.71 66.8205 215.233 66.3672 215.242 64.6992L215.283 57.0793ZM220.45 57.9269L220.366 57.9273L220.619 57.746L220.872 57.5526L221.854 57.9312L221.793 58.1475C221.769 60.2475 221.75 61.6996 221.675 62.216C221.612 62.8283 221.394 63.1415 220.985 63.3237C220.624 63.4817 220.06 63.5088 219.628 63.4991C219.606 63.0913 219.477 62.492 219.323 62.1809C219.575 62.1915 219.923 62.1896 220.055 62.1889C220.223 62.1879 220.307 62.1515 220.369 61.9111C220.418 61.6469 220.436 60.4468 220.45 57.9269ZM213.49 55.7932L214.82 56.2059C214.041 58.2381 212.781 60.4049 211.478 61.78C211.347 61.4447 210.968 60.6668 210.73 60.3202C211.827 59.2222 212.869 57.5125 213.49 55.7932ZM212.26 59.1118L213.684 57.7001L213.683 57.7121L213.633 66.9999L212.217 67.0077L212.26 59.1118Z" fill="#151522"/>
    <rect width="7.83942" height="7.98857" rx="3.91971" transform="matrix(0.999985 -0.0054928 -0.00539025 0.999985 100.59 59.5475)" fill="#68A5EE"/>
    <path d="M118.336 56.5558L119.98 56.5468C119.861 58.5634 119.674 64.4201 114.75 67.4591C114.5 67.0885 114.034 66.647 113.544 66.3137C118.382 63.6113 118.244 58.1283 118.336 56.5558ZM119.931 56.8591C119.961 57.9029 120.181 63.8894 125.088 66.1663C124.63 66.5168 124.196 66.9992 123.978 67.3964C118.82 64.8568 118.627 58.2462 118.538 57.0107L119.931 56.8591ZM128.985 57.9133L128.98 58.8253L133.696 58.7994L133.7 57.8874L128.985 57.9133ZM127.479 56.6976L135.315 56.6546L135.297 60.0145L127.461 60.0576L127.479 56.6976ZM130.447 62.693L132.007 62.6845L132.001 63.7645C131.994 65.0364 131.266 66.5884 126.916 67.5962C126.738 67.2852 126.285 66.7237 125.939 66.4256C130.071 65.659 130.437 64.541 130.441 63.737L130.447 62.693ZM131.726 65.8659L132.427 64.7941C133.721 65.1709 135.686 65.8321 136.691 66.2946L135.952 67.5226C135.019 67.0477 133.079 66.3144 131.726 65.8659ZM126.941 60.8404L135.845 60.7915L135.822 65.0394L134.25 65.0481L134.266 62.1201L128.434 62.1521L128.417 65.2481L126.917 65.2563L126.941 60.8404Z" fill="#151522"/>
    <rect width="7.83941" height="7.98858" rx="3.91971" transform="matrix(0.999985 -0.0054928 -0.00539025 0.999985 17.2974 60.005)" fill="#0066FF"/>
    <path d="M31.2479 57.7662L32.1766 56.8851C32.8218 57.4095 33.6935 58.1967 34.0987 58.7105L33.1213 59.7118C32.7403 59.1739 31.8928 58.3386 31.2479 57.7662ZM31.9616 67.8418L31.6444 66.5836L31.8987 66.1382L34.2855 64.1212C34.4034 64.5045 34.6405 65.0432 34.819 65.3182C32.5769 67.2145 32.1791 67.5526 31.9616 67.8418ZM30.4415 60.4465L32.6135 60.4346L32.606 61.8145L30.4341 61.8265L30.4415 60.4465ZM36.0273 57.104L39.2912 57.086L39.284 58.418L36.0201 58.4359L36.0273 57.104ZM34.5853 61.9357L40.0572 61.9056L40.05 63.2496L34.578 63.2796L34.5853 61.9357ZM39.6252 61.908L39.8772 61.9066L40.1295 61.8572L41.0034 62.2244C40.0011 65.6257 37.5687 67.211 34.3847 67.9725C34.2667 67.6132 33.9818 67.0388 33.7435 66.7281C36.6022 66.2084 38.8539 64.7561 39.6241 62.112L39.6252 61.908ZM36.1513 63.031C37.0891 64.9098 39.0381 66.207 41.6873 66.6964C41.3857 66.9981 40.9985 67.5882 40.8165 67.9732C38.0121 67.3286 36.1124 65.7911 34.9491 63.4456L36.1513 63.031ZM35.6793 57.1059L37.0232 57.0985L37.016 58.4425C37.0095 59.6544 36.6182 61.0005 34.898 61.8019C34.7315 61.5269 34.2185 60.9657 33.9557 60.7512C35.4711 60.1069 35.6678 59.2298 35.6722 58.4138L35.6793 57.1059ZM38.6312 57.0896L39.9872 57.0822L39.973 59.7102C39.9712 60.0582 39.9944 60.202 40.1744 60.201C40.2944 60.2004 40.6544 60.1984 40.7984 60.1976C40.9784 60.1966 41.2786 60.159 41.4468 60.1101C41.4689 60.4699 41.5022 60.9737 41.5484 61.2974C41.368 61.3824 41.0799 61.396 40.8039 61.3975C40.6239 61.3985 40.2039 61.4008 40.0359 61.4017C38.8479 61.4083 38.6107 60.9056 38.6171 59.7056L38.6312 57.0896ZM31.9616 67.8418C31.8554 67.5064 31.4867 66.8965 31.2481 66.6338C31.5131 66.4403 31.8515 66.0065 31.8545 65.4425L31.8815 60.4386L33.2735 60.4309L33.2411 66.4308C33.2411 66.4308 31.9643 67.3258 31.9616 67.8418ZM46.032 57.625L51.0719 57.5973L51.0652 58.8453L46.0253 58.873L46.032 57.625ZM50.5919 57.5999L50.8919 57.5983L51.1203 57.537L52.0653 58.0838C50.3701 60.913 46.6669 62.2773 42.8481 62.8262C42.7302 62.4309 42.4696 61.8084 42.2314 61.4857C45.8453 61.0938 49.3195 59.9108 50.5909 57.7919L50.5919 57.5999ZM46.0136 58.813C47.5181 60.1847 50.5735 61.0199 53.8599 61.2898C53.5462 61.6155 53.1589 62.2296 52.9647 62.6267C49.6669 62.2608 46.6605 61.2334 44.7861 59.4677L46.0136 58.813ZM43.7972 62.617L52.1011 62.5714L52.0724 67.8873L50.4884 67.896L50.5104 63.8161L45.2905 63.8448L45.2685 67.9367L43.7685 67.945L43.7972 62.617ZM44.483 64.4972L51.0829 64.4609L51.0769 65.5769L44.477 65.6132L44.483 64.4972ZM44.4729 66.3692L51.0728 66.3329L51.0662 67.5689L44.4663 67.6051L44.4729 66.3692ZM47.2145 63.0902L48.7145 63.082L48.6932 67.0299L47.1932 67.0382L47.2145 63.0902ZM46.3735 56.6031L47.9078 56.9067C46.9282 58.328 45.6256 59.5591 43.6884 60.5417C43.4863 60.1948 43.045 59.6933 42.7342 59.467C44.5143 58.7013 45.7201 57.6147 46.3735 56.6031Z" fill="#151522"/>
    <path d="M21.849 21.4631L27.3929 21.4327L27.3786 24.0726L21.8347 24.1031L21.849 21.4631ZM26.2889 21.4387L29.0968 21.4233C29.0968 21.4233 29.069 22.1434 29.0672 22.4794C28.9437 27.5679 28.8122 29.7045 28.2562 30.4515C27.773 31.0542 27.2918 31.2728 26.5952 31.3966C25.9467 31.4962 24.9147 31.5018 23.7869 31.484C23.7434 30.6443 23.4375 29.518 23.0094 28.8004C23.8728 28.8917 24.6888 28.8872 25.0728 28.8851C25.4088 28.8832 25.6251 28.8341 25.8183 28.593C26.1084 28.2074 26.2135 26.5269 26.2866 21.8707L26.2889 21.4387ZM33.5533 13.8872L35.2907 12.1257C36.6069 12.8144 38.3769 13.9087 39.2367 14.6959L37.3782 16.65C36.5907 15.8144 34.8931 14.6478 33.5533 13.8872ZM36.352 20.0395L39.2522 20.7196C37.2025 26.9945 33.6482 31.8858 28.8805 34.8399C28.4518 34.2423 27.4023 33.0481 26.8054 32.4754C31.4266 29.9781 34.666 25.6165 36.352 20.0395ZM22.0462 16.0383L40.5499 15.9366L40.5346 18.7686L22.0309 18.8702L22.0462 16.0383ZM20.1262 16.0488L23.1502 16.0322L23.1121 23.0881C23.0927 26.6881 22.656 32.0182 20.4546 35.2702C19.9777 34.6968 18.6874 33.648 18.0172 33.3156C19.8807 30.4255 20.0714 26.2247 20.0883 23.0807L20.1262 16.0488ZM29.8893 12.4194L32.9133 12.4027C32.6925 22.1955 34.8486 31.8073 37.2726 31.7939C37.8246 31.7909 38.1192 30.5653 38.2795 27.5406C38.9238 28.209 39.9522 28.8754 40.7186 29.1591C40.2386 33.6256 39.2728 34.7108 37.0168 34.7232C31.7849 34.752 29.9024 23.3628 29.8893 12.4194ZM42.9202 16.9796L64.1599 16.8629L64.1441 19.7909L42.9044 19.9075L42.9202 16.9796ZM47.8054 27.8483L58.9412 27.7871L58.9254 30.715L47.7896 30.7762L47.8054 27.8483ZM51.9931 12.2739L55.0651 12.2571L54.9436 34.7927L51.8717 34.8096L51.9931 12.2739ZM51.0984 17.9906L53.7338 18.8161C51.6416 24.0594 48.209 28.662 43.9948 31.325C43.5187 30.6077 42.5647 29.509 41.9198 28.9365C45.8674 26.755 49.3706 22.4159 51.0984 17.9906ZM55.8979 18.0362C57.6269 22.2986 61.1083 26.4552 65.129 28.5211C64.4057 29.125 63.3673 30.3307 62.8829 31.1493C58.6729 28.5805 55.3377 24.0151 53.2773 18.9146L55.8979 18.0362ZM77.5967 17.3411L87.0285 17.2893L87.0137 20.0492L77.5818 20.101L77.5967 17.3411ZM85.5406 17.2974L88.3725 17.2819C88.3725 17.2819 88.3433 18.242 88.3415 18.578C88.025 28.3233 87.766 31.8526 86.9439 32.985C86.3635 33.8042 85.8101 34.0712 84.9454 34.22C84.1766 34.3682 82.9526 34.3749 81.7289 34.3336C81.6613 33.518 81.3559 32.2958 80.8562 31.5065C82.0075 31.6202 83.0395 31.6145 83.5675 31.6116C83.9515 31.6095 84.192 31.5122 84.4577 31.1988C85.0375 30.4756 85.296 27.0424 85.5372 17.9214L85.5406 17.2974ZM80.3584 12.5501L83.1903 12.5346C83.116 21.8706 82.9767 29.911 78.1994 34.641C77.7233 33.9236 76.7927 32.9208 76.0513 32.4449C80.3935 28.2932 80.2879 21.1661 80.3584 12.5501ZM67.4629 14.0369L76.9188 13.9849L76.9051 16.5289L67.4492 16.5808L67.4629 14.0369ZM66.6408 19.6332L77.2967 19.5746L77.2827 22.1666L66.6268 22.2251L66.6408 19.6332ZM73.527 24.3711L75.8344 23.7105C76.7115 25.7216 77.705 28.404 78.0801 30.0579L75.5799 30.8636C75.2528 29.2094 74.3557 26.4545 73.527 24.3711ZM67.6295 32.1072L67.3546 29.6848L68.5835 28.7661L76.3452 26.8995C76.4131 27.6671 76.5992 28.7461 76.74 29.3453C69.482 31.257 68.352 31.6472 67.6295 32.1072ZM67.6055 32.1073C67.4645 31.5561 67.0156 30.2386 66.7074 29.5444C67.1643 29.3738 67.5033 28.82 67.916 27.9298C68.2806 27.0878 69.4025 23.7458 69.9228 20.7191L72.7504 21.5195C72.0134 24.6674 70.6987 28.1545 69.4858 30.561L69.4855 30.609C69.4855 30.609 67.6084 31.5793 67.6055 32.1073ZM95.0323 19.5012L107.968 19.4301L107.954 21.9981L95.0184 22.0692L95.0323 19.5012ZM100.065 16.3537L102.753 16.3389C102.548 23.2278 101.972 27.7427 96.1505 30.1986C95.8422 29.5283 95.1036 28.5244 94.5305 27.9996C99.6531 25.9795 99.8885 22.3784 100.065 16.3537ZM102.8 21.0185C103.502 24.3265 105.097 26.7656 108.211 27.8044C107.632 28.3116 106.834 29.4199 106.47 30.1419C102.974 28.6972 101.359 25.6822 100.518 21.367L102.8 21.0185ZM91.275 13.0901L111.867 12.977L111.751 34.4567L108.751 34.4732L108.852 15.7535L94.1401 15.8343L94.0392 34.554L91.1592 34.5698L91.275 13.0901ZM92.8594 30.8166L109.923 30.7229L109.908 33.4829L92.8445 33.5766L92.8594 30.8166ZM119.058 19.0332L125.106 19L125.09 21.832L119.042 21.8652L119.058 19.0332ZM117.367 12.1788L120.343 12.1625L120.238 31.6502L117.258 32.3625L117.367 12.1788ZM114.217 30.9873C117.076 30.4916 121.377 29.604 125.317 28.7184L125.59 31.5488C121.937 32.4088 117.997 33.2704 115.017 33.9588L114.217 30.9873ZM134.452 17.0768L136.454 19.5617C133.999 20.8711 130.969 22.1117 128.323 23.0862C128.159 22.4151 127.709 21.4096 127.352 20.7876C129.877 19.8138 132.621 18.3108 134.452 17.0768ZM126.535 12.1285L129.511 12.1121L129.416 29.6559C129.408 31.0479 129.527 31.2392 130.439 31.2342C130.847 31.2319 132.599 31.2223 133.055 31.2198C133.967 31.2148 134.116 30.374 134.278 27.0853C134.971 27.6095 136.168 28.1309 136.983 28.3184C136.649 32.424 135.896 33.9881 133.304 34.0023C132.728 34.0055 130.544 34.0175 129.992 34.0205C127.184 34.0359 126.422 33.0562 126.44 29.6482L126.535 12.1285ZM138.45 14.3909L147.354 14.342L147.339 17.078L138.435 17.1269L138.45 14.3909ZM143.132 18.325L145.676 18.3111L145.591 34.1748L143.047 34.1888L143.132 18.325ZM138.114 27.7602C140.539 27.5069 144.237 27.0786 147.767 26.6512L147.826 29.1468C144.607 29.6444 141.221 30.167 138.627 30.5172L138.114 27.7602ZM139.21 24.7303C139.069 24.2271 138.668 22.9814 138.359 22.2871C138.864 22.1403 139.204 21.4665 139.641 20.4081C140.055 19.3979 141.301 15.3592 141.776 11.7568L144.557 12.2695C143.768 16.1856 142.305 20.3695 140.97 23.2327L140.97 23.3047C140.97 23.3047 139.213 24.2263 139.21 24.7303ZM139.21 24.7303L139.222 22.4503L140.474 21.7715L147.386 21.7335L147.372 24.3255L141.084 24.36C140.316 24.3642 139.427 24.5131 139.21 24.7303ZM148.118 14.9378L160.382 14.8704L160.368 17.4864L148.104 17.5538L148.118 14.9378ZM152.375 22.2821C153.72 26.5465 156.58 30.1066 160.796 31.6674C160.169 32.2228 159.323 33.3314 158.911 34.0537C154.362 32.0867 151.527 28.1185 149.851 22.9439L152.375 22.2821ZM155.855 22.263L158.443 22.9207C156.878 28.3051 153.786 32.0899 148.902 34.3486C148.545 33.7746 147.711 32.7233 147.161 32.2463C151.659 30.3257 154.606 26.8296 155.855 22.263ZM151.971 12.5407L154.473 11.495C155.068 12.3557 155.734 13.504 156.066 14.2702L153.491 15.4843C153.207 14.7179 152.518 13.4497 151.971 12.5407ZM155.682 18.6641L157.776 17.4766C158.967 19.174 160.443 21.4458 161.083 22.9062L158.843 24.3105C158.252 22.8258 156.872 20.4575 155.682 18.6641ZM150.888 17.5385L153.38 18.3887C152.336 20.5544 150.739 23.059 149.338 24.6267C148.981 24.1007 148.123 22.9294 147.598 22.3803C148.805 21.1498 150.111 19.2707 150.888 17.5385Z" fill="#171725"/>
</svg>
