<svg width="594" height="367" viewBox="0 0 594 367" fill="none" xmlns="http://www.w3.org/2000/svg">
    <g filter="url(#filter0_b_108_865)">
        <path d="M353.534 50C353.534 44.4772 358.011 40 363.534 40H583.534C589.057 40 593.534 44.4772 593.534 50V316.842C593.534 322.365 589.057 326.842 583.534 326.842H363.534C358.011 326.842 353.534 322.365 353.534 316.842V50Z" fill="white" fill-opacity="0.5"/>
    </g>
    <path d="M416.766 60.772H423.766V62.41H416.766V60.772ZM416.78 64.118H423.836V65.714H416.78V64.118ZM416.71 67.436H423.738V69.06H416.71V67.436ZM415.618 60.772H417.34V65.406C417.34 67.842 416.962 71.272 414.596 73.26C414.344 72.91 413.658 72.28 413.294 72.056C415.422 70.25 415.618 67.548 415.618 65.406V60.772ZM422.982 60.772H424.76V71.132C424.76 72.126 424.522 72.63 423.878 72.91C423.206 73.204 422.212 73.232 420.756 73.232C420.658 72.728 420.336 71.916 420.056 71.468C421.05 71.524 422.212 71.51 422.548 71.51C422.87 71.496 422.982 71.398 422.982 71.104V60.772ZM430.78 64.048H440.51V65.378H430.78V64.048ZM430.892 68.136H438.578V69.452H430.892V68.136ZM432.684 63.124H434.266V66.302H436.828V63.124H438.48V67.576H432.684V63.124ZM438.144 68.136H438.466L438.76 68.066L439.81 68.598C438.298 71.636 434.91 72.798 430.976 73.288C430.85 72.868 430.542 72.238 430.276 71.888C433.86 71.58 437.01 70.586 438.144 68.346V68.136ZM433.762 69.158C435.022 70.726 437.64 71.58 440.86 71.86C440.51 72.21 440.09 72.882 439.88 73.302C436.478 72.882 433.888 71.762 432.32 69.676L433.762 69.158ZM433.846 60.114H435.596V62.214H433.846V60.114ZM429.646 61.374H440.58V62.872H429.646V61.374ZM428.82 61.374H430.43V65.322C430.43 67.604 430.22 71.048 428.946 73.218C428.652 72.938 427.952 72.476 427.56 72.294C428.736 70.306 428.82 67.38 428.82 65.322V61.374ZM448.504 65.49H453.474V67.002H448.504V65.49ZM450.422 66.386C451.206 68.794 452.844 70.88 455.196 71.818C454.818 72.14 454.3 72.812 454.048 73.246C451.528 72.042 449.918 69.69 448.952 66.75L450.422 66.386ZM453.068 65.49H453.376L453.67 65.448L454.748 65.77C454.202 69.242 452.606 71.874 449.792 73.316C449.54 72.91 449.05 72.364 448.658 72.042C451.248 70.852 452.662 68.612 453.068 65.812V65.49ZM452.704 60.604H454.426C454.426 60.604 454.412 61.024 454.398 61.234C454.328 63.208 454.188 64.076 453.852 64.454C453.53 64.804 453.082 64.902 452.578 64.958C452.102 64.986 451.262 64.986 450.38 64.944C450.366 64.538 450.17 63.95 449.96 63.586C450.758 63.642 451.542 63.656 451.836 63.656C452.116 63.656 452.256 63.642 452.396 63.53C452.578 63.334 452.648 62.578 452.704 60.842V60.604ZM441.882 67.226C443.17 66.96 445.06 66.498 446.838 66.05L447.034 67.688C445.41 68.136 443.646 68.598 442.26 68.948L441.882 67.226ZM442.078 62.774H446.908V64.412H442.078V62.774ZM443.842 60.114H445.564V71.37C445.564 72.252 445.382 72.686 444.864 72.938C444.346 73.204 443.59 73.246 442.47 73.246C442.414 72.798 442.19 72.098 441.966 71.65C442.61 71.678 443.324 71.664 443.534 71.664C443.772 71.664 443.842 71.594 443.842 71.37V60.114ZM447.286 60.604H453.222V62.158H448.952V73.204H447.286V60.604ZM456.652 65.07H469.042V66.638H456.652V65.07ZM458.99 61.934H468.174V63.46H458.99V61.934ZM459.13 71.076H466.718V72.63H459.13V71.076ZM462.294 60.114H464.086V66.022H462.294V60.114ZM458.248 67.646H467.684V73.26H465.878V69.186H459.97V73.302H458.248V67.646ZM458.934 60.142L460.614 60.562C460.026 62.27 459.032 63.978 458.08 65.056C457.73 64.79 456.96 64.356 456.554 64.16C457.562 63.222 458.444 61.668 458.934 60.142Z" fill="#0A0A1F"/>
    <line opacity="0.1" x1="491.867" y1="111.137" x2="491.867" y2="145.558" stroke="black" stroke-width="0.5"/>
    <path d="M420.188 136.778H417.472V139.662H416.065V136.778H413.363V135.497H416.065V132.627H417.472V135.497H420.188V136.778ZM425.554 133.537C425.624 133.051 425.759 132.627 425.96 132.263C426.16 131.894 426.41 131.588 426.709 131.346C427.012 131.098 427.357 130.914 427.745 130.793C428.137 130.667 428.557 130.604 429.005 130.604C429.471 130.604 429.891 130.671 430.265 130.807C430.643 130.937 430.965 131.122 431.231 131.36C431.497 131.593 431.7 131.868 431.84 132.186C431.984 132.503 432.057 132.846 432.057 133.215C432.057 133.537 432.019 133.821 431.945 134.069C431.875 134.311 431.772 134.524 431.637 134.706C431.501 134.888 431.333 135.042 431.133 135.168C430.932 135.294 430.706 135.399 430.454 135.483C431.06 135.674 431.513 135.966 431.812 136.358C432.11 136.75 432.26 137.242 432.26 137.835C432.26 138.339 432.166 138.784 431.98 139.172C431.793 139.559 431.541 139.886 431.224 140.152C430.906 140.413 430.538 140.611 430.118 140.747C429.702 140.882 429.261 140.95 428.795 140.95C428.286 140.95 427.843 140.891 427.465 140.775C427.087 140.658 426.758 140.485 426.478 140.257C426.198 140.028 425.96 139.748 425.764 139.417C425.568 139.085 425.4 138.703 425.26 138.269L426.023 137.954C426.223 137.87 426.41 137.849 426.583 137.891C426.76 137.928 426.888 138.021 426.968 138.171C427.052 138.334 427.143 138.495 427.241 138.654C427.343 138.812 427.465 138.955 427.605 139.081C427.745 139.202 427.908 139.302 428.095 139.382C428.286 139.456 428.512 139.494 428.774 139.494C429.068 139.494 429.324 139.447 429.544 139.354C429.763 139.256 429.945 139.13 430.09 138.976C430.239 138.822 430.349 138.651 430.419 138.465C430.493 138.273 430.531 138.082 430.531 137.891C430.531 137.648 430.505 137.429 430.454 137.233C430.402 137.032 430.295 136.862 430.132 136.722C429.968 136.582 429.733 136.472 429.425 136.393C429.121 136.313 428.713 136.274 428.2 136.274V135.042C428.624 135.037 428.977 134.997 429.257 134.923C429.537 134.848 429.758 134.745 429.922 134.615C430.09 134.479 430.206 134.318 430.272 134.132C430.337 133.945 430.37 133.74 430.37 133.516C430.37 133.04 430.237 132.678 429.971 132.431C429.705 132.183 429.35 132.06 428.907 132.06C428.701 132.06 428.512 132.09 428.34 132.151C428.167 132.207 428.011 132.288 427.871 132.396C427.735 132.498 427.621 132.62 427.528 132.76C427.434 132.9 427.364 133.054 427.318 133.222C427.238 133.436 427.133 133.579 427.003 133.649C426.877 133.719 426.697 133.735 426.464 133.698L425.554 133.537ZM440.066 139.228C440.252 139.228 440.399 139.281 440.507 139.389C440.619 139.491 440.675 139.629 440.675 139.802V140.838H433.731V140.264C433.731 140.147 433.754 140.026 433.801 139.9C433.852 139.769 433.931 139.652 434.039 139.55L437.112 136.47C437.368 136.208 437.597 135.959 437.798 135.721C438.003 135.483 438.173 135.247 438.309 135.014C438.444 134.78 438.547 134.545 438.617 134.307C438.691 134.064 438.729 133.81 438.729 133.544C438.729 133.301 438.694 133.089 438.624 132.907C438.554 132.72 438.453 132.564 438.323 132.438C438.197 132.312 438.043 132.218 437.861 132.158C437.683 132.092 437.483 132.06 437.259 132.06C437.053 132.06 436.862 132.09 436.685 132.151C436.512 132.207 436.358 132.288 436.223 132.396C436.087 132.498 435.973 132.62 435.88 132.76C435.786 132.9 435.716 133.054 435.67 133.222C435.59 133.436 435.488 133.579 435.362 133.649C435.236 133.719 435.054 133.735 434.816 133.698L433.906 133.537C433.976 133.051 434.111 132.627 434.312 132.263C434.512 131.894 434.762 131.588 435.061 131.346C435.364 131.098 435.709 130.914 436.097 130.793C436.489 130.667 436.909 130.604 437.357 130.604C437.823 130.604 438.25 130.674 438.638 130.814C439.025 130.949 439.356 131.143 439.632 131.395C439.907 131.647 440.122 131.95 440.276 132.305C440.43 132.659 440.507 133.054 440.507 133.488C440.507 133.861 440.451 134.206 440.339 134.524C440.231 134.841 440.084 135.144 439.898 135.434C439.716 135.723 439.501 136.003 439.254 136.274C439.006 136.544 438.747 136.82 438.477 137.1L436.195 139.431C436.414 139.365 436.631 139.316 436.846 139.284C437.065 139.246 437.273 139.228 437.469 139.228H440.066ZM442.202 139.886C442.202 139.741 442.228 139.603 442.279 139.473C442.335 139.342 442.41 139.23 442.503 139.137C442.596 139.043 442.708 138.969 442.839 138.913C442.97 138.857 443.11 138.829 443.259 138.829C443.408 138.829 443.546 138.857 443.672 138.913C443.803 138.969 443.915 139.043 444.008 139.137C444.106 139.23 444.183 139.342 444.239 139.473C444.295 139.603 444.323 139.741 444.323 139.886C444.323 140.035 444.295 140.175 444.239 140.306C444.183 140.432 444.106 140.541 444.008 140.635C443.915 140.728 443.803 140.8 443.672 140.852C443.546 140.908 443.408 140.936 443.259 140.936C443.11 140.936 442.97 140.908 442.839 140.852C442.708 140.8 442.596 140.728 442.503 140.635C442.41 140.541 442.335 140.432 442.279 140.306C442.228 140.175 442.202 140.035 442.202 139.886ZM452.972 135.777C452.972 136.659 452.877 137.426 452.685 138.08C452.499 138.728 452.237 139.265 451.901 139.69C451.57 140.114 451.176 140.432 450.718 140.642C450.266 140.847 449.776 140.95 449.248 140.95C448.721 140.95 448.231 140.847 447.778 140.642C447.33 140.432 446.941 140.114 446.609 139.69C446.278 139.265 446.019 138.728 445.832 138.08C445.646 137.426 445.552 136.659 445.552 135.777C445.552 134.89 445.646 134.122 445.832 133.474C446.019 132.825 446.278 132.288 446.609 131.864C446.941 131.439 447.33 131.124 447.778 130.919C448.231 130.709 448.721 130.604 449.248 130.604C449.776 130.604 450.266 130.709 450.718 130.919C451.176 131.124 451.57 131.439 451.901 131.864C452.237 132.288 452.499 132.825 452.685 133.474C452.877 134.122 452.972 134.89 452.972 135.777ZM451.187 135.777C451.187 135.044 451.134 134.437 451.026 133.957C450.919 133.476 450.774 133.093 450.592 132.809C450.415 132.524 450.21 132.326 449.976 132.214C449.743 132.097 449.5 132.039 449.248 132.039C449.001 132.039 448.761 132.097 448.527 132.214C448.299 132.326 448.096 132.524 447.918 132.809C447.741 133.093 447.599 133.476 447.491 133.957C447.389 134.437 447.337 135.044 447.337 135.777C447.337 136.509 447.389 137.116 447.491 137.597C447.599 138.077 447.741 138.46 447.918 138.745C448.096 139.029 448.299 139.23 448.527 139.347C448.761 139.459 449.001 139.515 449.248 139.515C449.5 139.515 449.743 139.459 449.976 139.347C450.21 139.23 450.415 139.029 450.592 138.745C450.774 138.46 450.919 138.077 451.026 137.597C451.134 137.116 451.187 136.509 451.187 135.777ZM458.818 133.166C458.818 133.548 458.753 133.894 458.622 134.202C458.496 134.51 458.326 134.773 458.111 134.993C457.897 135.207 457.647 135.373 457.362 135.49C457.078 135.606 456.781 135.665 456.473 135.665C456.137 135.665 455.827 135.606 455.542 135.49C455.258 135.373 455.01 135.207 454.8 134.993C454.595 134.773 454.434 134.51 454.317 134.202C454.201 133.894 454.142 133.548 454.142 133.166C454.142 132.774 454.201 132.419 454.317 132.102C454.434 131.784 454.595 131.516 454.8 131.297C455.01 131.077 455.258 130.909 455.542 130.793C455.827 130.671 456.137 130.611 456.473 130.611C456.809 130.611 457.12 130.671 457.404 130.793C457.694 130.909 457.943 131.077 458.153 131.297C458.363 131.516 458.527 131.784 458.643 132.102C458.76 132.419 458.818 132.774 458.818 133.166ZM457.488 133.166C457.488 132.895 457.46 132.669 457.404 132.487C457.353 132.305 457.281 132.158 457.187 132.046C457.099 131.934 456.991 131.854 456.865 131.808C456.744 131.756 456.613 131.731 456.473 131.731C456.333 131.731 456.203 131.756 456.081 131.808C455.96 131.854 455.855 131.934 455.766 132.046C455.682 132.158 455.615 132.305 455.563 132.487C455.512 132.669 455.486 132.895 455.486 133.166C455.486 133.427 455.512 133.646 455.563 133.824C455.615 133.996 455.682 134.136 455.766 134.244C455.855 134.351 455.96 134.428 456.081 134.475C456.203 134.521 456.333 134.545 456.473 134.545C456.613 134.545 456.744 134.521 456.865 134.475C456.991 134.428 457.099 134.351 457.187 134.244C457.281 134.136 457.353 133.996 457.404 133.824C457.46 133.646 457.488 133.427 457.488 133.166ZM462.185 130.989C462.246 130.919 462.316 130.856 462.395 130.8C462.479 130.744 462.596 130.716 462.745 130.716H464.005L456.487 140.579C456.427 140.653 456.354 140.716 456.27 140.768C456.186 140.814 456.084 140.838 455.962 140.838H454.674L462.185 130.989ZM464.537 138.458C464.537 138.84 464.472 139.186 464.341 139.494C464.215 139.802 464.045 140.065 463.83 140.285C463.616 140.499 463.366 140.667 463.081 140.789C462.797 140.905 462.5 140.964 462.192 140.964C461.856 140.964 461.546 140.905 461.261 140.789C460.977 140.667 460.729 140.499 460.519 140.285C460.314 140.065 460.153 139.802 460.036 139.494C459.92 139.186 459.861 138.84 459.861 138.458C459.861 138.066 459.92 137.711 460.036 137.394C460.153 137.076 460.314 136.808 460.519 136.589C460.729 136.369 460.977 136.201 461.261 136.085C461.546 135.963 461.856 135.903 462.192 135.903C462.528 135.903 462.839 135.963 463.123 136.085C463.413 136.201 463.66 136.369 463.865 136.589C464.075 136.808 464.239 137.076 464.355 137.394C464.477 137.711 464.537 138.066 464.537 138.458ZM463.2 138.458C463.2 138.187 463.175 137.961 463.123 137.779C463.072 137.597 463 137.45 462.906 137.338C462.818 137.226 462.71 137.146 462.584 137.1C462.463 137.048 462.332 137.023 462.192 137.023C462.052 137.023 461.922 137.048 461.8 137.1C461.679 137.146 461.574 137.226 461.485 137.338C461.397 137.45 461.327 137.597 461.275 137.779C461.229 137.961 461.205 138.187 461.205 138.458C461.205 138.719 461.229 138.938 461.275 139.116C461.327 139.293 461.397 139.435 461.485 139.543C461.574 139.65 461.679 139.727 461.8 139.774C461.922 139.82 462.052 139.844 462.192 139.844C462.332 139.844 462.463 139.82 462.584 139.774C462.71 139.727 462.818 139.65 462.906 139.543C463 139.435 463.072 139.293 463.123 139.116C463.175 138.938 463.2 138.719 463.2 138.458Z" fill="#0A0A1F"/>
    <path opacity="0.5" d="M413.288 109.886H421.145V110.57H413.288V109.886ZM415.088 113.9H419.282V114.584H415.088V113.9ZM416.843 107.996H417.554V116.267H416.843V107.996ZM416.636 110.111L417.239 110.318C416.438 112.226 415.025 113.945 413.468 114.854C413.36 114.683 413.135 114.431 412.982 114.296C414.485 113.513 415.916 111.839 416.636 110.111ZM417.779 110.138C418.49 111.848 419.903 113.486 421.46 114.233C421.289 114.377 421.055 114.647 420.947 114.836C419.354 113.954 417.968 112.235 417.176 110.345L417.779 110.138ZM424.169 108.464H428.867V109.121H424.169V108.464ZM424.169 110.633H428.903V111.281H424.169V110.633ZM424.097 112.811H428.858V113.459H424.097V112.811ZM423.755 108.464H424.439V111.245C424.439 112.802 424.214 114.926 422.666 116.276C422.567 116.132 422.297 115.889 422.153 115.79C423.602 114.521 423.755 112.694 423.755 111.245V108.464ZM428.57 108.464H429.272V115.277C429.272 115.754 429.146 115.988 428.804 116.105C428.453 116.222 427.859 116.231 426.887 116.231C426.842 116.033 426.716 115.709 426.599 115.52C427.346 115.547 428.084 115.538 428.291 115.538C428.498 115.529 428.57 115.466 428.57 115.268V108.464ZM432.602 111.362H434.843V111.992H432.602V111.362ZM434.573 111.362H435.23C435.23 111.362 435.23 111.56 435.23 111.65C435.185 113.684 435.131 114.44 434.942 114.692C434.798 114.854 434.654 114.917 434.402 114.944C434.168 114.971 433.763 114.962 433.322 114.944C433.304 114.746 433.232 114.485 433.133 114.314C433.538 114.35 433.934 114.35 434.087 114.35C434.213 114.35 434.303 114.341 434.366 114.26C434.501 114.098 434.546 113.423 434.573 111.479V111.362ZM437.111 108.446L437.516 108.023C438.074 108.311 438.785 108.743 439.136 109.058L438.713 109.517C438.371 109.202 437.678 108.743 437.111 108.446ZM438.398 110.885L439.073 111.047C438.308 113.396 436.967 115.133 435.122 116.222C435.023 116.087 434.771 115.808 434.627 115.673C436.454 114.701 437.723 113.054 438.398 110.885ZM432.656 109.517H439.622V110.183H432.656V109.517ZM432.224 109.517H432.926V112.055C432.926 113.333 432.782 115.151 431.963 116.33C431.846 116.195 431.558 115.961 431.396 115.88C432.143 114.773 432.224 113.225 432.224 112.046V109.517ZM435.959 108.005H436.661C436.643 112.145 437.525 115.52 438.695 115.52C438.947 115.52 439.064 115.052 439.118 113.855C439.271 114.008 439.523 114.161 439.703 114.224C439.577 115.763 439.325 116.204 438.641 116.204C436.805 116.204 435.995 112.316 435.959 108.005ZM440.828 109.886H448.685V110.57H440.828V109.886ZM442.628 113.9H446.822V114.584H442.628V113.9ZM444.383 107.996H445.094V116.267H444.383V107.996ZM444.176 110.111L444.779 110.318C443.978 112.226 442.565 113.945 441.008 114.854C440.9 114.683 440.675 114.431 440.522 114.296C442.025 113.513 443.456 111.839 444.176 110.111ZM445.319 110.138C446.03 111.848 447.443 113.486 449 114.233C448.829 114.377 448.595 114.647 448.487 114.836C446.894 113.954 445.508 112.235 444.716 110.345L445.319 110.138ZM452.969 109.292H457.514V109.922H452.969V109.292ZM452.987 111.515H456.965V112.127H452.987V111.515ZM454.805 107.987H455.462V111.839H454.805V107.987ZM452.618 109.292H453.266V111.578C453.266 112.973 453.113 114.944 452.096 116.267C451.979 116.15 451.691 115.988 451.529 115.925C452.51 114.665 452.618 112.874 452.618 111.569V109.292ZM457.325 109.292H457.442L457.559 109.265L458.045 109.4C457.811 110.048 457.532 110.768 457.271 111.227L456.695 111.038C456.911 110.624 457.154 109.958 457.325 109.4V109.292ZM454.031 111.866C454.679 113.729 456.092 115.16 458.135 115.691C457.973 115.835 457.784 116.096 457.685 116.267C455.588 115.628 454.184 114.116 453.455 112.037L454.031 111.866ZM450.26 108.563L450.647 108.077C451.169 108.338 451.871 108.761 452.204 109.049L451.808 109.598C451.475 109.292 450.791 108.842 450.26 108.563ZM449.765 110.993L450.152 110.498C450.683 110.732 451.394 111.128 451.745 111.407L451.358 111.965C451.016 111.677 450.314 111.263 449.765 110.993ZM449.99 115.736C450.413 115.043 451.016 113.864 451.466 112.838L451.988 113.243C451.583 114.197 451.043 115.313 450.584 116.15L449.99 115.736ZM456.713 111.515H456.848L456.983 111.488L457.397 111.677C456.731 114.17 455.111 115.592 453.176 116.285C453.086 116.123 452.879 115.853 452.744 115.727C454.625 115.115 456.155 113.828 456.713 111.641V111.515ZM463.175 110.066H466.784V110.714H463.175V110.066ZM466.451 110.066H467.117C467.117 110.066 467.108 110.318 467.108 110.408C466.991 114.125 466.883 115.394 466.568 115.79C466.388 116.033 466.208 116.105 465.911 116.141C465.632 116.168 465.146 116.159 464.669 116.132C464.651 115.934 464.579 115.655 464.453 115.466C464.966 115.511 465.434 115.511 465.632 115.511C465.785 115.52 465.884 115.493 465.983 115.385C466.226 115.097 466.352 113.801 466.451 110.219V110.066ZM464.48 108.149H465.146C465.128 111.281 465.083 114.53 463.256 116.258C463.139 116.105 462.905 115.88 462.734 115.772C464.462 114.188 464.471 111.092 464.48 108.149ZM459.413 108.725H462.896V109.337H459.413V108.725ZM459.089 110.876H463.058V111.488H459.089V110.876ZM461.744 112.424L462.293 112.271C462.644 113.072 463.049 114.152 463.211 114.773L462.617 114.98C462.464 114.341 462.077 113.243 461.744 112.424ZM459.413 115.16L459.359 114.593L459.701 114.35L462.653 113.729C462.671 113.909 462.716 114.17 462.743 114.314C459.971 114.935 459.629 115.034 459.413 115.16ZM459.413 115.16C459.377 115.016 459.269 114.701 459.197 114.53C459.341 114.485 459.458 114.251 459.611 113.9C459.746 113.576 460.205 112.28 460.421 111.11L461.078 111.317C460.799 112.523 460.34 113.846 459.881 114.773V114.782C459.881 114.782 459.413 115.016 459.413 115.16Z" fill="#0A0A1F"/>
    <path d="M513.237 136.251H516.863V137.693H513.237V136.251ZM528.493 139.59C528.679 139.59 528.826 139.644 528.934 139.751C529.046 139.854 529.102 139.992 529.102 140.164V141.2H522.158V140.626C522.158 140.51 522.181 140.388 522.228 140.262C522.279 140.132 522.358 140.015 522.466 139.912L525.539 136.832C525.795 136.571 526.024 136.321 526.225 136.083C526.43 135.845 526.6 135.61 526.736 135.376C526.871 135.143 526.974 134.907 527.044 134.669C527.118 134.427 527.156 134.172 527.156 133.906C527.156 133.664 527.121 133.451 527.051 133.269C526.981 133.083 526.88 132.926 526.75 132.8C526.624 132.674 526.47 132.581 526.288 132.52C526.11 132.455 525.91 132.422 525.686 132.422C525.48 132.422 525.289 132.453 525.112 132.513C524.939 132.569 524.785 132.651 524.65 132.758C524.514 132.861 524.4 132.982 524.307 133.122C524.213 133.262 524.143 133.416 524.097 133.584C524.017 133.799 523.915 133.941 523.789 134.011C523.663 134.081 523.481 134.098 523.243 134.06L522.333 133.899C522.403 133.414 522.538 132.989 522.739 132.625C522.939 132.257 523.189 131.951 523.488 131.708C523.791 131.461 524.136 131.277 524.524 131.155C524.916 131.029 525.336 130.966 525.784 130.966C526.25 130.966 526.677 131.036 527.065 131.176C527.452 131.312 527.783 131.505 528.059 131.757C528.334 132.009 528.549 132.313 528.703 132.667C528.857 133.022 528.934 133.416 528.934 133.85C528.934 134.224 528.878 134.569 528.766 134.886C528.658 135.204 528.511 135.507 528.325 135.796C528.143 136.086 527.928 136.366 527.681 136.636C527.433 136.907 527.174 137.182 526.904 137.462L524.622 139.793C524.841 139.728 525.058 139.679 525.273 139.646C525.492 139.609 525.7 139.59 525.896 139.59H528.493ZM537.797 136.139C537.797 137.021 537.701 137.789 537.51 138.442C537.323 139.091 537.062 139.628 536.726 140.052C536.394 140.477 536 140.794 535.543 141.004C535.09 141.21 534.6 141.312 534.073 141.312C533.545 141.312 533.055 141.21 532.603 141.004C532.155 140.794 531.765 140.477 531.434 140.052C531.102 139.628 530.843 139.091 530.657 138.442C530.47 137.789 530.377 137.021 530.377 136.139C530.377 135.253 530.47 134.485 530.657 133.836C530.843 133.188 531.102 132.651 531.434 132.226C531.765 131.802 532.155 131.487 532.603 131.281C533.055 131.071 533.545 130.966 534.073 130.966C534.6 130.966 535.09 131.071 535.543 131.281C536 131.487 536.394 131.802 536.726 132.226C537.062 132.651 537.323 133.188 537.51 133.836C537.701 134.485 537.797 135.253 537.797 136.139ZM536.012 136.139C536.012 135.407 535.958 134.8 535.851 134.319C535.743 133.839 535.599 133.456 535.417 133.171C535.239 132.887 535.034 132.688 534.801 132.576C534.567 132.46 534.325 132.401 534.073 132.401C533.825 132.401 533.585 132.46 533.352 132.576C533.123 132.688 532.92 132.887 532.743 133.171C532.565 133.456 532.423 133.839 532.316 134.319C532.213 134.8 532.162 135.407 532.162 136.139C532.162 136.872 532.213 137.479 532.316 137.959C532.423 138.44 532.565 138.823 532.743 139.107C532.92 139.392 533.123 139.593 533.352 139.709C533.585 139.821 533.825 139.877 534.073 139.877C534.325 139.877 534.567 139.821 534.801 139.709C535.034 139.593 535.239 139.392 535.417 139.107C535.599 138.823 535.743 138.44 535.851 137.959C535.958 137.479 536.012 136.872 536.012 136.139ZM539.03 140.248C539.03 140.104 539.056 139.966 539.107 139.835C539.163 139.705 539.238 139.593 539.331 139.499C539.424 139.406 539.536 139.331 539.667 139.275C539.798 139.219 539.938 139.191 540.087 139.191C540.236 139.191 540.374 139.219 540.5 139.275C540.631 139.331 540.743 139.406 540.836 139.499C540.934 139.593 541.011 139.705 541.067 139.835C541.123 139.966 541.151 140.104 541.151 140.248C541.151 140.398 541.123 140.538 541.067 140.668C541.011 140.794 540.934 140.904 540.836 140.997C540.743 141.091 540.631 141.163 540.5 141.214C540.374 141.27 540.236 141.298 540.087 141.298C539.938 141.298 539.798 141.27 539.667 141.214C539.536 141.163 539.424 141.091 539.331 140.997C539.238 140.904 539.163 140.794 539.107 140.668C539.056 140.538 539.03 140.398 539.03 140.248ZM549.8 136.139C549.8 137.021 549.704 137.789 549.513 138.442C549.326 139.091 549.065 139.628 548.729 140.052C548.398 140.477 548.003 140.794 547.546 141.004C547.093 141.21 546.603 141.312 546.076 141.312C545.549 141.312 545.059 141.21 544.606 141.004C544.158 140.794 543.768 140.477 543.437 140.052C543.106 139.628 542.847 139.091 542.66 138.442C542.473 137.789 542.38 137.021 542.38 136.139C542.38 135.253 542.473 134.485 542.66 133.836C542.847 133.188 543.106 132.651 543.437 132.226C543.768 131.802 544.158 131.487 544.606 131.281C545.059 131.071 545.549 130.966 546.076 130.966C546.603 130.966 547.093 131.071 547.546 131.281C548.003 131.487 548.398 131.802 548.729 132.226C549.065 132.651 549.326 133.188 549.513 133.836C549.704 134.485 549.8 135.253 549.8 136.139ZM548.015 136.139C548.015 135.407 547.961 134.8 547.854 134.319C547.747 133.839 547.602 133.456 547.42 133.171C547.243 132.887 547.037 132.688 546.804 132.576C546.571 132.46 546.328 132.401 546.076 132.401C545.829 132.401 545.588 132.46 545.355 132.576C545.126 132.688 544.923 132.887 544.746 133.171C544.569 133.456 544.426 133.839 544.319 134.319C544.216 134.8 544.165 135.407 544.165 136.139C544.165 136.872 544.216 137.479 544.319 137.959C544.426 138.44 544.569 138.823 544.746 139.107C544.923 139.392 545.126 139.593 545.355 139.709C545.588 139.821 545.829 139.877 546.076 139.877C546.328 139.877 546.571 139.821 546.804 139.709C547.037 139.593 547.243 139.392 547.42 139.107C547.602 138.823 547.747 138.44 547.854 137.959C547.961 137.479 548.015 136.872 548.015 136.139ZM555.646 133.528C555.646 133.911 555.581 134.256 555.45 134.564C555.324 134.872 555.154 135.136 554.939 135.355C554.725 135.57 554.475 135.736 554.19 135.852C553.906 135.969 553.609 136.027 553.301 136.027C552.965 136.027 552.655 135.969 552.37 135.852C552.086 135.736 551.838 135.57 551.628 135.355C551.423 135.136 551.262 134.872 551.145 134.564C551.029 134.256 550.97 133.911 550.97 133.528C550.97 133.136 551.029 132.782 551.145 132.464C551.262 132.147 551.423 131.879 551.628 131.659C551.838 131.44 552.086 131.272 552.37 131.155C552.655 131.034 552.965 130.973 553.301 130.973C553.637 130.973 553.948 131.034 554.232 131.155C554.522 131.272 554.771 131.44 554.981 131.659C555.191 131.879 555.355 132.147 555.471 132.464C555.588 132.782 555.646 133.136 555.646 133.528ZM554.316 133.528C554.316 133.258 554.288 133.031 554.232 132.849C554.181 132.667 554.109 132.52 554.015 132.408C553.927 132.296 553.819 132.217 553.693 132.17C553.572 132.119 553.441 132.093 553.301 132.093C553.161 132.093 553.031 132.119 552.909 132.17C552.788 132.217 552.683 132.296 552.594 132.408C552.51 132.52 552.443 132.667 552.391 132.849C552.34 133.031 552.314 133.258 552.314 133.528C552.314 133.79 552.34 134.009 552.391 134.186C552.443 134.359 552.51 134.499 552.594 134.606C552.683 134.714 552.788 134.791 552.909 134.837C553.031 134.884 553.161 134.907 553.301 134.907C553.441 134.907 553.572 134.884 553.693 134.837C553.819 134.791 553.927 134.714 554.015 134.606C554.109 134.499 554.181 134.359 554.232 134.186C554.288 134.009 554.316 133.79 554.316 133.528ZM559.013 131.351C559.074 131.281 559.144 131.218 559.223 131.162C559.307 131.106 559.424 131.078 559.573 131.078H560.833L553.315 140.941C553.255 141.016 553.182 141.079 553.098 141.13C553.014 141.177 552.912 141.2 552.79 141.2H551.502L559.013 131.351ZM561.365 138.82C561.365 139.203 561.3 139.548 561.169 139.856C561.043 140.164 560.873 140.428 560.658 140.647C560.444 140.862 560.194 141.03 559.909 141.151C559.625 141.268 559.328 141.326 559.02 141.326C558.684 141.326 558.374 141.268 558.089 141.151C557.805 141.03 557.557 140.862 557.347 140.647C557.142 140.428 556.981 140.164 556.864 139.856C556.748 139.548 556.689 139.203 556.689 138.82C556.689 138.428 556.748 138.074 556.864 137.756C556.981 137.439 557.142 137.171 557.347 136.951C557.557 136.732 557.805 136.564 558.089 136.447C558.374 136.326 558.684 136.265 559.02 136.265C559.356 136.265 559.667 136.326 559.951 136.447C560.241 136.564 560.488 136.732 560.693 136.951C560.903 137.171 561.067 137.439 561.183 137.756C561.305 138.074 561.365 138.428 561.365 138.82ZM560.028 138.82C560.028 138.55 560.003 138.323 559.951 138.141C559.9 137.959 559.828 137.812 559.734 137.7C559.646 137.588 559.538 137.509 559.412 137.462C559.291 137.411 559.16 137.385 559.02 137.385C558.88 137.385 558.75 137.411 558.628 137.462C558.507 137.509 558.402 137.588 558.313 137.7C558.225 137.812 558.155 137.959 558.103 138.141C558.057 138.323 558.033 138.55 558.033 138.82C558.033 139.082 558.057 139.301 558.103 139.478C558.155 139.656 558.225 139.798 558.313 139.905C558.402 140.013 558.507 140.09 558.628 140.136C558.75 140.183 558.88 140.206 559.02 140.206C559.16 140.206 559.291 140.183 559.412 140.136C559.538 140.09 559.646 140.013 559.734 139.905C559.828 139.798 559.9 139.656 559.951 139.478C560.003 139.301 560.028 139.082 560.028 138.82Z" fill="#0A0A1F"/>
    <path opacity="0.5" d="M516.23 111.356H519.929V112.031H516.23V111.356ZM512.459 115.622H520.541V116.297H512.459V115.622ZM515.843 108.575H516.554V115.982H515.843V108.575ZM523.457 108.917H528.155V109.574H523.457V108.917ZM523.457 111.086H528.191V111.734H523.457V111.086ZM523.385 113.264H528.146V113.912H523.385V113.264ZM523.043 108.917H523.727V111.698C523.727 113.255 523.502 115.379 521.954 116.729C521.855 116.585 521.585 116.342 521.441 116.243C522.89 114.974 523.043 113.147 523.043 111.698V108.917ZM527.858 108.917H528.56V115.73C528.56 116.207 528.434 116.441 528.092 116.558C527.741 116.675 527.147 116.684 526.175 116.684C526.13 116.486 526.004 116.162 525.887 115.973C526.634 116 527.372 115.991 527.579 115.991C527.786 115.982 527.858 115.919 527.858 115.721V108.917ZM531.89 111.815H534.131V112.445H531.89V111.815ZM533.861 111.815H534.518C534.518 111.815 534.518 112.013 534.518 112.103C534.473 114.137 534.419 114.893 534.23 115.145C534.086 115.307 533.942 115.37 533.69 115.397C533.456 115.424 533.051 115.415 532.61 115.397C532.592 115.199 532.52 114.938 532.421 114.767C532.826 114.803 533.222 114.803 533.375 114.803C533.501 114.803 533.591 114.794 533.654 114.713C533.789 114.551 533.834 113.876 533.861 111.932V111.815ZM536.399 108.899L536.804 108.476C537.362 108.764 538.073 109.196 538.424 109.511L538.001 109.97C537.659 109.655 536.966 109.196 536.399 108.899ZM537.686 111.338L538.361 111.5C537.596 113.849 536.255 115.586 534.41 116.675C534.311 116.54 534.059 116.261 533.915 116.126C535.742 115.154 537.011 113.507 537.686 111.338ZM531.944 109.97H538.91V110.636H531.944V109.97ZM531.512 109.97H532.214V112.508C532.214 113.786 532.07 115.604 531.251 116.783C531.134 116.648 530.846 116.414 530.684 116.333C531.431 115.226 531.512 113.678 531.512 112.499V109.97ZM535.247 108.458H535.949C535.931 112.598 536.813 115.973 537.983 115.973C538.235 115.973 538.352 115.505 538.406 114.308C538.559 114.461 538.811 114.614 538.991 114.677C538.865 116.216 538.613 116.657 537.929 116.657C536.093 116.657 535.283 112.769 535.247 108.458ZM540.116 110.339H547.973V111.023H540.116V110.339ZM541.916 114.353H546.11V115.037H541.916V114.353ZM543.671 108.449H544.382V116.72H543.671V108.449ZM543.464 110.564L544.067 110.771C543.266 112.679 541.853 114.398 540.296 115.307C540.188 115.136 539.963 114.884 539.81 114.749C541.313 113.966 542.744 112.292 543.464 110.564ZM544.607 110.591C545.318 112.301 546.731 113.939 548.288 114.686C548.117 114.83 547.883 115.1 547.775 115.289C546.182 114.407 544.796 112.688 544.004 110.798L544.607 110.591ZM552.257 109.745H556.802V110.375H552.257V109.745ZM552.275 111.968H556.253V112.58H552.275V111.968ZM554.093 108.44H554.75V112.292H554.093V108.44ZM551.906 109.745H552.554V112.031C552.554 113.426 552.401 115.397 551.384 116.72C551.267 116.603 550.979 116.441 550.817 116.378C551.798 115.118 551.906 113.327 551.906 112.022V109.745ZM556.613 109.745H556.73L556.847 109.718L557.333 109.853C557.099 110.501 556.82 111.221 556.559 111.68L555.983 111.491C556.199 111.077 556.442 110.411 556.613 109.853V109.745ZM553.319 112.319C553.967 114.182 555.38 115.613 557.423 116.144C557.261 116.288 557.072 116.549 556.973 116.72C554.876 116.081 553.472 114.569 552.743 112.49L553.319 112.319ZM549.548 109.016L549.935 108.53C550.457 108.791 551.159 109.214 551.492 109.502L551.096 110.051C550.763 109.745 550.079 109.295 549.548 109.016ZM549.053 111.446L549.44 110.951C549.971 111.185 550.682 111.581 551.033 111.86L550.646 112.418C550.304 112.13 549.602 111.716 549.053 111.446ZM549.278 116.189C549.701 115.496 550.304 114.317 550.754 113.291L551.276 113.696C550.871 114.65 550.331 115.766 549.872 116.603L549.278 116.189ZM556.001 111.968H556.136L556.271 111.941L556.685 112.13C556.019 114.623 554.399 116.045 552.464 116.738C552.374 116.576 552.167 116.306 552.032 116.18C553.913 115.568 555.443 114.281 556.001 112.094V111.968ZM562.463 110.519H566.072V111.167H562.463V110.519ZM565.739 110.519H566.405C566.405 110.519 566.396 110.771 566.396 110.861C566.279 114.578 566.171 115.847 565.856 116.243C565.676 116.486 565.496 116.558 565.199 116.594C564.92 116.621 564.434 116.612 563.957 116.585C563.939 116.387 563.867 116.108 563.741 115.919C564.254 115.964 564.722 115.964 564.92 115.964C565.073 115.973 565.172 115.946 565.271 115.838C565.514 115.55 565.64 114.254 565.739 110.672V110.519ZM563.768 108.602H564.434C564.416 111.734 564.371 114.983 562.544 116.711C562.427 116.558 562.193 116.333 562.022 116.225C563.75 114.641 563.759 111.545 563.768 108.602ZM558.701 109.178H562.184V109.79H558.701V109.178ZM558.377 111.329H562.346V111.941H558.377V111.329ZM561.032 112.877L561.581 112.724C561.932 113.525 562.337 114.605 562.499 115.226L561.905 115.433C561.752 114.794 561.365 113.696 561.032 112.877ZM558.701 115.613L558.647 115.046L558.989 114.803L561.941 114.182C561.959 114.362 562.004 114.623 562.031 114.767C559.259 115.388 558.917 115.487 558.701 115.613ZM558.701 115.613C558.665 115.469 558.557 115.154 558.485 114.983C558.629 114.938 558.746 114.704 558.899 114.353C559.034 114.029 559.493 112.733 559.709 111.563L560.366 111.77C560.087 112.976 559.628 114.299 559.169 115.226V115.235C559.169 115.235 558.701 115.469 558.701 115.613Z" fill="#0A0A1F"/>
    <path d="M413.342 287.388H426.096V289.026H413.342V287.388ZM418.76 284.238H420.566V295.046H418.76V284.238ZM423.534 282.012L424.808 283.44C421.938 284.252 417.99 284.742 414.56 284.98C414.518 284.56 414.294 283.874 414.112 283.496C417.472 283.23 421.238 282.712 423.534 282.012ZM434.006 283.426L435.672 283.496C435.434 288.536 434.832 292.568 432.83 295.102C432.55 294.85 431.766 294.304 431.36 294.094C433.348 291.896 433.866 288.046 434.006 283.426ZM432.606 282.782H438.15V284.336H432.606V282.782ZM437.422 286.38H439.074V287.822H436.988L437.422 286.38ZM438.626 286.38H438.934L439.228 286.31L440.264 286.716C439.466 290.874 437.492 293.66 434.986 295.074C434.748 294.696 434.16 294.066 433.81 293.8C436.246 292.582 438.01 290.188 438.626 286.702V286.38ZM435.308 287.08C436.218 289.936 438.094 292.484 440.698 293.66C440.334 293.968 439.83 294.584 439.592 295.004C436.834 293.59 434.986 290.832 433.88 287.486L435.308 287.08ZM437.38 282.782H439.074C438.668 284.476 438.108 286.534 437.716 287.822H436.064C436.512 286.478 437.044 284.406 437.38 282.782ZM427.846 291.574C427.762 291.266 427.524 290.524 427.342 290.118C427.706 290.034 428.028 289.712 428.476 289.18C428.966 288.662 430.436 286.674 431.374 284.728L432.718 285.582C431.654 287.472 430.254 289.376 428.882 290.762V290.79C428.882 290.79 427.846 291.28 427.846 291.574ZM427.846 291.574L427.692 290.202L428.364 289.67L432.34 288.634C432.312 289.054 432.354 289.698 432.41 290.048C428.798 291.084 428.224 291.308 427.846 291.574ZM427.762 288.018C427.678 287.696 427.426 286.926 427.244 286.506C427.538 286.422 427.776 286.128 428.098 285.666C428.406 285.218 429.386 283.468 429.904 281.816L431.444 282.544C430.744 284.196 429.68 285.96 428.644 287.192V287.22C428.644 287.22 427.762 287.738 427.762 288.018ZM427.762 288.018L427.72 286.842L428.406 286.394L430.758 286.212C430.674 286.618 430.604 287.22 430.59 287.556C428.49 287.78 428.042 287.892 427.762 288.018ZM427.524 292.764C428.714 292.386 430.562 291.672 432.298 290.986L432.634 292.428C431.024 293.128 429.302 293.856 427.93 294.43L427.524 292.764Z" fill="#0A0A1F"/>
    <path opacity="0.5" d="M413.576 263.339H421.433V264.023H413.576V263.339ZM415.376 267.353H419.57V268.037H415.376V267.353ZM417.131 261.449H417.842V269.72H417.131V261.449ZM416.924 263.564L417.527 263.771C416.726 265.679 415.313 267.398 413.756 268.307C413.648 268.136 413.423 267.884 413.27 267.749C414.773 266.966 416.204 265.292 416.924 263.564ZM418.067 263.591C418.778 265.301 420.191 266.939 421.748 267.686C421.577 267.83 421.343 268.1 421.235 268.289C419.642 267.407 418.256 265.688 417.464 263.798L418.067 263.591ZM424.457 261.917H429.155V262.574H424.457V261.917ZM424.457 264.086H429.191V264.734H424.457V264.086ZM424.385 266.264H429.146V266.912H424.385V266.264ZM424.043 261.917H424.727V264.698C424.727 266.255 424.502 268.379 422.954 269.729C422.855 269.585 422.585 269.342 422.441 269.243C423.89 267.974 424.043 266.147 424.043 264.698V261.917ZM428.858 261.917H429.56V268.73C429.56 269.207 429.434 269.441 429.092 269.558C428.741 269.675 428.147 269.684 427.175 269.684C427.13 269.486 427.004 269.162 426.887 268.973C427.634 269 428.372 268.991 428.579 268.991C428.786 268.982 428.858 268.919 428.858 268.721V261.917ZM438.533 261.458L439.037 262.007C437.408 262.484 434.744 262.727 432.557 262.817C432.539 262.646 432.458 262.376 432.395 262.223C434.537 262.124 437.165 261.881 438.533 261.458ZM432.404 263.996H439.424V264.644H432.404V263.996ZM431.801 266.111H439.928V266.768H431.801V266.111ZM435.518 262.412H436.22V268.784C436.22 269.261 436.076 269.468 435.734 269.576C435.392 269.684 434.807 269.702 433.853 269.693C433.808 269.504 433.682 269.198 433.574 269.018C434.321 269.045 435.041 269.036 435.239 269.027C435.446 269.027 435.518 268.964 435.518 268.775V262.412ZM445.562 264.149C446.372 265.598 447.902 267.218 449.189 268.028C449.018 268.163 448.775 268.424 448.649 268.613C447.371 267.695 445.877 265.967 444.995 264.374L445.562 264.149ZM444.617 264.158L445.22 264.383C444.365 266.165 442.871 267.821 441.368 268.685C441.242 268.505 441.017 268.244 440.855 268.109C442.34 267.344 443.843 265.751 444.617 264.158ZM441.134 263.726H448.883V264.392H441.134V263.726ZM444.68 261.458H445.418V269.729H444.68V261.458ZM445.994 262.016L446.489 261.602C447.038 261.98 447.758 262.529 448.118 262.889L447.614 263.366C447.263 262.997 446.552 262.421 445.994 262.016ZM454.013 263.132H458.045V263.771H454.013V263.132ZM451.502 268.505H456.893V269.144H451.502V268.505ZM453.725 261.449H454.418V265.886H453.725V261.449ZM451.106 265.562H457.316V269.675H456.632V266.201H451.772V269.711H451.106V265.562ZM460.844 264.221H463.175V264.887H460.844V264.221ZM460.448 261.494H461.141V268.829L460.448 269V261.494ZM459.242 268.829C460.322 268.622 461.942 268.253 463.454 267.902L463.526 268.55C462.095 268.901 460.574 269.261 459.458 269.522L459.242 268.829ZM466.766 263.411L467.27 263.978C466.442 264.518 465.299 265.049 464.282 265.481C464.237 265.319 464.129 265.085 464.039 264.941C465.02 264.527 466.118 263.924 466.766 263.411ZM463.85 261.494H464.534V268.298C464.534 268.802 464.615 268.892 465.038 268.892C465.236 268.892 466.19 268.892 466.442 268.892C466.865 268.892 466.919 268.559 466.973 267.254C467.144 267.38 467.423 267.506 467.612 267.551C467.522 269.018 467.342 269.531 466.487 269.531C466.298 269.531 465.146 269.531 464.975 269.531C464.084 269.531 463.85 269.27 463.85 268.289V261.494Z" fill="#0A0A1F"/>
    <path opacity="0.5" d="M453.793 290.523C454.129 290.451 454.438 290.415 454.72 290.415C455.056 290.415 455.353 290.464 455.611 290.563C455.869 290.662 456.084 290.799 456.255 290.973C456.429 291.147 456.559 291.352 456.646 291.589C456.736 291.826 456.781 292.084 456.781 292.363C456.781 292.705 456.721 293.014 456.601 293.29C456.484 293.566 456.321 293.803 456.111 294.001C455.904 294.196 455.659 294.346 455.377 294.451C455.095 294.556 454.791 294.609 454.464 294.609C454.275 294.609 454.093 294.589 453.919 294.55C453.745 294.514 453.582 294.465 453.429 294.402C453.279 294.339 453.139 294.267 453.01 294.186C452.881 294.105 452.767 294.019 452.668 293.929L452.916 293.587C452.97 293.509 453.04 293.47 453.127 293.47C453.187 293.47 453.255 293.494 453.33 293.542C453.405 293.587 453.496 293.638 453.604 293.695C453.712 293.752 453.838 293.805 453.982 293.853C454.129 293.898 454.303 293.92 454.504 293.92C454.729 293.92 454.932 293.884 455.112 293.812C455.292 293.74 455.446 293.638 455.575 293.506C455.704 293.371 455.803 293.211 455.872 293.025C455.941 292.839 455.976 292.63 455.976 292.399C455.976 292.198 455.946 292.017 455.886 291.855C455.829 291.693 455.74 291.555 455.62 291.441C455.503 291.327 455.356 291.238 455.179 291.175C455.002 291.112 454.795 291.081 454.558 291.081C454.396 291.081 454.227 291.094 454.05 291.121C453.876 291.148 453.697 291.192 453.514 291.252L453.01 291.103L453.528 288.088H456.583V288.439C456.583 288.553 456.547 288.648 456.475 288.723C456.406 288.795 456.286 288.831 456.115 288.831H454.09L453.793 290.523ZM459.194 290.523C459.53 290.451 459.839 290.415 460.121 290.415C460.457 290.415 460.754 290.464 461.012 290.563C461.27 290.662 461.485 290.799 461.656 290.973C461.83 291.147 461.96 291.352 462.047 291.589C462.137 291.826 462.182 292.084 462.182 292.363C462.182 292.705 462.122 293.014 462.002 293.29C461.885 293.566 461.722 293.803 461.512 294.001C461.305 294.196 461.06 294.346 460.778 294.451C460.496 294.556 460.192 294.609 459.865 294.609C459.676 294.609 459.494 294.589 459.32 294.55C459.146 294.514 458.983 294.465 458.83 294.402C458.68 294.339 458.54 294.267 458.411 294.186C458.282 294.105 458.168 294.019 458.069 293.929L458.317 293.587C458.371 293.509 458.441 293.47 458.528 293.47C458.588 293.47 458.656 293.494 458.731 293.542C458.806 293.587 458.897 293.638 459.005 293.695C459.113 293.752 459.239 293.805 459.383 293.853C459.53 293.898 459.704 293.92 459.905 293.92C460.13 293.92 460.333 293.884 460.513 293.812C460.693 293.74 460.847 293.638 460.976 293.506C461.105 293.371 461.204 293.211 461.273 293.025C461.342 292.839 461.377 292.63 461.377 292.399C461.377 292.198 461.347 292.017 461.287 291.855C461.23 291.693 461.141 291.555 461.021 291.441C460.904 291.327 460.757 291.238 460.58 291.175C460.403 291.112 460.196 291.081 459.959 291.081C459.797 291.081 459.628 291.094 459.451 291.121C459.277 291.148 459.098 291.192 458.915 291.252L458.411 291.103L458.929 288.088H461.984V288.439C461.984 288.553 461.948 288.648 461.876 288.723C461.807 288.795 461.687 288.831 461.516 288.831H459.491L459.194 290.523ZM466.215 289.645C466.215 289.897 466.176 290.124 466.098 290.325C466.02 290.523 465.915 290.691 465.783 290.829C465.654 290.964 465.502 291.067 465.328 291.139C465.157 291.211 464.976 291.247 464.784 291.247C464.583 291.247 464.395 291.211 464.221 291.139C464.047 291.067 463.896 290.964 463.767 290.829C463.641 290.691 463.542 290.523 463.47 290.325C463.398 290.124 463.362 289.897 463.362 289.645C463.362 289.387 463.398 289.158 463.47 288.957C463.542 288.756 463.641 288.586 463.767 288.448C463.896 288.31 464.047 288.205 464.221 288.133C464.395 288.061 464.583 288.025 464.784 288.025C464.988 288.025 465.177 288.061 465.351 288.133C465.525 288.205 465.676 288.31 465.805 288.448C465.934 288.586 466.035 288.756 466.107 288.957C466.179 289.158 466.215 289.387 466.215 289.645ZM465.594 289.645C465.594 289.447 465.573 289.279 465.531 289.141C465.489 289.003 465.43 288.891 465.355 288.804C465.283 288.714 465.198 288.649 465.099 288.61C465 288.571 464.895 288.552 464.784 288.552C464.673 288.552 464.569 288.571 464.473 288.61C464.377 288.649 464.293 288.714 464.221 288.804C464.149 288.891 464.092 289.003 464.05 289.141C464.008 289.279 463.987 289.447 463.987 289.645C463.987 289.84 464.008 290.007 464.05 290.145C464.092 290.28 464.149 290.391 464.221 290.478C464.293 290.562 464.377 290.623 464.473 290.662C464.569 290.698 464.673 290.716 464.784 290.716C464.895 290.716 465 290.698 465.099 290.662C465.198 290.623 465.283 290.562 465.355 290.478C465.43 290.391 465.489 290.28 465.531 290.145C465.573 290.007 465.594 289.84 465.594 289.645ZM468.496 288.223C468.526 288.187 468.561 288.156 468.6 288.129C468.642 288.102 468.697 288.088 468.766 288.088H469.347L464.631 294.406C464.604 294.445 464.569 294.477 464.527 294.501C464.485 294.525 464.434 294.537 464.374 294.537H463.785L468.496 288.223ZM469.783 293.016C469.783 293.268 469.744 293.493 469.666 293.691C469.588 293.889 469.483 294.057 469.351 294.195C469.222 294.33 469.071 294.433 468.897 294.505C468.726 294.577 468.544 294.613 468.352 294.613C468.148 294.613 467.959 294.577 467.785 294.505C467.614 294.433 467.464 294.33 467.335 294.195C467.209 294.057 467.11 293.889 467.038 293.691C466.966 293.493 466.93 293.268 466.93 293.016C466.93 292.758 466.966 292.528 467.038 292.327C467.11 292.123 467.209 291.952 467.335 291.814C467.464 291.676 467.614 291.571 467.785 291.499C467.959 291.427 468.148 291.391 468.352 291.391C468.553 291.391 468.741 291.427 468.915 291.499C469.092 291.571 469.243 291.676 469.369 291.814C469.498 291.952 469.599 292.123 469.671 292.327C469.746 292.528 469.783 292.758 469.783 293.016ZM469.162 293.016C469.162 292.818 469.141 292.65 469.099 292.512C469.057 292.371 468.999 292.257 468.924 292.17C468.852 292.083 468.766 292.02 468.667 291.981C468.568 291.942 468.463 291.922 468.352 291.922C468.241 291.922 468.136 291.942 468.037 291.981C467.941 292.02 467.857 292.083 467.785 292.17C467.713 292.257 467.656 292.371 467.614 292.512C467.575 292.65 467.556 292.818 467.556 293.016C467.556 293.211 467.575 293.376 467.614 293.511C467.656 293.646 467.713 293.757 467.785 293.844C467.857 293.928 467.941 293.989 468.037 294.028C468.136 294.064 468.241 294.082 468.352 294.082C468.463 294.082 468.568 294.064 468.667 294.028C468.766 293.989 468.852 293.928 468.924 293.844C468.999 293.757 469.057 293.646 469.099 293.511C469.141 293.376 469.162 293.211 469.162 293.016Z" fill="#0A0A1F"/>
    <rect x="547.507" y="244.232" width="19.726" height="55.0737" fill="#EFEFFF"/>
    <rect x="522.302" y="221.284" width="19.726" height="78.0211" fill="#0066FF"/>
    <rect x="497.096" y="260.295" width="19.726" height="39.0105" fill="#96C0FF"/>
    <path opacity="0.5" d="M465.364 181.451H471.313V182.036H465.364V181.451ZM465.085 182.954H471.673V183.539H465.085V182.954ZM466.714 180.569H467.344V183.26H466.714V180.569ZM466.228 183.161H466.858V185.591H466.228V183.161ZM469.153 180.569H469.792V183.233H469.153V180.569ZM464.383 178.418H465.067V181.055C465.067 182.585 464.932 184.799 463.996 186.266C463.87 186.167 463.564 185.987 463.402 185.924C464.302 184.502 464.383 182.495 464.383 181.055V178.418ZM464.788 178.418H471.142V180.623H464.788V180.038H470.467V179.003H464.788V178.418ZM465.193 185.51C466.084 185.393 467.443 185.177 468.775 184.961L468.802 185.546C467.56 185.771 466.246 185.978 465.301 186.14L465.193 185.51ZM468.442 183.188C468.964 184.493 470.134 185.393 471.763 185.717C471.619 185.861 471.439 186.104 471.358 186.275C469.657 185.852 468.478 184.844 467.884 183.323L468.442 183.188ZM470.683 183.593L471.187 183.944C470.701 184.331 470.044 184.709 469.531 184.97L469.099 184.637C469.594 184.367 470.287 183.917 470.683 183.593ZM476.443 181.19H477.172V185.384C477.172 185.816 477.064 186.023 476.749 186.14C476.425 186.239 475.894 186.248 475.102 186.248C475.066 186.05 474.958 185.753 474.85 185.546C475.462 185.564 476.056 185.564 476.227 185.555C476.398 185.555 476.443 185.51 476.443 185.366V181.19ZM474.4 182.387L475.102 182.567C474.661 183.674 473.95 184.754 473.23 185.447C473.095 185.321 472.789 185.132 472.609 185.033C473.347 184.394 474.013 183.404 474.4 182.387ZM478.45 182.657L479.071 182.396C479.737 183.242 480.439 184.385 480.7 185.15L480.025 185.447C479.782 184.7 479.107 183.521 478.45 182.657ZM473.644 178.652H479.971V179.318H473.644V178.652ZM472.834 180.83H480.772V181.505H472.834V180.83ZM482.572 178.535H485.155V183.908H482.572V183.278H484.525V179.156H482.572V178.535ZM482.581 180.866H484.795V181.478H482.581V180.866ZM486.379 178.364H489.412V178.994H486.379V178.364ZM486.379 180.551H489.412V181.172H486.379V180.551ZM486.325 182.765H489.394V183.377H486.325V182.765ZM482.203 178.535H482.833V184.745H482.203V178.535ZM489.16 178.364H489.835V185.375C489.835 185.798 489.727 186.005 489.439 186.122C489.151 186.23 488.656 186.239 487.882 186.239C487.846 186.059 487.738 185.762 487.639 185.582C488.215 185.6 488.782 185.591 488.944 185.591C489.106 185.582 489.16 185.528 489.16 185.366V178.364ZM485.983 178.364H486.649V181.577C486.649 183.089 486.424 185.078 484.804 186.32C484.705 186.185 484.453 185.951 484.309 185.861C485.83 184.691 485.983 182.981 485.983 181.577V178.364ZM491.23 183.89C491.203 183.755 491.095 183.422 491.014 183.251C491.212 183.206 491.446 182.999 491.77 182.693C492.103 182.378 493.156 181.172 493.876 179.993L494.452 180.362C493.624 181.55 492.634 182.702 491.68 183.53V183.548C491.68 183.548 491.23 183.746 491.23 183.89ZM491.23 183.89L491.203 183.341L491.545 183.107L494.299 182.72C494.29 182.9 494.308 183.152 494.326 183.296C491.761 183.701 491.437 183.782 491.23 183.89ZM491.176 181.721C491.14 181.577 491.032 181.244 490.951 181.064C491.122 181.019 491.293 180.812 491.518 180.506C491.743 180.2 492.472 179.048 492.913 177.941L493.57 178.229C493.021 179.363 492.319 180.524 491.626 181.343V181.352C491.626 181.352 491.176 181.577 491.176 181.721ZM491.176 181.721L491.167 181.217L491.5 181.01L493.525 180.821C493.489 181.001 493.471 181.253 493.471 181.388C491.617 181.595 491.347 181.64 491.176 181.721ZM490.996 185.069C491.824 184.943 493.084 184.709 494.308 184.484L494.353 185.087C493.192 185.33 491.995 185.555 491.104 185.735L490.996 185.069ZM494.947 184.916H498.61V185.546H494.947V184.916ZM494.92 181.73H498.655V182.36H494.92V181.73ZM496.477 178.922H497.107V185.186H496.477V178.922ZM494.56 178.445H499.024V186.05H498.376V179.12H495.181V186.131H494.56V178.445ZM500.194 182.783H504.613V183.35H500.194V182.783ZM500.248 179.642H504.586V180.191H500.248V179.642ZM501.868 182.009L502.498 182.144C502.093 183.026 501.526 184.124 501.112 184.835L500.518 184.628C500.923 183.944 501.49 182.837 501.868 182.009ZM503.218 183.116L503.848 183.197C503.542 184.952 502.597 185.816 500.518 186.257C500.473 186.077 500.338 185.834 500.212 185.699C502.093 185.384 502.939 184.646 503.218 183.116ZM503.785 178.157L504.361 178.409C504.1 178.823 503.803 179.273 503.551 179.579L503.101 179.354C503.326 179.03 503.623 178.508 503.785 178.157ZM502.111 177.977H502.732V182.117H502.111V177.977ZM500.581 178.409L501.094 178.193C501.346 178.553 501.589 179.03 501.679 179.354L501.148 179.597C501.067 179.273 500.833 178.778 500.581 178.409ZM502.12 179.885L502.579 180.155C502.138 180.911 501.292 181.712 500.518 182.135C500.437 181.982 500.275 181.757 500.149 181.622C500.896 181.298 501.724 180.578 502.12 179.885ZM502.66 180.2C502.984 180.371 504.082 181.064 504.343 181.253L503.974 181.748C503.65 181.442 502.714 180.74 502.336 180.488L502.66 180.2ZM505.27 179.642H508.474V180.272H505.27V179.642ZM505.495 177.977L506.179 178.076C505.882 179.84 505.351 181.451 504.559 182.504C504.451 182.378 504.172 182.153 504.01 182.045C504.775 181.091 505.243 179.57 505.495 177.977ZM507.268 180.002L507.952 180.074C507.52 183.179 506.566 185.114 504.298 186.284C504.226 186.122 504.028 185.825 503.893 185.681C506.035 184.673 506.899 182.855 507.268 180.002ZM505.63 180.2C506.026 182.675 506.89 184.799 508.564 185.681C508.402 185.816 508.186 186.077 508.087 186.257C506.323 185.222 505.468 183.026 505.018 180.299L505.63 180.2ZM501.058 184.502L501.418 184.043C502.498 184.457 503.614 185.051 504.262 185.546L503.794 186.032C503.173 185.528 502.102 184.925 501.058 184.502ZM512.893 178.373H517.33V180.704H512.911V180.119H516.682V178.967H512.893V178.373ZM512.578 178.373H513.235V181.1C513.235 182.612 513.1 184.808 512.11 186.257C511.993 186.14 511.714 185.942 511.552 185.879C512.488 184.493 512.578 182.531 512.578 181.1V178.373ZM512.938 181.694H517.636V182.288H512.938V181.694ZM513.658 185.339H516.988V185.897H513.658V185.339ZM514.981 180.632H515.629V183.656H514.981V180.632ZM513.37 183.404H517.357V186.23H516.736V183.98H513.973V186.266H513.37V183.404ZM509.284 182.765C509.986 182.567 511.057 182.243 512.092 181.91L512.182 182.531C511.228 182.846 510.229 183.17 509.455 183.422L509.284 182.765ZM509.392 179.795H512.173V180.425H509.392V179.795ZM510.526 177.986H511.147V185.42C511.147 185.789 511.066 185.969 510.841 186.077C510.634 186.185 510.283 186.203 509.716 186.203C509.689 186.041 509.608 185.762 509.518 185.573C509.914 185.582 510.256 185.582 510.364 185.582C510.472 185.582 510.526 185.546 510.526 185.411V177.986Z" fill="#0A0A1F"/>
    <rect x="412.712" y="171.948" width="37.2603" height="22.9474" rx="11.4737" fill="#E5E7FC"/>
    <rect x="414.904" y="174.242" width="17.5342" height="18.3579" rx="8.76712" fill="white"/>
    <g filter="url(#filter1_d_108_865)">
        <rect x="16" y="40" width="370.411" height="286.842" rx="10" fill="white"/>
    </g>
    <line opacity="0.1" x1="49.1268" y1="134.084" x2="49.1268" y2="306.189" stroke="url(#paint0_linear_108_865)" stroke-width="0.5"/>
    <line opacity="0.1" x1="97.3458" y1="134.084" x2="97.3458" y2="306.189" stroke="url(#paint1_linear_108_865)" stroke-width="0.5"/>
    <line opacity="0.1" x1="145.565" y1="134.084" x2="145.565" y2="306.189" stroke="url(#paint2_linear_108_865)" stroke-width="0.5"/>
    <line opacity="0.1" x1="193.784" y1="134.084" x2="193.784" y2="306.189" stroke="url(#paint3_linear_108_865)" stroke-width="0.5"/>
    <line opacity="0.1" x1="242.004" y1="134.084" x2="242.004" y2="306.189" stroke="url(#paint4_linear_108_865)" stroke-width="0.5"/>
    <line opacity="0.1" x1="290.223" y1="134.084" x2="290.223" y2="306.189" stroke="url(#paint5_linear_108_865)" stroke-width="0.5"/>
    <line opacity="0.1" x1="342.825" y1="134.084" x2="342.825" y2="306.189" stroke="url(#paint6_linear_108_865)" stroke-width="0.5"/>
    <path d="M46.344 70.648H51.888V73.288H46.344V70.648ZM50.784 70.648H53.592C53.592 70.648 53.568 71.368 53.568 71.704C53.472 76.792 53.352 78.928 52.8 79.672C52.32 80.272 51.84 80.488 51.144 80.608C50.496 80.704 49.464 80.704 48.336 80.68C48.288 79.84 47.976 78.712 47.544 77.992C48.408 78.088 49.224 78.088 49.608 78.088C49.944 78.088 50.16 78.04 50.352 77.8C50.64 77.416 50.736 75.736 50.784 71.08V70.648ZM58.008 63.136L59.736 61.384C61.056 62.08 62.832 63.184 63.696 63.976L61.848 65.92C61.056 65.08 59.352 63.904 58.008 63.136ZM60.84 69.304L63.744 70C61.728 76.264 58.2 81.136 53.448 84.064C53.016 83.464 51.96 82.264 51.36 81.688C55.968 79.216 59.184 74.872 60.84 69.304ZM46.512 65.224H65.016V68.056H46.512V65.224ZM44.592 65.224H47.616V72.28C47.616 75.88 47.208 81.208 45.024 84.448C44.544 83.872 43.248 82.816 42.576 82.48C44.424 79.6 44.592 75.4 44.592 72.256V65.224ZM54.336 61.648H57.36C57.192 71.44 59.4 81.064 61.824 81.064C62.376 81.064 62.664 79.84 62.808 76.816C63.456 77.488 64.488 78.16 65.256 78.448C64.8 82.912 63.84 83.992 61.584 83.992C56.352 83.992 54.408 72.592 54.336 61.648ZM67.872 66.28H89.112V69.208H67.872V66.28ZM72.816 77.176H83.952V80.104H72.816V77.176ZM76.92 61.624H79.992V84.16H76.92V61.624ZM76.056 67.336L78.696 68.176C76.632 73.408 73.224 77.992 69.024 80.632C68.544 79.912 67.584 78.808 66.936 78.232C70.872 76.072 74.352 71.752 76.056 67.336ZM80.856 67.408C82.608 71.68 86.112 75.856 90.144 77.944C89.424 78.544 88.392 79.744 87.912 80.56C83.688 77.968 80.328 73.384 78.24 68.272L80.856 67.408ZM100.872 64.768H111.888V67.432H100.872V64.768ZM100.92 70.768H110.904V73.336H100.92V70.768ZM104.904 61.6H107.712V72.208H104.904V61.6ZM99.36 64.768H102.12V70.936C102.12 74.824 101.712 80.488 99.144 84.112C98.64 83.656 97.416 82.936 96.72 82.672C99.144 79.312 99.36 74.416 99.36 70.912V64.768ZM111.216 64.768H111.672L112.128 64.672L114.24 65.176C113.688 67.024 112.944 69.04 112.272 70.36L109.776 69.64C110.304 68.512 110.88 66.664 111.216 65.176V64.768ZM104.208 72.424C105.84 76.84 109.272 80.272 114.312 81.688C113.664 82.264 112.848 83.392 112.44 84.136C107.112 82.312 103.728 78.472 101.736 73.12L104.208 72.424ZM93.024 63.856L94.632 61.768C95.952 62.416 97.944 63.472 98.928 64.144L97.248 66.472C96.312 65.752 94.368 64.6 93.024 63.856ZM91.608 70.384L93.216 68.248C94.56 68.848 96.576 69.856 97.584 70.528L95.928 72.928C94.992 72.208 93 71.104 91.608 70.384ZM92.088 82.168C93.216 80.32 94.8 77.296 96.024 74.464L98.28 76.192C97.2 78.76 95.904 81.544 94.656 83.896L92.088 82.168ZM109.872 70.768H110.448L110.952 70.696L112.752 71.464C111.12 78.184 107.16 82.264 102.144 84.184C101.784 83.512 100.896 82.312 100.32 81.808C105.096 80.2 108.648 76.816 109.872 71.296V70.768ZM127.512 66.832H136.944V69.592H127.512V66.832ZM135.456 66.832H138.288C138.288 66.832 138.264 67.792 138.264 68.128C138 77.872 137.76 81.4 136.944 82.528C136.368 83.344 135.816 83.608 134.952 83.752C134.184 83.896 132.96 83.896 131.736 83.848C131.664 83.032 131.352 81.808 130.848 81.016C132 81.136 133.032 81.136 133.56 81.136C133.944 81.136 134.184 81.04 134.448 80.728C135.024 80.008 135.264 76.576 135.456 67.456V66.832ZM130.248 62.056H133.08C133.056 71.392 132.96 79.432 128.208 84.136C127.728 83.416 126.792 82.408 126.048 81.928C130.368 77.8 130.224 70.672 130.248 62.056ZM117.36 63.472H126.816V66.016H117.36V63.472ZM116.568 69.064H127.224V71.656H116.568V69.064ZM123.48 73.84L125.784 73.192C126.672 75.208 127.68 77.896 128.064 79.552L125.568 80.344C125.232 78.688 124.32 75.928 123.48 73.84ZM117.624 81.544L117.336 79.12L118.56 78.208L126.312 76.384C126.384 77.152 126.576 78.232 126.72 78.832C119.472 80.704 118.344 81.088 117.624 81.544ZM117.6 81.544C117.456 80.992 117 79.672 116.688 78.976C117.144 78.808 117.48 78.256 117.888 77.368C118.248 76.528 119.352 73.192 119.856 70.168L122.688 70.984C121.968 74.128 120.672 77.608 119.472 80.008V80.056C119.472 80.056 117.6 81.016 117.6 81.544Z" fill="#0A0A1F"/>
    <path opacity="0.2" d="M45.9516 113.962V111.007C45.9516 110.921 45.9549 110.826 45.9616 110.722C45.9682 110.619 45.9782 110.514 45.9916 110.407L43.3816 113.962H45.9516ZM47.8166 113.962V114.472C47.8166 114.526 47.7999 114.571 47.7666 114.607C47.7366 114.644 47.6882 114.662 47.6216 114.662H46.7316V116.547H45.9516V114.662H42.7716C42.7049 114.662 42.6466 114.644 42.5966 114.607C42.5499 114.567 42.5199 114.519 42.5066 114.462L42.4166 114.007L45.9016 109.382H46.7316V113.962H47.8166ZM53.8024 112.967C53.8024 113.594 53.734 114.137 53.5974 114.597C53.464 115.054 53.2807 115.432 53.0474 115.732C52.814 116.032 52.5374 116.256 52.2174 116.402C51.9007 116.549 51.5607 116.622 51.1974 116.622C50.8307 116.622 50.489 116.549 50.1724 116.402C49.859 116.256 49.5857 116.032 49.3524 115.732C49.119 115.432 48.9357 115.054 48.8024 114.597C48.669 114.137 48.6024 113.594 48.6024 112.967C48.6024 112.341 48.669 111.797 48.8024 111.337C48.9357 110.877 49.119 110.497 49.3524 110.197C49.5857 109.894 49.859 109.669 50.1724 109.522C50.489 109.376 50.8307 109.302 51.1974 109.302C51.5607 109.302 51.9007 109.376 52.2174 109.522C52.5374 109.669 52.814 109.894 53.0474 110.197C53.2807 110.497 53.464 110.877 53.5974 111.337C53.734 111.797 53.8024 112.341 53.8024 112.967ZM52.8774 112.967C52.8774 112.421 52.8307 111.962 52.7374 111.592C52.6474 111.219 52.524 110.919 52.3674 110.692C52.214 110.466 52.0357 110.304 51.8324 110.207C51.629 110.107 51.4174 110.057 51.1974 110.057C50.9774 110.057 50.7657 110.107 50.5624 110.207C50.359 110.304 50.1807 110.466 50.0274 110.692C49.874 110.919 49.7507 111.219 49.6574 111.592C49.5674 111.962 49.5224 112.421 49.5224 112.967C49.5224 113.514 49.5674 113.972 49.6574 114.342C49.7507 114.712 49.874 115.011 50.0274 115.237C50.1807 115.464 50.359 115.627 50.5624 115.727C50.7657 115.824 50.9774 115.872 51.1974 115.872C51.4174 115.872 51.629 115.824 51.8324 115.727C52.0357 115.627 52.214 115.464 52.3674 115.237C52.524 115.011 52.6474 114.712 52.7374 114.342C52.8307 113.972 52.8774 113.514 52.8774 112.967Z" fill="#0A0A1F"/>
    <path opacity="0.2" d="M92.3305 112.087C92.7039 112.007 93.0472 111.967 93.3605 111.967C93.7339 111.967 94.0639 112.022 94.3505 112.132C94.6372 112.242 94.8755 112.394 95.0655 112.587C95.2589 112.781 95.4039 113.009 95.5005 113.272C95.6005 113.536 95.6505 113.822 95.6505 114.132C95.6505 114.512 95.5839 114.856 95.4505 115.162C95.3205 115.469 95.1389 115.732 94.9055 115.952C94.6755 116.169 94.4039 116.336 94.0905 116.452C93.7772 116.569 93.4389 116.627 93.0755 116.627C92.8655 116.627 92.6639 116.606 92.4705 116.562C92.2772 116.522 92.0955 116.467 91.9255 116.397C91.7589 116.327 91.6039 116.247 91.4605 116.157C91.3172 116.067 91.1905 115.972 91.0805 115.872L91.3555 115.492C91.4155 115.406 91.4939 115.362 91.5905 115.362C91.6572 115.362 91.7322 115.389 91.8155 115.442C91.8989 115.492 92.0005 115.549 92.1205 115.612C92.2405 115.676 92.3805 115.734 92.5405 115.787C92.7039 115.837 92.8972 115.862 93.1205 115.862C93.3705 115.862 93.5955 115.822 93.7955 115.742C93.9955 115.662 94.1672 115.549 94.3105 115.402C94.4539 115.252 94.5639 115.074 94.6405 114.867C94.7172 114.661 94.7555 114.429 94.7555 114.172C94.7555 113.949 94.7222 113.747 94.6555 113.567C94.5922 113.387 94.4939 113.234 94.3605 113.107C94.2305 112.981 94.0672 112.882 93.8705 112.812C93.6739 112.742 93.4439 112.707 93.1805 112.707C93.0005 112.707 92.8122 112.722 92.6155 112.752C92.4222 112.782 92.2239 112.831 92.0205 112.897L91.4605 112.732L92.0355 109.382H95.4305V109.772C95.4305 109.899 95.3905 110.004 95.3105 110.087C95.2339 110.167 95.1005 110.207 94.9105 110.207H92.6605L92.3305 112.087ZM102.021 112.967C102.021 113.594 101.953 114.137 101.816 114.597C101.683 115.054 101.5 115.432 101.266 115.732C101.033 116.032 100.756 116.256 100.436 116.402C100.12 116.549 99.7797 116.622 99.4163 116.622C99.0497 116.622 98.708 116.549 98.3913 116.402C98.078 116.256 97.8047 116.032 97.5713 115.732C97.338 115.432 97.1547 115.054 97.0213 114.597C96.888 114.137 96.8213 113.594 96.8213 112.967C96.8213 112.341 96.888 111.797 97.0213 111.337C97.1547 110.877 97.338 110.497 97.5713 110.197C97.8047 109.894 98.078 109.669 98.3913 109.522C98.708 109.376 99.0497 109.302 99.4163 109.302C99.7797 109.302 100.12 109.376 100.436 109.522C100.756 109.669 101.033 109.894 101.266 110.197C101.5 110.497 101.683 110.877 101.816 111.337C101.953 111.797 102.021 112.341 102.021 112.967ZM101.096 112.967C101.096 112.421 101.05 111.962 100.956 111.592C100.866 111.219 100.743 110.919 100.586 110.692C100.433 110.466 100.255 110.304 100.051 110.207C99.848 110.107 99.6363 110.057 99.4163 110.057C99.1963 110.057 98.9847 110.107 98.7813 110.207C98.578 110.304 98.3997 110.466 98.2463 110.692C98.093 110.919 97.9697 111.219 97.8763 111.592C97.7863 111.962 97.7413 112.421 97.7413 112.967C97.7413 113.514 97.7863 113.972 97.8763 114.342C97.9697 114.712 98.093 115.011 98.2463 115.237C98.3997 115.464 98.578 115.627 98.7813 115.727C98.9847 115.824 99.1963 115.872 99.4163 115.872C99.6363 115.872 99.848 115.824 100.051 115.727C100.255 115.627 100.433 115.464 100.586 115.237C100.743 115.011 100.866 114.712 100.956 114.342C101.05 113.972 101.096 113.514 101.096 112.967Z" fill="#0A0A1F"/>
    <path opacity="0.2" d="M141.629 115.887C141.869 115.887 142.086 115.849 142.279 115.772C142.476 115.696 142.643 115.589 142.779 115.452C142.919 115.316 143.026 115.154 143.099 114.967C143.176 114.781 143.214 114.577 143.214 114.357C143.214 114.124 143.178 113.914 143.104 113.727C143.031 113.537 142.926 113.377 142.789 113.247C142.656 113.114 142.496 113.012 142.309 112.942C142.123 112.872 141.918 112.837 141.694 112.837C141.454 112.837 141.238 112.879 141.044 112.962C140.851 113.042 140.686 113.152 140.549 113.292C140.416 113.429 140.313 113.589 140.239 113.772C140.169 113.952 140.134 114.141 140.134 114.337C140.134 114.567 140.168 114.777 140.234 114.967C140.301 115.157 140.398 115.321 140.524 115.457C140.654 115.594 140.811 115.701 140.994 115.777C141.181 115.851 141.393 115.887 141.629 115.887ZM141.109 112.067C141.046 112.147 140.984 112.226 140.924 112.302C140.868 112.376 140.813 112.449 140.759 112.522C140.929 112.406 141.116 112.316 141.319 112.252C141.523 112.189 141.744 112.157 141.984 112.157C142.274 112.157 142.548 112.206 142.804 112.302C143.061 112.396 143.284 112.534 143.474 112.717C143.668 112.897 143.821 113.121 143.934 113.387C144.048 113.651 144.104 113.952 144.104 114.292C144.104 114.622 144.044 114.929 143.924 115.212C143.804 115.496 143.636 115.742 143.419 115.952C143.206 116.162 142.948 116.327 142.644 116.447C142.344 116.567 142.013 116.627 141.649 116.627C141.289 116.627 140.963 116.571 140.669 116.457C140.376 116.341 140.126 116.177 139.919 115.967C139.716 115.754 139.558 115.497 139.444 115.197C139.334 114.894 139.279 114.556 139.279 114.182C139.279 113.869 139.348 113.536 139.484 113.182C139.624 112.826 139.846 112.446 140.149 112.042L141.969 109.597C142.016 109.537 142.079 109.487 142.159 109.447C142.243 109.404 142.338 109.382 142.444 109.382H143.234L141.109 112.067ZM150.24 112.967C150.24 113.594 150.172 114.137 150.035 114.597C149.902 115.054 149.719 115.432 149.485 115.732C149.252 116.032 148.975 116.256 148.655 116.402C148.339 116.549 147.999 116.622 147.635 116.622C147.269 116.622 146.927 116.549 146.61 116.402C146.297 116.256 146.024 116.032 145.79 115.732C145.557 115.432 145.374 115.054 145.24 114.597C145.107 114.137 145.04 113.594 145.04 112.967C145.04 112.341 145.107 111.797 145.24 111.337C145.374 110.877 145.557 110.497 145.79 110.197C146.024 109.894 146.297 109.669 146.61 109.522C146.927 109.376 147.269 109.302 147.635 109.302C147.999 109.302 148.339 109.376 148.655 109.522C148.975 109.669 149.252 109.894 149.485 110.197C149.719 110.497 149.902 110.877 150.035 111.337C150.172 111.797 150.24 112.341 150.24 112.967ZM149.315 112.967C149.315 112.421 149.269 111.962 149.175 111.592C149.085 111.219 148.962 110.919 148.805 110.692C148.652 110.466 148.474 110.304 148.27 110.207C148.067 110.107 147.855 110.057 147.635 110.057C147.415 110.057 147.204 110.107 147 110.207C146.797 110.304 146.619 110.466 146.465 110.692C146.312 110.919 146.189 111.219 146.095 111.592C146.005 111.962 145.96 112.421 145.96 112.967C145.96 113.514 146.005 113.972 146.095 114.342C146.189 114.712 146.312 115.011 146.465 115.237C146.619 115.464 146.797 115.627 147 115.727C147.204 115.824 147.415 115.872 147.635 115.872C147.855 115.872 148.067 115.824 148.27 115.727C148.474 115.627 148.652 115.464 148.805 115.237C148.962 115.011 149.085 114.712 149.175 114.342C149.269 113.972 149.315 113.514 149.315 112.967Z" fill="#0A0A1F"/>
    <path opacity="0.2" d="M192.364 109.382V109.782C192.364 109.896 192.351 109.989 192.324 110.062C192.301 110.136 192.277 110.197 192.254 110.247L189.284 116.232C189.241 116.319 189.181 116.394 189.104 116.457C189.027 116.517 188.926 116.547 188.799 116.547H188.159L191.169 110.637C191.212 110.554 191.257 110.477 191.304 110.407C191.351 110.337 191.401 110.271 191.454 110.207H187.714C187.657 110.207 187.607 110.186 187.564 110.142C187.521 110.096 187.499 110.044 187.499 109.987V109.382H192.364ZM198.46 112.967C198.46 113.594 198.391 114.137 198.255 114.597C198.121 115.054 197.938 115.432 197.705 115.732C197.471 116.032 197.195 116.256 196.875 116.402C196.558 116.549 196.218 116.622 195.855 116.622C195.488 116.622 195.146 116.549 194.83 116.402C194.516 116.256 194.243 116.032 194.01 115.732C193.776 115.432 193.593 115.054 193.46 114.597C193.326 114.137 193.26 113.594 193.26 112.967C193.26 112.341 193.326 111.797 193.46 111.337C193.593 110.877 193.776 110.497 194.01 110.197C194.243 109.894 194.516 109.669 194.83 109.522C195.146 109.376 195.488 109.302 195.855 109.302C196.218 109.302 196.558 109.376 196.875 109.522C197.195 109.669 197.471 109.894 197.705 110.197C197.938 110.497 198.121 110.877 198.255 111.337C198.391 111.797 198.46 112.341 198.46 112.967ZM197.535 112.967C197.535 112.421 197.488 111.962 197.395 111.592C197.305 111.219 197.181 110.919 197.025 110.692C196.871 110.466 196.693 110.304 196.49 110.207C196.286 110.107 196.075 110.057 195.855 110.057C195.635 110.057 195.423 110.107 195.22 110.207C195.016 110.304 194.838 110.466 194.685 110.692C194.531 110.919 194.408 111.219 194.315 111.592C194.225 111.962 194.18 112.421 194.18 112.967C194.18 113.514 194.225 113.972 194.315 114.342C194.408 114.712 194.531 115.011 194.685 115.237C194.838 115.464 195.016 115.627 195.22 115.727C195.423 115.824 195.635 115.872 195.855 115.872C196.075 115.872 196.286 115.824 196.49 115.727C196.693 115.627 196.871 115.464 197.025 115.237C197.181 115.011 197.305 114.712 197.395 114.342C197.488 113.972 197.535 113.514 197.535 112.967Z" fill="#0A0A1F"/>
    <path opacity="0.2" d="M238.078 115.917C238.311 115.917 238.52 115.886 238.703 115.822C238.89 115.756 239.046 115.664 239.173 115.547C239.303 115.427 239.401 115.286 239.468 115.122C239.538 114.956 239.573 114.772 239.573 114.572C239.573 114.326 239.531 114.116 239.448 113.942C239.368 113.766 239.258 113.622 239.118 113.512C238.981 113.402 238.823 113.322 238.643 113.272C238.463 113.219 238.275 113.192 238.078 113.192C237.881 113.192 237.693 113.219 237.513 113.272C237.333 113.322 237.173 113.402 237.033 113.512C236.896 113.622 236.786 113.766 236.703 113.942C236.623 114.116 236.583 114.326 236.583 114.572C236.583 114.772 236.616 114.956 236.683 115.122C236.753 115.286 236.851 115.427 236.978 115.547C237.108 115.664 237.265 115.756 237.448 115.822C237.635 115.886 237.845 115.917 238.078 115.917ZM238.078 109.992C237.865 109.992 237.676 110.024 237.513 110.087C237.353 110.151 237.218 110.237 237.108 110.347C237.001 110.457 236.92 110.586 236.863 110.732C236.81 110.879 236.783 111.036 236.783 111.202C236.783 111.366 236.806 111.524 236.853 111.677C236.9 111.831 236.975 111.967 237.078 112.087C237.181 112.204 237.315 112.299 237.478 112.372C237.645 112.442 237.845 112.477 238.078 112.477C238.311 112.477 238.51 112.442 238.673 112.372C238.84 112.299 238.975 112.204 239.078 112.087C239.181 111.967 239.256 111.831 239.303 111.677C239.35 111.524 239.373 111.366 239.373 111.202C239.373 111.036 239.345 110.879 239.288 110.732C239.235 110.586 239.153 110.457 239.043 110.347C238.936 110.237 238.801 110.151 238.638 110.087C238.478 110.024 238.291 109.992 238.078 109.992ZM239.103 112.812C239.55 112.939 239.893 113.151 240.133 113.447C240.373 113.744 240.493 114.124 240.493 114.587C240.493 114.901 240.433 115.184 240.313 115.437C240.196 115.687 240.031 115.901 239.818 116.077C239.608 116.254 239.355 116.391 239.058 116.487C238.761 116.581 238.435 116.627 238.078 116.627C237.721 116.627 237.395 116.581 237.098 116.487C236.801 116.391 236.546 116.254 236.333 116.077C236.12 115.901 235.955 115.687 235.838 115.437C235.721 115.184 235.663 114.901 235.663 114.587C235.663 114.124 235.783 113.744 236.023 113.447C236.263 113.151 236.606 112.939 237.053 112.812C236.676 112.672 236.391 112.464 236.198 112.187C236.008 111.907 235.913 111.574 235.913 111.187C235.913 110.924 235.965 110.677 236.068 110.447C236.171 110.217 236.318 110.017 236.508 109.847C236.698 109.677 236.925 109.544 237.188 109.447C237.455 109.351 237.751 109.302 238.078 109.302C238.401 109.302 238.696 109.351 238.963 109.447C239.23 109.544 239.458 109.677 239.648 109.847C239.838 110.017 239.985 110.217 240.088 110.447C240.191 110.677 240.243 110.924 240.243 111.187C240.243 111.574 240.146 111.907 239.953 112.187C239.763 112.464 239.48 112.672 239.103 112.812ZM246.679 112.967C246.679 113.594 246.61 114.137 246.474 114.597C246.34 115.054 246.157 115.432 245.924 115.732C245.69 116.032 245.414 116.256 245.094 116.402C244.777 116.549 244.437 116.622 244.074 116.622C243.707 116.622 243.365 116.549 243.049 116.402C242.735 116.256 242.462 116.032 242.229 115.732C241.995 115.432 241.812 115.054 241.679 114.597C241.545 114.137 241.479 113.594 241.479 112.967C241.479 112.341 241.545 111.797 241.679 111.337C241.812 110.877 241.995 110.497 242.229 110.197C242.462 109.894 242.735 109.669 243.049 109.522C243.365 109.376 243.707 109.302 244.074 109.302C244.437 109.302 244.777 109.376 245.094 109.522C245.414 109.669 245.69 109.894 245.924 110.197C246.157 110.497 246.34 110.877 246.474 111.337C246.61 111.797 246.679 112.341 246.679 112.967ZM245.754 112.967C245.754 112.421 245.707 111.962 245.614 111.592C245.524 111.219 245.4 110.919 245.244 110.692C245.09 110.466 244.912 110.304 244.709 110.207C244.505 110.107 244.294 110.057 244.074 110.057C243.854 110.057 243.642 110.107 243.439 110.207C243.235 110.304 243.057 110.466 242.904 110.692C242.75 110.919 242.627 111.219 242.534 111.592C242.444 111.962 242.399 112.421 242.399 112.967C242.399 113.514 242.444 113.972 242.534 114.342C242.627 114.712 242.75 115.011 242.904 115.237C243.057 115.464 243.235 115.627 243.439 115.727C243.642 115.824 243.854 115.872 244.074 115.872C244.294 115.872 244.505 115.824 244.709 115.727C244.912 115.627 245.09 115.464 245.244 115.237C245.4 115.011 245.524 114.712 245.614 114.342C245.707 113.972 245.754 113.514 245.754 112.967Z" fill="#0A0A1F"/>
    <path opacity="0.2" d="M284.812 111.487C284.812 111.714 284.844 111.917 284.907 112.097C284.974 112.274 285.067 112.424 285.187 112.547C285.311 112.671 285.459 112.764 285.632 112.827C285.809 112.891 286.006 112.922 286.222 112.922C286.462 112.922 286.674 112.884 286.857 112.807C287.044 112.727 287.201 112.622 287.327 112.492C287.454 112.362 287.551 112.212 287.617 112.042C287.684 111.872 287.717 111.696 287.717 111.512C287.717 111.289 287.681 111.087 287.607 110.907C287.537 110.724 287.439 110.569 287.312 110.442C287.186 110.316 287.034 110.219 286.857 110.152C286.684 110.082 286.492 110.047 286.282 110.047C286.062 110.047 285.862 110.084 285.682 110.157C285.502 110.227 285.347 110.326 285.217 110.452C285.087 110.579 284.987 110.731 284.917 110.907C284.847 111.084 284.812 111.277 284.812 111.487ZM286.892 113.692C286.966 113.596 287.034 113.504 287.097 113.417C287.161 113.331 287.221 113.244 287.277 113.157C287.094 113.304 286.887 113.416 286.657 113.492C286.427 113.569 286.184 113.607 285.927 113.607C285.657 113.607 285.401 113.562 285.157 113.472C284.917 113.382 284.706 113.251 284.522 113.077C284.339 112.901 284.192 112.686 284.082 112.432C283.976 112.176 283.922 111.882 283.922 111.552C283.922 111.239 283.981 110.946 284.097 110.672C284.214 110.399 284.377 110.161 284.587 109.957C284.797 109.754 285.047 109.594 285.337 109.477C285.627 109.361 285.946 109.302 286.292 109.302C286.636 109.302 286.947 109.359 287.227 109.472C287.507 109.586 287.747 109.744 287.947 109.947C288.147 110.151 288.301 110.394 288.407 110.677C288.517 110.961 288.572 111.274 288.572 111.617C288.572 111.824 288.552 112.021 288.512 112.207C288.476 112.391 288.421 112.572 288.347 112.752C288.277 112.929 288.191 113.106 288.087 113.282C287.984 113.456 287.867 113.634 287.737 113.817L285.992 116.337C285.949 116.401 285.887 116.452 285.807 116.492C285.727 116.529 285.636 116.547 285.532 116.547H284.712L286.892 113.692ZM294.898 112.967C294.898 113.594 294.83 114.137 294.693 114.597C294.56 115.054 294.376 115.432 294.143 115.732C293.91 116.032 293.633 116.256 293.313 116.402C292.996 116.549 292.656 116.622 292.293 116.622C291.926 116.622 291.585 116.549 291.268 116.402C290.955 116.256 290.681 116.032 290.448 115.732C290.215 115.432 290.031 115.054 289.898 114.597C289.765 114.137 289.698 113.594 289.698 112.967C289.698 112.341 289.765 111.797 289.898 111.337C290.031 110.877 290.215 110.497 290.448 110.197C290.681 109.894 290.955 109.669 291.268 109.522C291.585 109.376 291.926 109.302 292.293 109.302C292.656 109.302 292.996 109.376 293.313 109.522C293.633 109.669 293.91 109.894 294.143 110.197C294.376 110.497 294.56 110.877 294.693 111.337C294.83 111.797 294.898 112.341 294.898 112.967ZM293.973 112.967C293.973 112.421 293.926 111.962 293.833 111.592C293.743 111.219 293.62 110.919 293.463 110.692C293.31 110.466 293.131 110.304 292.928 110.207C292.725 110.107 292.513 110.057 292.293 110.057C292.073 110.057 291.861 110.107 291.658 110.207C291.455 110.304 291.276 110.466 291.123 110.692C290.97 110.919 290.846 111.219 290.753 111.592C290.663 111.962 290.618 112.421 290.618 112.967C290.618 113.514 290.663 113.972 290.753 114.342C290.846 114.712 290.97 115.011 291.123 115.237C291.276 115.464 291.455 115.627 291.658 115.727C291.861 115.824 292.073 115.872 292.293 115.872C292.513 115.872 292.725 115.824 292.928 115.727C293.131 115.627 293.31 115.464 293.463 115.237C293.62 115.011 293.743 114.712 293.833 114.342C293.926 113.972 293.973 113.514 293.973 112.967Z" fill="#0A0A1F"/>
    <path opacity="0.2" d="M336.706 115.867V116.547H332.866V115.867H334.401V110.982C334.401 110.836 334.406 110.687 334.416 110.537L333.141 111.632C333.098 111.669 333.055 111.692 333.011 111.702C332.968 111.709 332.928 111.709 332.891 111.702C332.855 111.696 332.82 111.682 332.786 111.662C332.756 111.642 332.733 111.621 332.716 111.597L332.436 111.212L334.571 109.367H335.296V115.867H336.706ZM343.117 112.967C343.117 113.594 343.049 114.137 342.912 114.597C342.779 115.054 342.595 115.432 342.362 115.732C342.129 116.032 341.852 116.256 341.532 116.402C341.215 116.549 340.875 116.622 340.512 116.622C340.145 116.622 339.804 116.549 339.487 116.402C339.174 116.256 338.9 116.032 338.667 115.732C338.434 115.432 338.25 115.054 338.117 114.597C337.984 114.137 337.917 113.594 337.917 112.967C337.917 112.341 337.984 111.797 338.117 111.337C338.25 110.877 338.434 110.497 338.667 110.197C338.9 109.894 339.174 109.669 339.487 109.522C339.804 109.376 340.145 109.302 340.512 109.302C340.875 109.302 341.215 109.376 341.532 109.522C341.852 109.669 342.129 109.894 342.362 110.197C342.595 110.497 342.779 110.877 342.912 111.337C343.049 111.797 343.117 112.341 343.117 112.967ZM342.192 112.967C342.192 112.421 342.145 111.962 342.052 111.592C341.962 111.219 341.839 110.919 341.682 110.692C341.529 110.466 341.35 110.304 341.147 110.207C340.944 110.107 340.732 110.057 340.512 110.057C340.292 110.057 340.08 110.107 339.877 110.207C339.674 110.304 339.495 110.466 339.342 110.692C339.189 110.919 339.065 111.219 338.972 111.592C338.882 111.962 338.837 112.421 338.837 112.967C338.837 113.514 338.882 113.972 338.972 114.342C339.065 114.712 339.189 115.011 339.342 115.237C339.495 115.464 339.674 115.627 339.877 115.727C340.08 115.824 340.292 115.872 340.512 115.872C340.732 115.872 340.944 115.824 341.147 115.727C341.35 115.627 341.529 115.464 341.682 115.237C341.839 115.011 341.962 114.712 342.052 114.342C342.145 113.972 342.192 113.514 342.192 112.967ZM349.118 112.967C349.118 113.594 349.05 114.137 348.913 114.597C348.78 115.054 348.596 115.432 348.363 115.732C348.13 116.032 347.853 116.256 347.533 116.402C347.216 116.549 346.876 116.622 346.513 116.622C346.146 116.622 345.805 116.549 345.488 116.402C345.175 116.256 344.901 116.032 344.668 115.732C344.435 115.432 344.251 115.054 344.118 114.597C343.985 114.137 343.918 113.594 343.918 112.967C343.918 112.341 343.985 111.797 344.118 111.337C344.251 110.877 344.435 110.497 344.668 110.197C344.901 109.894 345.175 109.669 345.488 109.522C345.805 109.376 346.146 109.302 346.513 109.302C346.876 109.302 347.216 109.376 347.533 109.522C347.853 109.669 348.13 109.894 348.363 110.197C348.596 110.497 348.78 110.877 348.913 111.337C349.05 111.797 349.118 112.341 349.118 112.967ZM348.193 112.967C348.193 112.421 348.146 111.962 348.053 111.592C347.963 111.219 347.84 110.919 347.683 110.692C347.53 110.466 347.351 110.304 347.148 110.207C346.945 110.107 346.733 110.057 346.513 110.057C346.293 110.057 346.081 110.107 345.878 110.207C345.675 110.304 345.496 110.466 345.343 110.692C345.19 110.919 345.066 111.219 344.973 111.592C344.883 111.962 344.838 112.421 344.838 112.967C344.838 113.514 344.883 113.972 344.973 114.342C345.066 114.712 345.19 115.011 345.343 115.237C345.496 115.464 345.675 115.627 345.878 115.727C346.081 115.824 346.293 115.872 346.513 115.872C346.733 115.872 346.945 115.824 347.148 115.727C347.351 115.627 347.53 115.464 347.683 115.237C347.84 115.011 347.963 114.712 348.053 114.342C348.146 113.972 348.193 113.514 348.193 112.967Z" fill="#0A0A1F"/>
    <path d="M45.5888 237.347C45.5888 237.347 63.2986 213.993 87.9137 240.786C103.625 255.14 116.719 218.914 135.704 223.699C154.689 228.483 178.586 269.993 186.112 223.699C195.663 164.95 217.096 178.832 228.01 201.826C245.927 239.574 262.027 239.642 277.109 198.408C288.706 166.705 304.605 200.459 318.353 206.611C345.194 218.621 342.015 166.71 342.575 144.411" stroke="#F56B3F" stroke-width="2.5" stroke-linecap="round"/>
    <path opacity="0.1" d="M46.6846 261.439C46.6846 261.439 67.6821 234.645 92.2971 261.439C108.009 275.793 121.102 239.567 140.087 244.351C159.072 249.136 182.969 290.646 190.496 244.351C200.047 185.602 219.22 194.405 232.394 222.479C248.78 257.397 267.596 262.59 281.493 219.061C291.772 186.863 308.988 221.112 322.736 227.263C349.577 239.274 349.686 187.363 350.246 165.063" stroke="#F56B3F" stroke-width="3" stroke-linecap="round"/>
    <path d="M347.055 139.821C347.055 142.481 345.006 144.558 342.575 144.558C340.144 144.558 338.096 142.481 338.096 139.821C338.096 137.161 340.144 135.084 342.575 135.084C345.006 135.084 347.055 137.161 347.055 139.821Z" stroke="#F56B3F" stroke-width="2"/>
    <path d="M46.7809 240.79C46.7809 243.449 44.7326 245.526 42.3014 245.526C39.8702 245.526 37.822 243.449 37.822 240.79C37.822 238.13 39.8702 236.053 42.3014 236.053C44.7326 236.053 46.7809 238.13 46.7809 240.79Z" stroke="#F56B3F" stroke-width="2"/>
    <defs>
        <filter id="filter0_b_108_865" x="313.534" y="0" width="320" height="366.842" filterUnits="userSpaceOnUse" color-interpolation-filters="sRGB">
            <feFlood flood-opacity="0" result="BackgroundImageFix"/>
            <feGaussianBlur in="BackgroundImageFix" stdDeviation="20"/>
            <feComposite in2="SourceAlpha" operator="in" result="effect1_backgroundBlur_108_865"/>
            <feBlend mode="normal" in="SourceGraphic" in2="effect1_backgroundBlur_108_865" result="shape"/>
        </filter>
        <filter id="filter1_d_108_865" x="0" y="0" width="450.411" height="366.842" filterUnits="userSpaceOnUse" color-interpolation-filters="sRGB">
            <feFlood flood-opacity="0" result="BackgroundImageFix"/>
            <feColorMatrix in="SourceAlpha" type="matrix" values="0 0 0 0 0 0 0 0 0 0 0 0 0 0 0 0 0 0 127 0" result="hardAlpha"/>
            <feOffset dx="24"/>
            <feGaussianBlur stdDeviation="20"/>
            <feColorMatrix type="matrix" values="0 0 0 0 0.0374256 0 0 0 0 0.0407613 0 0 0 0 0.120819 0 0 0 0.03 0"/>
            <feBlend mode="normal" in2="BackgroundImageFix" result="effect1_dropShadow_108_865"/>
            <feBlend mode="normal" in="SourceGraphic" in2="effect1_dropShadow_108_865" result="shape"/>
        </filter>
        <linearGradient id="paint0_linear_108_865" x1="48.8768" y1="237.347" x2="48.8768" y2="340.611" gradientUnits="userSpaceOnUse">
            <stop/>
            <stop offset="1" stop-opacity="0"/>
        </linearGradient>
        <linearGradient id="paint1_linear_108_865" x1="97.0958" y1="237.347" x2="97.0958" y2="340.611" gradientUnits="userSpaceOnUse">
            <stop/>
            <stop offset="1" stop-opacity="0"/>
        </linearGradient>
        <linearGradient id="paint2_linear_108_865" x1="145.315" y1="237.347" x2="145.315" y2="340.611" gradientUnits="userSpaceOnUse">
            <stop/>
            <stop offset="1" stop-opacity="0"/>
        </linearGradient>
        <linearGradient id="paint3_linear_108_865" x1="193.534" y1="237.347" x2="193.534" y2="340.611" gradientUnits="userSpaceOnUse">
            <stop/>
            <stop offset="1" stop-opacity="0"/>
        </linearGradient>
        <linearGradient id="paint4_linear_108_865" x1="241.754" y1="237.347" x2="241.754" y2="340.611" gradientUnits="userSpaceOnUse">
            <stop/>
            <stop offset="1" stop-opacity="0"/>
        </linearGradient>
        <linearGradient id="paint5_linear_108_865" x1="289.973" y1="237.347" x2="289.973" y2="340.611" gradientUnits="userSpaceOnUse">
            <stop/>
            <stop offset="1" stop-opacity="0"/>
        </linearGradient>
        <linearGradient id="paint6_linear_108_865" x1="342.575" y1="237.347" x2="342.575" y2="340.611" gradientUnits="userSpaceOnUse">
            <stop/>
            <stop offset="1" stop-opacity="0"/>
        </linearGradient>
    </defs>
</svg>
