<svg width="236" height="280" viewBox="0 0 236 280" fill="none" xmlns="http://www.w3.org/2000/svg">
    <g clip-path="url(#clip0_108_931)">
        <rect width="233.154" height="277.477" rx="10" transform="matrix(0.999985 -0.00549281 -0.00539025 0.999985 2.34564 1.80737)" fill="white"/>
        <path d="M98.3872 121.609L98.3836 122.273L101.624 122.256L101.627 121.592L98.3872 121.609ZM98.393 120.529L98.3895 121.185L101.629 121.168L101.633 120.512L98.393 120.529ZM97.8034 120.101L102.251 120.076L102.237 122.684L97.7893 122.709L97.8034 120.101ZM96.5046 117.66L103.6 117.621L103.598 118.149L96.5017 118.188L96.5046 117.66ZM99.726 116.618L100.326 116.615L100.309 119.839L99.7087 119.842L99.726 116.618ZM99.3757 117.796L99.8786 117.993C99.1531 119.029 97.884 119.972 96.7056 120.443C96.6183 120.299 96.4435 120.084 96.3162 119.965C97.4702 119.567 98.7309 118.696 99.3757 117.796ZM100.648 117.797C101.291 118.666 102.566 119.483 103.748 119.852C103.612 119.965 103.435 120.19 103.346 120.35C102.156 119.909 100.881 118.996 100.159 117.992L100.648 117.797ZM96.6027 123.203L103.459 123.166L103.456 123.702L96.5998 123.739L96.6027 123.203ZM106.107 120.143L110.771 120.117L110.75 123.941L110.15 123.945L110.168 120.601L106.68 120.62L106.662 123.964L106.086 123.967L106.107 120.143ZM104.504 119.096L111.568 119.057L111.566 119.553L104.502 119.592L104.504 119.096ZM105.094 118.021L111.11 117.988L111.108 118.468L105.092 118.501L105.094 118.021ZM106.493 121.165L110.421 121.143L110.419 121.567L106.491 121.589L106.493 121.165ZM106.488 122.157L110.416 122.135L110.414 122.551L106.486 122.573L106.488 122.157ZM106.426 123.165L110.41 123.143L110.408 123.623L106.424 123.645L106.426 123.165ZM110.654 116.622L111.035 117.06C109.546 117.364 107.089 117.498 105.113 117.517C105.098 117.381 105.043 117.173 104.988 117.045C106.94 117.019 109.38 116.893 110.654 116.622ZM107.371 117.192L107.994 117.317C107.447 119.256 106.462 121.093 104.664 122.167C104.585 122.039 104.41 121.816 104.29 121.705C105.992 120.72 106.937 118.963 107.371 117.192ZM113.019 117.041L115.315 117.029L115.289 121.805L112.993 121.817L112.996 121.257L114.732 121.248L114.752 117.584L113.016 117.593L113.019 117.041ZM113.016 119.113L114.984 119.102L114.981 119.646L113.013 119.657L113.016 119.113ZM116.404 116.871L119.1 116.856L119.097 117.416L116.401 117.431L116.404 116.871ZM116.393 118.815L119.089 118.8L119.086 119.352L116.39 119.367L116.393 118.815ZM116.335 120.783L119.063 120.768L119.06 121.312L116.332 121.327L116.335 120.783ZM112.691 117.043L113.251 117.04L113.221 122.56L112.661 122.563L112.691 117.043ZM118.876 116.857L119.476 116.854L119.442 123.086C119.44 123.462 119.343 123.646 119.087 123.752C118.83 123.849 118.39 123.859 117.702 123.863C117.671 123.703 117.576 123.44 117.489 123.28C118.001 123.294 118.505 123.283 118.649 123.282C118.793 123.273 118.842 123.225 118.842 123.081L118.876 116.857ZM116.052 116.873L116.644 116.869L116.629 119.725C116.621 121.069 116.412 122.838 114.966 123.95C114.878 123.831 114.656 123.624 114.528 123.545C115.886 122.497 116.03 120.977 116.037 119.729L116.052 116.873ZM120.529 121.76C120.506 121.64 120.412 121.344 120.34 121.193C120.517 121.152 120.726 120.967 121.015 120.693C121.313 120.412 122.254 119.334 122.9 118.283L123.41 118.608C122.669 119.668 121.783 120.697 120.931 121.438L120.931 121.454C120.931 121.454 120.53 121.632 120.529 121.76ZM120.529 121.76L120.508 121.272L120.813 121.062L123.263 120.705C123.254 120.865 123.269 121.089 123.284 121.217C121.002 121.589 120.714 121.663 120.529 121.76ZM120.492 119.832C120.46 119.704 120.366 119.409 120.295 119.249C120.447 119.208 120.6 119.024 120.802 118.75C121.003 118.477 121.657 117.45 122.054 116.464L122.636 116.716C122.143 117.727 121.514 118.763 120.894 119.494L120.894 119.502C120.894 119.502 120.492 119.704 120.492 119.832ZM120.492 119.832L120.486 119.384L120.783 119.199L122.584 119.021C122.551 119.181 122.534 119.405 122.533 119.525C120.884 119.718 120.644 119.759 120.492 119.832ZM120.316 122.809C121.052 122.693 122.173 122.479 123.263 122.273L123.3 122.809C122.266 123.03 121.201 123.236 120.409 123.4L120.316 122.809ZM123.828 122.654L127.084 122.636L127.081 123.196L123.825 123.214L123.828 122.654ZM123.82 119.822L127.14 119.804L127.137 120.364L123.817 120.382L123.82 119.822ZM125.217 117.318L125.777 117.315L125.747 122.883L125.187 122.886L125.217 117.318ZM123.515 116.904L127.483 116.882L127.447 123.642L126.871 123.645L126.904 117.485L124.064 117.501L124.031 123.732L123.479 123.736L123.515 116.904Z" fill="#999999"/>
        <path d="M84.4963 97.7933L84.4701 102.665L64.9343 102.773L64.9606 97.9006L71.8725 97.8626L71.9752 78.8069C71.9775 78.3909 71.9877 77.9669 72.0061 77.5348C72.0244 77.1027 72.0508 76.6626 72.0852 76.2144L67.5048 80.0314C67.1835 80.2732 66.8707 80.4269 66.5664 80.4925C66.262 80.5582 65.974 80.5678 65.7023 80.5213C65.4306 80.4588 65.1911 80.3641 64.9838 80.2372C64.7766 80.0944 64.6174 79.9513 64.5062 79.8079L62.4333 77.0114L73.1861 67.8807L78.634 67.8508L78.4724 97.8264L84.4963 97.7933ZM110.834 96.4487C111.554 96.4447 112.113 96.6416 112.511 97.0394C112.925 97.4371 113.13 97.964 113.126 98.62L113.105 102.508L88.9617 102.641L88.9734 100.481C88.9756 100.065 89.066 99.6161 89.2446 99.1351C89.4233 98.6382 89.7217 98.1886 90.1398 97.7863L100.515 87.3857C101.4 86.5009 102.181 85.6567 102.857 84.853C103.533 84.0333 104.098 83.2382 104.55 82.4678C105.002 81.6814 105.342 80.8875 105.571 80.0863C105.799 79.2851 105.915 78.4445 105.92 77.5645C105.929 76.0125 105.535 74.8387 104.739 74.0431C103.944 73.2315 102.818 72.8297 101.362 72.8377C100.722 72.8413 100.129 72.9405 99.5843 73.1355C99.0554 73.3144 98.574 73.565 98.1403 73.8874C97.7226 74.2097 97.3606 74.5876 97.0543 75.0213C96.7479 75.455 96.5214 75.9282 96.3746 76.441C96.0823 77.2425 95.6874 77.7807 95.19 78.0554C94.7086 78.314 94.0203 78.3738 93.1251 78.2347L89.6245 77.63C89.8897 75.9326 90.3777 74.442 91.0886 73.1582C91.7995 71.8743 92.6852 70.8055 93.7457 69.9517C94.8063 69.0979 96.0177 68.4593 97.3799 68.0358C98.7422 67.5964 100.207 67.3723 101.775 67.3637C103.423 67.3547 104.918 67.5944 106.259 68.083C107.617 68.5556 108.773 69.2292 109.728 70.1039C110.684 70.9626 111.422 72.0065 111.943 73.2356C112.465 74.4647 112.721 75.8232 112.713 77.3112C112.706 78.5912 112.516 79.7762 112.142 80.8662C111.768 81.9562 111.259 82.9989 110.613 83.9944C109.984 84.9738 109.251 85.9298 108.414 86.8624C107.577 87.7949 106.692 88.7358 105.759 89.6848L98.3262 97.2853C99.1435 97.0409 99.9524 96.8524 100.753 96.72C101.554 96.5716 102.306 96.4955 103.01 96.4916L110.834 96.4487ZM142.003 84.926C141.986 87.9659 141.644 90.6077 140.976 92.8512C140.308 95.0948 139.394 96.9558 138.234 98.4341C137.074 99.8964 135.7 100.992 134.112 101.721C132.541 102.433 130.843 102.794 129.019 102.804C127.195 102.815 125.501 102.472 123.937 101.776C122.372 101.065 121.026 99.9845 119.898 98.5348C118.77 97.069 117.884 95.218 117.24 92.9816C116.612 90.7452 116.307 88.107 116.323 85.067C116.339 82.0271 116.674 79.3933 117.326 77.1659C117.994 74.9223 118.9 73.0694 120.043 71.6072C121.187 70.129 122.545 69.0335 124.117 68.3209C125.689 67.5923 127.387 67.223 129.211 67.213C131.035 67.203 132.729 67.5537 134.293 68.265C135.873 68.9603 137.235 70.0408 138.379 71.5065C139.523 72.9561 140.417 74.7991 141.061 77.0355C141.705 79.2558 142.019 81.886 142.003 84.926ZM135.163 84.9635C135.176 82.4996 135.011 80.4686 134.668 78.8705C134.34 77.2724 133.899 76.0109 133.344 75.086C132.789 74.161 132.145 73.5166 131.411 73.1527C130.693 72.7886 129.95 72.6087 129.182 72.6129C128.414 72.6171 127.669 72.8052 126.947 73.1772C126.241 73.549 125.605 74.2005 125.04 75.1316C124.491 76.0625 124.044 77.3289 123.7 78.9308C123.355 80.5326 123.176 82.5655 123.163 85.0294C123.15 87.5094 123.307 89.5485 123.634 91.1466C123.961 92.7447 124.394 94.0063 124.933 94.9313C125.488 95.8562 126.117 96.5007 126.819 96.8648C127.537 97.2289 128.28 97.4088 129.048 97.4046C129.816 97.4004 130.561 97.2123 131.283 96.8403C132.021 96.4683 132.672 95.8167 133.237 94.8857C133.802 93.9546 134.257 92.6882 134.602 91.0863C134.962 89.4844 135.149 87.4435 135.163 84.9635ZM153.95 81.8365L155.366 81.8287C156.55 81.8222 157.408 81.4495 157.94 80.7106L166.812 68.8784C167.231 68.3161 167.689 67.9296 168.186 67.7189C168.683 67.4922 169.292 67.3768 170.012 67.3729L176.252 67.3386L165.087 81.6793C164.362 82.6112 163.614 83.2793 162.844 83.6835C163.403 83.9044 163.905 84.1977 164.351 84.5632C164.797 84.9127 165.227 85.3824 165.64 85.9721L176.928 102.157L170.52 102.193C170.104 102.195 169.744 102.165 169.441 102.102C169.153 102.04 168.897 101.953 168.674 101.843C168.451 101.732 168.259 101.597 168.1 101.438C167.941 101.263 167.79 101.064 167.647 100.84L158.763 88.3617C158.461 87.9314 158.103 87.6294 157.688 87.4557C157.273 87.266 156.69 87.1732 155.938 87.1773L153.922 87.1884L153.84 102.284L146.64 102.324L146.828 67.5002L154.028 67.4607L153.95 81.8365Z" fill="#151522"/>
        <path d="M100.618 39.4143L102.833 38.1302C104.24 39.7784 105.692 41.9063 106.163 43.5117L103.756 44.9408C103.332 43.4072 101.977 41.1108 100.618 39.4143ZM92.8226 38.5692L94.8473 36.9501C96.3541 37.9018 98.0261 39.3566 98.8844 40.4078L96.7625 42.2674C95.9286 41.144 94.2573 39.5453 92.8226 38.5692ZM89.1507 38.5894L92.1986 38.5726L92.1748 42.9886C92.1706 43.7805 92.434 43.8751 93.874 43.8672C94.498 43.8637 97.186 43.849 98.002 43.8445C99.1299 43.8383 99.3235 43.5493 99.4774 41.7005C100.123 42.1289 101.369 42.5541 102.208 42.7174C101.832 45.6954 100.94 46.4443 98.2518 46.459C97.4839 46.4632 94.2919 46.4808 93.5719 46.4847C89.996 46.5044 89.1124 45.6933 89.1266 43.0533L89.1507 38.5894ZM85.4769 38.9455L88.2102 39.4345C87.9108 41.548 87.1779 43.952 86.1615 45.5175L83.456 44.3324C84.3747 43.0794 85.1306 40.8673 85.4769 38.9455ZM88.4538 25.3938L90.932 24.2282C91.9575 25.4225 93.005 27.0007 93.3826 28.1746L90.7117 29.4852C90.3818 28.359 89.431 26.6603 88.4538 25.3938ZM98.6603 24.1138L101.678 25.3211C100.539 27.2473 99.3041 29.342 98.3128 30.6914L95.9908 29.6002C96.9347 28.1311 98.051 25.845 98.6603 24.1138ZM89.9326 31.5534L89.9164 34.5533L99.6603 34.4998L99.6764 31.4998L89.9326 31.5534ZM86.8271 28.8825L102.979 28.7938L102.934 37.1937L86.7818 37.2824L86.8271 28.8825ZM111.139 33.1168L116.683 33.0864L116.669 35.7263L111.125 35.7568L111.139 33.1168ZM115.579 33.0924L118.387 33.077C118.387 33.077 118.359 33.7971 118.357 34.1331C118.234 39.2216 118.102 41.3582 117.546 42.1052C117.063 42.7078 116.582 42.9265 115.885 43.0503C115.237 43.1499 114.205 43.1555 113.077 43.1377C113.034 42.298 112.728 41.1717 112.3 40.4541C113.163 40.5454 113.979 40.5409 114.363 40.5388C114.699 40.5369 114.915 40.4877 115.109 40.2467C115.399 39.8611 115.504 38.1806 115.577 33.5244L115.579 33.0924ZM122.844 25.5409L124.581 23.7794C125.897 24.4681 127.667 25.5624 128.527 26.3496L126.668 28.3037C125.881 27.4681 124.183 26.3015 122.844 25.5409ZM125.642 31.6932L128.542 32.3732C126.493 38.6482 122.938 43.5395 118.171 46.4936C117.742 45.896 116.692 44.7018 116.096 44.1291C120.717 41.6318 123.956 37.2702 125.642 31.6932ZM111.336 27.692L129.84 27.5903L129.825 30.4223L111.321 30.5239L111.336 27.692ZM109.416 27.7025L112.44 27.6859L112.402 34.7418C112.383 38.3417 111.946 43.6719 109.745 46.9239C109.268 46.3505 107.978 45.3016 107.307 44.9693C109.171 42.0792 109.362 37.8784 109.379 34.7344L109.416 27.7025ZM119.18 24.073L122.204 24.0564C121.983 33.8492 124.139 43.4609 126.563 43.4476C127.115 43.4446 127.409 42.219 127.57 39.1943C128.214 39.8627 129.242 40.529 130.009 40.8128C129.529 45.2793 128.563 46.3645 126.307 46.3769C121.075 46.4056 119.193 35.0165 119.18 24.073ZM132.21 28.6333L153.45 28.5166L153.434 31.4446L132.195 31.5612L132.21 28.6333ZM137.096 39.5019L148.231 39.4408L148.216 42.3687L137.08 42.4299L137.096 39.5019ZM141.283 23.9276L144.355 23.9108L144.234 46.4464L141.162 46.4633L141.283 23.9276ZM140.389 29.6443L143.024 30.4698C140.932 35.713 137.499 40.3157 133.285 42.9787C132.809 42.2614 131.855 41.1627 131.21 40.5902C135.158 38.4086 138.661 34.0696 140.389 29.6443ZM145.188 29.6899C146.917 33.9522 150.399 38.1089 154.419 40.1748C153.696 40.7787 152.658 41.9844 152.173 42.803C147.963 40.2342 144.628 35.6687 142.568 30.5683L145.188 29.6899Z" fill="#171725"/>
        <path fill-rule="evenodd" clip-rule="evenodd" d="M162.928 246.709L163.207 194.913C163.222 192.246 165.395 190.073 168.061 190.058C170.728 190.044 172.877 192.193 172.863 194.86L172.584 246.656L162.928 246.709Z" fill="#0066FF"/>
        <path fill-rule="evenodd" clip-rule="evenodd" d="M147.402 246.795L147.584 212.935C147.599 210.269 149.772 208.095 152.438 208.081C155.105 208.066 157.254 210.216 157.24 212.882L157.058 246.742L147.402 246.795Z" fill="#2FE1AC"/>
        <path fill-rule="evenodd" clip-rule="evenodd" d="M134.664 246.865L134.903 202.454C134.917 199.787 137.091 197.614 139.757 197.599C142.423 197.585 144.573 199.734 144.559 202.401L144.319 246.812L134.664 246.865Z" fill="#0066FF"/>
        <path fill-rule="evenodd" clip-rule="evenodd" d="M119.137 246.95L119.263 223.641C119.277 220.975 121.45 218.802 124.117 218.787C126.783 218.772 128.933 220.922 128.919 223.588L128.793 246.897L119.137 246.95Z" fill="#2FE1AC"/>
        <path fill-rule="evenodd" clip-rule="evenodd" d="M106.399 247.02L106.601 209.643C106.615 206.977 108.788 204.803 111.454 204.789C114.121 204.774 116.271 206.924 116.256 209.59L116.055 246.967L106.399 247.02Z" fill="#0066FF"/>
        <path fill-rule="evenodd" clip-rule="evenodd" d="M90.8727 247.105L91.0173 220.28C91.0317 217.613 93.2049 215.44 95.8712 215.425C98.5376 215.411 100.687 217.56 100.673 220.227L100.528 247.052L90.8727 247.105Z" fill="#2FE1AC"/>
        <path fill-rule="evenodd" clip-rule="evenodd" d="M78.1344 247.175L78.3927 199.247C78.4071 196.581 80.5803 194.408 83.2466 194.393C85.913 194.378 88.0629 196.528 88.0485 199.194L87.7901 247.122L78.1344 247.175Z" fill="#0066FF"/>
        <path fill-rule="evenodd" clip-rule="evenodd" d="M62.6082 247.261L62.8286 206.367C62.843 203.7 65.0162 201.527 67.6825 201.512C70.3489 201.498 72.4987 203.647 72.4844 206.314L72.2639 247.207L62.6082 247.261Z" fill="#2FE1AC"/>
        <path fill-rule="evenodd" clip-rule="evenodd" d="M191.08 246.555L191.359 194.87C191.373 192.142 193.597 189.918 196.325 189.903C199.054 189.888 201.254 192.088 201.239 194.816L200.96 246.5L191.08 246.555Z" fill="#0066FF"/>
        <path fill-rule="evenodd" clip-rule="evenodd" d="M175.554 246.64L175.679 223.444C175.694 220.715 177.918 218.492 180.646 218.477C183.374 218.462 185.574 220.661 185.559 223.39L185.434 246.586L175.554 246.64Z" fill="#2FE1AC"/>
        <path fill-rule="evenodd" clip-rule="evenodd" d="M49.8698 247.33L50.0903 206.437C50.1046 203.77 52.2778 201.597 54.9441 201.582C57.6105 201.568 59.7604 203.717 59.746 206.384L59.5256 247.277L49.8698 247.33Z" fill="#0066FF"/>
        <path fill-rule="evenodd" clip-rule="evenodd" d="M34.3436 247.416L34.4692 224.107C34.4836 221.441 36.6568 219.268 39.3231 219.253C41.9895 219.238 44.1394 221.388 44.125 224.054L43.9993 247.363L34.3436 247.416Z" fill="#2FE1AC"/>
        <path d="M51.759 148.786L55.6199 148.764L55.6157 149.556L51.7547 149.578L51.759 148.786ZM53.9389 150.457L54.6869 150.452L54.6488 157.525L53.9008 157.529L53.9389 150.457ZM51.6381 154.891C52.6729 154.731 54.2472 154.481 55.7775 154.23L55.7956 154.956C54.3862 155.217 52.9107 155.5 51.8098 155.693L51.6381 154.891ZM52.0989 153.074C52.0558 152.909 51.9477 152.546 51.8498 152.338C52.0371 152.293 52.193 151.94 52.3826 151.444C52.5721 150.981 53.1651 149.13 53.394 147.479L54.2071 147.639C53.8566 149.401 53.2525 151.285 52.6514 152.598L52.6513 152.62C52.6513 152.62 52.0998 152.898 52.0989 153.074ZM52.0989 153.074L52.1026 152.381L52.5548 152.158L55.6237 152.141L55.6196 152.9L52.8917 152.915C52.5287 152.917 52.1983 152.985 52.0989 153.074ZM56.1464 149.036L61.6024 149.007L61.5983 149.766L56.1424 149.795L56.1464 149.036ZM57.7577 152.129C58.4283 154.238 59.8484 156.056 61.7693 156.815C61.5814 156.981 61.3377 157.291 61.2156 157.5C59.2295 156.609 57.8099 154.681 57.0417 152.32L57.7577 152.129ZM59.8258 152.085L60.5838 152.268C59.9107 154.703 58.5152 156.481 56.2983 157.593C56.1892 157.429 55.9377 157.144 55.7735 157.013C57.8909 155.99 59.2639 154.31 59.8258 152.085ZM58.0015 147.706L58.7072 147.383C59.002 147.8 59.329 148.348 59.4811 148.699L58.7422 149.066C58.6011 148.704 58.2853 148.123 58.0015 147.706ZM59.615 150.392L60.2219 150.037C60.8118 150.782 61.5215 151.768 61.8371 152.393L61.1859 152.815C60.8813 152.178 60.2049 151.148 59.615 150.392ZM57.5378 150.074L58.2625 150.312C57.8066 151.227 57.141 152.265 56.5324 152.928C56.4232 152.786 56.1609 152.468 55.9967 152.326C56.5719 151.74 57.1595 150.868 57.5378 150.074ZM67.3996 150.955L71.9205 150.93L71.9161 151.755L67.3952 151.78L67.3996 150.955ZM62.7626 156.194L72.6404 156.14L72.636 156.965L62.7581 157.019L62.7626 156.194ZM66.9449 147.558L67.8139 147.553L67.7651 156.606L66.8961 156.611L66.9449 147.558ZM76.0285 147.926L81.7705 147.895L81.7661 148.698L76.0242 148.729L76.0285 147.926ZM76.0143 150.577L81.8002 150.546L81.7959 151.337L76.01 151.369L76.0143 150.577ZM75.9119 153.24L81.7308 153.208L81.7265 154L75.9076 154.032L75.9119 153.24ZM75.5225 147.929L76.3585 147.925L76.3402 151.323C76.33 153.226 76.041 155.824 74.1401 157.484C74.0201 157.309 73.6917 157.014 73.5163 156.894C75.2956 155.333 75.4947 153.099 75.5042 151.328L75.5225 147.929ZM81.4075 147.897L82.2654 147.892L82.2206 156.219C82.2174 156.802 82.0619 157.089 81.6431 157.234C81.2134 157.379 80.4873 157.394 79.2993 157.401C79.2456 157.159 79.0938 156.764 78.952 156.534C79.8648 156.562 80.7669 156.546 81.0199 156.545C81.2729 156.532 81.3613 156.455 81.3626 156.213L81.4075 147.897Z" fill="#C4C4C4"/>
        <path d="M89.1338 151.446C89.31 151.408 89.4788 151.381 89.6402 151.366C89.8016 151.347 89.9575 151.337 90.1078 151.336C90.5258 151.334 90.894 151.394 91.2123 151.517C91.5306 151.64 91.7974 151.811 92.0125 152.029C92.2277 152.248 92.3894 152.506 92.4978 152.802C92.6062 153.095 92.6595 153.412 92.6577 153.753C92.6554 154.174 92.5782 154.56 92.426 154.909C92.2774 155.258 92.0705 155.558 91.8051 155.809C91.5398 156.056 91.2253 156.248 90.8616 156.386C90.5015 156.524 90.1088 156.594 89.6835 156.596C89.4342 156.597 89.1978 156.573 88.9744 156.523C88.751 156.473 88.5406 156.406 88.343 156.323C88.1492 156.236 87.9682 156.138 87.8001 156.029C87.6358 155.916 87.4879 155.798 87.3566 155.674L87.7777 155.094C87.8664 154.969 87.9822 154.906 88.1252 154.905C88.2168 154.905 88.3102 154.933 88.4052 154.992C88.5002 155.05 88.608 155.113 88.7287 155.182C88.853 155.251 88.9974 155.315 89.1621 155.372C89.3305 155.43 89.532 155.458 89.7666 155.457C90.016 155.456 90.2362 155.414 90.4273 155.332C90.6184 155.251 90.7766 155.138 90.9021 154.994C91.0312 154.847 91.1275 154.674 91.1909 154.476C91.2579 154.274 91.2921 154.055 91.2934 153.821C91.2957 153.388 91.171 153.051 90.9193 152.811C90.6713 152.567 90.3017 152.446 89.8104 152.448C89.4327 152.45 89.0455 152.522 88.6487 152.664L87.8031 152.426L88.4839 148.562L92.4108 148.54L92.4077 149.118C92.4066 149.312 92.3453 149.47 92.2236 149.592C92.102 149.713 91.8963 149.775 91.6067 149.777L89.4232 149.789L89.1338 151.446ZM93.8792 150.749C93.9362 150.367 94.0444 150.033 94.2036 149.746C94.3628 149.455 94.5603 149.214 94.796 149.022C95.0353 148.827 95.3074 148.68 95.6123 148.583C95.9208 148.483 96.2511 148.431 96.6031 148.429C96.9697 148.427 97.2994 148.479 97.5922 148.583C97.8886 148.684 98.1409 148.828 98.3488 149.014C98.5569 149.196 98.7152 149.411 98.8238 149.66C98.9362 149.909 98.9915 150.178 98.99 150.468C98.9886 150.721 98.9581 150.944 98.8984 151.139C98.8423 151.33 98.7608 151.497 98.6537 151.641C98.5466 151.784 98.4139 151.906 98.2557 152.006C98.0975 152.106 97.9192 152.189 97.7209 152.256C98.1967 152.404 98.5512 152.631 98.7842 152.938C99.0172 153.245 99.1324 153.631 99.1299 154.097C99.1278 154.493 99.0526 154.843 98.9043 155.148C98.7559 155.453 98.5566 155.711 98.3061 155.922C98.0557 156.128 97.7652 156.286 97.4346 156.394C97.1077 156.502 96.7609 156.557 96.3943 156.559C95.9946 156.561 95.6465 156.517 95.35 156.427C95.0535 156.337 94.7957 156.203 94.5767 156.025C94.3577 155.846 94.1719 155.627 94.0193 155.368C93.8667 155.108 93.7363 154.808 93.6282 154.468L94.229 154.217C94.387 154.15 94.5338 154.133 94.6692 154.165C94.8084 154.194 94.9088 154.266 94.9705 154.383C95.0359 154.511 95.1067 154.638 95.183 154.762C95.263 154.886 95.3577 154.997 95.4672 155.096C95.5767 155.19 95.7046 155.269 95.8509 155.33C96.0009 155.388 96.1786 155.416 96.3839 155.415C96.6149 155.414 96.8168 155.376 96.9895 155.302C97.1623 155.224 97.3058 155.124 97.4201 155.003C97.5381 154.881 97.625 154.747 97.6808 154.6C97.7402 154.449 97.7704 154.298 97.7712 154.148C97.7722 153.957 97.753 153.785 97.7135 153.631C97.674 153.474 97.5904 153.341 97.4626 153.231C97.3349 153.122 97.1502 153.037 96.9086 152.976C96.6706 152.915 96.3499 152.885 95.9466 152.888L95.9518 151.92C96.2855 151.914 96.5625 151.882 96.7828 151.822C97.0031 151.762 97.1777 151.68 97.3066 151.577C97.4391 151.47 97.5315 151.343 97.5836 151.196C97.6357 151.049 97.6623 150.887 97.6632 150.711C97.6652 150.337 97.5623 150.054 97.3543 149.861C97.1464 149.667 96.8682 149.572 96.5199 149.574C96.3586 149.575 96.21 149.599 96.074 149.648C95.9381 149.692 95.8149 149.757 95.7045 149.842C95.5977 149.923 95.5074 150.019 95.4335 150.13C95.3595 150.24 95.3039 150.361 95.2665 150.494C95.2033 150.663 95.1202 150.775 95.0172 150.83C94.9179 150.886 94.7767 150.9 94.5935 150.871L93.8792 150.749ZM103.765 150.403C103.763 150.704 103.711 150.975 103.607 151.218C103.506 151.46 103.371 151.668 103.202 151.841C103.032 152.011 102.835 152.142 102.611 152.235C102.387 152.328 102.154 152.375 101.912 152.376C101.648 152.378 101.404 152.333 101.181 152.243C100.958 152.153 100.764 152.023 100.6 151.856C100.44 151.684 100.314 151.478 100.224 151.236C100.134 150.995 100.089 150.724 100.091 150.423C100.093 150.115 100.14 149.836 100.233 149.586C100.326 149.336 100.454 149.125 100.616 148.952C100.782 148.778 100.977 148.645 101.201 148.553C101.425 148.456 101.669 148.407 101.933 148.405C102.197 148.404 102.441 148.45 102.664 148.544C102.891 148.635 103.086 148.766 103.25 148.937C103.414 149.109 103.542 149.319 103.632 149.568C103.722 149.816 103.767 150.095 103.765 150.403ZM102.72 150.409C102.721 150.196 102.7 150.018 102.657 149.875C102.617 149.733 102.561 149.617 102.488 149.53C102.419 149.442 102.335 149.38 102.236 149.344C102.141 149.304 102.039 149.285 101.929 149.285C101.819 149.286 101.716 149.307 101.62 149.348C101.525 149.385 101.442 149.448 101.372 149.536C101.305 149.624 101.251 149.74 101.21 149.883C101.169 150.027 101.148 150.205 101.147 150.417C101.146 150.623 101.165 150.795 101.205 150.934C101.244 151.069 101.297 151.179 101.362 151.263C101.432 151.347 101.514 151.407 101.609 151.443C101.704 151.479 101.807 151.497 101.917 151.496C102.027 151.496 102.129 151.477 102.225 151.44C102.324 151.403 102.409 151.342 102.479 151.257C102.553 151.172 102.61 151.062 102.651 150.926C102.696 150.786 102.719 150.614 102.72 150.409ZM106.42 148.678C106.468 148.623 106.523 148.573 106.585 148.528C106.652 148.484 106.743 148.462 106.861 148.461L107.851 148.455L101.902 156.237C101.854 156.296 101.797 156.346 101.731 156.387C101.665 156.424 101.584 156.443 101.489 156.443L100.477 156.449L106.42 148.678ZM108.236 154.536C108.234 154.837 108.182 155.108 108.078 155.351C107.977 155.593 107.842 155.801 107.673 155.975C107.503 156.144 107.306 156.277 107.082 156.374C106.858 156.467 106.625 156.514 106.383 156.515C106.119 156.517 105.875 156.472 105.652 156.382C105.429 156.288 105.235 156.157 105.071 155.989C104.911 155.817 104.786 155.611 104.695 155.37C104.605 155.128 104.56 154.857 104.562 154.556C104.564 154.248 104.611 153.969 104.704 153.72C104.797 153.47 104.925 153.258 105.087 153.085C105.253 152.912 105.448 152.779 105.672 152.686C105.896 152.589 106.14 152.54 106.404 152.539C106.668 152.537 106.912 152.584 107.135 152.678C107.362 152.768 107.556 152.899 107.716 153.071C107.88 153.242 108.007 153.452 108.098 153.701C108.191 153.95 108.238 154.228 108.236 154.536ZM107.186 154.542C107.187 154.329 107.167 154.151 107.128 154.009C107.088 153.866 107.032 153.751 106.959 153.663C106.89 153.576 106.806 153.514 106.707 153.478C106.612 153.438 106.51 153.418 106.4 153.419C106.29 153.419 106.187 153.44 106.091 153.481C105.996 153.518 105.913 153.581 105.843 153.669C105.773 153.758 105.717 153.873 105.676 154.017C105.638 154.16 105.619 154.338 105.618 154.55C105.617 154.756 105.634 154.928 105.67 155.067C105.71 155.206 105.764 155.318 105.833 155.402C105.903 155.486 105.985 155.546 106.08 155.582C106.175 155.618 106.278 155.636 106.388 155.635C106.498 155.635 106.6 155.616 106.696 155.579C106.795 155.541 106.88 155.48 106.95 155.396C107.024 155.311 107.081 155.199 107.122 155.059C107.163 154.92 107.184 154.747 107.186 154.542Z" fill="#00C48C"/>
        <path d="M172.537 155.597L163.247 148.989L153.885 155.699" stroke="#00C48C" stroke-width="2" stroke-linecap="round" stroke-linejoin="round"/>
    </g>
    <defs>
        <clipPath id="clip0_108_931">
            <rect width="233.154" height="277.477" fill="white" transform="matrix(0.999985 -0.00549281 -0.00539025 0.999985 2.34564 1.80737)"/>
        </clipPath>
    </defs>
</svg>
